<svg width="51" height="50" viewBox="0 0 51 50" fill="none" xmlns="http://www.w3.org/2000/svg">
<path d="M0.0634687 34.1344C0.0634687 34.1436 0.0659415 34.1529 0.06759 34.1646C0.0700628 34.1764 0.0700628 34.1881 0.0700628 34.1974L0.0634687 34.1352V34.1344ZM0.00164854 33.7524C0.00164854 33.6878 0.0107155 33.6273 0.0288494 33.5719C0.0469833 33.5165 0.0816026 33.4678 0.128586 33.4284C0.176393 33.3889 0.242335 33.3587 0.32641 33.336C0.410486 33.3125 0.517641 33.3016 0.649524 33.3016H4.0826C4.38264 33.3016 4.67195 33.3461 4.94891 33.4334C5.22669 33.5216 5.48139 33.6466 5.71136 33.8112C5.94133 33.9757 6.13915 34.1772 6.30483 34.4139C6.47051 34.6498 6.59168 34.9193 6.66916 35.2199C6.70542 35.3634 6.73263 35.512 6.74911 35.6673C6.76477 35.8226 6.76724 35.9846 6.75818 36.1517C6.74911 36.3372 6.71696 36.5035 6.66256 36.6546C6.60816 36.8048 6.54881 36.9375 6.48287 37.0483C6.41693 37.1599 6.35346 37.2473 6.29164 37.3144C6.22982 37.3816 6.18449 37.4235 6.15729 37.437C6.1985 37.4555 6.27104 37.5041 6.37572 37.5856C6.4804 37.667 6.58755 37.7803 6.69636 37.9264C6.80516 38.0725 6.90572 38.2505 6.99392 38.4595C7.08294 38.6677 7.1324 38.9069 7.14641 39.1756C7.16866 39.4812 7.14888 39.7708 7.08459 40.0445C7.01617 40.392 6.89088 40.7068 6.70955 40.9897C6.52738 41.2727 6.30895 41.5136 6.05425 41.7126C5.79955 41.9115 5.51518 42.0651 5.20114 42.1709C4.88709 42.2775 4.55985 42.3304 4.21861 42.3304H1.17458C0.997365 42.3304 0.842402 42.2977 0.708047 42.233C0.573691 42.1684 0.462415 42.0828 0.373394 41.9762C0.284373 41.8695 0.216783 41.747 0.170624 41.6101C0.125289 41.4733 0.102209 41.3323 0.102209 41.1837V34.4903C0.102209 34.4391 0.0972637 34.3904 0.0881967 34.3443C0.0791298 34.2981 0.0700628 34.2494 0.0609959 34.1982L0.0544017 34.1361C0.0181339 33.9967 0 33.8699 0 33.7541L0.00164854 33.7524ZM2.20574 38.4091V40.3274H4.09579C4.20954 40.3274 4.32576 40.3064 4.44198 40.2644C4.55821 40.2224 4.66041 40.1603 4.75108 40.0789C4.84175 39.9975 4.91676 39.8984 4.97364 39.78C5.03051 39.6617 5.05771 39.5273 5.05771 39.3745C5.05771 39.2167 5.03051 39.0782 4.97611 38.9573C4.92171 38.8364 4.84835 38.7348 4.75768 38.6534C4.66701 38.572 4.56398 38.5124 4.45023 38.4704C4.33648 38.4284 4.21861 38.4074 4.09497 38.4074H2.20492L2.20574 38.4091ZM2.20574 35.198V36.7343H4.0282C4.12382 36.7343 4.21696 36.7133 4.30598 36.6714C4.395 36.6294 4.47166 36.574 4.5376 36.5043C4.60354 36.4346 4.65629 36.354 4.69421 36.2608C4.73295 36.1685 4.75108 36.0686 4.75108 35.962C4.75108 35.8512 4.73048 35.7487 4.68926 35.6564C4.64805 35.5641 4.59365 35.4826 4.52523 35.4129C4.45682 35.3433 4.37934 35.2904 4.29114 35.2534C4.20212 35.2165 4.10898 35.198 4.01336 35.198H2.20492H2.20574ZM14.7495 41.6899C14.7495 41.8981 14.6992 42.0584 14.597 42.1692C14.4948 42.2809 14.3398 42.3363 14.1354 42.3363C13.931 42.3363 13.762 42.2733 13.6285 42.1508C13.4941 42.0282 13.3853 41.8679 13.3029 41.6689L12.866 40.4457L12.6064 40.4323V38.875C12.6064 38.7223 12.636 38.5787 12.6929 38.4461C12.7498 38.3143 12.8273 38.1984 12.9245 38.0985C13.0226 37.9986 13.1364 37.9222 13.2658 37.8668C13.3952 37.8114 13.532 37.7837 13.6779 37.7837C13.8279 37.7837 13.9689 37.8114 14.1008 37.8668C14.2326 37.9222 14.3464 37.9986 14.442 38.0985C14.5376 38.1984 14.6126 38.3143 14.667 38.4461C14.7214 38.5779 14.7486 38.7223 14.7486 38.875V41.6899H14.7495ZM14.2038 38.8675C14.2038 39.3452 14.1428 39.7943 14.0192 40.2157C13.8963 40.6372 13.7167 41.0032 13.4776 41.3163C13.2386 41.6294 12.941 41.8771 12.5833 42.0601C12.2264 42.2431 11.8118 42.3355 11.3436 42.3355C10.8795 42.3355 10.4402 42.2431 10.0264 42.0601C9.61262 41.8771 9.25077 41.6294 8.94166 41.3163C8.63256 41.004 8.38858 40.6372 8.20889 40.2157C8.0292 39.7943 7.93853 39.3443 7.93853 38.8675C7.93853 38.3898 8.0292 37.9407 8.20889 37.5218C8.38858 37.102 8.63174 36.736 8.94166 36.4212C9.25077 36.1064 9.61262 35.8562 10.0264 35.6732C10.4402 35.4902 10.8795 35.3995 11.3436 35.3995C11.8126 35.3995 12.2264 35.4902 12.5833 35.6732C12.9402 35.8562 13.2386 36.1064 13.4776 36.4212C13.7167 36.736 13.8963 37.102 14.0192 37.5218C14.142 37.9415 14.2038 38.3907 14.2038 38.8675ZM12.5998 38.8675C12.5998 38.687 12.5676 38.5132 12.5042 38.3487C12.4407 38.1841 12.3517 38.0431 12.2379 37.9222C12.1242 37.8013 11.9923 37.7048 11.8398 37.6326C11.6873 37.5604 11.5216 37.526 11.3436 37.526C11.1664 37.526 11.0023 37.5604 10.8498 37.6326C10.6974 37.7039 10.563 37.8013 10.4493 37.9222C10.3355 38.0431 10.2465 38.1841 10.183 38.3487C10.1195 38.5132 10.0874 38.687 10.0874 38.8675C10.0874 39.048 10.1195 39.2192 10.183 39.3838C10.2465 39.5483 10.3355 39.6919 10.4493 39.8144C10.563 39.937 10.6974 40.0344 10.8498 40.1066C11.0023 40.1788 11.1664 40.2157 11.3436 40.2157C11.5208 40.2157 11.6873 40.1788 11.8398 40.1066C11.9923 40.0344 12.1242 39.9379 12.2379 39.8144C12.3517 39.6919 12.4407 39.5483 12.5042 39.3838C12.5676 39.2192 12.5998 39.048 12.5998 38.8675ZM14.7495 38.9649C14.7495 39.1177 14.7223 39.2587 14.6679 39.3913C14.6135 39.5231 14.5384 39.639 14.4428 39.7389C14.3472 39.8388 14.2335 39.9169 14.1016 39.9731C13.9697 40.0285 13.8288 40.0562 13.6787 40.0562C13.5328 40.0562 13.3968 40.0285 13.2666 39.9731C13.1372 39.9177 13.0234 39.8388 12.9254 39.7389C12.8273 39.639 12.7506 39.5231 12.6937 39.3913C12.6369 39.2595 12.6072 39.1177 12.6072 38.9649V37.2968L12.8668 37.2758L13.3037 36.1844C13.3853 35.925 13.499 35.7278 13.6425 35.5934C13.7859 35.4591 13.9582 35.392 14.1634 35.392C14.5549 35.392 14.7503 35.5909 14.7503 35.9897V38.9649H14.7495ZM20.6735 34.2872C20.6735 34.1344 20.7032 33.9908 20.76 33.8582C20.8169 33.7264 20.8944 33.6105 20.9916 33.5106C21.0897 33.4107 21.2035 33.3343 21.3329 33.2789C21.4623 33.2235 21.5991 33.1958 21.745 33.1958C21.895 33.1958 22.036 33.2235 22.1679 33.2789C22.2998 33.3343 22.4135 33.4107 22.5091 33.5106C22.6047 33.6105 22.6797 33.7264 22.7342 33.8582C22.7886 33.99 22.8158 34.1344 22.8158 34.2872V41.7386C22.8158 41.9333 22.7679 42.0811 22.6699 42.1835C22.5718 42.2851 22.4242 42.3363 22.2289 42.3363C22.0245 42.3363 21.8514 42.2691 21.7079 42.1348C21.5645 42.0005 21.4508 41.8032 21.3692 41.5438L20.9323 40.4457L20.6727 40.4323V34.288L20.6735 34.2872ZM22.1473 38.8675C22.1473 39.3452 22.0813 39.7943 21.9494 40.2157C21.8176 40.6372 21.6263 41.0032 21.3741 41.3163C21.1219 41.6294 20.812 41.8771 20.4485 42.0601C20.0841 42.2431 19.6679 42.3355 19.1997 42.3355C18.7307 42.3355 18.3012 42.2431 17.9097 42.0601C17.5182 41.8771 17.1819 41.6294 16.9 41.3163C16.6181 41.004 16.3996 40.6372 16.2422 40.2157C16.0856 39.7943 16.0056 39.3443 16.0056 38.8675C16.0056 38.3898 16.0856 37.9407 16.2422 37.5218C16.3988 37.102 16.6173 36.736 16.9 36.4212C17.1819 36.1064 17.519 35.8562 17.9097 35.6732C18.3012 35.4902 18.7307 35.3995 19.1997 35.3995C19.5549 35.3995 19.9069 35.4902 20.2572 35.6732C20.6075 35.8562 20.9241 36.1064 21.2035 36.4212C21.4829 36.736 21.7104 37.102 21.886 37.5218C22.0607 37.9415 22.1473 38.3907 22.1473 38.8675ZM20.6735 38.8675C20.6735 38.687 20.6413 38.5132 20.5754 38.3487C20.5095 38.1841 20.4204 38.0431 20.3092 37.9222C20.1979 37.8013 20.0635 37.7048 19.9086 37.6326C19.7536 37.5604 19.5879 37.526 19.4107 37.526C19.2335 37.526 19.0695 37.5604 18.917 37.6326C18.7645 37.7039 18.6301 37.8013 18.5164 37.9222C18.4026 38.0431 18.3136 38.1841 18.2501 38.3487C18.1867 38.5132 18.1545 38.687 18.1545 38.8675C18.1545 39.048 18.1867 39.2192 18.2501 39.3838C18.3136 39.5483 18.4026 39.6919 18.5164 39.8144C18.6301 39.937 18.7645 40.0344 18.917 40.1066C19.0695 40.1788 19.2335 40.2157 19.4107 40.2157C19.5879 40.2157 19.7544 40.1788 19.9086 40.1066C20.0635 40.0344 20.1971 39.9379 20.3092 39.8144C20.4204 39.6919 20.5095 39.5483 20.5754 39.3838C20.6413 39.2192 20.6735 39.048 20.6735 38.8675ZM28.7406 34.2872C28.7406 34.1344 28.7703 33.9908 28.8271 33.8582C28.884 33.7264 28.9615 33.6105 29.0588 33.5106C29.1569 33.4107 29.2706 33.3343 29.4 33.2789C29.5294 33.2235 29.6663 33.1958 29.8121 33.1958C29.9622 33.1958 30.1031 33.2235 30.235 33.2789C30.3669 33.3343 30.4806 33.4107 30.5762 33.5106C30.6719 33.6105 30.7469 33.7264 30.8013 33.8582C30.8557 33.99 30.8829 34.1344 30.8829 34.2872V41.7386C30.8829 41.9333 30.8351 42.0811 30.737 42.1835C30.6389 42.2851 30.4913 42.3363 30.296 42.3363C30.0916 42.3363 29.9185 42.2691 29.7751 42.1348C29.6316 42.0005 29.5179 41.8032 29.4363 41.5438L28.9994 40.4457L28.7398 40.4323V34.288L28.7406 34.2872ZM30.2144 38.8675C30.2144 39.3452 30.1484 39.7943 30.0166 40.2157C29.8847 40.6372 29.6934 41.0032 29.4412 41.3163C29.189 41.6294 28.8791 41.8771 28.5156 42.0601C28.1512 42.2431 27.735 42.3355 27.2668 42.3355C26.7978 42.3355 26.3684 42.2431 25.9768 42.0601C25.5853 41.8771 25.249 41.6294 24.9671 41.3163C24.6852 41.004 24.4668 40.6372 24.3093 40.2157C24.1527 39.7943 24.0728 39.3443 24.0728 38.8675C24.0728 38.3898 24.1527 37.9407 24.3093 37.5218C24.4659 37.102 24.6844 36.736 24.9671 36.4212C25.249 36.1064 25.5861 35.8562 25.9768 35.6732C26.3684 35.4902 26.7978 35.3995 27.2668 35.3995C27.6221 35.3995 27.974 35.4902 28.3243 35.6732C28.6747 35.8562 28.9912 36.1064 29.2706 36.4212C29.55 36.736 29.7775 37.102 29.9531 37.5218C30.1278 37.9415 30.2144 38.3907 30.2144 38.8675ZM28.7406 38.8675C28.7406 38.687 28.7084 38.5132 28.6425 38.3487C28.5766 38.1841 28.4875 38.0431 28.3763 37.9222C28.265 37.8013 28.1306 37.7048 27.9757 37.6326C27.8207 37.5604 27.655 37.526 27.4778 37.526C27.3006 37.526 27.1366 37.5604 26.9841 37.6326C26.8316 37.7039 26.6972 37.8013 26.5835 37.9222C26.4697 38.0431 26.3807 38.1841 26.3172 38.3487C26.2538 38.5132 26.2216 38.687 26.2216 38.8675C26.2216 39.048 26.2538 39.2192 26.3172 39.3838C26.3807 39.5483 26.4697 39.6919 26.5835 39.8144C26.6972 39.937 26.8316 40.0344 26.9841 40.1066C27.1366 40.1788 27.3006 40.2157 27.4778 40.2157C27.655 40.2157 27.8215 40.1788 27.9757 40.1066C28.1306 40.0344 28.2642 39.9379 28.3763 39.8144C28.4875 39.6919 28.5766 39.5483 28.6425 39.3838C28.7084 39.2192 28.7406 39.048 28.7406 38.8675ZM37.1415 40.4449V38.8322C37.1415 38.6517 37.1119 38.4805 37.0509 38.3176C36.9891 38.1556 36.905 38.0137 36.7986 37.8937C36.6915 37.7728 36.5621 37.6762 36.4121 37.604C36.262 37.5318 36.098 37.4974 35.9208 37.4974C35.7386 37.4974 35.568 37.5369 35.4089 37.6183C35.2498 37.6997 35.1114 37.808 34.9902 37.9424C34.8699 38.0767 34.7742 38.2295 34.7058 38.4007C34.6374 38.572 34.6036 38.7458 34.6036 38.9221L34.5146 36.4271C34.5558 36.3062 34.6325 36.1861 34.7446 36.061C34.8558 35.936 34.9902 35.8243 35.1468 35.7269C35.3034 35.627 35.4765 35.5464 35.6653 35.4818C35.854 35.4171 36.0477 35.3844 36.248 35.3844C36.7121 35.3844 37.1308 35.4751 37.5059 35.6581C37.8793 35.8386 38.1999 36.0845 38.4637 36.3968C38.7274 36.7075 38.9327 37.071 39.0736 37.4882C39.2146 37.9079 39.2855 38.3546 39.2855 38.8322V40.8135L37.1424 40.4449H37.1415ZM32.4597 34.3283C32.4597 34.1755 32.4869 34.032 32.5413 33.8993C32.5957 33.7675 32.6707 33.6534 32.7663 33.556C32.8619 33.4586 32.9757 33.3797 33.1076 33.3218C33.2395 33.2638 33.3804 33.2361 33.5304 33.2361C33.6763 33.2361 33.8148 33.2638 33.9442 33.3218C34.0736 33.3797 34.1874 33.4586 34.2854 33.556C34.3835 33.6534 34.4602 33.7667 34.5171 33.8993C34.5739 34.0311 34.6011 34.1747 34.6011 34.3283V41.2441C34.6011 41.3969 34.5739 41.5388 34.5171 41.6706C34.4602 41.8024 34.3827 41.9182 34.2854 42.0181C34.1874 42.118 34.0736 42.1969 33.9442 42.2524C33.8148 42.3078 33.6755 42.3355 33.5304 42.3355C33.3804 42.3355 33.2395 42.3078 33.1076 42.2524C32.9757 42.1969 32.8619 42.118 32.7663 42.0181C32.6707 41.9182 32.5957 41.8024 32.5413 41.6706C32.4869 41.5388 32.4597 41.3969 32.4597 41.2441V34.3283ZM39.2846 40.2854V41.2374C39.2846 41.386 39.2574 41.5245 39.203 41.6571C39.1486 41.7889 39.0736 41.9048 38.978 42.0047C38.8799 42.1046 38.7662 42.1852 38.6343 42.2456C38.5024 42.3061 38.3615 42.3363 38.2114 42.3363C38.0318 42.3363 37.8768 42.3019 37.7449 42.2322C37.613 42.1625 37.5017 42.0702 37.4127 41.9569C37.3237 41.8435 37.2561 41.7109 37.21 41.5606C37.1646 41.4103 37.1415 41.255 37.1415 41.0922V40.1956L39.2846 40.2862V40.2854ZM40.7386 36.4766C40.7386 36.3238 40.7658 36.1828 40.8202 36.0501C40.8747 35.9183 40.9497 35.8025 41.0453 35.7051C41.1434 35.6077 41.2546 35.5313 41.384 35.4734C41.5159 35.4155 41.6544 35.3852 41.8069 35.3852C41.9569 35.3852 42.0962 35.4155 42.2281 35.4734C42.3575 35.5313 42.4696 35.6077 42.5669 35.7051C42.6625 35.8025 42.7375 35.9183 42.7944 36.0501C42.8513 36.1819 42.8809 36.3238 42.8809 36.4766V41.245C42.8809 41.3977 42.8513 41.5396 42.7944 41.6714C42.7375 41.8032 42.6625 41.9191 42.5669 42.019C42.4688 42.1189 42.3575 42.1978 42.2281 42.2532C42.0962 42.3086 41.9577 42.3363 41.8069 42.3363C41.6544 42.3363 41.5159 42.3086 41.384 42.2532C41.2546 42.1978 41.1425 42.1189 41.0453 42.019C40.9497 41.9191 40.8747 41.8032 40.8202 41.6714C40.7658 41.5396 40.7386 41.3977 40.7386 41.245V36.4766ZM40.6842 33.5434C40.6842 33.3906 40.7139 33.247 40.7708 33.1127C40.8277 32.9784 40.9052 32.86 41.0024 32.7601C41.1005 32.6602 41.2159 32.5838 41.3503 32.5284C41.4846 32.473 41.628 32.4453 41.7822 32.4453C41.9322 32.4453 42.0756 32.473 42.21 32.5284C42.3443 32.5838 42.4605 32.6602 42.5603 32.7601C42.66 32.86 42.74 32.9776 42.7969 33.1127C42.8537 33.247 42.8809 33.3906 42.8809 33.5434C42.8809 33.7012 42.8537 33.8473 42.7969 33.9816C42.74 34.1159 42.66 34.2318 42.5603 34.3292C42.4605 34.4265 42.3443 34.5029 42.21 34.5583C42.0756 34.6137 41.9322 34.6414 41.7822 34.6414C41.6272 34.6414 41.4838 34.6137 41.3503 34.5583C41.2159 34.5029 41.0997 34.4265 41.0024 34.3292C40.9043 34.2318 40.8277 34.1159 40.7708 33.9816C40.7139 33.8473 40.6842 33.7012 40.6842 33.5434ZM50.8598 41.6899C50.8598 41.8981 50.8096 42.0584 50.7074 42.1692C50.6051 42.2809 50.4502 42.3363 50.2458 42.3363C50.0413 42.3363 49.8724 42.2733 49.7388 42.1508C49.6045 42.0282 49.4957 41.8679 49.4133 41.6689L48.9764 40.4457L48.7167 40.4323V38.875C48.7167 38.7223 48.7464 38.5787 48.8033 38.4461C48.8602 38.3143 48.9377 38.1984 49.0349 38.0985C49.133 37.9986 49.2468 37.9222 49.3762 37.8668C49.5056 37.8114 49.6424 37.7837 49.7883 37.7837C49.9383 37.7837 50.0793 37.8114 50.2111 37.8668C50.343 37.9222 50.4568 37.9986 50.5524 38.0985C50.648 38.1984 50.723 38.3143 50.7774 38.4461C50.8318 38.5779 50.859 38.7223 50.859 38.875V41.6899H50.8598ZM50.3142 38.8675C50.3142 39.3452 50.2532 39.7943 50.1295 40.2157C50.0067 40.6372 49.827 41.0032 49.588 41.3163C49.349 41.6294 49.0514 41.8771 48.6937 42.0601C48.3368 42.2431 47.9222 42.3355 47.454 42.3355C46.9899 42.3355 46.5506 42.2431 46.1368 42.0601C45.723 41.8771 45.3611 41.6294 45.052 41.3163C44.7429 41.004 44.499 40.6372 44.3193 40.2157C44.1396 39.7943 44.0489 39.3443 44.0489 38.8675C44.0489 38.3898 44.1396 37.9407 44.3193 37.5218C44.499 37.102 44.7421 36.736 45.052 36.4212C45.3611 36.1064 45.723 35.8562 46.1368 35.6732C46.5506 35.4902 46.9899 35.3995 47.454 35.3995C47.923 35.3995 48.3368 35.4902 48.6937 35.6732C49.0506 35.8562 49.349 36.1064 49.588 36.4212C49.827 36.736 50.0067 37.102 50.1295 37.5218C50.2524 37.9415 50.3142 38.3907 50.3142 38.8675ZM48.7102 38.8675C48.7102 38.687 48.678 38.5132 48.6145 38.3487C48.5511 38.1841 48.462 38.0431 48.3483 37.9222C48.2345 37.8013 48.1027 37.7048 47.9502 37.6326C47.7977 37.5604 47.632 37.526 47.454 37.526C47.2768 37.526 47.1127 37.5604 46.9602 37.6326C46.8077 37.7039 46.6734 37.8013 46.5596 37.9222C46.4459 38.0431 46.3569 38.1841 46.2934 38.3487C46.2299 38.5132 46.1978 38.687 46.1978 38.8675C46.1978 39.048 46.2299 39.2192 46.2934 39.3838C46.3569 39.5483 46.4459 39.6919 46.5596 39.8144C46.6734 39.937 46.8077 40.0344 46.9602 40.1066C47.1127 40.1788 47.2768 40.2157 47.454 40.2157C47.6312 40.2157 47.7977 40.1788 47.9502 40.1066C48.1027 40.0344 48.2345 39.9379 48.3483 39.8144C48.462 39.6919 48.5511 39.5483 48.6145 39.3838C48.678 39.2192 48.7102 39.048 48.7102 38.8675ZM50.8598 38.9649C50.8598 39.1177 50.8326 39.2587 50.7782 39.3913C50.7238 39.5231 50.6488 39.639 50.5532 39.7389C50.4576 39.8388 50.3439 39.9169 50.212 39.9731C50.0801 40.0285 49.9391 40.0562 49.7891 40.0562C49.6432 40.0562 49.5072 40.0285 49.377 39.9731C49.2476 39.9177 49.1338 39.8388 49.0357 39.7389C48.9377 39.639 48.861 39.5231 48.8041 39.3913C48.7472 39.2595 48.7176 39.1177 48.7176 38.9649V37.2968L48.9772 37.2758L49.4141 36.1844C49.4957 35.925 49.6094 35.7278 49.7529 35.5934C49.8963 35.4591 50.0685 35.392 50.2738 35.392C50.6653 35.392 50.8607 35.5909 50.8607 35.9897V38.9649H50.8598Z" fill="url(#paint0_linear_901_1727)"/>
<path d="M27.1303 12.3188C27.8268 12.1559 28.5315 11.9863 29.3228 11.9863C31.7404 11.9863 33.8785 13.2028 35.1809 15.0673C35.5872 15.571 35.8782 16.1536 36.0678 16.7807C36.3513 17.5665 36.5055 18.4161 36.5055 19.3017C36.5055 21.6188 35.4479 23.6839 33.7978 25.0238C33.595 25.2009 33.384 25.3545 33.1664 25.4821C28.3172 28.6177 21.6571 23.7956 12.9883 27.4827C14.1563 26.5013 15.3037 25.5073 16.4247 24.4882C22.0453 22.1191 26.3645 25.237 29.5116 23.202C29.6533 23.1189 29.7902 23.019 29.9221 22.904C30.9952 22.0326 31.6835 20.6894 31.6835 19.1825C31.6835 18.6066 31.583 18.0542 31.3983 17.543C31.2755 17.135 31.0859 16.7564 30.8213 16.429C29.9748 15.2159 28.5843 14.4251 27.0116 14.4251C26.4972 14.4251 26.0546 14.5317 25.6012 14.6383C25.41 14.6828 25.3737 14.6862 25.3259 14.7558C25.2748 14.7743 25.2254 14.7945 25.1759 14.8163C25.6433 14.1548 26.0974 13.4764 26.5368 12.7805C26.7882 12.3809 26.6802 12.4254 27.1303 12.3204V12.3188Z" fill="url(#paint1_linear_901_1727)"/>
<path fill-rule="evenodd" clip-rule="evenodd" d="M13.6309 9.61364C13.8081 15.0645 14.4247 20.7085 12.4225 25.8848C12.3014 26.1988 12.1481 26.5279 11.998 26.8167C12.1382 26.7781 13.0309 25.9914 13.2064 25.8521C18.0515 21.9988 27.1572 13.3981 27.1572 6.78621C27.1572 -1.47615 13.6317 -3.98961 13.6317 9.61448L13.6309 9.61364ZM17.1951 16.8224C17.9295 13.2159 16.6956 8.99745 17.322 6.44621C17.7696 3.80095 21.1326 2.96984 22.7069 4.95106C25.5952 8.58694 19.6275 14.7573 17.1951 16.8224Z" fill="url(#paint2_linear_901_1727)"/>
<defs>
<linearGradient id="paint0_linear_901_1727" x1="25.4303" y1="32.4453" x2="25.4303" y2="42.3363" gradientUnits="userSpaceOnUse">
<stop stop-color="#FC5000"/>
<stop offset="1" stop-color="#E03636"/>
</linearGradient>
<linearGradient id="paint1_linear_901_1727" x1="24.7469" y1="11.9863" x2="24.7469" y2="27.4827" gradientUnits="userSpaceOnUse">
<stop stop-color="#FC5000"/>
<stop offset="1" stop-color="#E03636"/>
</linearGradient>
<linearGradient id="paint2_linear_901_1727" x1="19.5776" y1="0" x2="19.5776" y2="26.8167" gradientUnits="userSpaceOnUse">
<stop stop-color="#FC5000"/>
<stop offset="1" stop-color="#E03636"/>
</linearGradient>
</defs>
</svg>
