<svg width="33" height="32" viewBox="0 0 33 32" fill="none" xmlns="http://www.w3.org/2000/svg">
<path d="M20.6964 14.3431C21.6058 14.1535 22.5259 13.9561 23.5591 13.9561C26.7155 13.9561 29.5071 15.3725 31.2074 17.5435C31.738 18.13 32.1179 18.8084 32.3654 19.5385C32.7356 20.4535 32.9369 21.4427 32.9369 22.4739C32.9369 25.1719 31.5561 27.5765 29.4016 29.1366C29.1369 29.3428 28.8614 29.5217 28.5773 29.6703C22.2461 33.3213 13.5506 27.7065 2.23242 31.9997C3.75739 30.857 5.2554 29.6996 6.719 28.513C14.0574 25.7545 19.6967 29.3849 23.8055 27.0154C23.9906 26.9187 24.1692 26.8023 24.3414 26.6684C25.7426 25.6538 26.6412 24.0898 26.6412 22.3352C26.6412 21.6646 26.5099 21.0214 26.2689 20.4261C26.1085 19.951 25.861 19.5102 25.5156 19.129C24.4103 17.7165 22.5948 16.7957 20.5415 16.7957C19.8699 16.7957 19.292 16.9199 18.7001 17.044C18.4504 17.0958 18.4031 17.0997 18.3407 17.1808C18.2739 17.2023 18.2094 17.2258 18.1448 17.2512C18.755 16.481 19.348 15.6911 19.9216 14.8808C20.2498 14.4155 20.1088 14.4673 20.6964 14.3451V14.3431Z" fill="url(#paint0_linear_1774_563)"/>
<path fill-rule="evenodd" clip-rule="evenodd" d="M3.06938 11.1939C3.3008 17.5408 4.10577 24.1126 1.49172 30.1398C1.33355 30.5054 1.13336 30.8885 0.9375 31.2248C1.12048 31.1798 2.28595 30.2639 2.51517 30.1017C8.84097 25.615 20.7295 15.6005 20.7295 7.90173C20.7295 -1.7188 3.07052 -4.64542 3.07052 11.1949L3.06938 11.1939ZM7.72279 19.5877C8.68167 15.3884 7.07065 10.4764 7.88856 7.50584C8.47293 4.42575 12.8637 3.45802 14.9192 5.76493C18.6901 9.99847 10.8986 17.1831 7.72279 19.5877Z" fill="url(#paint1_linear_1774_563)"/>
<defs>
<linearGradient id="paint0_linear_1774_563" x1="17.5846" y1="13.9561" x2="17.5846" y2="31.9997" gradientUnits="userSpaceOnUse">
<stop stop-color="#FC5000"/>
<stop offset="1" stop-color="#E03636"/>
</linearGradient>
<linearGradient id="paint1_linear_1774_563" x1="10.8335" y1="1.38204e-06" x2="10.8335" y2="31.2248" gradientUnits="userSpaceOnUse">
<stop stop-color="#FC5000"/>
<stop offset="1" stop-color="#E03636"/>
</linearGradient>
</defs>
</svg>
