<svg width="106" height="103" viewBox="0 0 106 103" fill="none" xmlns="http://www.w3.org/2000/svg">
<g clip-path="url(#clip0_1356_582)">
<path d="M0.13192 70.3154C0.13192 70.3345 0.13706 70.3535 0.140486 70.3777C0.145626 70.4019 0.145626 70.4261 0.145626 70.4451L0.13192 70.3172V70.3154ZM0.00342649 69.5286C0.00342649 69.3954 0.0222722 69.2709 0.0599636 69.1568C0.097655 69.0426 0.169611 68.9423 0.267266 68.861C0.366635 68.7798 0.503694 68.7175 0.678445 68.6708C0.853197 68.6224 1.07592 68.5999 1.35004 68.5999H8.48571C9.10933 68.5999 9.71068 68.6916 10.2863 68.8714C10.8637 69.053 11.3931 69.3107 11.8711 69.6496C12.3491 69.9886 12.7603 70.4036 13.1046 70.8913C13.449 71.3773 13.7008 71.9324 13.8619 72.5515C13.9373 72.8472 13.9938 73.1533 14.0281 73.4733C14.0606 73.7932 14.0658 74.127 14.0469 74.4711C14.0281 74.8533 13.9612 75.1957 13.8482 75.507C13.7351 75.8166 13.6117 76.0898 13.4747 76.3181C13.3376 76.5481 13.2057 76.7279 13.0772 76.8663C12.9487 77.0046 12.8545 77.0911 12.7979 77.1188C12.8836 77.1568 13.0344 77.2571 13.252 77.4249C13.4695 77.5926 13.6923 77.8261 13.9184 78.127C14.1446 78.4279 14.3536 78.7945 14.5369 79.2251C14.7219 79.654 14.8247 80.1469 14.8538 80.7003C14.9001 81.3298 14.859 81.9264 14.7254 82.4902C14.5832 83.2062 14.3227 83.8547 13.9458 84.4375C13.5672 85.0203 13.1132 85.5166 12.5838 85.9265C12.0544 86.3363 11.4633 86.6528 10.8106 86.8707C10.1578 87.0903 9.47768 87.1993 8.76839 87.1993H2.44138C2.07303 87.1993 1.75094 87.1318 1.47168 86.9987C1.19242 86.8655 0.961131 86.6891 0.776101 86.4695C0.59107 86.2498 0.450584 85.9974 0.354642 85.7155C0.260413 85.4336 0.212443 85.1431 0.212443 84.837V71.0487C0.212443 70.9432 0.202163 70.8429 0.183317 70.7478C0.164472 70.6527 0.145626 70.5524 0.12678 70.4469L0.113074 70.3189C0.0376914 70.0318 0 69.7707 0 69.532L0.00342649 69.5286ZM4.58465 79.1214V83.073H8.51312C8.74955 83.073 8.99112 83.0298 9.23268 82.9433C9.47425 82.8568 9.68669 82.7289 9.87515 82.5611C10.0636 82.3934 10.2195 82.1893 10.3377 81.9454C10.4559 81.7016 10.5125 81.4249 10.5125 81.1102C10.5125 80.785 10.4559 80.4997 10.3429 80.2507C10.2298 80.0016 10.0773 79.7924 9.88886 79.6246C9.7004 79.4569 9.48624 79.3341 9.24982 79.2476C9.01339 79.1612 8.76839 79.1179 8.51141 79.1179H4.58293L4.58465 79.1214ZM4.58465 72.5065V75.6713H8.37263C8.57137 75.6713 8.76497 75.6281 8.95 75.5416C9.13503 75.4551 9.29436 75.341 9.43142 75.1974C9.56848 75.0539 9.67813 74.8879 9.75694 74.6959C9.83746 74.5057 9.87515 74.2999 9.87515 74.0803C9.87515 73.852 9.83232 73.641 9.74666 73.4508C9.66099 73.2605 9.54792 73.0928 9.40572 72.9493C9.26352 72.8057 9.10248 72.6968 8.91916 72.6207C8.73413 72.5446 8.54053 72.5065 8.34179 72.5065H4.58293H4.58465ZM30.6568 85.8798C30.6568 86.3087 30.5523 86.639 30.3399 86.8672C30.1274 87.0972 29.8053 87.2114 29.3805 87.2114C28.9556 87.2114 28.6044 87.0817 28.3268 86.8292C28.0476 86.5767 27.8214 86.2464 27.6501 85.8365L26.7421 83.3168L26.2024 83.2892V80.0812C26.2024 79.7664 26.2641 79.4707 26.3823 79.1975C26.5005 78.926 26.6615 78.6873 26.8637 78.4815C27.0676 78.2757 27.304 78.1184 27.573 78.0042C27.842 77.8901 28.1264 77.833 28.4296 77.833C28.7414 77.833 29.0344 77.8901 29.3085 78.0042C29.5826 78.1184 29.8191 78.2757 30.0178 78.4815C30.2165 78.6873 30.3724 78.926 30.4855 79.1975C30.5986 79.469 30.6551 79.7664 30.6551 80.0812V85.8798H30.6568ZM29.5227 80.0656C29.5227 81.0496 29.3959 81.9748 29.1389 82.843C28.8836 83.7111 28.5101 84.4651 28.0133 85.1102C27.5164 85.7553 26.898 86.2654 26.1544 86.6424C25.4126 87.0194 24.5508 87.2097 23.5777 87.2097C22.6131 87.2097 21.7 87.0194 20.8399 86.6424C19.9799 86.2654 19.2278 85.7553 18.5853 85.1102C17.9428 84.4669 17.4357 83.7111 17.0622 82.843C16.6887 81.9748 16.5003 81.0479 16.5003 80.0656C16.5003 79.0816 16.6887 78.1564 17.0622 77.2934C17.4357 76.4288 17.9411 75.6748 18.5853 75.0262C19.2278 74.3777 19.9799 73.8624 20.8399 73.4854C21.7 73.1084 22.6131 72.9216 23.5777 72.9216C24.5525 72.9216 25.4126 73.1084 26.1544 73.4854C26.8963 73.8624 27.5164 74.3777 28.0133 75.0262C28.5101 75.6748 28.8836 76.4288 29.1389 77.2934C29.3942 78.1581 29.5227 79.0833 29.5227 80.0656ZM26.1887 80.0656C26.1887 79.6938 26.1219 79.3358 25.9899 78.9969C25.858 78.6579 25.673 78.3674 25.4366 78.1184C25.2001 77.8693 24.926 77.6704 24.6091 77.5217C24.2921 77.373 23.9478 77.3021 23.5777 77.3021C23.2093 77.3021 22.8684 77.373 22.5515 77.5217C22.2345 77.6687 21.9552 77.8693 21.7188 78.1184C21.4824 78.3674 21.2974 78.6579 21.1654 78.9969C21.0335 79.3358 20.9667 79.6938 20.9667 80.0656C20.9667 80.4374 21.0335 80.7902 21.1654 81.1292C21.2974 81.4681 21.4824 81.7639 21.7188 82.0163C21.9552 82.2688 22.2345 82.4694 22.5515 82.6182C22.8684 82.7669 23.2093 82.843 23.5777 82.843C23.946 82.843 24.2921 82.7669 24.6091 82.6182C24.926 82.4694 25.2001 82.2706 25.4366 82.0163C25.673 81.7639 25.858 81.4681 25.9899 81.1292C26.1219 80.7902 26.1887 80.4374 26.1887 80.0656ZM30.6568 80.2662C30.6568 80.581 30.6003 80.8715 30.4872 81.1447C30.3741 81.4163 30.2182 81.6549 30.0195 81.8607C29.8208 82.0665 29.5843 82.2273 29.3102 82.3432C29.0361 82.4573 28.7431 82.5144 28.4313 82.5144C28.1281 82.5144 27.8454 82.4573 27.5747 82.3432C27.3057 82.2291 27.0693 82.0665 26.8654 81.8607C26.6615 81.6549 26.5022 81.4163 26.384 81.1447C26.2658 80.8732 26.2041 80.581 26.2041 80.2662V76.83L26.7438 76.7867L27.6518 74.5386C27.8214 74.0042 28.0578 73.5978 28.3559 73.3211C28.654 73.0444 29.0121 72.906 29.4387 72.906C30.2525 72.906 30.6585 73.3159 30.6585 74.1373V80.2662H30.6568ZM42.9699 70.6302C42.9699 70.3154 43.0316 70.0197 43.1498 69.7465C43.268 69.475 43.4291 69.2363 43.6312 69.0305C43.8351 68.8247 44.0715 68.6673 44.3405 68.5532C44.6095 68.4391 44.8939 68.382 45.1971 68.382C45.509 68.382 45.8019 68.4391 46.076 68.5532C46.3502 68.6673 46.5866 68.8247 46.7853 69.0305C46.9841 69.2363 47.14 69.475 47.253 69.7465C47.3661 70.018 47.4226 70.3154 47.4226 70.6302V85.9801C47.4226 86.3813 47.3233 86.6856 47.1194 86.8966C46.9155 87.1059 46.6089 87.2114 46.2028 87.2114C45.7779 87.2114 45.4182 87.073 45.12 86.7963C44.8219 86.5196 44.5855 86.1132 44.4159 85.5789L43.5079 83.3168L42.9682 83.2892V70.6319L42.9699 70.6302ZM46.0332 80.0656C46.0332 81.0496 45.8961 81.9748 45.622 82.843C45.3479 83.7111 44.9504 84.4651 44.4262 85.1102C43.9019 85.7553 43.2578 86.2654 42.5022 86.6424C41.745 87.0194 40.8798 87.2097 39.9066 87.2097C38.9318 87.2097 38.0392 87.0194 37.2254 86.6424C36.4116 86.2654 35.7126 85.7553 35.1267 85.1102C34.5408 84.4669 34.0867 83.7111 33.7595 82.843C33.434 81.9748 33.2678 81.0479 33.2678 80.0656C33.2678 79.0816 33.434 78.1564 33.7595 77.2934C34.085 76.4288 34.539 75.6748 35.1267 75.0262C35.7126 74.3777 36.4133 73.8624 37.2254 73.4854C38.0392 73.1084 38.9318 72.9216 39.9066 72.9216C40.6451 72.9216 41.3766 73.1084 42.1047 73.4854C42.8329 73.8624 43.4908 74.3777 44.0715 75.0262C44.6523 75.6748 45.1252 76.4288 45.4901 77.2934C45.8533 78.1581 46.0332 79.0833 46.0332 80.0656ZM42.9699 80.0656C42.9699 79.6938 42.9031 79.3358 42.7661 78.9969C42.629 78.6579 42.444 78.3674 42.2127 78.1184C41.9814 77.8693 41.7021 77.6704 41.38 77.5217C41.0579 77.373 40.7136 77.3021 40.3452 77.3021C39.9769 77.3021 39.636 77.373 39.319 77.5217C39.0021 77.6687 38.7228 77.8693 38.4864 78.1184C38.2499 78.3674 38.0649 78.6579 37.933 78.9969C37.8011 79.3358 37.7342 79.6938 37.7342 80.0656C37.7342 80.4374 37.8011 80.7902 37.933 81.1292C38.0649 81.4681 38.2499 81.7639 38.4864 82.0163C38.7228 82.2688 39.0021 82.4694 39.319 82.6182C39.636 82.7669 39.9769 82.843 40.3452 82.843C40.7136 82.843 41.0597 82.7669 41.38 82.6182C41.7021 82.4694 41.9797 82.2706 42.2127 82.0163C42.444 81.7639 42.629 81.4681 42.7661 81.1292C42.9031 80.7902 42.9699 80.4374 42.9699 80.0656ZM59.7375 70.6302C59.7375 70.3154 59.7991 70.0197 59.9174 69.7465C60.0356 69.475 60.1966 69.2363 60.3988 69.0305C60.6027 68.8247 60.8391 68.6673 61.1081 68.5532C61.377 68.4391 61.6614 68.382 61.9647 68.382C62.2765 68.382 62.5695 68.4391 62.8436 68.5532C63.1177 68.6673 63.3541 68.8247 63.5529 69.0305C63.7516 69.2363 63.9075 69.475 64.0206 69.7465C64.1337 70.018 64.1902 70.3154 64.1902 70.6302V85.9801C64.1902 86.3813 64.0908 86.6856 63.8869 86.8966C63.6831 87.1059 63.3764 87.2114 62.9704 87.2114C62.5455 87.2114 62.1857 87.073 61.8876 86.7963C61.5895 86.5196 61.3531 86.1132 61.1834 85.5789L60.2754 83.3168L59.7358 83.2892V70.6319L59.7375 70.6302ZM62.8008 80.0656C62.8008 81.0496 62.6637 81.9748 62.3896 82.843C62.1155 83.7111 61.718 84.4651 61.1937 85.1102C60.6695 85.7553 60.0253 86.2654 59.2697 86.6424C58.5125 87.0194 57.6473 87.2097 56.6742 87.2097C55.6993 87.2097 54.8067 87.0194 53.993 86.6424C53.1792 86.2654 52.4802 85.7553 51.8942 85.1102C51.3083 84.4669 50.8543 83.7111 50.5271 82.843C50.2015 81.9748 50.0354 81.0479 50.0354 80.0656C50.0354 79.0816 50.2015 78.1564 50.5271 77.2934C50.8526 76.4288 51.3066 75.6748 51.8942 75.0262C52.4802 74.3777 53.1809 73.8624 53.993 73.4854C54.8067 73.1084 55.6993 72.9216 56.6742 72.9216C57.4126 72.9216 58.1441 73.1084 58.8723 73.4854C59.6004 73.8624 60.2583 74.3777 60.8391 75.0262C61.4199 75.6748 61.8927 76.4288 62.2576 77.2934C62.6209 78.1581 62.8008 79.0833 62.8008 80.0656ZM59.7375 80.0656C59.7375 79.6938 59.6707 79.3358 59.5336 78.9969C59.3965 78.6579 59.2115 78.3674 58.9802 78.1184C58.7489 77.8693 58.4697 77.6704 58.1476 77.5217C57.8255 77.373 57.4811 77.3021 57.1128 77.3021C56.7444 77.3021 56.4035 77.373 56.0865 77.5217C55.7696 77.6687 55.4903 77.8693 55.2539 78.1184C55.0175 78.3674 54.8324 78.6579 54.7005 78.9969C54.5686 79.3358 54.5018 79.6938 54.5018 80.0656C54.5018 80.4374 54.5686 80.7902 54.7005 81.1292C54.8324 81.4681 55.0175 81.7639 55.2539 82.0163C55.4903 82.2688 55.7696 82.4694 56.0865 82.6182C56.4035 82.7669 56.7444 82.843 57.1128 82.843C57.4811 82.843 57.8272 82.7669 58.1476 82.6182C58.4697 82.4694 58.7472 82.2706 58.9802 82.0163C59.2115 81.7639 59.3965 81.4681 59.5336 81.1292C59.6707 80.7902 59.7375 80.4374 59.7375 80.0656ZM77.1989 83.3151V79.993C77.1989 79.6212 77.1372 79.2684 77.0104 78.9329C76.8819 78.5991 76.7072 78.3069 76.4862 78.0596C76.2634 77.8105 75.9945 77.6116 75.6826 77.4629C75.3708 77.3142 75.0299 77.2433 74.6616 77.2433C74.2829 77.2433 73.9283 77.3246 73.5976 77.4923C73.267 77.6601 72.9791 77.8832 72.7273 78.1599C72.4772 78.4366 72.2784 78.7513 72.1362 79.1041C71.994 79.4569 71.9238 79.8149 71.9238 80.178L71.7388 75.0383C71.8244 74.7893 71.9837 74.542 72.2168 74.2843C72.448 74.0267 72.7273 73.7967 73.0528 73.5961C73.3783 73.3903 73.7381 73.2242 74.1304 73.0911C74.5228 72.9579 74.9254 72.8905 75.3417 72.8905C76.3063 72.8905 77.1766 73.0772 77.9561 73.4542C78.7322 73.8261 79.3987 74.3328 79.9469 74.9761C80.4952 75.616 80.9218 76.3648 81.2147 77.2243C81.5077 78.089 81.655 79.009 81.655 79.993V84.0743L77.2006 83.3151H77.1989ZM67.4676 70.7149C67.4676 70.4002 67.5242 70.1044 67.6372 69.8312C67.7503 69.5597 67.9062 69.3245 68.105 69.1239C68.3037 68.9233 68.5401 68.7607 68.8142 68.6414C69.0884 68.5221 69.3813 68.465 69.6931 68.465C69.9964 68.465 70.2842 68.5221 70.5532 68.6414C70.8222 68.7607 71.0586 68.9233 71.2625 69.1239C71.4663 69.3245 71.6257 69.558 71.7439 69.8312C71.8621 70.1027 71.9186 70.3984 71.9186 70.7149V84.9615C71.9186 85.2762 71.8621 85.5685 71.7439 85.84C71.6257 86.1115 71.4646 86.3502 71.2625 86.5559C71.0586 86.7617 70.8222 86.9243 70.5532 87.0384C70.2842 87.1526 69.9947 87.2097 69.6931 87.2097C69.3813 87.2097 69.0884 87.1526 68.8142 87.0384C68.5401 86.9243 68.3037 86.7617 68.105 86.5559C67.9062 86.3502 67.7503 86.1115 67.6372 85.84C67.5242 85.5685 67.4676 85.2762 67.4676 84.9615V70.7149ZM81.6533 82.9865V84.9476C81.6533 85.2537 81.5968 85.5391 81.4837 85.8123C81.3706 86.0838 81.2147 86.3225 81.016 86.5283C80.8121 86.7341 80.5757 86.9001 80.3016 87.0246C80.0274 87.1491 79.7345 87.2114 79.4227 87.2114C79.0492 87.2114 78.7271 87.1405 78.453 86.9969C78.1788 86.8534 77.9476 86.6632 77.7625 86.4297C77.5775 86.1962 77.437 85.923 77.3411 85.6134C77.2468 85.3039 77.1989 84.9839 77.1989 84.6485V82.8015L81.6533 82.9883V82.9865ZM84.6755 75.1404C84.6755 74.8256 84.732 74.5351 84.8451 74.2619C84.9582 73.9903 85.1141 73.7517 85.3128 73.5511C85.5167 73.3505 85.748 73.1931 86.0169 73.0738C86.2911 72.9545 86.5789 72.8922 86.8958 72.8922C87.2076 72.8922 87.4972 72.9545 87.7713 73.0738C88.0403 73.1931 88.2733 73.3505 88.4755 73.5511C88.6742 73.7517 88.8301 73.9903 88.9483 74.2619C89.0665 74.5334 89.1282 74.8256 89.1282 75.1404V84.9632C89.1282 85.2779 89.0665 85.5702 88.9483 85.8417C88.8301 86.1132 88.6742 86.3519 88.4755 86.5577C88.2716 86.7635 88.0403 86.926 87.7713 87.0402C87.4972 87.1543 87.2094 87.2114 86.8958 87.2114C86.5789 87.2114 86.2911 87.1543 86.0169 87.0402C85.748 86.926 85.515 86.7635 85.3128 86.5577C85.1141 86.3519 84.9582 86.1132 84.8451 85.8417C84.732 85.5702 84.6755 85.2779 84.6755 84.9632V75.1404ZM84.5624 69.098C84.5624 68.7832 84.6241 68.4875 84.7423 68.2108C84.8605 67.9341 85.0216 67.6902 85.2237 67.4845C85.4276 67.2787 85.6674 67.1213 85.9467 67.0071C86.226 66.893 86.5241 66.8359 86.8445 66.8359C87.1563 66.8359 87.4544 66.893 87.7336 67.0071C88.0129 67.1213 88.2545 67.2787 88.4618 67.4845C88.6691 67.6902 88.8353 67.9324 88.9535 68.2108C89.0717 68.4875 89.1282 68.7832 89.1282 69.098C89.1282 69.4231 89.0717 69.724 88.9535 70.0007C88.8353 70.2774 88.6691 70.516 88.4618 70.7166C88.2545 70.9173 88.0129 71.0746 87.7336 71.1888C87.4544 71.3029 87.1563 71.36 86.8445 71.36C86.5224 71.36 86.2243 71.3029 85.9467 71.1888C85.6674 71.0746 85.4259 70.9173 85.2237 70.7166C85.0198 70.516 84.8605 70.2774 84.7423 70.0007C84.6241 69.724 84.5624 69.4231 84.5624 69.098ZM105.712 85.8798C105.712 86.3087 105.608 86.639 105.395 86.8672C105.183 87.0972 104.861 87.2114 104.436 87.2114C104.011 87.2114 103.66 87.0817 103.382 86.8292C103.103 86.5767 102.877 86.2464 102.706 85.8365L101.798 83.3168L101.258 83.2892V80.0812C101.258 79.7664 101.32 79.4707 101.438 79.1975C101.556 78.926 101.717 78.6873 101.919 78.4815C102.123 78.2757 102.36 78.1184 102.629 78.0042C102.898 77.8901 103.182 77.833 103.485 77.833C103.797 77.833 104.09 77.8901 104.364 78.0042C104.638 78.1184 104.875 78.2757 105.073 78.4815C105.272 78.6873 105.428 78.926 105.541 79.1975C105.654 79.469 105.711 79.7664 105.711 80.0812L105.712 85.8798ZM104.578 80.0656C104.578 81.0496 104.451 81.9748 104.195 82.843C103.939 83.7111 103.566 84.4651 103.069 85.1102C102.572 85.7553 101.954 86.2654 101.21 86.6424C100.468 87.0194 99.6064 87.2097 98.6333 87.2097C97.6687 87.2097 96.7556 87.0194 95.8955 86.6424C95.0355 86.2654 94.2834 85.7553 93.6409 85.1102C92.9984 84.4669 92.4913 83.7111 92.1178 82.843C91.7443 81.9748 91.5559 81.0479 91.5559 80.0656C91.5559 79.0816 91.7443 78.1564 92.1178 77.2934C92.4913 76.4288 92.9967 75.6748 93.6409 75.0262C94.2834 74.3777 95.0355 73.8624 95.8955 73.4854C96.7556 73.1084 97.6687 72.9216 98.6333 72.9216C99.6081 72.9216 100.468 73.1084 101.21 73.4854C101.952 73.8624 102.572 74.3777 103.069 75.0262C103.566 75.6748 103.939 76.4288 104.195 77.2934C104.45 78.1581 104.578 79.0833 104.578 80.0656ZM101.244 80.0656C101.244 79.6938 101.177 79.3358 101.046 78.9969C100.914 78.6579 100.729 78.3674 100.492 78.1184C100.256 77.8693 99.9816 77.6704 99.6647 77.5217C99.3477 77.373 99.0034 77.3021 98.6333 77.3021C98.265 77.3021 97.924 77.373 97.6071 77.5217C97.2901 77.6687 97.0109 77.8693 96.7744 78.1184C96.538 78.3674 96.353 78.6579 96.221 78.9969C96.0891 79.3358 96.0223 79.6938 96.0223 80.0656C96.0223 80.4374 96.0891 80.7902 96.221 81.1292C96.353 81.4681 96.538 81.7639 96.7744 82.0163C97.0109 82.2688 97.2901 82.4694 97.6071 82.6182C97.924 82.7669 98.265 82.843 98.6333 82.843C99.0016 82.843 99.3477 82.7669 99.6647 82.6182C99.9816 82.4694 100.256 82.2706 100.492 82.0163C100.729 81.7639 100.914 81.4681 101.046 81.1292C101.177 80.7902 101.244 80.4374 101.244 80.0656ZM105.712 80.2662C105.712 80.581 105.656 80.8715 105.543 81.1447C105.43 81.4163 105.274 81.6549 105.075 81.8607C104.876 82.0665 104.64 82.2273 104.366 82.3432C104.092 82.4573 103.799 82.5144 103.487 82.5144C103.184 82.5144 102.901 82.4573 102.63 82.3432C102.361 82.2291 102.125 82.0665 101.921 81.8607C101.717 81.6549 101.558 81.4163 101.44 81.1447C101.321 80.8732 101.26 80.581 101.26 80.2662V76.83L101.799 76.7867L102.707 74.5386C102.877 74.0042 103.113 73.5978 103.412 73.3211C103.71 73.0444 104.068 72.906 104.494 72.906C105.308 72.906 105.714 73.3159 105.714 74.1373V80.2662H105.712Z" fill="url(#paint0_linear_1356_582)"/>
<path d="M56.3942 25.3762C57.8419 25.0407 59.3067 24.6914 60.9514 24.6914C65.9763 24.6914 70.4205 27.1973 73.1274 31.0382C73.9721 32.0758 74.5768 33.276 74.9709 34.5678C75.5602 36.1865 75.8806 37.9367 75.8806 39.7611C75.8806 44.5342 73.6825 48.7884 70.2526 51.5485C69.8312 51.9134 69.3926 52.2299 68.9403 52.4928C58.8612 58.952 45.0182 49.0185 27 56.6138C29.4277 54.5922 31.8125 52.5446 34.1425 50.4452C45.8251 45.5649 54.8026 51.9878 61.3437 47.7958C61.6384 47.6246 61.9228 47.4188 62.1969 47.1819C64.4276 45.3868 65.8581 42.6198 65.8581 39.5156C65.8581 38.3292 65.6491 37.1913 65.2654 36.1381C65.0101 35.2976 64.616 34.5177 64.0661 33.8432C62.3066 31.3443 59.4163 29.7152 56.1475 29.7152C55.0784 29.7152 54.1584 29.9349 53.2161 30.1545C52.8186 30.2461 52.7432 30.2531 52.6439 30.3966C52.5376 30.4346 52.4349 30.4761 52.3321 30.5211C53.3035 29.1584 54.2475 27.761 55.1606 26.3274C55.6832 25.5042 55.4587 25.5959 56.3942 25.3797V25.3762Z" fill="url(#paint1_linear_1356_582)"/>
<path fill-rule="evenodd" clip-rule="evenodd" d="M28.3314 19.8041C28.6998 31.0329 29.9813 42.6595 25.8198 53.3227C25.568 53.9695 25.2493 54.6474 24.9375 55.2423C25.2288 55.1628 27.0842 53.5424 27.4491 53.2553C37.5196 45.3175 56.4458 27.6001 56.4458 13.9796C56.4458 -3.04087 28.3332 -8.2186 28.3332 19.8058L28.3314 19.8041ZM35.7395 34.6542C37.266 27.2248 34.7013 18.5347 36.0034 13.2792C36.9337 7.82995 43.9237 6.11787 47.196 10.1992C53.1992 17.6891 40.7953 30.4 35.7395 34.6542Z" fill="url(#paint2_linear_1356_582)"/>
</g>
<defs>
<linearGradient id="paint0_linear_1356_582" x1="52.8571" y1="66.8359" x2="52.8571" y2="87.2114" gradientUnits="userSpaceOnUse">
<stop stop-color="#FC5000"/>
<stop offset="1" stop-color="#E03636"/>
</linearGradient>
<linearGradient id="paint1_linear_1356_582" x1="51.4403" y1="24.6914" x2="51.4403" y2="56.6138" gradientUnits="userSpaceOnUse">
<stop stop-color="#FC5000"/>
<stop offset="1" stop-color="#E03636"/>
</linearGradient>
<linearGradient id="paint2_linear_1356_582" x1="40.6917" y1="2.44508e-06" x2="40.6917" y2="55.2424" gradientUnits="userSpaceOnUse">
<stop stop-color="#FC5000"/>
<stop offset="1" stop-color="#E03636"/>
</linearGradient>
<clipPath id="clip0_1356_582">
<rect width="106" height="103" fill="white"/>
</clipPath>
</defs>
</svg>
