<svg width="76" height="81" viewBox="0 0 76 81" fill="none" xmlns="http://www.w3.org/2000/svg">
<path d="M0.0945808 55.2969C0.0945808 55.3118 0.0982657 55.3268 0.100722 55.3458C0.104407 55.3648 0.104407 55.3839 0.104407 55.3988L0.0945808 55.2982V55.2969ZM0.00245664 54.6781C0.00245664 54.5733 0.0159682 54.4754 0.0429913 54.3857C0.0700144 54.2959 0.121604 54.217 0.191618 54.1531C0.262861 54.0892 0.361127 54.0402 0.486415 54.0035C0.611704 53.9654 0.771386 53.9477 0.967918 53.9477H6.08388C6.53099 53.9477 6.96213 54.0198 7.37484 54.1613C7.78879 54.3041 8.16834 54.5067 8.51104 54.7733C8.85374 55.0398 9.14854 55.3662 9.39543 55.7497C9.64233 56.1319 9.82289 56.5684 9.93835 57.0553C9.9924 57.2879 10.0329 57.5286 10.0575 57.7802C10.0808 58.0318 10.0845 58.2943 10.071 58.5649C10.0575 58.8655 10.0096 59.1347 9.92852 59.3795C9.84746 59.623 9.75902 59.8379 9.66075 60.0174C9.56248 60.1983 9.4679 60.3397 9.37578 60.4485C9.28366 60.5573 9.2161 60.6253 9.17556 60.6471C9.23698 60.677 9.34507 60.7558 9.50107 60.8878C9.65707 61.0197 9.81675 61.2033 9.97889 61.4399C10.141 61.6766 10.2909 61.9649 10.4223 62.3035C10.555 62.6408 10.6287 63.0284 10.6495 63.4636C10.6827 63.9586 10.6532 64.4278 10.5574 64.8712C10.4555 65.4342 10.2688 65.9442 9.99854 66.4025C9.72708 66.8608 9.40158 67.2512 9.02202 67.5735C8.64247 67.8958 8.2187 68.1447 7.75071 68.316C7.28272 68.4888 6.79508 68.5744 6.28655 68.5744H1.75036C1.48627 68.5744 1.25534 68.5214 1.05513 68.4167C0.854912 68.312 0.689089 68.1732 0.55643 68.0005C0.423771 67.8278 0.323049 67.6292 0.254263 67.4076C0.186705 67.1859 0.152312 66.9574 0.152312 66.7167V55.8735C0.152312 55.7905 0.144942 55.7116 0.13143 55.6368C0.117919 55.562 0.104407 55.4832 0.0908958 55.4002L0.0810692 55.2996C0.0270231 55.0738 0 54.8685 0 54.6808L0.00245664 54.6781ZM3.28699 62.2219V65.3295H6.10353C6.27304 65.3295 6.44623 65.2955 6.61943 65.2275C6.79262 65.1595 6.94493 65.0589 7.08005 64.9269C7.21516 64.795 7.32694 64.6345 7.41169 64.4428C7.49645 64.251 7.53698 64.0334 7.53698 63.7859C7.53698 63.5302 7.49645 63.3058 7.41538 63.11C7.33431 62.9142 7.22499 62.7496 7.08987 62.6177C6.95476 62.4858 6.80122 62.3892 6.63171 62.3212C6.4622 62.2532 6.28655 62.2192 6.1023 62.2192H3.28576L3.28699 62.2219ZM3.28699 57.02V59.5087H6.00281C6.14529 59.5087 6.28409 59.4747 6.41675 59.4067C6.54941 59.3387 6.66365 59.249 6.76191 59.1361C6.86018 59.0232 6.93879 58.8927 6.99529 58.7417C7.05302 58.5921 7.08005 58.4303 7.08005 58.2575C7.08005 58.078 7.04934 57.9121 6.98792 57.7625C6.92651 57.6129 6.84544 57.481 6.74349 57.3681C6.64154 57.2552 6.52607 57.1696 6.39464 57.1097C6.26198 57.0499 6.12318 57.02 5.9807 57.02H3.28576H3.28699ZM21.9796 67.5368C21.9796 67.874 21.9047 68.1338 21.7524 68.3133C21.6 68.4942 21.3691 68.584 21.0645 68.584C20.7599 68.584 20.5081 68.482 20.3091 68.2834C20.1089 68.0848 19.9467 67.8251 19.8239 67.5028L19.1729 65.5213L18.786 65.4995V62.9767C18.786 62.7292 18.8302 62.4966 18.9149 62.2818C18.9997 62.0682 19.1151 61.8806 19.2601 61.7187C19.4063 61.5569 19.5758 61.4331 19.7686 61.3434C19.9615 61.2536 20.1654 61.2087 20.3828 61.2087C20.6063 61.2087 20.8164 61.2536 21.0129 61.3434C21.2094 61.4331 21.3789 61.5569 21.5214 61.7187C21.6639 61.8806 21.7757 62.0682 21.8568 62.2818C21.9378 62.4953 21.9784 62.7292 21.9784 62.9767V67.5368H21.9796ZM21.1664 62.9645C21.1664 63.7383 21.0755 64.4659 20.8913 65.1486C20.7083 65.8313 20.4405 66.4243 20.0843 66.9316C19.7281 67.4388 19.2847 67.84 18.7516 68.1365C18.2197 68.433 17.6019 68.5826 16.9042 68.5826C16.2126 68.5826 15.5579 68.433 14.9413 68.1365C14.3247 67.84 13.7855 67.4388 13.3248 66.9316C12.8642 66.4256 12.5006 65.8313 12.2329 65.1486C11.9651 64.4659 11.83 63.7369 11.83 62.9645C11.83 62.1906 11.9651 61.463 12.2329 60.7844C12.5006 60.1044 12.863 59.5115 13.3248 59.0015C13.7855 58.4915 14.3247 58.0862 14.9413 57.7897C15.5579 57.4932 16.2126 57.3464 16.9042 57.3464C17.6031 57.3464 18.2197 57.4932 18.7516 57.7897C19.2834 58.0862 19.7281 58.4915 20.0843 59.0015C20.4405 59.5115 20.7083 60.1044 20.8913 60.7844C21.0743 61.4644 21.1664 62.192 21.1664 62.9645ZM18.7761 62.9645C18.7761 62.6721 18.7282 62.3906 18.6336 62.124C18.5391 61.8574 18.4064 61.629 18.2369 61.4331C18.0674 61.2373 17.8709 61.0809 17.6436 60.9639C17.4164 60.847 17.1695 60.7912 16.9042 60.7912C16.6401 60.7912 16.3956 60.847 16.1684 60.9639C15.9412 61.0795 15.7409 61.2373 15.5714 61.4331C15.4019 61.629 15.2693 61.8574 15.1747 62.124C15.0801 62.3906 15.0322 62.6721 15.0322 62.9645C15.0322 63.2569 15.0801 63.5343 15.1747 63.8009C15.2693 64.0674 15.4019 64.3 15.5714 64.4985C15.7409 64.6971 15.9412 64.8549 16.1684 64.9718C16.3956 65.0888 16.6401 65.1486 16.9042 65.1486C17.1683 65.1486 17.4164 65.0888 17.6436 64.9718C17.8709 64.8549 18.0674 64.6985 18.2369 64.4985C18.4064 64.3 18.5391 64.0674 18.6336 63.8009C18.7282 63.5343 18.7761 63.2569 18.7761 62.9645ZM21.9796 63.1222C21.9796 63.3697 21.9391 63.5982 21.858 63.8131C21.7769 64.0266 21.6651 64.2143 21.5227 64.3761C21.3802 64.538 21.2107 64.6645 21.0141 64.7556C20.8176 64.8453 20.6076 64.8902 20.384 64.8902C20.1666 64.8902 19.9639 64.8453 19.7698 64.7556C19.577 64.6658 19.4075 64.538 19.2613 64.3761C19.1151 64.2143 19.0009 64.0266 18.9162 63.8131C18.8314 63.5996 18.7872 63.3697 18.7872 63.1222V60.4199L19.1741 60.3859L19.8251 58.6179C19.9467 58.1977 20.1162 57.8781 20.33 57.6605C20.5437 57.4429 20.8004 57.3341 21.1063 57.3341C21.6897 57.3341 21.9808 57.6564 21.9808 58.3024V63.1222H21.9796ZM30.8075 55.5444C30.8075 55.2968 30.8518 55.0643 30.9365 54.8494C31.0213 54.6359 31.1367 54.4482 31.2817 54.2864C31.4278 54.1245 31.5973 54.0008 31.7902 53.911C31.983 53.8213 32.1869 53.7764 32.4044 53.7764C32.6279 53.7764 32.838 53.8213 33.0345 53.911C33.231 54.0008 33.4005 54.1245 33.543 54.2864C33.6855 54.4482 33.7973 54.6359 33.8783 54.8494C33.9594 55.0629 33.9999 55.2968 33.9999 55.5444V67.6156C33.9999 67.9312 33.9287 68.1705 33.7825 68.3364C33.6364 68.501 33.4165 68.584 33.1254 68.584C32.8208 68.584 32.5628 68.4752 32.3491 68.2576C32.1354 68.04 31.9658 67.7204 31.8442 67.3001L31.1932 65.5213L30.8063 65.4995V55.5457L30.8075 55.5444ZM33.0038 62.9645C33.0038 63.7383 32.9055 64.4659 32.709 65.1486C32.5124 65.8313 32.2275 66.4243 31.8516 66.9316C31.4757 67.4388 31.0139 67.84 30.4722 68.1365C29.9293 68.433 29.309 68.5826 28.6113 68.5826C27.9124 68.5826 27.2724 68.433 26.689 68.1365C26.1055 67.84 25.6044 67.4388 25.1843 66.9316C24.7642 66.4256 24.4387 65.8313 24.2041 65.1486C23.9707 64.4659 23.8516 63.7369 23.8516 62.9645C23.8516 62.1906 23.9707 61.463 24.2041 60.7844C24.4375 60.1044 24.763 59.5115 25.1843 59.0015C25.6044 58.4915 26.1068 58.0862 26.689 57.7897C27.2724 57.4932 27.9124 57.3464 28.6113 57.3464C29.1407 57.3464 29.6652 57.4932 30.1872 57.7897C30.7093 58.0862 31.1809 58.4915 31.5973 59.0015C32.0137 59.5115 32.3528 60.1044 32.6144 60.7844C32.8748 61.4644 33.0038 62.192 33.0038 62.9645ZM30.8075 62.9645C30.8075 62.6721 30.7596 62.3906 30.6614 62.124C30.5631 61.8574 30.4304 61.629 30.2646 61.4331C30.0988 61.2373 29.8986 61.0809 29.6677 60.9639C29.4367 60.847 29.1898 60.7912 28.9258 60.7912C28.6617 60.7912 28.4172 60.847 28.19 60.9639C27.9627 61.0795 27.7625 61.2373 27.593 61.4331C27.4235 61.629 27.2909 61.8574 27.1963 62.124C27.1017 62.3906 27.0538 62.6721 27.0538 62.9645C27.0538 63.2569 27.1017 63.5343 27.1963 63.8009C27.2909 64.0674 27.4235 64.3 27.593 64.4985C27.7625 64.6971 27.9627 64.8549 28.19 64.9718C28.4172 65.0888 28.6617 65.1486 28.9258 65.1486C29.1898 65.1486 29.438 65.0888 29.6677 64.9718C29.8986 64.8549 30.0976 64.6985 30.2646 64.4985C30.4304 64.3 30.5631 64.0674 30.6614 63.8009C30.7596 63.5343 30.8075 63.2569 30.8075 62.9645ZM42.8291 55.5444C42.8291 55.2968 42.8733 55.0643 42.9581 54.8494C43.0429 54.6359 43.1583 54.4482 43.3033 54.2864C43.4494 54.1245 43.6189 54.0008 43.8118 53.911C44.0046 53.8213 44.2085 53.7764 44.4259 53.7764C44.6495 53.7764 44.8595 53.8213 45.0561 53.911C45.2526 54.0008 45.4221 54.1245 45.5646 54.2864C45.7071 54.4482 45.8189 54.6359 45.8999 54.8494C45.981 55.0629 46.0215 55.2968 46.0215 55.5444V67.6156C46.0215 67.9312 45.9503 68.1705 45.8041 68.3364C45.6579 68.501 45.4381 68.584 45.147 68.584C44.8423 68.584 44.5844 68.4752 44.3707 68.2576C44.1569 68.04 43.9874 67.7204 43.8658 67.3001L43.2148 65.5213L42.8279 65.4995V55.5457L42.8291 55.5444ZM45.0254 62.9645C45.0254 63.7383 44.9271 64.4659 44.7306 65.1486C44.534 65.8313 44.2491 66.4243 43.8732 66.9316C43.4973 67.4388 43.0355 67.84 42.4938 68.1365C41.9509 68.433 41.3306 68.5826 40.6329 68.5826C39.934 68.5826 39.294 68.433 38.7106 68.1365C38.1271 67.84 37.6259 67.4388 37.2059 66.9316C36.7858 66.4256 36.4603 65.8313 36.2257 65.1486C35.9923 64.4659 35.8731 63.7369 35.8731 62.9645C35.8731 62.1906 35.9923 61.463 36.2257 60.7844C36.459 60.1044 36.7845 59.5115 37.2059 59.0015C37.6259 58.4915 38.1283 58.0862 38.7106 57.7897C39.294 57.4932 39.934 57.3464 40.6329 57.3464C41.1623 57.3464 41.6868 57.4932 42.2088 57.7897C42.7309 58.0862 43.2025 58.4915 43.6189 59.0015C44.0353 59.5115 44.3744 60.1044 44.636 60.7844C44.8964 61.4644 45.0254 62.192 45.0254 62.9645ZM42.8291 62.9645C42.8291 62.6721 42.7812 62.3906 42.683 62.124C42.5847 61.8574 42.452 61.629 42.2862 61.4331C42.1204 61.2373 41.9202 61.0809 41.6892 60.9639C41.4583 60.847 41.2114 60.7912 40.9473 60.7912C40.6832 60.7912 40.4388 60.847 40.2116 60.9639C39.9843 61.0795 39.7841 61.2373 39.6146 61.4331C39.4451 61.629 39.3124 61.8574 39.2179 62.124C39.1233 62.3906 39.0754 62.6721 39.0754 62.9645C39.0754 63.2569 39.1233 63.5343 39.2179 63.8009C39.3124 64.0674 39.4451 64.3 39.6146 64.4985C39.7841 64.6971 39.9843 64.8549 40.2116 64.9718C40.4388 65.0888 40.6832 65.1486 40.9473 65.1486C41.2114 65.1486 41.4595 65.0888 41.6892 64.9718C41.9202 64.8549 42.1192 64.6985 42.2862 64.4985C42.452 64.3 42.5847 64.0674 42.683 63.8009C42.7812 63.5343 42.8291 63.2569 42.8291 62.9645ZM55.3482 65.5199V62.9074C55.3482 62.615 55.304 62.3375 55.2131 62.0737C55.1209 61.8112 54.9957 61.5814 54.8372 61.3869C54.6775 61.191 54.4847 61.0346 54.2611 60.9177C54.0376 60.8007 53.7931 60.745 53.529 60.745C53.2576 60.745 53.0033 60.8089 52.7662 60.9408C52.5292 61.0727 52.3228 61.2482 52.1423 61.4658C51.9629 61.6834 51.8204 61.9309 51.7185 62.2083C51.6165 62.4858 51.5662 62.7673 51.5662 63.0529L51.4335 59.011C51.4949 58.8151 51.6092 58.6207 51.7762 58.418C51.942 58.2154 52.1423 58.0345 52.3756 57.8768C52.609 57.7149 52.867 57.5844 53.1483 57.4796C53.4295 57.3749 53.7182 57.3219 54.0167 57.3219C54.7082 57.3219 55.3322 57.4688 55.8911 57.7652C56.4475 58.0576 56.9253 58.4561 57.3184 58.962C57.7115 59.4652 58.0173 60.0541 58.2274 60.73C58.4374 61.41 58.543 62.1335 58.543 62.9074V66.1169L55.3494 65.5199H55.3482ZM48.3713 55.611C48.3713 55.3635 48.4118 55.1309 48.4929 54.9161C48.574 54.7025 48.6858 54.5176 48.8282 54.3598C48.9707 54.2021 49.1402 54.0742 49.3368 53.9804C49.5333 53.8865 49.7433 53.8417 49.9669 53.8417C50.1843 53.8417 50.3907 53.8865 50.5835 53.9804C50.7764 54.0742 50.9459 54.2021 51.092 54.3598C51.2382 54.5176 51.3524 54.7012 51.4372 54.9161C51.522 55.1296 51.5625 55.3621 51.5625 55.611V66.8146C51.5625 67.0621 51.522 67.292 51.4372 67.5055C51.3524 67.719 51.237 67.9067 51.092 68.0685C50.9459 68.2304 50.7764 68.3582 50.5835 68.448C50.3907 68.5377 50.1831 68.5826 49.9669 68.5826C49.7433 68.5826 49.5333 68.5377 49.3368 68.448C49.1402 68.3582 48.9707 68.2304 48.8282 68.0685C48.6858 67.9067 48.574 67.719 48.4929 67.5055C48.4118 67.292 48.3713 67.0621 48.3713 66.8146V55.611ZM58.5418 65.2615V66.8037C58.5418 67.0444 58.5013 67.2688 58.4202 67.4837C58.3391 67.6972 58.2274 67.8849 58.0849 68.0468C57.9387 68.2086 57.7692 68.3392 57.5727 68.4371C57.3761 68.535 57.1661 68.584 56.9425 68.584C56.6748 68.584 56.4438 68.5282 56.2473 68.4153C56.0508 68.3024 55.885 68.1528 55.7523 67.9692C55.6196 67.7856 55.5189 67.5708 55.4501 67.3273C55.3826 67.0839 55.3482 66.8323 55.3482 66.5684V65.116L58.5418 65.2629V65.2615ZM60.7086 59.0912C60.7086 58.8437 60.7491 58.6152 60.8302 58.4003C60.9112 58.1868 61.023 57.9991 61.1655 57.8414C61.3117 57.6836 61.4775 57.5599 61.6703 57.466C61.8669 57.3722 62.0732 57.3232 62.3005 57.3232C62.524 57.3232 62.7316 57.3722 62.9282 57.466C63.121 57.5599 63.2881 57.6836 63.433 57.8414C63.5755 57.9991 63.6873 58.1868 63.772 58.4003C63.8568 58.6139 63.901 58.8437 63.901 59.0912V66.816C63.901 67.0635 63.8568 67.2933 63.772 67.5068C63.6873 67.7204 63.5755 67.908 63.433 68.0699C63.2868 68.2317 63.121 68.3596 62.9282 68.4493C62.7316 68.5391 62.5253 68.584 62.3005 68.584C62.0732 68.584 61.8669 68.5391 61.6703 68.4493C61.4775 68.3596 61.3105 68.2317 61.1655 68.0699C61.023 67.908 60.9112 67.7204 60.8302 67.5068C60.7491 67.2933 60.7086 67.0635 60.7086 66.816V59.0912ZM60.6275 54.3394C60.6275 54.0919 60.6717 53.8593 60.7565 53.6417C60.8412 53.4241 60.9567 53.2324 61.1016 53.0705C61.2478 52.9087 61.4198 52.7849 61.62 52.6952C61.8202 52.6054 62.0339 52.5605 62.2636 52.5605C62.4872 52.5605 62.7009 52.6054 62.9011 52.6952C63.1014 52.7849 63.2745 52.9087 63.4232 53.0705C63.5718 53.2324 63.6909 53.4228 63.7757 53.6417C63.8605 53.8593 63.901 54.0919 63.901 54.3394C63.901 54.5951 63.8605 54.8317 63.7757 55.0493C63.6909 55.2669 63.5718 55.4546 63.4232 55.6124C63.2745 55.7701 63.1014 55.8939 62.9011 55.9836C62.7009 56.0734 62.4872 56.1183 62.2636 56.1183C62.0327 56.1183 61.819 56.0734 61.62 55.9836C61.4198 55.8939 61.2466 55.7701 61.1016 55.6124C60.9555 55.4546 60.8412 55.2669 60.7565 55.0493C60.6717 54.8317 60.6275 54.5951 60.6275 54.3394ZM75.7911 67.5368C75.7911 67.874 75.7162 68.1338 75.5639 68.3133C75.4116 68.4942 75.1807 68.584 74.876 68.584C74.5714 68.584 74.3196 68.482 74.1206 68.2834C73.9204 68.0848 73.7583 67.8251 73.6354 67.5028L72.9844 65.5213L72.5975 65.4995V62.9767C72.5975 62.7292 72.6417 62.4966 72.7265 62.2818C72.8112 62.0682 72.9267 61.8806 73.0716 61.7187C73.2178 61.5569 73.3873 61.4331 73.5802 61.3434C73.773 61.2536 73.9769 61.2087 74.1943 61.2087C74.4179 61.2087 74.6279 61.2536 74.8245 61.3434C75.021 61.4331 75.1905 61.5569 75.333 61.7187C75.4755 61.8806 75.5872 62.0682 75.6683 62.2818C75.7494 62.4953 75.7899 62.7292 75.7899 62.9767V67.5368H75.7911ZM74.978 62.9645C74.978 63.7383 74.8871 64.4659 74.7029 65.1486C74.5198 65.8313 74.2521 66.4243 73.8959 66.9316C73.5396 67.4388 73.0962 67.84 72.5631 68.1365C72.0312 68.433 71.4134 68.5826 70.7157 68.5826C70.0242 68.5826 69.3695 68.433 68.7529 68.1365C68.1362 67.84 67.597 67.4388 67.1364 66.9316C66.6758 66.4256 66.3122 65.8313 66.0444 65.1486C65.7766 64.4659 65.6415 63.7369 65.6415 62.9645C65.6415 62.1906 65.7766 61.463 66.0444 60.7844C66.3122 60.1044 66.6745 59.5115 67.1364 59.0015C67.597 58.4915 68.1362 58.0862 68.7529 57.7897C69.3695 57.4932 70.0242 57.3464 70.7157 57.3464C71.4146 57.3464 72.0312 57.4932 72.5631 57.7897C73.095 58.0862 73.5396 58.4915 73.8959 59.0015C74.2521 59.5115 74.5198 60.1044 74.7029 60.7844C74.8859 61.4644 74.978 62.192 74.978 62.9645ZM72.5877 62.9645C72.5877 62.6721 72.5398 62.3906 72.4452 62.124C72.3506 61.8574 72.2179 61.629 72.0484 61.4331C71.8789 61.2373 71.6824 61.0809 71.4552 60.9639C71.2279 60.847 70.981 60.7912 70.7157 60.7912C70.4516 60.7912 70.2072 60.847 69.9799 60.9639C69.7527 61.0795 69.5525 61.2373 69.383 61.4331C69.2135 61.629 69.0808 61.8574 68.9862 62.124C68.8917 62.3906 68.8438 62.6721 68.8438 62.9645C68.8438 63.2569 68.8917 63.5343 68.9862 63.8009C69.0808 64.0674 69.2135 64.3 69.383 64.4985C69.5525 64.6971 69.7527 64.8549 69.9799 64.9718C70.2072 65.0888 70.4516 65.1486 70.7157 65.1486C70.9798 65.1486 71.2279 65.0888 71.4552 64.9718C71.6824 64.8549 71.8789 64.6985 72.0484 64.4985C72.2179 64.3 72.3506 64.0674 72.4452 63.8009C72.5398 63.5343 72.5877 63.2569 72.5877 62.9645ZM75.7911 63.1222C75.7911 63.3697 75.7506 63.5982 75.6695 63.8131C75.5885 64.0266 75.4767 64.2143 75.3342 64.3761C75.1917 64.538 75.0222 64.6645 74.8257 64.7556C74.6292 64.8453 74.4191 64.8902 74.1956 64.8902C73.9781 64.8902 73.7755 64.8453 73.5814 64.7556C73.3885 64.6658 73.219 64.538 73.0729 64.3761C72.9267 64.2143 72.8125 64.0266 72.7277 63.8131C72.643 63.5996 72.5987 63.3697 72.5987 63.1222V60.4199L72.9857 60.3859L73.6367 58.6179C73.7583 58.1977 73.9278 57.8781 74.1415 57.6605C74.3552 57.4429 74.612 57.3341 74.9178 57.3341C75.5013 57.3341 75.7924 57.6564 75.7924 58.3024V63.1222H75.7911Z" fill="white"/>
<path d="M40.4278 19.9546C41.4658 19.6907 42.516 19.416 43.6952 19.416C47.2978 19.416 50.4841 21.3866 52.4248 24.4072C53.0304 25.2232 53.464 26.167 53.7465 27.1829C54.1691 28.4559 54.3988 29.8322 54.3988 31.267C54.3988 35.0205 52.8228 38.3661 50.3637 40.5367C50.0616 40.8236 49.7471 41.0725 49.4228 41.2792C42.1966 46.3588 32.2718 38.547 19.3535 44.5201C21.094 42.9302 22.8039 41.32 24.4744 39.669C32.8503 35.8311 39.2867 40.8821 43.9765 37.5855C44.1877 37.4508 44.3916 37.289 44.5882 37.1027C46.1874 35.691 47.2131 33.515 47.2131 31.0738C47.2131 30.1409 47.0632 29.246 46.7881 28.4178C46.6051 27.7568 46.3225 27.1435 45.9283 26.6131C44.6668 24.6479 42.5946 23.3668 40.251 23.3668C39.4845 23.3668 38.8249 23.5395 38.1493 23.7122C37.8643 23.7843 37.8103 23.7897 37.739 23.9026C37.6629 23.9325 37.5892 23.9652 37.5155 24.0005C38.2119 22.9289 38.8887 21.83 39.5434 20.7026C39.9181 20.0552 39.7572 20.1273 40.4278 19.9573V19.9546Z" fill="white"/>
<path fill-rule="evenodd" clip-rule="evenodd" d="M20.3103 15.5741C20.5743 24.4045 21.4931 33.5477 18.5095 41.9334C18.329 42.4421 18.1005 42.9752 17.877 43.443C18.0858 43.3805 19.416 42.1061 19.6777 41.8804C26.8978 35.638 40.467 21.7049 40.467 10.9937C40.467 -2.39137 20.3115 -6.46318 20.3115 15.5755L20.3103 15.5741ZM25.6215 27.2523C26.716 21.4098 24.8772 14.5759 25.8107 10.4429C26.4777 6.15752 31.4892 4.81113 33.8353 8.02071C38.1394 13.9108 29.2463 23.9068 25.6215 27.2523Z" fill="white"/>
</svg>
