<svg width="56" height="51" viewBox="0 0 56 51" fill="none" xmlns="http://www.w3.org/2000/svg">
<path d="M0.0696911 34.8166C0.0696911 34.826 0.0724063 34.8354 0.0742165 34.8474C0.0769317 34.8594 0.0769317 34.8714 0.0769317 34.8808L0.0696911 34.8175V34.8166ZM0.00181016 34.427C0.00181016 34.3611 0.011766 34.2994 0.0316778 34.2429C0.0515895 34.1864 0.0896028 34.1367 0.141192 34.0965C0.193687 34.0562 0.266093 34.0254 0.358411 34.0023C0.450729 33.9783 0.56839 33.9672 0.713202 33.9672H4.48286C4.81231 33.9672 5.12999 34.0126 5.4341 34.1016C5.73911 34.1915 6.01878 34.3191 6.27129 34.4869C6.52381 34.6548 6.74103 34.8603 6.92295 35.1018C7.10487 35.3424 7.23792 35.6172 7.323 35.9238C7.36282 36.0702 7.39269 36.2218 7.41079 36.3802C7.42799 36.5386 7.4307 36.7039 7.42074 36.8743C7.41079 37.0635 7.37549 37.2331 7.31575 37.3872C7.25602 37.5405 7.19085 37.6758 7.11845 37.7888C7.04604 37.9027 6.97635 37.9917 6.90847 38.0602C6.84059 38.1287 6.79081 38.1716 6.76094 38.1853C6.8062 38.2041 6.88584 38.2538 7.00079 38.3368C7.11573 38.4199 7.23339 38.5355 7.35286 38.6845C7.47233 38.8335 7.58275 39.015 7.6796 39.2282C7.77735 39.4406 7.83165 39.6846 7.84704 39.9586C7.87147 40.2703 7.84975 40.5657 7.77916 40.8449C7.70403 41.1994 7.56646 41.5205 7.36734 41.8091C7.16732 42.0976 6.92748 42.3434 6.64781 42.5463C6.36814 42.7493 6.05589 42.906 5.71105 43.0139C5.36622 43.1226 5.0069 43.1766 4.6322 43.1766H1.28974C1.09515 43.1766 0.924991 43.1432 0.777463 43.0772C0.629935 43.0113 0.507749 42.924 0.410001 42.8152C0.312252 42.7065 0.238036 42.5814 0.187351 42.4419C0.137572 42.3023 0.11223 42.1584 0.11223 42.0069V35.1797C0.11223 35.1274 0.106799 35.0778 0.0968435 35.0307C0.0868876 34.9836 0.0769317 34.9339 0.0669759 34.8817L0.0597352 34.8183C0.0199117 34.6762 0 34.5469 0 34.4287L0.00181016 34.427ZM2.42199 39.1768V41.1335H4.49734C4.62224 41.1335 4.74986 41.1121 4.87747 41.0692C5.00509 41.0264 5.11732 40.9631 5.21688 40.88C5.31644 40.7969 5.3988 40.6959 5.46125 40.5752C5.5237 40.4544 5.55357 40.3174 5.55357 40.1616C5.55357 40.0006 5.5237 39.8593 5.46396 39.736C5.40423 39.6127 5.32368 39.5091 5.22412 39.426C5.12456 39.343 5.01142 39.2822 4.88652 39.2393C4.76162 39.1965 4.6322 39.1751 4.49643 39.1751H2.42109L2.42199 39.1768ZM2.42199 35.9015V37.4685H4.42312C4.52811 37.4685 4.63039 37.4471 4.72813 37.4043C4.82588 37.3615 4.91005 37.305 4.98246 37.2339C5.05487 37.1628 5.11279 37.0806 5.15443 36.9856C5.19696 36.8914 5.21688 36.7895 5.21688 36.6808C5.21688 36.5677 5.19425 36.4633 5.149 36.3691C5.10374 36.2749 5.04401 36.1918 4.96889 36.1207C4.89376 36.0497 4.80869 35.9957 4.71184 35.958C4.61409 35.9204 4.51182 35.9015 4.40683 35.9015H2.42109H2.42199ZM16.1955 42.5232C16.1955 42.7356 16.1403 42.8991 16.028 43.0122C15.9158 43.126 15.7457 43.1826 15.5212 43.1826C15.2967 43.1826 15.1112 43.1183 14.9646 42.9933C14.8171 42.8683 14.6976 42.7048 14.6071 42.5018L14.1274 41.2542L13.8423 41.2405V39.6521C13.8423 39.4962 13.8749 39.3498 13.9373 39.2145C13.9998 39.0801 14.0848 38.9619 14.1916 38.86C14.2993 38.7581 14.4242 38.6802 14.5663 38.6237C14.7084 38.5672 14.8587 38.5389 15.0189 38.5389C15.1836 38.5389 15.3384 38.5672 15.4832 38.6237C15.628 38.6802 15.7529 38.7581 15.8579 38.86C15.9629 38.9619 16.0452 39.0801 16.105 39.2145C16.1647 39.349 16.1946 39.4962 16.1946 39.6521V42.5232H16.1955ZM15.5963 39.6444C15.5963 40.1316 15.5294 40.5897 15.3936 41.0196C15.2587 41.4494 15.0614 41.8228 14.799 42.1422C14.5365 42.4616 14.2097 42.7142 13.8169 42.9008C13.425 43.0875 12.9698 43.1817 12.4557 43.1817C11.9461 43.1817 11.4637 43.0875 11.0094 42.9008C10.555 42.7142 10.1577 42.4616 9.8183 42.1422C9.47889 41.8236 9.21099 41.4494 9.01368 41.0196C8.81638 40.5897 8.71682 40.1307 8.71682 39.6444C8.71682 39.1571 8.81638 38.699 9.01368 38.2717C9.21099 37.8436 9.47799 37.4703 9.8183 37.1491C10.1577 36.828 10.555 36.5729 11.0094 36.3862C11.4637 36.1995 11.9461 36.107 12.4557 36.107C12.9707 36.107 13.425 36.1995 13.8169 36.3862C14.2088 36.5729 14.5365 36.828 14.799 37.1491C15.0614 37.4703 15.2587 37.8436 15.3936 38.2717C15.5284 38.6999 15.5963 39.158 15.5963 39.6444ZM13.835 39.6444C13.835 39.4603 13.7997 39.283 13.7301 39.1152C13.6604 38.9473 13.5626 38.8035 13.4377 38.6802C13.3128 38.5569 13.168 38.4584 13.0006 38.3848C12.8331 38.3111 12.6512 38.276 12.4557 38.276C12.2611 38.276 12.081 38.3111 11.9136 38.3848C11.7461 38.4576 11.5986 38.5569 11.4737 38.6802C11.3488 38.8035 11.251 38.9473 11.1813 39.1152C11.1117 39.283 11.0764 39.4603 11.0764 39.6444C11.0764 39.8285 11.1117 40.0032 11.1813 40.171C11.251 40.3388 11.3488 40.4852 11.4737 40.6103C11.5986 40.7353 11.7461 40.8346 11.9136 40.9083C12.081 40.9819 12.2611 41.0196 12.4557 41.0196C12.6503 41.0196 12.8331 40.9819 13.0006 40.9083C13.168 40.8346 13.3128 40.7361 13.4377 40.6103C13.5626 40.4852 13.6604 40.3388 13.7301 40.171C13.7997 40.0032 13.835 39.8285 13.835 39.6444ZM16.1955 39.7437C16.1955 39.8995 16.1656 40.0434 16.1059 40.1787C16.0461 40.3131 15.9638 40.4313 15.8588 40.5332C15.7538 40.6351 15.6289 40.7147 15.4841 40.7721C15.3393 40.8286 15.1845 40.8569 15.0198 40.8569C14.8596 40.8569 14.7103 40.8286 14.5673 40.7721C14.4252 40.7156 14.3003 40.6351 14.1925 40.5332C14.0848 40.4313 14.0007 40.3131 13.9382 40.1787C13.8758 40.0443 13.8432 39.8995 13.8432 39.7437V38.0423L14.1283 38.0208L14.608 36.9077C14.6976 36.6431 14.8225 36.4418 14.98 36.3048C15.1375 36.1678 15.3266 36.0993 15.552 36.0993C15.9819 36.0993 16.1964 36.3023 16.1964 36.709V39.7437H16.1955ZM22.7003 34.9725C22.7003 34.8166 22.7329 34.6702 22.7953 34.5349C22.8578 34.4005 22.9429 34.2823 23.0497 34.1804C23.1574 34.0785 23.2823 34.0006 23.4244 33.944C23.5665 33.8875 23.7167 33.8593 23.8769 33.8593C24.0416 33.8593 24.1964 33.8875 24.3412 33.944C24.486 34.0006 24.6109 34.0785 24.7159 34.1804C24.8209 34.2823 24.9033 34.4005 24.963 34.5349C25.0227 34.6693 25.0526 34.8166 25.0526 34.9725V42.5729C25.0526 42.7715 25.0001 42.9222 24.8924 43.0267C24.7847 43.1303 24.6227 43.1826 24.4082 43.1826C24.1837 43.1826 23.9936 43.1141 23.8362 42.9771C23.6787 42.84 23.5538 42.6388 23.4642 42.3742L22.9845 41.2542L22.6994 41.2405V34.9733L22.7003 34.9725ZM24.3186 39.6444C24.3186 40.1316 24.2462 40.5897 24.1014 41.0196C23.9565 41.4494 23.7466 41.8228 23.4696 42.1422C23.1927 42.4616 22.8523 42.7142 22.4532 42.9008C22.0532 43.0875 21.5961 43.1817 21.082 43.1817C20.567 43.1817 20.0955 43.0875 19.6656 42.9008C19.2356 42.7142 18.8664 42.4616 18.5568 42.1422C18.2473 41.8236 18.0075 41.4494 17.8346 41.0196C17.6626 40.5897 17.5748 40.1307 17.5748 39.6444C17.5748 39.1571 17.6626 38.699 17.8346 38.2717C18.0066 37.8436 18.2464 37.4703 18.5568 37.1491C18.8664 36.828 19.2366 36.5729 19.6656 36.3862C20.0955 36.1995 20.567 36.107 21.082 36.107C21.4721 36.107 21.8586 36.1995 22.2432 36.3862C22.6279 36.5729 22.9754 36.828 23.2823 37.1491C23.5891 37.4703 23.8389 37.8436 24.0317 38.2717C24.2235 38.6999 24.3186 39.158 24.3186 39.6444ZM22.7003 39.6444C22.7003 39.4603 22.665 39.283 22.5926 39.1152C22.5202 38.9473 22.4224 38.8035 22.3002 38.6802C22.1781 38.5569 22.0305 38.4584 21.8604 38.3848C21.6902 38.3111 21.5083 38.276 21.3137 38.276C21.1191 38.276 20.939 38.3111 20.7716 38.3848C20.6041 38.4576 20.4566 38.5569 20.3317 38.6802C20.2068 38.8035 20.1091 38.9473 20.0394 39.1152C19.9697 39.283 19.9344 39.4603 19.9344 39.6444C19.9344 39.8285 19.9697 40.0032 20.0394 40.171C20.1091 40.3388 20.2068 40.4852 20.3317 40.6103C20.4566 40.7353 20.6041 40.8346 20.7716 40.9083C20.939 40.9819 21.1191 41.0196 21.3137 41.0196C21.5083 41.0196 21.6911 40.9819 21.8604 40.9083C22.0305 40.8346 22.1772 40.7361 22.3002 40.6103C22.4224 40.4852 22.5202 40.3388 22.5926 40.171C22.665 40.0032 22.7003 39.8285 22.7003 39.6444ZM31.5583 34.9725C31.5583 34.8166 31.5909 34.6702 31.6533 34.5349C31.7158 34.4005 31.8009 34.2823 31.9077 34.1804C32.0154 34.0785 32.1403 34.0006 32.2824 33.944C32.4245 33.8875 32.5747 33.8593 32.7349 33.8593C32.8996 33.8593 33.0544 33.8875 33.1992 33.944C33.344 34.0006 33.4689 34.0785 33.5739 34.1804C33.6789 34.2823 33.7613 34.4005 33.821 34.5349C33.8807 34.6693 33.9106 34.8166 33.9106 34.9725V42.5729C33.9106 42.7715 33.8581 42.9222 33.7504 43.0267C33.6427 43.1303 33.4807 43.1826 33.2662 43.1826C33.0417 43.1826 32.8517 43.1141 32.6942 42.9771C32.5367 42.84 32.4118 42.6388 32.3222 42.3742L31.8425 41.2542L31.5574 41.2405V34.9733L31.5583 34.9725ZM33.1766 39.6444C33.1766 40.1316 33.1042 40.5897 32.9594 41.0196C32.8146 41.4494 32.6046 41.8228 32.3276 42.1422C32.0507 42.4616 31.7104 42.7142 31.3112 42.9008C30.9112 43.0875 30.4541 43.1817 29.94 43.1817C29.425 43.1817 28.9535 43.0875 28.5236 42.9008C28.0937 42.7142 27.7244 42.4616 27.4148 42.1422C27.1053 41.8236 26.8655 41.4494 26.6926 41.0196C26.5206 40.5897 26.4328 40.1307 26.4328 39.6444C26.4328 39.1571 26.5206 38.699 26.6926 38.2717C26.8646 37.8436 27.1044 37.4703 27.4148 37.1491C27.7244 36.828 28.0946 36.5729 28.5236 36.3862C28.9535 36.1995 29.425 36.107 29.94 36.107C30.3301 36.107 30.7166 36.1995 31.1012 36.3862C31.4859 36.5729 31.8334 36.828 32.1403 37.1491C32.4471 37.4703 32.6969 37.8436 32.8897 38.2717C33.0815 38.6999 33.1766 39.158 33.1766 39.6444ZM31.5583 39.6444C31.5583 39.4603 31.523 39.283 31.4506 39.1152C31.3782 38.9473 31.2804 38.8035 31.1583 38.6802C31.0361 38.5569 30.8885 38.4584 30.7184 38.3848C30.5482 38.3111 30.3663 38.276 30.1717 38.276C29.9771 38.276 29.797 38.3111 29.6296 38.3848C29.4621 38.4576 29.3146 38.5569 29.1897 38.6802C29.0648 38.8035 28.9671 38.9473 28.8974 39.1152C28.8277 39.283 28.7924 39.4603 28.7924 39.6444C28.7924 39.8285 28.8277 40.0032 28.8974 40.171C28.9671 40.3388 29.0648 40.4852 29.1897 40.6103C29.3146 40.7353 29.4621 40.8346 29.6296 40.9083C29.797 40.9819 29.9771 41.0196 30.1717 41.0196C30.3663 41.0196 30.5491 40.9819 30.7184 40.9083C30.8885 40.8346 31.0352 40.7361 31.1583 40.6103C31.2804 40.4852 31.3782 40.3388 31.4506 40.171C31.523 40.0032 31.5583 39.8285 31.5583 39.6444ZM40.7829 41.2533V39.6084C40.7829 39.4243 40.7503 39.2496 40.6833 39.0835C40.6154 38.9182 40.5231 38.7735 40.4064 38.6511C40.2887 38.5278 40.1466 38.4293 39.9819 38.3557C39.8171 38.282 39.637 38.2469 39.4424 38.2469C39.2424 38.2469 39.0551 38.2872 38.8804 38.3702C38.7057 38.4533 38.5537 38.5637 38.4206 38.7007C38.2885 38.8377 38.1835 38.9936 38.1084 39.1683C38.0332 39.343 37.9961 39.5202 37.9961 39.7L37.8984 37.1551C37.9436 37.0318 38.0278 36.9094 38.1509 36.7818C38.2731 36.6542 38.4206 36.5403 38.5926 36.441C38.7645 36.3391 38.9546 36.2569 39.1619 36.191C39.3691 36.125 39.5818 36.0916 39.8018 36.0916C40.3113 36.0916 40.7711 36.1841 41.1829 36.3708C41.5929 36.5549 41.945 36.8058 42.2346 37.1243C42.5242 37.4411 42.7496 37.8119 42.9044 38.2375C43.0591 38.6656 43.137 39.1212 43.137 39.6084V41.6293L40.7838 41.2533H40.7829ZM35.642 35.0144C35.642 34.8586 35.6719 34.7121 35.7316 34.5768C35.7914 34.4424 35.8737 34.326 35.9787 34.2266C36.0837 34.1273 36.2086 34.0468 36.3534 33.9877C36.4982 33.9286 36.653 33.9004 36.8177 33.9004C36.9779 33.9004 37.13 33.9286 37.2721 33.9877C37.4142 34.0468 37.5391 34.1273 37.6468 34.2266C37.7545 34.326 37.8386 34.4416 37.9011 34.5768C37.9635 34.7113 37.9934 34.8577 37.9934 35.0144V42.0685C37.9934 42.2244 37.9635 42.3691 37.9011 42.5035C37.8386 42.638 37.7536 42.7561 37.6468 42.858C37.5391 42.9599 37.4142 43.0404 37.2721 43.0969C37.13 43.1534 36.977 43.1817 36.8177 43.1817C36.653 43.1817 36.4982 43.1534 36.3534 43.0969C36.2086 43.0404 36.0837 42.9599 35.9787 42.858C35.8737 42.7561 35.7914 42.638 35.7316 42.5035C35.6719 42.3691 35.642 42.2244 35.642 42.0685V35.0144ZM43.1361 41.0906V42.0617C43.1361 42.2132 43.1062 42.3545 43.0465 42.4898C42.9867 42.6243 42.9044 42.7424 42.7994 42.8443C42.6917 42.9462 42.5668 43.0284 42.422 43.0901C42.2772 43.1517 42.1224 43.1826 41.9577 43.1826C41.7604 43.1826 41.5902 43.1475 41.4454 43.0764C41.3006 43.0053 41.1784 42.9111 41.0806 42.7955C40.9829 42.6799 40.9087 42.5446 40.858 42.3913C40.8082 42.2381 40.7829 42.0797 40.7829 41.9135V40.999L43.1361 41.0915V41.0906ZM44.7326 37.2057C44.7326 37.0498 44.7625 36.906 44.8222 36.7707C44.882 36.6362 44.9643 36.5181 45.0693 36.4187C45.177 36.3194 45.2992 36.2415 45.4413 36.1824C45.5861 36.1233 45.7382 36.0925 45.9056 36.0925C46.0703 36.0925 46.2233 36.1233 46.3681 36.1824C46.5102 36.2415 46.6333 36.3194 46.7401 36.4187C46.8451 36.5181 46.9275 36.6362 46.9899 36.7707C47.0524 36.9051 47.0849 37.0498 47.0849 37.2057V42.0694C47.0849 42.2252 47.0524 42.3699 46.9899 42.5044C46.9275 42.6388 46.8451 42.757 46.7401 42.8589C46.6324 42.9608 46.5102 43.0413 46.3681 43.0978C46.2233 43.1543 46.0712 43.1826 45.9056 43.1826C45.7382 43.1826 45.5861 43.1543 45.4413 43.0978C45.2992 43.0413 45.1761 42.9608 45.0693 42.8589C44.9643 42.757 44.882 42.6388 44.8222 42.5044C44.7625 42.3699 44.7326 42.2252 44.7326 42.0694V37.2057ZM44.6729 34.2138C44.6729 34.0579 44.7055 33.9115 44.7679 33.7745C44.8304 33.6375 44.9155 33.5168 45.0223 33.4149C45.13 33.313 45.2567 33.235 45.4042 33.1785C45.5517 33.122 45.7092 33.0938 45.8785 33.0938C46.0432 33.0938 46.2007 33.122 46.3482 33.1785C46.4957 33.235 46.6233 33.313 46.7329 33.4149C46.8424 33.5168 46.9302 33.6366 46.9926 33.7745C47.0551 33.9115 47.0849 34.0579 47.0849 34.2138C47.0849 34.3748 47.0551 34.5238 46.9926 34.6608C46.9302 34.7978 46.8424 34.9159 46.7329 35.0153C46.6233 35.1146 46.4957 35.1925 46.3482 35.249C46.2007 35.3055 46.0432 35.3338 45.8785 35.3338C45.7083 35.3338 45.5508 35.3055 45.4042 35.249C45.2567 35.1925 45.1291 35.1146 45.0223 35.0153C44.9146 34.9159 44.8304 34.7978 44.7679 34.6608C44.7055 34.5238 44.6729 34.3748 44.6729 34.2138ZM55.8461 42.5232C55.8461 42.7356 55.7909 42.8991 55.6787 43.0122C55.5664 43.126 55.3963 43.1826 55.1718 43.1826C54.9474 43.1826 54.7618 43.1183 54.6152 42.9933C54.4677 42.8683 54.3482 42.7048 54.2577 42.5018L53.778 41.2542L53.4929 41.2405V39.6521C53.4929 39.4962 53.5255 39.3498 53.5879 39.2145C53.6504 39.0801 53.7355 38.9619 53.8423 38.86C53.95 38.7581 54.0749 38.6802 54.217 38.6237C54.3591 38.5672 54.5093 38.5389 54.6695 38.5389C54.8342 38.5389 54.989 38.5672 55.1338 38.6237C55.2786 38.6802 55.4035 38.7581 55.5085 38.86C55.6135 38.9619 55.6959 39.0801 55.7556 39.2145C55.8153 39.349 55.8452 39.4962 55.8452 39.6521V42.5232H55.8461ZM55.2469 39.6444C55.2469 40.1316 55.18 40.5897 55.0442 41.0196C54.9094 41.4494 54.712 41.8228 54.4496 42.1422C54.1871 42.4616 53.8604 42.7142 53.4676 42.9008C53.0757 43.0875 52.6204 43.1817 52.1063 43.1817C51.5968 43.1817 51.1144 43.0875 50.66 42.9008C50.2057 42.7142 49.8083 42.4616 49.4689 42.1422C49.1295 41.8236 48.8616 41.4494 48.6643 41.0196C48.467 40.5897 48.3674 40.1307 48.3674 39.6444C48.3674 39.1571 48.467 38.699 48.6643 38.2717C48.8616 37.8436 49.1286 37.4703 49.4689 37.1491C49.8083 36.828 50.2057 36.5729 50.66 36.3862C51.1144 36.1995 51.5968 36.107 52.1063 36.107C52.6213 36.107 53.0757 36.1995 53.4676 36.3862C53.8595 36.5729 54.1871 36.828 54.4496 37.1491C54.712 37.4703 54.9094 37.8436 55.0442 38.2717C55.1791 38.6999 55.2469 39.158 55.2469 39.6444ZM53.4857 39.6444C53.4857 39.4603 53.4504 39.283 53.3807 39.1152C53.311 38.9473 53.2132 38.8035 53.0883 38.6802C52.9634 38.5569 52.8186 38.4584 52.6512 38.3848C52.4837 38.3111 52.3018 38.276 52.1063 38.276C51.9117 38.276 51.7316 38.3111 51.5642 38.3848C51.3967 38.4576 51.2492 38.5569 51.1243 38.6802C50.9994 38.8035 50.9017 38.9473 50.832 39.1152C50.7623 39.283 50.727 39.4603 50.727 39.6444C50.727 39.8285 50.7623 40.0032 50.832 40.171C50.9017 40.3388 50.9994 40.4852 51.1243 40.6103C51.2492 40.7353 51.3967 40.8346 51.5642 40.9083C51.7316 40.9819 51.9117 41.0196 52.1063 41.0196C52.3009 41.0196 52.4837 40.9819 52.6512 40.9083C52.8186 40.8346 52.9634 40.7361 53.0883 40.6103C53.2132 40.4852 53.311 40.3388 53.3807 40.171C53.4504 40.0032 53.4857 39.8285 53.4857 39.6444ZM55.8461 39.7437C55.8461 39.8995 55.8162 40.0434 55.7565 40.1787C55.6968 40.3131 55.6144 40.4313 55.5094 40.5332C55.4044 40.6351 55.2795 40.7147 55.1347 40.7721C54.9899 40.8286 54.8351 40.8569 54.6704 40.8569C54.5102 40.8569 54.3609 40.8286 54.2179 40.7721C54.0758 40.7156 53.9509 40.6351 53.8432 40.5332C53.7355 40.4313 53.6513 40.3131 53.5888 40.1787C53.5264 40.0443 53.4938 39.8995 53.4938 39.7437V38.0423L53.7789 38.0208L54.2586 36.9077C54.3482 36.6431 54.4731 36.4418 54.6306 36.3048C54.7881 36.1678 54.9772 36.0993 55.2026 36.0993C55.6325 36.0993 55.847 36.3023 55.847 36.709V39.7437H55.8461Z" fill="white"/>
<path d="M29.7902 12.5637C30.555 12.3976 31.3288 12.2246 32.1977 12.2246C34.8523 12.2246 37.2 13.4654 38.6301 15.3672C39.0763 15.881 39.3958 16.4752 39.6039 17.1149C39.9153 17.9164 40.0845 18.7829 40.0845 19.6863C40.0845 22.0497 38.9233 24.1562 37.1113 25.5228C36.8887 25.7035 36.657 25.8602 36.4181 25.9903C31.0935 29.1886 23.7804 24.27 14.2617 28.0309C15.5442 27.0299 16.8041 26.016 18.035 24.9765C24.2067 22.56 28.9493 25.7403 32.4049 23.6646C32.5606 23.5799 32.7109 23.478 32.8557 23.3607C34.0341 22.4718 34.7898 21.1018 34.7898 19.5647C34.7898 18.9773 34.6794 18.4139 34.4767 17.8924C34.3418 17.4762 34.1336 17.09 33.8431 16.7561C32.9136 15.5188 31.3867 14.7121 29.6598 14.7121C29.0951 14.7121 28.609 14.8209 28.1112 14.9296C27.9013 14.975 27.8614 14.9784 27.8089 15.0495C27.7528 15.0683 27.6985 15.0889 27.6442 15.1112C28.1574 14.4364 28.6561 13.7445 29.1385 13.0347C29.4146 12.6271 29.296 12.6724 29.7902 12.5654V12.5637Z" fill="white"/>
<path fill-rule="evenodd" clip-rule="evenodd" d="M14.9687 9.80592C15.1633 15.3658 15.8403 21.1226 13.6419 26.4025C13.5088 26.7228 13.3405 27.0584 13.1758 27.353C13.3296 27.3136 14.3098 26.5113 14.5026 26.3691C19.8227 22.4388 29.8211 13.6661 29.8211 6.92193C29.8211 -1.50567 14.9696 -4.0694 14.9696 9.80677L14.9687 9.80592ZM18.8823 17.1589C19.6887 13.4803 18.3338 9.1774 19.0217 6.57514C19.5131 3.87697 23.2059 3.02924 24.9346 5.05008C28.106 8.75867 21.5532 15.0524 18.8823 17.1589Z" fill="white"/>
</svg>
