<svg width="20" height="22" viewBox="0 0 20 22" fill="none" xmlns="http://www.w3.org/2000/svg">
<path d="M0.447585 0.339882C0.194384 0.602894 0.0478516 1.01238 0.0478516 1.54268V20.4582C0.0478516 20.9885 0.194384 21.398 0.447585 21.661L0.510078 21.7188L11.1919 11.1234V10.8732L0.510078 0.277872L0.447585 0.339882Z" fill="url(#paint0_linear_720_217)"/>
<path d="M14.7486 14.6572L11.1919 11.1237V10.8735L14.7529 7.33991L14.8326 7.38589L19.0497 9.7669C20.2533 10.4426 20.2533 11.5545 19.0497 12.2345L14.8326 14.6113L14.7486 14.6572Z" fill="url(#paint1_linear_720_217)"/>
<path d="M14.8328 14.611L11.1921 10.9983L0.447754 21.661C0.847488 22.078 1.49935 22.1282 2.24063 21.7113L14.8328 14.611Z" fill="url(#paint2_linear_720_217)"/>
<path d="M14.8328 7.38537L2.24063 0.285095C1.49935 -0.1276 0.847488 -0.0773509 0.447754 0.339621L11.1921 10.998L14.8328 7.38537Z" fill="url(#paint3_linear_720_217)"/>
<defs>
<linearGradient id="paint0_linear_720_217" x1="10.2435" y1="20.6552" x2="-4.11048" y2="6.18986" gradientUnits="userSpaceOnUse">
<stop stop-color="#00A0FF"/>
<stop offset="0.0066" stop-color="#00A1FF"/>
<stop offset="0.2601" stop-color="#00BEFF"/>
<stop offset="0.5122" stop-color="#00D2FF"/>
<stop offset="0.7604" stop-color="#00DFFF"/>
<stop offset="1" stop-color="#00E3FF"/>
</linearGradient>
<linearGradient id="paint1_linear_720_217" x1="20.6169" y1="10.9974" x2="-0.23986" y2="10.9974" gradientUnits="userSpaceOnUse">
<stop stop-color="#FFE000"/>
<stop offset="0.4087" stop-color="#FFBD00"/>
<stop offset="0.7754" stop-color="#FFA500"/>
<stop offset="1" stop-color="#FF9C00"/>
</linearGradient>
<linearGradient id="paint2_linear_720_217" x1="12.8531" y1="9.0344" x2="-6.61208" y2="-10.5818" gradientUnits="userSpaceOnUse">
<stop stop-color="#FF3A44"/>
<stop offset="1" stop-color="#C31162"/>
</linearGradient>
<linearGradient id="paint3_linear_720_217" x1="-2.25682" y1="27.9539" x2="6.43525" y2="19.1944" gradientUnits="userSpaceOnUse">
<stop stop-color="#32A071"/>
<stop offset="0.0685" stop-color="#2DA771"/>
<stop offset="0.4762" stop-color="#15CF74"/>
<stop offset="0.8009" stop-color="#06E775"/>
<stop offset="1" stop-color="#00F076"/>
</linearGradient>
</defs>
</svg>
