<svg width="340" height="444" viewBox="0 0 340 444" fill="none" xmlns="http://www.w3.org/2000/svg">
<g filter="url(#filter0_d_1650_556)">
<path d="M4 32C4 14.3269 18.3269 0 36 0H304C321.673 0 336 14.3269 336 32V436H36C18.3269 436 4 421.673 4 404V32Z" fill="white"/>
</g>
<path d="M155.417 163.12C145.817 163.12 138.521 156.304 138.521 143.92C138.521 134.032 143.993 125.584 153.881 120.688C158.777 118.288 164.057 117.04 169.433 117.04L171.353 119.728C166.457 119.728 156.473 122.512 151.769 127.984C149.369 130.768 148.121 133.072 148.121 134.896C149.177 133.552 153.209 132.208 157.337 132.208C162.425 132.208 166.361 134.32 169.049 138.544C171.929 125.776 184.601 117.04 199.385 117.04L201.305 119.728C196.409 119.728 186.425 122.512 181.721 127.984C179.321 130.768 178.073 133.072 178.073 134.896C179.129 133.552 183.161 132.208 187.289 132.208C195.641 132.208 201.497 138.928 201.497 147.184C201.497 156.4 195.161 163.12 185.369 163.12C178.649 163.12 172.985 159.568 170.393 153.712C167.993 159.568 162.713 163.12 155.417 163.12Z" fill="#FC5000"/>
<path d="M90.2187 200.744C90.112 201.384 89.8507 201.917 89.4347 202.344C89.0187 202.771 88.5067 203.085 87.8987 203.288C88.3894 203.373 88.7947 203.624 89.1147 204.04C89.4347 204.456 89.5947 204.947 89.5947 205.512C89.5947 205.683 89.5787 205.848 89.5467 206.008C89.4507 206.573 89.216 207.085 88.8427 207.544C88.4694 207.992 87.9787 208.349 87.3707 208.616C86.7734 208.872 86.1067 209 85.3707 209H80.9227L82.8907 197.88H87.1307C88.144 197.88 88.9174 198.099 89.4507 198.536C89.9947 198.973 90.2667 199.539 90.2667 200.232C90.2667 200.392 90.2507 200.563 90.2187 200.744ZM88.3307 200.968C88.352 200.819 88.3627 200.707 88.3627 200.632C88.3627 200.216 88.2187 199.891 87.9307 199.656C87.6427 199.421 87.2374 199.304 86.7147 199.304H84.4587L83.8827 202.6H86.1387C86.736 202.6 87.2267 202.456 87.6107 202.168C88.0054 201.88 88.2454 201.48 88.3307 200.968ZM87.7547 205.816C87.776 205.645 87.7867 205.523 87.7867 205.448C87.7867 205.011 87.6267 204.664 87.3067 204.408C86.9867 204.152 86.56 204.024 86.0267 204.024H83.6267L83.0027 207.576H85.4667C86.0854 207.576 86.5974 207.421 87.0027 207.112C87.408 206.803 87.6587 206.371 87.7547 205.816ZM91.1768 204.552C91.3368 203.667 91.6568 202.883 92.1368 202.2C92.6275 201.517 93.2248 200.989 93.9288 200.616C94.6328 200.232 95.3688 200.04 96.1368 200.04C96.8301 200.04 97.4115 200.179 97.8808 200.456C98.3501 200.723 98.7021 201.059 98.9368 201.464L99.1608 200.184H101.001L99.4488 209H97.6088L97.8488 207.688C97.4648 208.104 96.9795 208.451 96.3928 208.728C95.8168 209.005 95.1875 209.144 94.5048 209.144C93.8435 209.144 93.2515 208.995 92.7288 208.696C92.2168 208.397 91.8115 207.976 91.5128 207.432C91.2248 206.877 91.0808 206.243 91.0808 205.528C91.0808 205.208 91.1128 204.883 91.1768 204.552ZM98.3928 204.584C98.4355 204.381 98.4568 204.163 98.4568 203.928C98.4568 203.213 98.2435 202.653 97.8168 202.248C97.4008 201.832 96.8781 201.624 96.2488 201.624C95.7795 201.624 95.3208 201.741 94.8728 201.976C94.4248 202.2 94.0355 202.536 93.7048 202.984C93.3741 203.421 93.1555 203.944 93.0488 204.552C93.0061 204.755 92.9848 204.973 92.9848 205.208C92.9848 205.933 93.1928 206.509 93.6088 206.936C94.0355 207.352 94.5635 207.56 95.1928 207.56C95.6621 207.56 96.1208 207.443 96.5688 207.208C97.0168 206.973 97.4061 206.632 97.7368 206.184C98.0675 205.725 98.2861 205.192 98.3928 204.584ZM102.021 204.552C102.181 203.667 102.501 202.883 102.981 202.2C103.471 201.517 104.069 200.989 104.773 200.616C105.477 200.232 106.218 200.04 106.997 200.04C107.573 200.04 108.117 200.168 108.629 200.424C109.141 200.669 109.53 201 109.797 201.416L110.549 197.16H112.389L110.293 209H108.453L108.693 207.672C108.309 208.109 107.829 208.467 107.253 208.744C106.687 209.011 106.063 209.144 105.381 209.144C104.709 209.144 104.111 208.995 103.589 208.696C103.066 208.397 102.655 207.976 102.357 207.432C102.069 206.877 101.925 206.243 101.925 205.528C101.925 205.208 101.957 204.883 102.021 204.552ZM109.237 204.584C109.279 204.381 109.301 204.163 109.301 203.928C109.301 203.213 109.087 202.653 108.661 202.248C108.245 201.832 107.722 201.624 107.093 201.624C106.623 201.624 106.165 201.741 105.717 201.976C105.269 202.2 104.879 202.536 104.549 202.984C104.218 203.421 103.999 203.944 103.893 204.552C103.85 204.755 103.829 204.973 103.829 205.208C103.829 205.933 104.037 206.509 104.453 206.936C104.879 207.352 105.407 207.56 106.037 207.56C106.506 207.56 106.965 207.443 107.413 207.208C107.861 206.973 108.25 206.632 108.581 206.184C108.911 205.725 109.13 205.192 109.237 204.584ZM112.864 204.552C113.024 203.667 113.344 202.883 113.824 202.2C114.315 201.517 114.912 200.989 115.616 200.616C116.32 200.232 117.062 200.04 117.84 200.04C118.416 200.04 118.96 200.168 119.472 200.424C119.984 200.669 120.374 201 120.64 201.416L121.392 197.16H123.232L121.136 209H119.296L119.536 207.672C119.152 208.109 118.672 208.467 118.096 208.744C117.531 209.011 116.907 209.144 116.224 209.144C115.552 209.144 114.955 208.995 114.432 208.696C113.91 208.397 113.499 207.976 113.2 207.432C112.912 206.877 112.768 206.243 112.768 205.528C112.768 205.208 112.8 204.883 112.864 204.552ZM120.08 204.584C120.123 204.381 120.144 204.163 120.144 203.928C120.144 203.213 119.931 202.653 119.504 202.248C119.088 201.832 118.566 201.624 117.936 201.624C117.467 201.624 117.008 201.741 116.56 201.976C116.112 202.2 115.723 202.536 115.392 202.984C115.062 203.421 114.843 203.944 114.736 204.552C114.694 204.755 114.672 204.973 114.672 205.208C114.672 205.933 114.88 206.509 115.296 206.936C115.723 207.352 116.251 207.56 116.88 207.56C117.35 207.56 117.808 207.443 118.256 207.208C118.704 206.973 119.094 206.632 119.424 206.184C119.755 205.725 119.974 205.192 120.08 204.584ZM129.676 200.04C130.561 200.04 131.271 200.291 131.804 200.792C132.337 201.283 132.604 201.987 132.604 202.904C132.604 203.149 132.577 203.448 132.524 203.8L131.596 209H129.788L130.668 204.072C130.711 203.773 130.732 203.56 130.732 203.432C130.732 202.845 130.567 202.397 130.236 202.088C129.916 201.779 129.468 201.624 128.892 201.624C128.199 201.624 127.612 201.837 127.132 202.264C126.663 202.68 126.364 203.283 126.236 204.072V204.04L125.356 209H123.532L125.628 197.16H127.452L126.732 201.208C127.105 200.835 127.548 200.547 128.06 200.344C128.572 200.141 129.111 200.04 129.676 200.04ZM136.611 199.016C136.323 199.016 136.088 198.925 135.907 198.744C135.725 198.563 135.635 198.333 135.635 198.056C135.635 197.683 135.773 197.363 136.051 197.096C136.339 196.819 136.664 196.68 137.027 196.68C137.315 196.68 137.544 196.771 137.715 196.952C137.896 197.133 137.987 197.363 137.987 197.64C137.987 198.013 137.848 198.339 137.571 198.616C137.293 198.883 136.973 199.016 136.611 199.016ZM137.299 200.184L135.747 209H133.923L135.475 200.184H137.299ZM138.317 204.552C138.477 203.667 138.797 202.883 139.277 202.2C139.768 201.517 140.365 200.989 141.069 200.616C141.773 200.232 142.509 200.04 143.277 200.04C143.971 200.04 144.552 200.179 145.021 200.456C145.491 200.723 145.843 201.059 146.077 201.464L146.301 200.184H148.141L146.589 209H144.749L144.989 207.688C144.605 208.104 144.12 208.451 143.533 208.728C142.957 209.005 142.328 209.144 141.645 209.144C140.984 209.144 140.392 208.995 139.869 208.696C139.357 208.397 138.952 207.976 138.653 207.432C138.365 206.877 138.221 206.243 138.221 205.528C138.221 205.208 138.253 204.883 138.317 204.552ZM145.533 204.584C145.576 204.381 145.597 204.163 145.597 203.928C145.597 203.213 145.384 202.653 144.957 202.248C144.541 201.832 144.019 201.624 143.389 201.624C142.92 201.624 142.461 201.741 142.013 201.976C141.565 202.2 141.176 202.536 140.845 202.984C140.515 203.421 140.296 203.944 140.189 204.552C140.147 204.755 140.125 204.973 140.125 205.208C140.125 205.933 140.333 206.509 140.749 206.936C141.176 207.352 141.704 207.56 142.333 207.56C142.803 207.56 143.261 207.443 143.709 207.208C144.157 206.973 144.547 206.632 144.877 206.184C145.208 205.725 145.427 205.192 145.533 204.584ZM157.03 209.144C156.422 209.144 155.867 209.043 155.366 208.84C154.865 208.627 154.47 208.333 154.182 207.96C153.894 207.576 153.75 207.139 153.75 206.648C153.75 206.563 153.761 206.445 153.782 206.296H155.558C155.515 206.701 155.638 207.037 155.926 207.304C156.214 207.571 156.619 207.704 157.142 207.704C157.654 207.704 158.075 207.613 158.406 207.432C158.737 207.251 158.902 206.984 158.902 206.632C158.902 206.333 158.763 206.093 158.486 205.912C158.219 205.731 157.787 205.528 157.19 205.304C156.625 205.08 156.166 204.872 155.814 204.68C155.462 204.488 155.158 204.227 154.902 203.896C154.646 203.555 154.518 203.133 154.518 202.632C154.518 202.12 154.662 201.672 154.95 201.288C155.249 200.893 155.659 200.589 156.182 200.376C156.715 200.152 157.323 200.04 158.006 200.04C158.625 200.04 159.174 200.147 159.654 200.36C160.145 200.563 160.523 200.856 160.79 201.24C161.067 201.613 161.206 202.045 161.206 202.536C161.206 202.685 161.201 202.797 161.19 202.872H159.462C159.505 202.456 159.382 202.12 159.094 201.864C158.817 201.608 158.417 201.48 157.894 201.48C157.435 201.48 157.062 201.576 156.774 201.768C156.497 201.96 156.358 202.221 156.358 202.552C156.358 202.883 156.502 203.149 156.79 203.352C157.078 203.544 157.521 203.757 158.118 203.992C158.662 204.205 159.105 204.408 159.446 204.6C159.787 204.792 160.081 205.048 160.326 205.368C160.571 205.688 160.694 206.088 160.694 206.568C160.694 207.091 160.534 207.549 160.214 207.944C159.905 208.328 159.473 208.627 158.918 208.84C158.363 209.043 157.734 209.144 157.03 209.144ZM162.505 204.552C162.665 203.667 162.985 202.883 163.465 202.2C163.956 201.517 164.553 200.989 165.257 200.616C165.961 200.232 166.697 200.04 167.465 200.04C168.158 200.04 168.74 200.179 169.209 200.456C169.678 200.723 170.03 201.059 170.265 201.464L170.489 200.184H172.329L170.777 209H168.937L169.177 207.688C168.793 208.104 168.308 208.451 167.721 208.728C167.145 209.005 166.516 209.144 165.833 209.144C165.172 209.144 164.58 208.995 164.057 208.696C163.545 208.397 163.14 207.976 162.841 207.432C162.553 206.877 162.409 206.243 162.409 205.528C162.409 205.208 162.441 204.883 162.505 204.552ZM169.721 204.584C169.764 204.381 169.785 204.163 169.785 203.928C169.785 203.213 169.572 202.653 169.145 202.248C168.729 201.832 168.206 201.624 167.577 201.624C167.108 201.624 166.649 201.741 166.201 201.976C165.753 202.2 165.364 202.536 165.033 202.984C164.702 203.421 164.484 203.944 164.377 204.552C164.334 204.755 164.313 204.973 164.313 205.208C164.313 205.933 164.521 206.509 164.937 206.936C165.364 207.352 165.892 207.56 166.521 207.56C166.99 207.56 167.449 207.443 167.897 207.208C168.345 206.973 168.734 206.632 169.065 206.184C169.396 205.725 169.614 205.192 169.721 204.584ZM175.861 199.016C175.573 199.016 175.338 198.925 175.157 198.744C174.975 198.563 174.885 198.333 174.885 198.056C174.885 197.683 175.023 197.363 175.301 197.096C175.589 196.819 175.914 196.68 176.277 196.68C176.565 196.68 176.794 196.771 176.965 196.952C177.146 197.133 177.237 197.363 177.237 197.64C177.237 198.013 177.098 198.339 176.821 198.616C176.543 198.883 176.223 199.016 175.861 199.016ZM176.549 200.184L174.997 209H173.173L174.725 200.184H176.549ZM177.567 204.552C177.727 203.667 178.047 202.883 178.527 202.2C179.018 201.517 179.615 200.989 180.319 200.616C181.023 200.232 181.765 200.04 182.543 200.04C183.119 200.04 183.663 200.168 184.175 200.424C184.687 200.669 185.077 201 185.343 201.416L186.095 197.16H187.935L185.839 209H183.999L184.239 207.672C183.855 208.109 183.375 208.467 182.799 208.744C182.234 209.011 181.61 209.144 180.927 209.144C180.255 209.144 179.658 208.995 179.135 208.696C178.613 208.397 178.202 207.976 177.903 207.432C177.615 206.877 177.471 206.243 177.471 205.528C177.471 205.208 177.503 204.883 177.567 204.552ZM184.783 204.584C184.826 204.381 184.847 204.163 184.847 203.928C184.847 203.213 184.634 202.653 184.207 202.248C183.791 201.832 183.269 201.624 182.639 201.624C182.17 201.624 181.711 201.741 181.263 201.976C180.815 202.2 180.426 202.536 180.095 202.984C179.765 203.421 179.546 203.944 179.439 204.552C179.397 204.755 179.375 204.973 179.375 205.208C179.375 205.933 179.583 206.509 179.999 206.936C180.426 207.352 180.954 207.56 181.583 207.56C182.053 207.56 182.511 207.443 182.959 207.208C183.407 206.973 183.797 206.632 184.127 206.184C184.458 205.725 184.677 205.192 184.783 204.584ZM193.208 204.552C193.368 203.667 193.688 202.883 194.168 202.2C194.659 201.517 195.256 200.989 195.96 200.616C196.664 200.232 197.405 200.04 198.184 200.04C198.76 200.04 199.304 200.168 199.816 200.424C200.328 200.669 200.717 201 200.984 201.416L201.736 197.16H203.576L201.48 209H199.64L199.88 207.672C199.496 208.109 199.016 208.467 198.44 208.744C197.875 209.011 197.251 209.144 196.568 209.144C195.896 209.144 195.299 208.995 194.776 208.696C194.253 208.397 193.843 207.976 193.544 207.432C193.256 206.877 193.112 206.243 193.112 205.528C193.112 205.208 193.144 204.883 193.208 204.552ZM200.424 204.584C200.467 204.381 200.488 204.163 200.488 203.928C200.488 203.213 200.275 202.653 199.848 202.248C199.432 201.832 198.909 201.624 198.28 201.624C197.811 201.624 197.352 201.741 196.904 201.976C196.456 202.2 196.067 202.536 195.736 202.984C195.405 203.421 195.187 203.944 195.08 204.552C195.037 204.755 195.016 204.973 195.016 205.208C195.016 205.933 195.224 206.509 195.64 206.936C196.067 207.352 196.595 207.56 197.224 207.56C197.693 207.56 198.152 207.443 198.6 207.208C199.048 206.973 199.437 206.632 199.768 206.184C200.099 205.725 200.317 205.192 200.424 204.584ZM207.732 209.144C206.985 209.144 206.329 208.989 205.764 208.68C205.198 208.371 204.756 207.933 204.436 207.368C204.126 206.803 203.972 206.157 203.972 205.432C203.972 204.44 204.201 203.533 204.66 202.712C205.129 201.891 205.769 201.24 206.58 200.76C207.401 200.28 208.313 200.04 209.316 200.04C210.062 200.04 210.724 200.2 211.3 200.52C211.876 200.829 212.324 201.267 212.644 201.832C212.974 202.387 213.14 203.032 213.14 203.768C213.14 204.76 212.9 205.667 212.42 206.488C211.94 207.309 211.289 207.96 210.468 208.44C209.646 208.909 208.734 209.144 207.732 209.144ZM207.956 207.608C208.564 207.608 209.118 207.437 209.62 207.096C210.132 206.744 210.532 206.285 210.82 205.72C211.108 205.144 211.252 204.531 211.252 203.88C211.252 203.144 211.044 202.579 210.628 202.184C210.212 201.779 209.689 201.576 209.06 201.576C208.441 201.576 207.886 201.752 207.396 202.104C206.916 202.445 206.537 202.909 206.26 203.496C205.993 204.072 205.86 204.691 205.86 205.352C205.86 206.067 206.052 206.621 206.436 207.016C206.83 207.411 207.337 207.608 207.956 207.608ZM220.111 200.04C221.039 200.04 221.775 200.291 222.319 200.792C222.874 201.283 223.151 201.992 223.151 202.92C223.151 203.155 223.124 203.448 223.071 203.8L222.143 209H220.335L221.215 204.072C221.258 203.773 221.279 203.56 221.279 203.432C221.279 202.845 221.114 202.397 220.783 202.088C220.463 201.779 220.015 201.624 219.439 201.624C218.746 201.624 218.159 201.837 217.679 202.264C217.21 202.68 216.911 203.283 216.783 204.072V204.024L215.903 209H214.079L215.631 200.184H217.455L217.279 201.208C217.642 200.845 218.068 200.563 218.559 200.36C219.06 200.147 219.578 200.04 220.111 200.04ZM227.046 197.88H229.03L226.678 201.688H225.398L227.046 197.88ZM230.905 206.552C230.883 206.701 230.873 206.797 230.873 206.84C230.873 207.064 230.942 207.229 231.081 207.336C231.219 207.432 231.449 207.48 231.769 207.48H232.889L232.617 209H231.177C230.473 209 229.934 208.861 229.561 208.584C229.187 208.296 229.001 207.843 229.001 207.224C229.001 206.989 229.022 206.765 229.065 206.552L229.929 201.672H228.889L229.145 200.184H230.201L230.585 197.992H232.425L232.041 200.184H234.169L233.913 201.672H231.769L230.905 206.552ZM242.247 201.496C242.631 201.069 243.116 200.723 243.703 200.456C244.289 200.179 244.913 200.04 245.575 200.04C246.257 200.04 246.855 200.184 247.367 200.472C247.889 200.76 248.295 201.171 248.583 201.704C248.871 202.227 249.015 202.845 249.015 203.56C249.015 203.869 248.983 204.2 248.919 204.552C248.759 205.437 248.433 206.232 247.943 206.936C247.463 207.629 246.871 208.173 246.167 208.568C245.473 208.952 244.743 209.144 243.975 209.144C243.292 209.144 242.711 209.011 242.231 208.744C241.751 208.477 241.388 208.136 241.143 207.72L240.919 209H239.095L241.191 197.16H243.015L242.247 201.496ZM247.063 204.552C247.105 204.349 247.127 204.131 247.127 203.896C247.127 203.181 246.913 202.627 246.487 202.232C246.071 201.827 245.543 201.624 244.903 201.624C244.444 201.624 243.985 201.741 243.527 201.976C243.079 202.211 242.689 202.552 242.359 203C242.028 203.448 241.809 203.976 241.703 204.584C241.66 204.787 241.639 205.005 241.639 205.24C241.639 205.955 241.847 206.52 242.263 206.936C242.689 207.352 243.217 207.56 243.847 207.56C244.316 207.56 244.775 207.443 245.223 207.208C245.681 206.963 246.076 206.611 246.407 206.152C246.737 205.693 246.956 205.16 247.063 204.552ZM255.314 200.04C256.413 200.04 257.288 200.349 257.938 200.968C258.6 201.587 258.93 202.419 258.93 203.464C258.93 203.709 258.904 204.003 258.85 204.344C258.808 204.579 258.733 204.867 258.626 205.208H251.89C251.88 205.283 251.874 205.395 251.874 205.544C251.874 206.173 252.066 206.675 252.45 207.048C252.845 207.421 253.357 207.608 253.986 207.608C254.978 207.608 255.741 207.197 256.274 206.376H258.242C257.837 207.187 257.24 207.853 256.45 208.376C255.661 208.888 254.749 209.144 253.714 209.144C252.978 209.144 252.333 209 251.778 208.712C251.224 208.424 250.792 208.013 250.482 207.48C250.173 206.936 250.018 206.301 250.018 205.576C250.018 205.267 250.05 204.936 250.114 204.584C250.274 203.677 250.6 202.883 251.09 202.2C251.581 201.507 252.189 200.973 252.914 200.6C253.65 200.227 254.45 200.04 255.314 200.04ZM257.026 203.896C257.048 203.704 257.058 203.565 257.058 203.48C257.058 202.893 256.861 202.429 256.466 202.088C256.082 201.747 255.581 201.576 254.962 201.576C254.312 201.576 253.725 201.784 253.202 202.2C252.68 202.616 252.322 203.181 252.13 203.896H257.026ZM70.5518 225.552C70.7118 224.667 71.0318 223.883 71.5118 223.2C72.0025 222.517 72.5998 221.989 73.3038 221.616C74.0078 221.232 74.7438 221.04 75.5118 221.04C76.2051 221.04 76.7865 221.179 77.2558 221.456C77.7251 221.723 78.0771 222.059 78.3118 222.464L78.5358 221.184H80.3758L78.8238 230H76.9838L77.2238 228.688C76.8398 229.104 76.3545 229.451 75.7678 229.728C75.1918 230.005 74.5625 230.144 73.8798 230.144C73.2185 230.144 72.6265 229.995 72.1038 229.696C71.5918 229.397 71.1865 228.976 70.8878 228.432C70.5998 227.877 70.4558 227.243 70.4558 226.528C70.4558 226.208 70.4878 225.883 70.5518 225.552ZM77.7678 225.584C77.8105 225.381 77.8318 225.163 77.8318 224.928C77.8318 224.213 77.6185 223.653 77.1918 223.248C76.7758 222.832 76.2531 222.624 75.6238 222.624C75.1545 222.624 74.6958 222.741 74.2478 222.976C73.7998 223.2 73.4105 223.536 73.0798 223.984C72.7491 224.421 72.5305 224.944 72.4238 225.552C72.3811 225.755 72.3598 225.973 72.3598 226.208C72.3598 226.933 72.5678 227.509 72.9838 227.936C73.4105 228.352 73.9385 228.56 74.5678 228.56C75.0371 228.56 75.4958 228.443 75.9438 228.208C76.3918 227.973 76.7811 227.632 77.1118 227.184C77.4425 226.725 77.6611 226.192 77.7678 225.584ZM86.7076 219.168C86.1529 219.168 85.7422 219.275 85.4756 219.488C85.2089 219.701 85.0329 220.059 84.9476 220.56L84.8356 221.184H86.4676L86.2116 222.672H84.5796L83.2836 230H81.4436L82.7396 222.672H81.6996L81.9556 221.184H82.9956L83.1076 220.56C83.2889 219.547 83.6889 218.811 84.3076 218.352C84.9262 217.883 85.8116 217.648 86.9636 217.648L86.7076 219.168ZM89.6361 222.736C89.9987 222.203 90.4254 221.787 90.9161 221.488C91.4174 221.189 91.9721 221.04 92.5801 221.04L92.2441 222.928H91.7801C91.0761 222.928 90.5107 223.104 90.0841 223.456C89.6574 223.808 89.3587 224.416 89.1881 225.28L88.3561 230H86.5321L88.0841 221.184H89.9081L89.6361 222.736ZM92.8487 225.552C93.0087 224.667 93.3287 223.883 93.8087 223.2C94.2994 222.517 94.8967 221.989 95.6007 221.616C96.3047 221.232 97.0407 221.04 97.8087 221.04C98.502 221.04 99.0834 221.179 99.5527 221.456C100.022 221.723 100.374 222.059 100.609 222.464L100.833 221.184H102.673L101.121 230H99.2807L99.5207 228.688C99.1367 229.104 98.6514 229.451 98.0647 229.728C97.4887 230.005 96.8594 230.144 96.1767 230.144C95.5154 230.144 94.9234 229.995 94.4007 229.696C93.8887 229.397 93.4834 228.976 93.1847 228.432C92.8967 227.877 92.7527 227.243 92.7527 226.528C92.7527 226.208 92.7847 225.883 92.8487 225.552ZM100.065 225.584C100.107 225.381 100.129 225.163 100.129 224.928C100.129 224.213 99.9154 223.653 99.4887 223.248C99.0727 222.832 98.55 222.624 97.9207 222.624C97.4514 222.624 96.9927 222.741 96.5447 222.976C96.0967 223.2 95.7074 223.536 95.3767 223.984C95.046 224.421 94.8274 224.944 94.7207 225.552C94.678 225.755 94.6567 225.973 94.6567 226.208C94.6567 226.933 94.8647 227.509 95.2807 227.936C95.7074 228.352 96.2354 228.56 96.8647 228.56C97.334 228.56 97.7927 228.443 98.2407 228.208C98.6887 227.973 99.078 227.632 99.4087 227.184C99.7394 226.725 99.958 226.192 100.065 225.584ZM106.204 220.016C105.916 220.016 105.682 219.925 105.5 219.744C105.319 219.563 105.228 219.333 105.228 219.056C105.228 218.683 105.367 218.363 105.644 218.096C105.932 217.819 106.258 217.68 106.62 217.68C106.908 217.68 107.138 217.771 107.308 217.952C107.49 218.133 107.58 218.363 107.58 218.64C107.58 219.013 107.442 219.339 107.164 219.616C106.887 219.883 106.567 220.016 106.204 220.016ZM106.892 221.184L105.34 230H103.516L105.068 221.184H106.892ZM107.911 225.552C108.071 224.667 108.391 223.883 108.871 223.2C109.362 222.517 109.959 221.989 110.663 221.616C111.367 221.232 112.109 221.04 112.887 221.04C113.463 221.04 114.007 221.168 114.519 221.424C115.031 221.669 115.421 222 115.687 222.416L116.439 218.16H118.279L116.183 230H114.343L114.583 228.672C114.199 229.109 113.719 229.467 113.143 229.744C112.578 230.011 111.954 230.144 111.271 230.144C110.599 230.144 110.002 229.995 109.479 229.696C108.957 229.397 108.546 228.976 108.247 228.432C107.959 227.877 107.815 227.243 107.815 226.528C107.815 226.208 107.847 225.883 107.911 225.552ZM115.127 225.584C115.17 225.381 115.191 225.163 115.191 224.928C115.191 224.213 114.978 223.653 114.551 223.248C114.135 222.832 113.613 222.624 112.983 222.624C112.514 222.624 112.055 222.741 111.607 222.976C111.159 223.2 110.77 223.536 110.439 223.984C110.109 224.421 109.89 224.944 109.783 225.552C109.741 225.755 109.719 225.973 109.719 226.208C109.719 226.933 109.927 227.509 110.343 227.936C110.77 228.352 111.298 228.56 111.927 228.56C112.397 228.56 112.855 228.443 113.303 228.208C113.751 227.973 114.141 227.632 114.471 227.184C114.802 226.725 115.021 226.192 115.127 225.584ZM125.936 227.552C125.914 227.701 125.904 227.797 125.904 227.84C125.904 228.064 125.973 228.229 126.112 228.336C126.25 228.432 126.48 228.48 126.8 228.48H127.92L127.648 230H126.208C125.504 230 124.965 229.861 124.592 229.584C124.218 229.296 124.032 228.843 124.032 228.224C124.032 227.989 124.053 227.765 124.096 227.552L124.96 222.672H123.92L124.176 221.184H125.232L125.616 218.992H127.456L127.072 221.184H129.2L128.944 222.672H126.8L125.936 227.552ZM133.185 230.144C132.438 230.144 131.782 229.989 131.217 229.68C130.652 229.371 130.209 228.933 129.889 228.368C129.58 227.803 129.425 227.157 129.425 226.432C129.425 225.44 129.654 224.533 130.113 223.712C130.582 222.891 131.222 222.24 132.033 221.76C132.854 221.28 133.766 221.04 134.769 221.04C135.516 221.04 136.177 221.2 136.753 221.52C137.329 221.829 137.777 222.267 138.097 222.832C138.428 223.387 138.593 224.032 138.593 224.768C138.593 225.76 138.353 226.667 137.873 227.488C137.393 228.309 136.742 228.96 135.921 229.44C135.1 229.909 134.188 230.144 133.185 230.144ZM133.409 228.608C134.017 228.608 134.572 228.437 135.073 228.096C135.585 227.744 135.985 227.285 136.273 226.72C136.561 226.144 136.705 225.531 136.705 224.88C136.705 224.144 136.497 223.579 136.081 223.184C135.665 222.779 135.142 222.576 134.513 222.576C133.894 222.576 133.34 222.752 132.849 223.104C132.369 223.445 131.99 223.909 131.713 224.496C131.446 225.072 131.313 225.691 131.313 226.352C131.313 227.067 131.505 227.621 131.889 228.016C132.284 228.411 132.79 228.608 133.409 228.608ZM147.577 230.144C146.969 230.144 146.414 230.043 145.913 229.84C145.412 229.627 145.017 229.333 144.729 228.96C144.441 228.576 144.297 228.139 144.297 227.648C144.297 227.563 144.308 227.445 144.329 227.296H146.105C146.062 227.701 146.185 228.037 146.473 228.304C146.761 228.571 147.166 228.704 147.689 228.704C148.201 228.704 148.622 228.613 148.953 228.432C149.284 228.251 149.449 227.984 149.449 227.632C149.449 227.333 149.31 227.093 149.033 226.912C148.766 226.731 148.334 226.528 147.737 226.304C147.172 226.08 146.713 225.872 146.361 225.68C146.009 225.488 145.705 225.227 145.449 224.896C145.193 224.555 145.065 224.133 145.065 223.632C145.065 223.12 145.209 222.672 145.497 222.288C145.796 221.893 146.206 221.589 146.729 221.376C147.262 221.152 147.87 221.04 148.553 221.04C149.172 221.04 149.721 221.147 150.201 221.36C150.692 221.563 151.07 221.856 151.337 222.24C151.614 222.613 151.753 223.045 151.753 223.536C151.753 223.685 151.748 223.797 151.737 223.872H150.009C150.052 223.456 149.929 223.12 149.641 222.864C149.364 222.608 148.964 222.48 148.441 222.48C147.982 222.48 147.609 222.576 147.321 222.768C147.044 222.96 146.905 223.221 146.905 223.552C146.905 223.883 147.049 224.149 147.337 224.352C147.625 224.544 148.068 224.757 148.665 224.992C149.209 225.205 149.652 225.408 149.993 225.6C150.334 225.792 150.628 226.048 150.873 226.368C151.118 226.688 151.241 227.088 151.241 227.568C151.241 228.091 151.081 228.549 150.761 228.944C150.452 229.328 150.02 229.627 149.465 229.84C148.91 230.043 148.281 230.144 147.577 230.144ZM159.02 221.04C159.905 221.04 160.614 221.291 161.148 221.792C161.681 222.283 161.948 222.987 161.948 223.904C161.948 224.149 161.921 224.448 161.868 224.8L160.94 230H159.132L160.012 225.072C160.054 224.773 160.076 224.56 160.076 224.432C160.076 223.845 159.91 223.397 159.58 223.088C159.26 222.779 158.812 222.624 158.236 222.624C157.542 222.624 156.956 222.837 156.476 223.264C156.006 223.68 155.708 224.283 155.58 225.072V225.04L154.7 230H152.876L154.972 218.16H156.796L156.076 222.208C156.449 221.835 156.892 221.547 157.404 221.344C157.916 221.141 158.454 221.04 159.02 221.04ZM167.122 230.144C166.376 230.144 165.72 229.989 165.154 229.68C164.589 229.371 164.146 228.933 163.826 228.368C163.517 227.803 163.362 227.157 163.362 226.432C163.362 225.44 163.592 224.533 164.05 223.712C164.52 222.891 165.16 222.24 165.97 221.76C166.792 221.28 167.704 221.04 168.706 221.04C169.453 221.04 170.114 221.2 170.69 221.52C171.266 221.829 171.714 222.267 172.034 222.832C172.365 223.387 172.53 224.032 172.53 224.768C172.53 225.76 172.29 226.667 171.81 227.488C171.33 228.309 170.68 228.96 169.858 229.44C169.037 229.909 168.125 230.144 167.122 230.144ZM167.346 228.608C167.954 228.608 168.509 228.437 169.01 228.096C169.522 227.744 169.922 227.285 170.21 226.72C170.498 226.144 170.642 225.531 170.642 224.88C170.642 224.144 170.434 223.579 170.018 223.184C169.602 222.779 169.08 222.576 168.45 222.576C167.832 222.576 167.277 222.752 166.786 223.104C166.306 223.445 165.928 223.909 165.65 224.496C165.384 225.072 165.25 225.691 165.25 226.352C165.25 227.067 165.442 227.621 165.826 228.016C166.221 228.411 166.728 228.608 167.346 228.608ZM177.326 230.144C176.579 230.144 175.923 229.989 175.358 229.68C174.792 229.371 174.35 228.933 174.03 228.368C173.72 227.803 173.566 227.157 173.566 226.432C173.566 225.44 173.795 224.533 174.254 223.712C174.723 222.891 175.363 222.24 176.174 221.76C176.995 221.28 177.907 221.04 178.91 221.04C179.656 221.04 180.318 221.2 180.894 221.52C181.47 221.829 181.918 222.267 182.238 222.832C182.568 223.387 182.734 224.032 182.734 224.768C182.734 225.76 182.494 226.667 182.014 227.488C181.534 228.309 180.883 228.96 180.062 229.44C179.24 229.909 178.328 230.144 177.326 230.144ZM177.55 228.608C178.158 228.608 178.712 228.437 179.214 228.096C179.726 227.744 180.126 227.285 180.414 226.72C180.702 226.144 180.846 225.531 180.846 224.88C180.846 224.144 180.638 223.579 180.222 223.184C179.806 222.779 179.283 222.576 178.654 222.576C178.035 222.576 177.48 222.752 176.99 223.104C176.51 223.445 176.131 223.909 175.854 224.496C175.587 225.072 175.454 225.691 175.454 226.352C175.454 227.067 175.646 227.621 176.03 228.016C176.424 228.411 176.931 228.608 177.55 228.608ZM186.233 227.552C186.211 227.701 186.201 227.797 186.201 227.84C186.201 228.064 186.27 228.229 186.409 228.336C186.547 228.432 186.777 228.48 187.097 228.48H188.217L187.945 230H186.505C185.801 230 185.262 229.861 184.889 229.584C184.515 229.296 184.329 228.843 184.329 228.224C184.329 227.989 184.35 227.765 184.393 227.552L185.257 222.672H184.217L184.473 221.184H185.529L185.913 218.992H187.753L187.369 221.184H189.497L189.241 222.672H187.097L186.233 227.552ZM196.967 221.184L198.263 227.904L202.023 221.184H203.911L196.231 234.144H194.343L196.887 229.856L194.935 221.184H196.967ZM207.591 230.144C206.845 230.144 206.189 229.989 205.623 229.68C205.058 229.371 204.615 228.933 204.295 228.368C203.986 227.803 203.831 227.157 203.831 226.432C203.831 225.44 204.061 224.533 204.519 223.712C204.989 222.891 205.629 222.24 206.439 221.76C207.261 221.28 208.173 221.04 209.175 221.04C209.922 221.04 210.583 221.2 211.159 221.52C211.735 221.829 212.183 222.267 212.503 222.832C212.834 223.387 212.999 224.032 212.999 224.768C212.999 225.76 212.759 226.667 212.279 227.488C211.799 228.309 211.149 228.96 210.327 229.44C209.506 229.909 208.594 230.144 207.591 230.144ZM207.815 228.608C208.423 228.608 208.978 228.437 209.479 228.096C209.991 227.744 210.391 227.285 210.679 226.72C210.967 226.144 211.111 225.531 211.111 224.88C211.111 224.144 210.903 223.579 210.487 223.184C210.071 222.779 209.549 222.576 208.919 222.576C208.301 222.576 207.746 222.752 207.255 223.104C206.775 223.445 206.397 223.909 206.119 224.496C205.853 225.072 205.719 225.691 205.719 226.352C205.719 227.067 205.911 227.621 206.295 228.016C206.69 228.411 207.197 228.608 207.815 228.608ZM223.474 221.184L221.922 230H220.098L220.274 228.96C219.922 229.323 219.496 229.611 218.994 229.824C218.504 230.027 217.997 230.128 217.474 230.128C216.546 230.128 215.805 229.877 215.25 229.376C214.696 228.875 214.418 228.165 214.418 227.248C214.418 227.003 214.445 226.709 214.498 226.368L215.41 221.184H217.218L216.354 226.096C216.312 226.395 216.29 226.608 216.29 226.736C216.29 227.323 216.45 227.771 216.77 228.08C217.101 228.389 217.554 228.544 218.13 228.544C218.802 228.544 219.373 228.347 219.842 227.952C220.312 227.547 220.621 226.965 220.77 226.208L221.65 221.184H223.474ZM227.433 222.736C227.796 222.203 228.222 221.787 228.713 221.488C229.214 221.189 229.769 221.04 230.377 221.04L230.041 222.928H229.577C228.873 222.928 228.308 223.104 227.881 223.456C227.454 223.808 227.156 224.416 226.985 225.28L226.153 230H224.329L225.881 221.184H227.705L227.433 222.736ZM238.514 230.144C237.906 230.144 237.352 230.043 236.85 229.84C236.349 229.627 235.954 229.333 235.666 228.96C235.378 228.576 235.234 228.139 235.234 227.648C235.234 227.563 235.245 227.445 235.266 227.296H237.042C237 227.701 237.122 228.037 237.41 228.304C237.698 228.571 238.104 228.704 238.626 228.704C239.138 228.704 239.56 228.613 239.89 228.432C240.221 228.251 240.386 227.984 240.386 227.632C240.386 227.333 240.248 227.093 239.97 226.912C239.704 226.731 239.272 226.528 238.674 226.304C238.109 226.08 237.65 225.872 237.298 225.68C236.946 225.488 236.642 225.227 236.386 224.896C236.13 224.555 236.002 224.133 236.002 223.632C236.002 223.12 236.146 222.672 236.434 222.288C236.733 221.893 237.144 221.589 237.666 221.376C238.2 221.152 238.808 221.04 239.49 221.04C240.109 221.04 240.658 221.147 241.138 221.36C241.629 221.563 242.008 221.856 242.274 222.24C242.552 222.613 242.69 223.045 242.69 223.536C242.69 223.685 242.685 223.797 242.674 223.872H240.946C240.989 223.456 240.866 223.12 240.578 222.864C240.301 222.608 239.901 222.48 239.378 222.48C238.92 222.48 238.546 222.576 238.258 222.768C237.981 222.96 237.842 223.221 237.842 223.552C237.842 223.883 237.986 224.149 238.274 224.352C238.562 224.544 239.005 224.757 239.602 224.992C240.146 225.205 240.589 225.408 240.93 225.6C241.272 225.792 241.565 226.048 241.81 226.368C242.056 226.688 242.178 227.088 242.178 227.568C242.178 228.091 242.018 228.549 241.698 228.944C241.389 229.328 240.957 229.627 240.402 229.84C239.848 230.043 239.218 230.144 238.514 230.144ZM249.957 221.04C250.843 221.04 251.552 221.291 252.085 221.792C252.619 222.283 252.885 222.987 252.885 223.904C252.885 224.149 252.859 224.448 252.805 224.8L251.877 230H250.069L250.949 225.072C250.992 224.773 251.013 224.56 251.013 224.432C251.013 223.845 250.848 223.397 250.517 223.088C250.197 222.779 249.749 222.624 249.173 222.624C248.48 222.624 247.893 222.837 247.413 223.264C246.944 223.68 246.645 224.283 246.517 225.072V225.04L245.637 230H243.813L245.909 218.16H247.733L247.013 222.208C247.387 221.835 247.829 221.547 248.341 221.344C248.853 221.141 249.392 221.04 249.957 221.04ZM258.06 230.144C257.313 230.144 256.657 229.989 256.092 229.68C255.527 229.371 255.084 228.933 254.764 228.368C254.455 227.803 254.3 227.157 254.3 226.432C254.3 225.44 254.529 224.533 254.988 223.712C255.457 222.891 256.097 222.24 256.908 221.76C257.729 221.28 258.641 221.04 259.644 221.04C260.391 221.04 261.052 221.2 261.628 221.52C262.204 221.829 262.652 222.267 262.972 222.832C263.303 223.387 263.468 224.032 263.468 224.768C263.468 225.76 263.228 226.667 262.748 227.488C262.268 228.309 261.617 228.96 260.796 229.44C259.975 229.909 259.063 230.144 258.06 230.144ZM258.284 228.608C258.892 228.608 259.447 228.437 259.948 228.096C260.46 227.744 260.86 227.285 261.148 226.72C261.436 226.144 261.58 225.531 261.58 224.88C261.58 224.144 261.372 223.579 260.956 223.184C260.54 222.779 260.017 222.576 259.388 222.576C258.769 222.576 258.215 222.752 257.724 223.104C257.244 223.445 256.865 223.909 256.588 224.496C256.321 225.072 256.188 225.691 256.188 226.352C256.188 227.067 256.38 227.621 256.764 228.016C257.159 228.411 257.665 228.608 258.284 228.608ZM266.967 227.552C266.946 227.701 266.935 227.797 266.935 227.84C266.935 228.064 267.004 228.229 267.143 228.336C267.282 228.432 267.511 228.48 267.831 228.48H268.951L268.679 230H267.239C266.535 230 265.996 229.861 265.623 229.584C265.25 229.296 265.063 228.843 265.063 228.224C265.063 227.989 265.084 227.765 265.127 227.552L265.991 222.672H264.951L265.207 221.184H266.263L266.647 218.992H268.487L268.103 221.184H270.231L269.975 222.672H267.831L266.967 227.552ZM74.5753 246.584C74.7353 245.677 75.0553 244.883 75.5353 244.2C76.0259 243.507 76.6286 242.973 77.3433 242.6C78.0686 242.227 78.8526 242.04 79.6953 242.04C80.7619 242.04 81.5993 242.296 82.2073 242.808C82.8153 243.309 83.1619 244.029 83.2473 244.968H81.2793C81.1939 244.531 80.9966 244.189 80.6873 243.944C80.3779 243.699 79.9566 243.576 79.4233 243.576C78.6766 243.576 78.0366 243.843 77.5033 244.376C76.9699 244.899 76.6179 245.635 76.4473 246.584C76.3939 246.925 76.3673 247.203 76.3673 247.416C76.3673 248.12 76.5433 248.664 76.8953 249.048C77.2473 249.421 77.7379 249.608 78.3673 249.608C79.4233 249.608 80.2019 249.144 80.7033 248.216H82.6713C82.2553 249.112 81.6473 249.827 80.8473 250.36C80.0579 250.883 79.1406 251.144 78.0953 251.144C76.9859 251.144 76.1059 250.829 75.4553 250.2C74.8046 249.56 74.4793 248.696 74.4793 247.608C74.4793 247.277 74.5113 246.936 74.5753 246.584ZM87.849 251.144C87.1023 251.144 86.4463 250.989 85.881 250.68C85.3157 250.371 84.873 249.933 84.553 249.368C84.2437 248.803 84.089 248.157 84.089 247.432C84.089 246.44 84.3183 245.533 84.777 244.712C85.2463 243.891 85.8863 243.24 86.697 242.76C87.5183 242.28 88.4303 242.04 89.433 242.04C90.1797 242.04 90.841 242.2 91.417 242.52C91.993 242.829 92.441 243.267 92.761 243.832C93.0917 244.387 93.257 245.032 93.257 245.768C93.257 246.76 93.017 247.667 92.537 248.488C92.057 249.309 91.4063 249.96 90.585 250.44C89.7637 250.909 88.8517 251.144 87.849 251.144ZM88.073 249.608C88.681 249.608 89.2357 249.437 89.737 249.096C90.249 248.744 90.649 248.285 90.937 247.72C91.225 247.144 91.369 246.531 91.369 245.88C91.369 245.144 91.161 244.579 90.745 244.184C90.329 243.779 89.8063 243.576 89.177 243.576C88.5583 243.576 88.0037 243.752 87.513 244.104C87.033 244.445 86.6543 244.909 86.377 245.496C86.1103 246.072 85.977 246.691 85.977 247.352C85.977 248.067 86.169 248.621 86.553 249.016C86.9477 249.411 87.4543 249.608 88.073 249.608ZM97.4441 251.144C96.8361 251.144 96.2815 251.043 95.7801 250.84C95.2788 250.627 94.8841 250.333 94.5961 249.96C94.3081 249.576 94.1641 249.139 94.1641 248.648C94.1641 248.563 94.1748 248.445 94.1961 248.296H95.9721C95.9295 248.701 96.0521 249.037 96.3401 249.304C96.6281 249.571 97.0335 249.704 97.5561 249.704C98.0681 249.704 98.4895 249.613 98.8201 249.432C99.1508 249.251 99.3161 248.984 99.3161 248.632C99.3161 248.333 99.1775 248.093 98.9001 247.912C98.6335 247.731 98.2015 247.528 97.6041 247.304C97.0388 247.08 96.5801 246.872 96.2281 246.68C95.8761 246.488 95.5721 246.227 95.3161 245.896C95.0601 245.555 94.9321 245.133 94.9321 244.632C94.9321 244.12 95.0761 243.672 95.3641 243.288C95.6628 242.893 96.0735 242.589 96.5961 242.376C97.1295 242.152 97.7375 242.04 98.4201 242.04C99.0388 242.04 99.5881 242.147 100.068 242.36C100.559 242.563 100.937 242.856 101.204 243.24C101.481 243.613 101.62 244.045 101.62 244.536C101.62 244.685 101.615 244.797 101.604 244.872H99.8761C99.9188 244.456 99.7961 244.12 99.5081 243.864C99.2308 243.608 98.8308 243.48 98.3081 243.48C97.8495 243.48 97.4761 243.576 97.1881 243.768C96.9108 243.96 96.7721 244.221 96.7721 244.552C96.7721 244.883 96.9161 245.149 97.2041 245.352C97.4921 245.544 97.9348 245.757 98.5321 245.992C99.0761 246.205 99.5188 246.408 99.8601 246.6C100.201 246.792 100.495 247.048 100.74 247.368C100.985 247.688 101.108 248.088 101.108 248.568C101.108 249.091 100.948 249.549 100.628 249.944C100.319 250.328 99.8868 250.627 99.3321 250.84C98.7775 251.043 98.1481 251.144 97.4441 251.144ZM110.228 241.016C109.94 241.016 109.705 240.925 109.524 240.744C109.343 240.563 109.252 240.333 109.252 240.056C109.252 239.683 109.391 239.363 109.668 239.096C109.956 238.819 110.281 238.68 110.644 238.68C110.932 238.68 111.161 238.771 111.332 238.952C111.513 239.133 111.604 239.363 111.604 239.64C111.604 240.013 111.465 240.339 111.188 240.616C110.911 240.883 110.591 241.016 110.228 241.016ZM110.916 242.184L109.364 251H107.54L109.092 242.184H110.916ZM114.319 248.552C114.297 248.701 114.287 248.797 114.287 248.84C114.287 249.064 114.356 249.229 114.495 249.336C114.633 249.432 114.863 249.48 115.183 249.48H116.303L116.031 251H114.591C113.887 251 113.348 250.861 112.975 250.584C112.601 250.296 112.415 249.843 112.415 249.224C112.415 248.989 112.436 248.765 112.479 248.552L113.343 243.672H112.303L112.559 242.184H113.615L113.999 239.992H115.839L115.455 242.184H117.583L117.327 243.672H115.183L114.319 248.552ZM120.288 239.88H122.272L119.92 243.688H118.64L120.288 239.88ZM124.835 251.144C124.227 251.144 123.672 251.043 123.171 250.84C122.669 250.627 122.275 250.333 121.987 249.96C121.699 249.576 121.555 249.139 121.555 248.648C121.555 248.563 121.565 248.445 121.587 248.296H123.363C123.32 248.701 123.443 249.037 123.731 249.304C124.019 249.571 124.424 249.704 124.947 249.704C125.459 249.704 125.88 249.613 126.211 249.432C126.541 249.251 126.707 248.984 126.707 248.632C126.707 248.333 126.568 248.093 126.291 247.912C126.024 247.731 125.592 247.528 124.995 247.304C124.429 247.08 123.971 246.872 123.619 246.68C123.267 246.488 122.963 246.227 122.707 245.896C122.451 245.555 122.323 245.133 122.323 244.632C122.323 244.12 122.467 243.672 122.755 243.288C123.053 242.893 123.464 242.589 123.987 242.376C124.52 242.152 125.128 242.04 125.811 242.04C126.429 242.04 126.979 242.147 127.459 242.36C127.949 242.563 128.328 242.856 128.595 243.24C128.872 243.613 129.011 244.045 129.011 244.536C129.011 244.685 129.005 244.797 128.995 244.872H127.267C127.309 244.456 127.187 244.12 126.899 243.864C126.621 243.608 126.221 243.48 125.699 243.48C125.24 243.48 124.867 243.576 124.579 243.768C124.301 243.96 124.163 244.221 124.163 244.552C124.163 244.883 124.307 245.149 124.595 245.352C124.883 245.544 125.325 245.757 125.923 245.992C126.467 246.205 126.909 246.408 127.251 246.6C127.592 246.792 127.885 247.048 128.131 247.368C128.376 247.688 128.499 248.088 128.499 248.568C128.499 249.091 128.339 249.549 128.019 249.944C127.709 250.328 127.277 250.627 126.723 250.84C126.168 251.043 125.539 251.144 124.835 251.144ZM140.307 242.04C141.405 242.04 142.28 242.349 142.931 242.968C143.592 243.587 143.923 244.419 143.923 245.464C143.923 245.709 143.896 246.003 143.843 246.344C143.8 246.579 143.725 246.867 143.619 247.208H136.883C136.872 247.283 136.867 247.395 136.867 247.544C136.867 248.173 137.059 248.675 137.443 249.048C137.837 249.421 138.349 249.608 138.979 249.608C139.971 249.608 140.733 249.197 141.267 248.376H143.235C142.829 249.187 142.232 249.853 141.443 250.376C140.653 250.888 139.741 251.144 138.707 251.144C137.971 251.144 137.325 251 136.771 250.712C136.216 250.424 135.784 250.013 135.475 249.48C135.165 248.936 135.011 248.301 135.011 247.576C135.011 247.267 135.043 246.936 135.107 246.584C135.267 245.677 135.592 244.883 136.083 244.2C136.573 243.507 137.181 242.973 137.907 242.6C138.643 242.227 139.443 242.04 140.307 242.04ZM142.019 245.896C142.04 245.704 142.051 245.565 142.051 245.48C142.051 244.893 141.853 244.429 141.459 244.088C141.075 243.747 140.573 243.576 139.955 243.576C139.304 243.576 138.717 243.784 138.195 244.2C137.672 244.616 137.315 245.181 137.123 245.896H142.019ZM147.494 241.016C147.206 241.016 146.971 240.925 146.789 240.744C146.608 240.563 146.518 240.333 146.518 240.056C146.518 239.683 146.656 239.363 146.934 239.096C147.222 238.819 147.547 238.68 147.91 238.68C148.198 238.68 148.427 238.771 148.598 238.952C148.779 239.133 148.87 239.363 148.87 239.64C148.87 240.013 148.731 240.339 148.454 240.616C148.176 240.883 147.856 241.016 147.494 241.016ZM148.182 242.184L146.63 251H144.806L146.358 242.184H148.182ZM151.584 248.552C151.563 248.701 151.552 248.797 151.552 248.84C151.552 249.064 151.622 249.229 151.76 249.336C151.899 249.432 152.128 249.48 152.448 249.48H153.568L153.296 251H151.856C151.152 251 150.614 250.861 150.24 250.584C149.867 250.296 149.68 249.843 149.68 249.224C149.68 248.989 149.702 248.765 149.744 248.552L150.608 243.672H149.568L149.824 242.184H150.88L151.264 239.992H153.104L152.72 242.184H154.848L154.592 243.672H152.448L151.584 248.552ZM161.121 242.04C162.007 242.04 162.716 242.291 163.249 242.792C163.783 243.283 164.049 243.987 164.049 244.904C164.049 245.149 164.023 245.448 163.969 245.8L163.041 251H161.233L162.113 246.072C162.156 245.773 162.177 245.56 162.177 245.432C162.177 244.845 162.012 244.397 161.681 244.088C161.361 243.779 160.913 243.624 160.337 243.624C159.644 243.624 159.057 243.837 158.577 244.264C158.108 244.68 157.809 245.283 157.681 246.072V246.04L156.801 251H154.977L157.073 239.16H158.897L158.177 243.208C158.551 242.835 158.993 242.547 159.505 242.344C160.017 242.141 160.556 242.04 161.121 242.04ZM170.744 242.04C171.843 242.04 172.717 242.349 173.368 242.968C174.029 243.587 174.36 244.419 174.36 245.464C174.36 245.709 174.333 246.003 174.28 246.344C174.237 246.579 174.163 246.867 174.056 247.208H167.32C167.309 247.283 167.304 247.395 167.304 247.544C167.304 248.173 167.496 248.675 167.88 249.048C168.275 249.421 168.787 249.608 169.416 249.608C170.408 249.608 171.171 249.197 171.704 248.376H173.672C173.267 249.187 172.669 249.853 171.88 250.376C171.091 250.888 170.179 251.144 169.144 251.144C168.408 251.144 167.763 251 167.208 250.712C166.653 250.424 166.221 250.013 165.912 249.48C165.603 248.936 165.448 248.301 165.448 247.576C165.448 247.267 165.48 246.936 165.544 246.584C165.704 245.677 166.029 244.883 166.52 244.2C167.011 243.507 167.619 242.973 168.344 242.6C169.08 242.227 169.88 242.04 170.744 242.04ZM172.456 245.896C172.477 245.704 172.488 245.565 172.488 245.48C172.488 244.893 172.291 244.429 171.896 244.088C171.512 243.747 171.011 243.576 170.392 243.576C169.741 243.576 169.155 243.784 168.632 244.2C168.109 244.616 167.752 245.181 167.56 245.896H172.456ZM178.347 243.736C178.71 243.203 179.136 242.787 179.627 242.488C180.128 242.189 180.683 242.04 181.291 242.04L180.955 243.928H180.491C179.787 243.928 179.222 244.104 178.795 244.456C178.368 244.808 178.07 245.416 177.899 246.28L177.067 251H175.243L176.795 242.184H178.619L178.347 243.736ZM186.357 246.552C186.517 245.667 186.837 244.883 187.317 244.2C187.807 243.517 188.405 242.989 189.109 242.616C189.813 242.232 190.549 242.04 191.317 242.04C192.01 242.04 192.591 242.179 193.061 242.456C193.53 242.723 193.882 243.059 194.117 243.464L194.341 242.184H196.181L194.628 251H192.789L193.029 249.688C192.645 250.104 192.159 250.451 191.573 250.728C190.997 251.005 190.367 251.144 189.685 251.144C189.023 251.144 188.431 250.995 187.909 250.696C187.397 250.397 186.991 249.976 186.693 249.432C186.405 248.877 186.261 248.243 186.261 247.528C186.261 247.208 186.293 246.883 186.357 246.552ZM193.573 246.584C193.615 246.381 193.637 246.163 193.637 245.928C193.637 245.213 193.423 244.653 192.997 244.248C192.581 243.832 192.058 243.624 191.429 243.624C190.959 243.624 190.501 243.741 190.053 243.976C189.605 244.2 189.215 244.536 188.885 244.984C188.554 245.421 188.335 245.944 188.229 246.552C188.186 246.755 188.164 246.973 188.164 247.208C188.164 247.933 188.373 248.509 188.789 248.936C189.215 249.352 189.743 249.56 190.373 249.56C190.842 249.56 191.301 249.443 191.749 249.208C192.197 248.973 192.586 248.632 192.917 248.184C193.247 247.725 193.466 247.192 193.573 246.584ZM204.365 242.184L205.661 248.904L209.421 242.184H211.309L203.629 255.144H201.741L204.285 250.856L202.333 242.184H204.365ZM216.51 242.04C217.608 242.04 218.483 242.349 219.134 242.968C219.795 243.587 220.126 244.419 220.126 245.464C220.126 245.709 220.099 246.003 220.046 246.344C220.003 246.579 219.928 246.867 219.822 247.208H213.086C213.075 247.283 213.07 247.395 213.07 247.544C213.07 248.173 213.262 248.675 213.646 249.048C214.04 249.421 214.552 249.608 215.182 249.608C216.174 249.608 216.936 249.197 217.47 248.376H219.438C219.032 249.187 218.435 249.853 217.646 250.376C216.856 250.888 215.944 251.144 214.91 251.144C214.174 251.144 213.528 251 212.974 250.712C212.419 250.424 211.987 250.013 211.678 249.48C211.368 248.936 211.214 248.301 211.214 247.576C211.214 247.267 211.246 246.936 211.31 246.584C211.47 245.677 211.795 244.883 212.286 244.2C212.776 243.507 213.384 242.973 214.11 242.6C214.846 242.227 215.646 242.04 216.51 242.04ZM218.222 245.896C218.243 245.704 218.254 245.565 218.254 245.48C218.254 244.893 218.056 244.429 217.662 244.088C217.278 243.747 216.776 243.576 216.158 243.576C215.507 243.576 214.92 243.784 214.398 244.2C213.875 244.616 213.518 245.181 213.326 245.896H218.222ZM224.257 251.144C223.649 251.144 223.094 251.043 222.593 250.84C222.091 250.627 221.697 250.333 221.409 249.96C221.121 249.576 220.977 249.139 220.977 248.648C220.977 248.563 220.987 248.445 221.009 248.296H222.785C222.742 248.701 222.865 249.037 223.153 249.304C223.441 249.571 223.846 249.704 224.369 249.704C224.881 249.704 225.302 249.613 225.633 249.432C225.963 249.251 226.129 248.984 226.129 248.632C226.129 248.333 225.99 248.093 225.713 247.912C225.446 247.731 225.014 247.528 224.417 247.304C223.851 247.08 223.393 246.872 223.041 246.68C222.689 246.488 222.385 246.227 222.129 245.896C221.873 245.555 221.745 245.133 221.745 244.632C221.745 244.12 221.889 243.672 222.177 243.288C222.475 242.893 222.886 242.589 223.409 242.376C223.942 242.152 224.55 242.04 225.233 242.04C225.851 242.04 226.401 242.147 226.881 242.36C227.371 242.563 227.75 242.856 228.017 243.24C228.294 243.613 228.433 244.045 228.433 244.536C228.433 244.685 228.427 244.797 228.417 244.872H226.689C226.731 244.456 226.609 244.12 226.321 243.864C226.043 243.608 225.643 243.48 225.121 243.48C224.662 243.48 224.289 243.576 224.001 243.768C223.723 243.96 223.585 244.221 223.585 244.552C223.585 244.883 223.729 245.149 224.017 245.352C224.305 245.544 224.747 245.757 225.345 245.992C225.889 246.205 226.331 246.408 226.673 246.6C227.014 246.792 227.307 247.048 227.553 247.368C227.798 247.688 227.921 248.088 227.921 248.568C227.921 249.091 227.761 249.549 227.441 249.944C227.131 250.328 226.699 250.627 226.145 250.84C225.59 251.043 224.961 251.144 224.257 251.144ZM238.208 251.144C237.462 251.144 236.806 250.989 236.24 250.68C235.675 250.371 235.232 249.933 234.912 249.368C234.603 248.803 234.448 248.157 234.448 247.432C234.448 246.44 234.678 245.533 235.136 244.712C235.606 243.891 236.246 243.24 237.056 242.76C237.878 242.28 238.79 242.04 239.792 242.04C240.539 242.04 241.2 242.2 241.776 242.52C242.352 242.829 242.8 243.267 243.12 243.832C243.451 244.387 243.616 245.032 243.616 245.768C243.616 246.76 243.376 247.667 242.896 248.488C242.416 249.309 241.766 249.96 240.944 250.44C240.123 250.909 239.211 251.144 238.208 251.144ZM238.432 249.608C239.04 249.608 239.595 249.437 240.096 249.096C240.608 248.744 241.008 248.285 241.296 247.72C241.584 247.144 241.728 246.531 241.728 245.88C241.728 245.144 241.52 244.579 241.104 244.184C240.688 243.779 240.166 243.576 239.536 243.576C238.918 243.576 238.363 243.752 237.872 244.104C237.392 244.445 237.014 244.909 236.736 245.496C236.47 246.072 236.336 246.691 236.336 247.352C236.336 248.067 236.528 248.621 236.912 249.016C237.307 249.411 237.814 249.608 238.432 249.608ZM247.66 243.736C248.022 243.203 248.449 242.787 248.94 242.488C249.441 242.189 249.996 242.04 250.604 242.04L250.268 243.928H249.804C249.1 243.928 248.534 244.104 248.108 244.456C247.681 244.808 247.382 245.416 247.212 246.28L246.38 251H244.556L246.108 242.184H247.932L247.66 243.736ZM255.669 246.552C255.829 245.667 256.149 244.883 256.629 244.2C257.12 243.517 257.717 242.989 258.421 242.616C259.125 242.232 259.861 242.04 260.629 242.04C261.322 242.04 261.904 242.179 262.373 242.456C262.842 242.723 263.194 243.059 263.429 243.464L263.653 242.184H265.493L263.941 251H262.101L262.341 249.688C261.957 250.104 261.472 250.451 260.885 250.728C260.309 251.005 259.68 251.144 258.997 251.144C258.336 251.144 257.744 250.995 257.221 250.696C256.709 250.397 256.304 249.976 256.005 249.432C255.717 248.877 255.573 248.243 255.573 247.528C255.573 247.208 255.605 246.883 255.669 246.552ZM262.885 246.584C262.928 246.381 262.949 246.163 262.949 245.928C262.949 245.213 262.736 244.653 262.309 244.248C261.893 243.832 261.37 243.624 260.741 243.624C260.272 243.624 259.813 243.741 259.365 243.976C258.917 244.2 258.528 244.536 258.197 244.984C257.866 245.421 257.648 245.944 257.541 246.552C257.498 246.755 257.477 246.973 257.477 247.208C257.477 247.933 257.685 248.509 258.101 248.936C258.528 249.352 259.056 249.56 259.685 249.56C260.154 249.56 260.613 249.443 261.061 249.208C261.509 248.973 261.898 248.632 262.229 248.184C262.56 247.725 262.778 247.192 262.885 246.584ZM117.111 263.04C118.039 263.04 118.775 263.291 119.319 263.792C119.874 264.283 120.151 264.992 120.151 265.92C120.151 266.155 120.124 266.448 120.071 266.8L119.143 272H117.335L118.215 267.072C118.258 266.773 118.279 266.56 118.279 266.432C118.279 265.845 118.114 265.397 117.783 265.088C117.463 264.779 117.015 264.624 116.439 264.624C115.746 264.624 115.159 264.837 114.679 265.264C114.21 265.68 113.911 266.283 113.783 267.072V267.024L112.903 272H111.079L112.631 263.184H114.455L114.279 264.208C114.642 263.845 115.068 263.563 115.559 263.36C116.06 263.147 116.578 263.04 117.111 263.04ZM125.326 272.144C124.579 272.144 123.923 271.989 123.358 271.68C122.792 271.371 122.35 270.933 122.03 270.368C121.72 269.803 121.566 269.157 121.566 268.432C121.566 267.44 121.795 266.533 122.254 265.712C122.723 264.891 123.363 264.24 124.174 263.76C124.995 263.28 125.907 263.04 126.91 263.04C127.656 263.04 128.318 263.2 128.894 263.52C129.47 263.829 129.918 264.267 130.238 264.832C130.568 265.387 130.734 266.032 130.734 266.768C130.734 267.76 130.494 268.667 130.014 269.488C129.534 270.309 128.883 270.96 128.062 271.44C127.24 271.909 126.328 272.144 125.326 272.144ZM125.55 270.608C126.158 270.608 126.712 270.437 127.214 270.096C127.726 269.744 128.126 269.285 128.414 268.72C128.702 268.144 128.846 267.531 128.846 266.88C128.846 266.144 128.638 265.579 128.222 265.184C127.806 264.779 127.283 264.576 126.654 264.576C126.035 264.576 125.48 264.752 124.99 265.104C124.51 265.445 124.131 265.909 123.854 266.496C123.587 267.072 123.454 267.691 123.454 268.352C123.454 269.067 123.646 269.621 124.03 270.016C124.424 270.411 124.931 270.608 125.55 270.608ZM132.393 272.112C132.105 272.112 131.87 272.021 131.689 271.84C131.507 271.659 131.417 271.429 131.417 271.152C131.417 270.779 131.555 270.459 131.833 270.192C132.121 269.915 132.446 269.776 132.809 269.776C133.097 269.776 133.326 269.867 133.497 270.048C133.678 270.229 133.769 270.459 133.769 270.736C133.769 271.109 133.63 271.435 133.353 271.712C133.075 271.979 132.755 272.112 132.393 272.112ZM144.121 260.88L142.153 272H140.329L142.297 260.88H144.121ZM154.481 263.04C155.163 263.04 155.745 263.179 156.225 263.456C156.715 263.723 157.067 264.059 157.281 264.464L157.505 263.184H159.345L157.777 272.144C157.627 272.955 157.329 273.675 156.881 274.304C156.433 274.944 155.851 275.445 155.137 275.808C154.422 276.171 153.617 276.352 152.721 276.352C151.942 276.352 151.259 276.224 150.673 275.968C150.086 275.723 149.643 275.365 149.345 274.896C149.046 274.427 148.918 273.872 148.961 273.232H150.769C150.822 273.691 151.051 274.059 151.457 274.336C151.862 274.624 152.379 274.768 153.009 274.768C153.745 274.768 154.379 274.544 154.913 274.096C155.446 273.648 155.787 272.997 155.937 272.144L156.193 270.672C155.809 271.088 155.329 271.44 154.753 271.728C154.177 272.005 153.553 272.144 152.881 272.144C152.209 272.144 151.611 271.995 151.089 271.696C150.566 271.397 150.155 270.976 149.857 270.432C149.569 269.877 149.425 269.243 149.425 268.528C149.425 268.208 149.457 267.883 149.521 267.552C149.681 266.667 150.001 265.883 150.481 265.2C150.971 264.517 151.569 263.989 152.273 263.616C152.977 263.232 153.713 263.04 154.481 263.04ZM156.737 267.584C156.779 267.381 156.801 267.163 156.801 266.928C156.801 266.213 156.587 265.653 156.161 265.248C155.745 264.832 155.222 264.624 154.593 264.624C154.123 264.624 153.665 264.741 153.217 264.976C152.769 265.2 152.379 265.536 152.049 265.984C151.718 266.421 151.499 266.944 151.393 267.552C151.35 267.755 151.329 267.973 151.329 268.208C151.329 268.933 151.537 269.509 151.953 269.936C152.379 270.352 152.907 270.56 153.537 270.56C154.006 270.56 154.465 270.443 154.913 270.208C155.361 269.973 155.75 269.632 156.081 269.184C156.411 268.725 156.63 268.192 156.737 267.584ZM164.044 272.144C163.298 272.144 162.642 271.989 162.076 271.68C161.511 271.371 161.068 270.933 160.748 270.368C160.439 269.803 160.284 269.157 160.284 268.432C160.284 267.44 160.514 266.533 160.972 265.712C161.442 264.891 162.082 264.24 162.892 263.76C163.714 263.28 164.626 263.04 165.628 263.04C166.375 263.04 167.036 263.2 167.612 263.52C168.188 263.829 168.636 264.267 168.956 264.832C169.287 265.387 169.452 266.032 169.452 266.768C169.452 267.76 169.212 268.667 168.732 269.488C168.252 270.309 167.602 270.96 166.78 271.44C165.959 271.909 165.047 272.144 164.044 272.144ZM164.268 270.608C164.876 270.608 165.431 270.437 165.932 270.096C166.444 269.744 166.844 269.285 167.132 268.72C167.42 268.144 167.564 267.531 167.564 266.88C167.564 266.144 167.356 265.579 166.94 265.184C166.524 264.779 166.002 264.576 165.372 264.576C164.754 264.576 164.199 264.752 163.708 265.104C163.228 265.445 162.85 265.909 162.572 266.496C162.306 267.072 162.172 267.691 162.172 268.352C162.172 269.067 162.364 269.621 162.748 270.016C163.143 270.411 163.65 270.608 164.268 270.608ZM172.951 269.552C172.93 269.701 172.919 269.797 172.919 269.84C172.919 270.064 172.989 270.229 173.127 270.336C173.266 270.432 173.495 270.48 173.815 270.48H174.935L174.663 272H173.223C172.519 272 171.981 271.861 171.607 271.584C171.234 271.296 171.047 270.843 171.047 270.224C171.047 269.989 171.069 269.765 171.111 269.552L171.975 264.672H170.935L171.191 263.184H172.247L172.631 260.992H174.471L174.087 263.184H176.215L175.959 264.672H173.815L172.951 269.552ZM181.317 267.552C181.477 266.667 181.797 265.883 182.277 265.2C182.768 264.517 183.365 263.989 184.069 263.616C184.773 263.232 185.509 263.04 186.277 263.04C186.971 263.04 187.552 263.179 188.021 263.456C188.491 263.723 188.843 264.059 189.077 264.464L189.301 263.184H191.141L189.589 272H187.749L187.989 270.688C187.605 271.104 187.12 271.451 186.533 271.728C185.957 272.005 185.328 272.144 184.645 272.144C183.984 272.144 183.392 271.995 182.869 271.696C182.357 271.397 181.952 270.976 181.653 270.432C181.365 269.877 181.221 269.243 181.221 268.528C181.221 268.208 181.253 267.883 181.317 267.552ZM188.533 267.584C188.576 267.381 188.597 267.163 188.597 266.928C188.597 266.213 188.384 265.653 187.957 265.248C187.541 264.832 187.019 264.624 186.389 264.624C185.92 264.624 185.461 264.741 185.013 264.976C184.565 265.2 184.176 265.536 183.845 265.984C183.515 266.421 183.296 266.944 183.189 267.552C183.147 267.755 183.125 267.973 183.125 268.208C183.125 268.933 183.333 269.509 183.749 269.936C184.176 270.352 184.704 270.56 185.333 270.56C185.803 270.56 186.261 270.443 186.709 270.208C187.157 269.973 187.547 269.632 187.877 269.184C188.208 268.725 188.427 268.192 188.533 267.584ZM199.326 263.184L200.622 269.904L204.382 263.184H206.27L198.59 276.144H196.702L199.246 271.856L197.294 263.184H199.326ZM211.471 263.04C212.569 263.04 213.444 263.349 214.095 263.968C214.756 264.587 215.087 265.419 215.087 266.464C215.087 266.709 215.06 267.003 215.007 267.344C214.964 267.579 214.889 267.867 214.783 268.208H208.047C208.036 268.283 208.031 268.395 208.031 268.544C208.031 269.173 208.223 269.675 208.607 270.048C209.001 270.421 209.513 270.608 210.143 270.608C211.135 270.608 211.897 270.197 212.431 269.376H214.399C213.993 270.187 213.396 270.853 212.607 271.376C211.817 271.888 210.905 272.144 209.871 272.144C209.135 272.144 208.489 272 207.935 271.712C207.38 271.424 206.948 271.013 206.639 270.48C206.329 269.936 206.175 269.301 206.175 268.576C206.175 268.267 206.207 267.936 206.271 267.584C206.431 266.677 206.756 265.883 207.247 265.2C207.737 264.507 208.345 263.973 209.071 263.6C209.807 263.227 210.607 263.04 211.471 263.04ZM213.183 266.896C213.204 266.704 213.215 266.565 213.215 266.48C213.215 265.893 213.017 265.429 212.623 265.088C212.239 264.747 211.737 264.576 211.119 264.576C210.468 264.576 209.881 264.784 209.359 265.2C208.836 265.616 208.479 266.181 208.287 266.896H213.183ZM219.218 272.144C218.61 272.144 218.055 272.043 217.554 271.84C217.052 271.627 216.658 271.333 216.37 270.96C216.082 270.576 215.938 270.139 215.938 269.648C215.938 269.563 215.948 269.445 215.97 269.296H217.746C217.703 269.701 217.826 270.037 218.114 270.304C218.402 270.571 218.807 270.704 219.33 270.704C219.842 270.704 220.263 270.613 220.594 270.432C220.924 270.251 221.09 269.984 221.09 269.632C221.09 269.333 220.951 269.093 220.674 268.912C220.407 268.731 219.975 268.528 219.378 268.304C218.812 268.08 218.354 267.872 218.002 267.68C217.65 267.488 217.346 267.227 217.09 266.896C216.834 266.555 216.706 266.133 216.706 265.632C216.706 265.12 216.85 264.672 217.138 264.288C217.436 263.893 217.847 263.589 218.37 263.376C218.903 263.152 219.511 263.04 220.194 263.04C220.812 263.04 221.362 263.147 221.842 263.36C222.332 263.563 222.711 263.856 222.978 264.24C223.255 264.613 223.394 265.045 223.394 265.536C223.394 265.685 223.388 265.797 223.378 265.872H221.65C221.692 265.456 221.57 265.12 221.282 264.864C221.004 264.608 220.604 264.48 220.082 264.48C219.623 264.48 219.25 264.576 218.962 264.768C218.684 264.96 218.546 265.221 218.546 265.552C218.546 265.883 218.69 266.149 218.978 266.352C219.266 266.544 219.708 266.757 220.306 266.992C220.85 267.205 221.292 267.408 221.634 267.6C221.975 267.792 222.268 268.048 222.514 268.368C222.759 268.688 222.882 269.088 222.882 269.568C222.882 270.091 222.722 270.549 222.402 270.944C222.092 271.328 221.66 271.627 221.106 271.84C220.551 272.043 219.922 272.144 219.218 272.144ZM228.772 260.88L227.188 268.64H225.668L226.836 260.88H228.772ZM225.876 272.112C225.588 272.112 225.354 272.021 225.172 271.84C224.991 271.659 224.9 271.429 224.9 271.152C224.9 270.779 225.039 270.459 225.316 270.192C225.604 269.915 225.93 269.776 226.292 269.776C226.58 269.776 226.81 269.867 226.98 270.048C227.162 270.229 227.252 270.459 227.252 270.736C227.252 271.109 227.114 271.435 226.836 271.712C226.559 271.979 226.239 272.112 225.876 272.112Z" fill="#656565"/>
<path d="M136.558 324.364V332.968C136.558 334.3 136.18 335.326 135.424 336.046C134.68 336.766 133.672 337.126 132.4 337.126C131.068 337.126 130 336.748 129.196 335.992C128.392 335.236 127.99 334.162 127.99 332.77H131.05C131.05 333.298 131.158 333.7 131.374 333.976C131.59 334.24 131.902 334.372 132.31 334.372C132.682 334.372 132.97 334.252 133.174 334.012C133.378 333.772 133.48 333.424 133.48 332.968V324.364H136.558ZM138.433 331.96C138.433 330.928 138.625 330.022 139.009 329.242C139.405 328.462 139.939 327.862 140.611 327.442C141.283 327.022 142.033 326.812 142.861 326.812C143.569 326.812 144.187 326.956 144.715 327.244C145.255 327.532 145.669 327.91 145.957 328.378V326.956H149.035V337H145.957V335.578C145.657 336.046 145.237 336.424 144.697 336.712C144.169 337 143.551 337.144 142.843 337.144C142.027 337.144 141.283 336.934 140.611 336.514C139.939 336.082 139.405 335.476 139.009 334.696C138.625 333.904 138.433 332.992 138.433 331.96ZM145.957 331.978C145.957 331.21 145.741 330.604 145.309 330.16C144.889 329.716 144.373 329.494 143.761 329.494C143.149 329.494 142.627 329.716 142.195 330.16C141.775 330.592 141.565 331.192 141.565 331.96C141.565 332.728 141.775 333.34 142.195 333.796C142.627 334.24 143.149 334.462 143.761 334.462C144.373 334.462 144.889 334.24 145.309 333.796C145.741 333.352 145.957 332.746 145.957 331.978ZM150.65 331.96C150.65 330.928 150.842 330.022 151.226 329.242C151.622 328.462 152.156 327.862 152.828 327.442C153.5 327.022 154.25 326.812 155.078 326.812C155.738 326.812 156.338 326.95 156.878 327.226C157.43 327.502 157.862 327.874 158.174 328.342V323.68H161.252V337H158.174V335.56C157.886 336.04 157.472 336.424 156.932 336.712C156.404 337 155.786 337.144 155.078 337.144C154.25 337.144 153.5 336.934 152.828 336.514C152.156 336.082 151.622 335.476 151.226 334.696C150.842 333.904 150.65 332.992 150.65 331.96ZM158.174 331.978C158.174 331.21 157.958 330.604 157.526 330.16C157.106 329.716 156.59 329.494 155.978 329.494C155.366 329.494 154.844 329.716 154.412 330.16C153.992 330.592 153.782 331.192 153.782 331.96C153.782 332.728 153.992 333.34 154.412 333.796C154.844 334.24 155.366 334.462 155.978 334.462C156.59 334.462 157.106 334.24 157.526 333.796C157.958 333.352 158.174 332.746 158.174 331.978ZM172.946 331.816C172.946 332.104 172.928 332.404 172.892 332.716H165.926C165.974 333.34 166.172 333.82 166.52 334.156C166.88 334.48 167.318 334.642 167.834 334.642C168.602 334.642 169.136 334.318 169.436 333.67H172.712C172.544 334.33 172.238 334.924 171.794 335.452C171.362 335.98 170.816 336.394 170.156 336.694C169.496 336.994 168.758 337.144 167.942 337.144C166.958 337.144 166.082 336.934 165.314 336.514C164.546 336.094 163.946 335.494 163.514 334.714C163.082 333.934 162.866 333.022 162.866 331.978C162.866 330.934 163.076 330.022 163.496 329.242C163.928 328.462 164.528 327.862 165.296 327.442C166.064 327.022 166.946 326.812 167.942 326.812C168.914 326.812 169.778 327.016 170.534 327.424C171.29 327.832 171.878 328.414 172.298 329.17C172.73 329.926 172.946 330.808 172.946 331.816ZM169.796 331.006C169.796 330.478 169.616 330.058 169.256 329.746C168.896 329.434 168.446 329.278 167.906 329.278C167.39 329.278 166.952 329.428 166.592 329.728C166.244 330.028 166.028 330.454 165.944 331.006H169.796ZM178.656 337.144C177.78 337.144 177 336.994 176.316 336.694C175.632 336.394 175.092 335.986 174.696 335.47C174.3 334.942 174.078 334.354 174.03 333.706H177.072C177.108 334.054 177.27 334.336 177.558 334.552C177.846 334.768 178.2 334.876 178.62 334.876C179.004 334.876 179.298 334.804 179.502 334.66C179.718 334.504 179.826 334.306 179.826 334.066C179.826 333.778 179.676 333.568 179.376 333.436C179.076 333.292 178.59 333.136 177.918 332.968C177.198 332.8 176.598 332.626 176.118 332.446C175.638 332.254 175.224 331.96 174.876 331.564C174.528 331.156 174.354 330.61 174.354 329.926C174.354 329.35 174.51 328.828 174.822 328.36C175.146 327.88 175.614 327.502 176.226 327.226C176.85 326.95 177.588 326.812 178.44 326.812C179.7 326.812 180.69 327.124 181.41 327.748C182.142 328.372 182.562 329.2 182.67 330.232H179.826C179.778 329.884 179.622 329.608 179.358 329.404C179.106 329.2 178.77 329.098 178.35 329.098C177.99 329.098 177.714 329.17 177.522 329.314C177.33 329.446 177.234 329.632 177.234 329.872C177.234 330.16 177.384 330.376 177.684 330.52C177.996 330.664 178.476 330.808 179.124 330.952C179.868 331.144 180.474 331.336 180.942 331.528C181.41 331.708 181.818 332.008 182.166 332.428C182.526 332.836 182.712 333.388 182.724 334.084C182.724 334.672 182.556 335.2 182.22 335.668C181.896 336.124 181.422 336.484 180.798 336.748C180.186 337.012 179.472 337.144 178.656 337.144ZM189.179 337.144C188.195 337.144 187.307 336.934 186.515 336.514C185.735 336.094 185.117 335.494 184.661 334.714C184.217 333.934 183.995 333.022 183.995 331.978C183.995 330.946 184.223 330.04 184.679 329.26C185.135 328.468 185.759 327.862 186.551 327.442C187.343 327.022 188.231 326.812 189.215 326.812C190.199 326.812 191.087 327.022 191.879 327.442C192.671 327.862 193.295 328.468 193.751 329.26C194.207 330.04 194.435 330.946 194.435 331.978C194.435 333.01 194.201 333.922 193.733 334.714C193.277 335.494 192.647 336.094 191.843 336.514C191.051 336.934 190.163 337.144 189.179 337.144ZM189.179 334.48C189.767 334.48 190.265 334.264 190.673 333.832C191.093 333.4 191.303 332.782 191.303 331.978C191.303 331.174 191.099 330.556 190.691 330.124C190.295 329.692 189.803 329.476 189.215 329.476C188.615 329.476 188.117 329.692 187.721 330.124C187.325 330.544 187.127 331.162 187.127 331.978C187.127 332.782 187.319 333.4 187.703 333.832C188.099 334.264 188.591 334.48 189.179 334.48ZM199.146 323.68V337H196.068V323.68H199.146ZM200.765 331.96C200.765 330.928 200.957 330.022 201.341 329.242C201.737 328.462 202.271 327.862 202.943 327.442C203.615 327.022 204.365 326.812 205.193 326.812C205.901 326.812 206.519 326.956 207.047 327.244C207.587 327.532 208.001 327.91 208.289 328.378V326.956H211.367V337H208.289V335.578C207.989 336.046 207.569 336.424 207.029 336.712C206.501 337 205.883 337.144 205.175 337.144C204.359 337.144 203.615 336.934 202.943 336.514C202.271 336.082 201.737 335.476 201.341 334.696C200.957 333.904 200.765 332.992 200.765 331.96ZM208.289 331.978C208.289 331.21 208.073 330.604 207.641 330.16C207.221 329.716 206.705 329.494 206.093 329.494C205.481 329.494 204.959 329.716 204.527 330.16C204.107 330.592 203.897 331.192 203.897 331.96C203.897 332.728 204.107 333.34 204.527 333.796C204.959 334.24 205.481 334.462 206.093 334.462C206.705 334.462 207.221 334.24 207.641 333.796C208.073 333.352 208.289 332.746 208.289 331.978Z" fill="#444444"/>
<defs>
<filter id="filter0_d_1650_556" x="0" y="0" width="340" height="444" filterUnits="userSpaceOnUse" color-interpolation-filters="sRGB">
<feFlood flood-opacity="0" result="BackgroundImageFix"/>
<feColorMatrix in="SourceAlpha" type="matrix" values="0 0 0 0 0 0 0 0 0 0 0 0 0 0 0 0 0 0 127 0" result="hardAlpha"/>
<feOffset dy="4"/>
<feGaussianBlur stdDeviation="2"/>
<feComposite in2="hardAlpha" operator="out"/>
<feColorMatrix type="matrix" values="0 0 0 0 0 0 0 0 0 0 0 0 0 0 0 0 0 0 0.25 0"/>
<feBlend mode="normal" in2="BackgroundImageFix" result="effect1_dropShadow_1650_556"/>
<feBlend mode="normal" in="SourceGraphic" in2="effect1_dropShadow_1650_556" result="shape"/>
</filter>
</defs>
</svg>
