<svg width="340" height="403" viewBox="0 0 340 403" fill="none" xmlns="http://www.w3.org/2000/svg">
<g filter="url(#filter0_d_1650_556)">
<path d="M4 32C4 14.3269 18.3269 0 36 0H304C321.673 0 336 14.3269 336 32V395H36C18.3269 395 4 380.673 4 363V32Z" fill="white"/>
</g>
<path d="M155.417 133.12C145.817 133.12 138.521 126.304 138.521 113.92C138.521 104.032 143.993 95.584 153.881 90.688C158.777 88.288 164.057 87.04 169.433 87.04L171.353 89.728C166.457 89.728 156.473 92.512 151.769 97.984C149.369 100.768 148.121 103.072 148.121 104.896C149.177 103.552 153.209 102.208 157.337 102.208C162.425 102.208 166.361 104.32 169.049 108.544C171.929 95.776 184.601 87.04 199.385 87.04L201.305 89.728C196.409 89.728 186.425 92.512 181.721 97.984C179.321 100.768 178.073 103.072 178.073 104.896C179.129 103.552 183.161 102.208 187.289 102.208C195.641 102.208 201.497 108.928 201.497 117.184C201.497 126.4 195.161 133.12 185.369 133.12C178.649 133.12 172.985 129.568 170.393 123.712C167.993 129.568 162.713 133.12 155.417 133.12Z" fill="#FC5000"/>
<path d="M89.1676 176.256C89.5729 176.32 89.9409 176.485 90.2716 176.752C90.6129 177.019 90.8796 177.349 91.0716 177.744C91.2742 178.139 91.3756 178.56 91.3756 179.008C91.3756 179.573 91.2316 180.085 90.9436 180.544C90.6556 180.992 90.2342 181.349 89.6796 181.616C89.1356 181.872 88.4902 182 87.7436 182H83.5836V170.848H87.5836C88.3409 170.848 88.9862 170.976 89.5196 171.232C90.0529 171.477 90.4529 171.813 90.7196 172.24C90.9862 172.667 91.1196 173.147 91.1196 173.68C91.1196 174.341 90.9382 174.891 90.5756 175.328C90.2236 175.755 89.7542 176.064 89.1676 176.256ZM85.0396 175.664H87.4876C88.1702 175.664 88.6982 175.504 89.0716 175.184C89.4449 174.864 89.6316 174.421 89.6316 173.856C89.6316 173.291 89.4449 172.848 89.0716 172.528C88.6982 172.208 88.1596 172.048 87.4556 172.048H85.0396V175.664ZM87.6156 180.8C88.3409 180.8 88.9062 180.629 89.3116 180.288C89.7169 179.947 89.9196 179.472 89.9196 178.864C89.9196 178.245 89.7062 177.76 89.2796 177.408C88.8529 177.045 88.2822 176.864 87.5676 176.864H85.0396V180.8H87.6156ZM92.8521 177.584C92.8521 176.688 93.0334 175.904 93.3961 175.232C93.7587 174.549 94.2547 174.021 94.8841 173.648C95.5241 173.275 96.2334 173.088 97.0121 173.088C97.7801 173.088 98.4467 173.253 99.0121 173.584C99.5774 173.915 99.9987 174.331 100.276 174.832V173.232H101.748V182H100.276V180.368C99.9881 180.88 99.5561 181.307 98.9801 181.648C98.4147 181.979 97.7534 182.144 96.9961 182.144C96.2174 182.144 95.5134 181.952 94.8841 181.568C94.2547 181.184 93.7587 180.645 93.3961 179.952C93.0334 179.259 92.8521 178.469 92.8521 177.584ZM100.276 177.6C100.276 176.939 100.143 176.363 99.8761 175.872C99.6094 175.381 99.2467 175.008 98.7881 174.752C98.3401 174.485 97.8441 174.352 97.3001 174.352C96.7561 174.352 96.2601 174.48 95.8121 174.736C95.3641 174.992 95.0067 175.365 94.7401 175.856C94.4734 176.347 94.3401 176.923 94.3401 177.584C94.3401 178.256 94.4734 178.843 94.7401 179.344C95.0067 179.835 95.3641 180.213 95.8121 180.48C96.2601 180.736 96.7561 180.864 97.3001 180.864C97.8441 180.864 98.3401 180.736 98.7881 180.48C99.2467 180.213 99.6094 179.835 99.8761 179.344C100.143 178.843 100.276 178.261 100.276 177.6ZM103.665 177.584C103.665 176.688 103.846 175.904 104.209 175.232C104.571 174.549 105.067 174.021 105.697 173.648C106.337 173.275 107.051 173.088 107.841 173.088C108.523 173.088 109.158 173.248 109.745 173.568C110.331 173.877 110.779 174.288 111.089 174.8V170.16H112.561V182H111.089V180.352C110.801 180.875 110.374 181.307 109.809 181.648C109.243 181.979 108.582 182.144 107.825 182.144C107.046 182.144 106.337 181.952 105.697 181.568C105.067 181.184 104.571 180.645 104.209 179.952C103.846 179.259 103.665 178.469 103.665 177.584ZM111.089 177.6C111.089 176.939 110.955 176.363 110.689 175.872C110.422 175.381 110.059 175.008 109.601 174.752C109.153 174.485 108.657 174.352 108.113 174.352C107.569 174.352 107.073 174.48 106.625 174.736C106.177 174.992 105.819 175.365 105.553 175.856C105.286 176.347 105.153 176.923 105.153 177.584C105.153 178.256 105.286 178.843 105.553 179.344C105.819 179.835 106.177 180.213 106.625 180.48C107.073 180.736 107.569 180.864 108.113 180.864C108.657 180.864 109.153 180.736 109.601 180.48C110.059 180.213 110.422 179.835 110.689 179.344C110.955 178.843 111.089 178.261 111.089 177.6ZM114.477 177.584C114.477 176.688 114.658 175.904 115.021 175.232C115.384 174.549 115.88 174.021 116.509 173.648C117.149 173.275 117.864 173.088 118.653 173.088C119.336 173.088 119.97 173.248 120.557 173.568C121.144 173.877 121.592 174.288 121.901 174.8V170.16H123.373V182H121.901V180.352C121.613 180.875 121.186 181.307 120.621 181.648C120.056 181.979 119.394 182.144 118.637 182.144C117.858 182.144 117.149 181.952 116.509 181.568C115.88 181.184 115.384 180.645 115.021 179.952C114.658 179.259 114.477 178.469 114.477 177.584ZM121.901 177.6C121.901 176.939 121.768 176.363 121.501 175.872C121.234 175.381 120.872 175.008 120.413 174.752C119.965 174.485 119.469 174.352 118.925 174.352C118.381 174.352 117.885 174.48 117.437 174.736C116.989 174.992 116.632 175.365 116.365 175.856C116.098 176.347 115.965 176.923 115.965 177.584C115.965 178.256 116.098 178.843 116.365 179.344C116.632 179.835 116.989 180.213 117.437 180.48C117.885 180.736 118.381 180.864 118.925 180.864C119.469 180.864 119.965 180.736 120.413 180.48C120.872 180.213 121.234 179.835 121.501 179.344C121.768 178.843 121.901 178.261 121.901 177.6ZM130.186 173.072C130.847 173.072 131.444 173.216 131.978 173.504C132.511 173.781 132.927 174.203 133.226 174.768C133.535 175.333 133.69 176.021 133.69 176.832V182H132.25V177.04C132.25 176.165 132.031 175.499 131.594 175.04C131.156 174.571 130.559 174.336 129.802 174.336C129.034 174.336 128.42 174.576 127.962 175.056C127.514 175.536 127.29 176.235 127.29 177.152V182H125.834V170.16H127.29V174.48C127.578 174.032 127.972 173.685 128.474 173.44C128.986 173.195 129.556 173.072 130.186 173.072ZM136.82 171.808C136.543 171.808 136.308 171.712 136.116 171.52C135.924 171.328 135.828 171.093 135.828 170.816C135.828 170.539 135.924 170.304 136.116 170.112C136.308 169.92 136.543 169.824 136.82 169.824C137.087 169.824 137.311 169.92 137.492 170.112C137.684 170.304 137.78 170.539 137.78 170.816C137.78 171.093 137.684 171.328 137.492 171.52C137.311 171.712 137.087 171.808 136.82 171.808ZM137.524 173.232V182H136.068V173.232H137.524ZM139.461 177.584C139.461 176.688 139.643 175.904 140.005 175.232C140.368 174.549 140.864 174.021 141.493 173.648C142.133 173.275 142.843 173.088 143.621 173.088C144.389 173.088 145.056 173.253 145.621 173.584C146.187 173.915 146.608 174.331 146.885 174.832V173.232H148.357V182H146.885V180.368C146.597 180.88 146.165 181.307 145.589 181.648C145.024 181.979 144.363 182.144 143.605 182.144C142.827 182.144 142.123 181.952 141.493 181.568C140.864 181.184 140.368 180.645 140.005 179.952C139.643 179.259 139.461 178.469 139.461 177.584ZM146.885 177.6C146.885 176.939 146.752 176.363 146.485 175.872C146.219 175.381 145.856 175.008 145.397 174.752C144.949 174.485 144.453 174.352 143.909 174.352C143.365 174.352 142.869 174.48 142.421 174.736C141.973 174.992 141.616 175.365 141.349 175.856C141.083 176.347 140.949 176.923 140.949 177.584C140.949 178.256 141.083 178.843 141.349 179.344C141.616 179.835 141.973 180.213 142.421 180.48C142.869 180.736 143.365 180.864 143.909 180.864C144.453 180.864 144.949 180.736 145.397 180.48C145.856 180.213 146.219 179.835 146.485 179.344C146.752 178.843 146.885 178.261 146.885 177.6ZM158.188 182.144C157.516 182.144 156.913 182.032 156.38 181.808C155.846 181.573 155.425 181.253 155.116 180.848C154.806 180.432 154.636 179.957 154.604 179.424H156.108C156.15 179.861 156.353 180.219 156.716 180.496C157.089 180.773 157.574 180.912 158.172 180.912C158.726 180.912 159.164 180.789 159.484 180.544C159.804 180.299 159.964 179.989 159.964 179.616C159.964 179.232 159.793 178.949 159.452 178.768C159.11 178.576 158.582 178.389 157.868 178.208C157.217 178.037 156.684 177.867 156.268 177.696C155.862 177.515 155.51 177.253 155.212 176.912C154.924 176.56 154.78 176.101 154.78 175.536C154.78 175.088 154.913 174.677 155.18 174.304C155.446 173.931 155.825 173.637 156.316 173.424C156.806 173.2 157.366 173.088 157.996 173.088C158.966 173.088 159.75 173.333 160.348 173.824C160.945 174.315 161.265 174.987 161.308 175.84H159.852C159.82 175.381 159.633 175.013 159.292 174.736C158.961 174.459 158.513 174.32 157.948 174.32C157.425 174.32 157.009 174.432 156.7 174.656C156.39 174.88 156.236 175.173 156.236 175.536C156.236 175.824 156.326 176.064 156.508 176.256C156.7 176.437 156.934 176.587 157.212 176.704C157.5 176.811 157.894 176.933 158.396 177.072C159.025 177.243 159.537 177.413 159.932 177.584C160.326 177.744 160.662 177.989 160.94 178.32C161.228 178.651 161.377 179.083 161.388 179.616C161.388 180.096 161.254 180.528 160.988 180.912C160.721 181.296 160.342 181.6 159.852 181.824C159.372 182.037 158.817 182.144 158.188 182.144ZM162.899 177.584C162.899 176.688 163.08 175.904 163.443 175.232C163.806 174.549 164.302 174.021 164.931 173.648C165.571 173.275 166.28 173.088 167.059 173.088C167.827 173.088 168.494 173.253 169.059 173.584C169.624 173.915 170.046 174.331 170.323 174.832V173.232H171.795V182H170.323V180.368C170.035 180.88 169.603 181.307 169.027 181.648C168.462 181.979 167.8 182.144 167.043 182.144C166.264 182.144 165.56 181.952 164.931 181.568C164.302 181.184 163.806 180.645 163.443 179.952C163.08 179.259 162.899 178.469 162.899 177.584ZM170.323 177.6C170.323 176.939 170.19 176.363 169.923 175.872C169.656 175.381 169.294 175.008 168.835 174.752C168.387 174.485 167.891 174.352 167.347 174.352C166.803 174.352 166.307 174.48 165.859 174.736C165.411 174.992 165.054 175.365 164.787 175.856C164.52 176.347 164.387 176.923 164.387 177.584C164.387 178.256 164.52 178.843 164.787 179.344C165.054 179.835 165.411 180.213 165.859 180.48C166.307 180.736 166.803 180.864 167.347 180.864C167.891 180.864 168.387 180.736 168.835 180.48C169.294 180.213 169.656 179.835 169.923 179.344C170.19 178.843 170.323 178.261 170.323 177.6ZM175.007 171.808C174.73 171.808 174.495 171.712 174.303 171.52C174.111 171.328 174.015 171.093 174.015 170.816C174.015 170.539 174.111 170.304 174.303 170.112C174.495 169.92 174.73 169.824 175.007 169.824C175.274 169.824 175.498 169.92 175.679 170.112C175.871 170.304 175.967 170.539 175.967 170.816C175.967 171.093 175.871 171.328 175.679 171.52C175.498 171.712 175.274 171.808 175.007 171.808ZM175.711 173.232V182H174.255V173.232H175.711ZM177.649 177.584C177.649 176.688 177.83 175.904 178.193 175.232C178.556 174.549 179.052 174.021 179.681 173.648C180.321 173.275 181.036 173.088 181.825 173.088C182.508 173.088 183.142 173.248 183.729 173.568C184.316 173.877 184.764 174.288 185.073 174.8V170.16H186.545V182H185.073V180.352C184.785 180.875 184.358 181.307 183.793 181.648C183.228 181.979 182.566 182.144 181.809 182.144C181.03 182.144 180.321 181.952 179.681 181.568C179.052 181.184 178.556 180.645 178.193 179.952C177.83 179.259 177.649 178.469 177.649 177.584ZM185.073 177.6C185.073 176.939 184.94 176.363 184.673 175.872C184.406 175.381 184.044 175.008 183.585 174.752C183.137 174.485 182.641 174.352 182.097 174.352C181.553 174.352 181.057 174.48 180.609 174.736C180.161 174.992 179.804 175.365 179.537 175.856C179.27 176.347 179.137 176.923 179.137 177.584C179.137 178.256 179.27 178.843 179.537 179.344C179.804 179.835 180.161 180.213 180.609 180.48C181.057 180.736 181.553 180.864 182.097 180.864C182.641 180.864 183.137 180.736 183.585 180.48C184.044 180.213 184.406 179.835 184.673 179.344C184.94 178.843 185.073 178.261 185.073 177.6ZM192.727 177.584C192.727 176.688 192.908 175.904 193.271 175.232C193.634 174.549 194.13 174.021 194.759 173.648C195.399 173.275 196.114 173.088 196.903 173.088C197.586 173.088 198.22 173.248 198.807 173.568C199.394 173.877 199.842 174.288 200.151 174.8V170.16H201.623V182H200.151V180.352C199.863 180.875 199.436 181.307 198.871 181.648C198.306 181.979 197.644 182.144 196.887 182.144C196.108 182.144 195.399 181.952 194.759 181.568C194.13 181.184 193.634 180.645 193.271 179.952C192.908 179.259 192.727 178.469 192.727 177.584ZM200.151 177.6C200.151 176.939 200.018 176.363 199.751 175.872C199.484 175.381 199.122 175.008 198.663 174.752C198.215 174.485 197.719 174.352 197.175 174.352C196.631 174.352 196.135 174.48 195.687 174.736C195.239 174.992 194.882 175.365 194.615 175.856C194.348 176.347 194.215 176.923 194.215 177.584C194.215 178.256 194.348 178.843 194.615 179.344C194.882 179.835 195.239 180.213 195.687 180.48C196.135 180.736 196.631 180.864 197.175 180.864C197.719 180.864 198.215 180.736 198.663 180.48C199.122 180.213 199.484 179.835 199.751 179.344C200.018 178.843 200.151 178.261 200.151 177.6ZM207.908 182.144C207.086 182.144 206.34 181.957 205.668 181.584C205.006 181.211 204.484 180.683 204.1 180C203.726 179.307 203.54 178.507 203.54 177.6C203.54 176.704 203.732 175.915 204.116 175.232C204.51 174.539 205.044 174.011 205.716 173.648C206.388 173.275 207.14 173.088 207.972 173.088C208.804 173.088 209.556 173.275 210.228 173.648C210.9 174.011 211.428 174.533 211.812 175.216C212.206 175.899 212.404 176.693 212.404 177.6C212.404 178.507 212.201 179.307 211.796 180C211.401 180.683 210.862 181.211 210.18 181.584C209.497 181.957 208.74 182.144 207.908 182.144ZM207.908 180.864C208.43 180.864 208.921 180.741 209.38 180.496C209.838 180.251 210.206 179.883 210.484 179.392C210.772 178.901 210.916 178.304 210.916 177.6C210.916 176.896 210.777 176.299 210.5 175.808C210.222 175.317 209.86 174.955 209.412 174.72C208.964 174.475 208.478 174.352 207.956 174.352C207.422 174.352 206.932 174.475 206.484 174.72C206.046 174.955 205.694 175.317 205.428 175.808C205.161 176.299 205.028 176.896 205.028 177.6C205.028 178.315 205.156 178.917 205.412 179.408C205.678 179.899 206.03 180.267 206.468 180.512C206.905 180.747 207.385 180.864 207.908 180.864ZM218.59 173.072C219.657 173.072 220.521 173.397 221.182 174.048C221.843 174.688 222.174 175.616 222.174 176.832V182H220.734V177.04C220.734 176.165 220.515 175.499 220.078 175.04C219.641 174.571 219.043 174.336 218.286 174.336C217.518 174.336 216.905 174.576 216.446 175.056C215.998 175.536 215.774 176.235 215.774 177.152V182H214.318V173.232H215.774V174.48C216.062 174.032 216.451 173.685 216.942 173.44C217.443 173.195 217.993 173.072 218.59 173.072ZM224.776 170.848H226.392L224.856 174.48H223.832L224.776 170.848ZM229.828 174.432V179.6C229.828 180.027 229.919 180.331 230.1 180.512C230.282 180.683 230.596 180.768 231.044 180.768H232.116V182H230.804C229.994 182 229.386 181.813 228.98 181.44C228.575 181.067 228.372 180.453 228.372 179.6V174.432H227.236V173.232H228.372V171.024H229.828V173.232H232.116V174.432H229.828ZM239.602 174.864C239.901 174.341 240.338 173.915 240.914 173.584C241.49 173.253 242.146 173.088 242.882 173.088C243.671 173.088 244.381 173.275 245.01 173.648C245.639 174.021 246.135 174.549 246.498 175.232C246.861 175.904 247.042 176.688 247.042 177.584C247.042 178.469 246.861 179.259 246.498 179.952C246.135 180.645 245.634 181.184 244.994 181.568C244.365 181.952 243.661 182.144 242.882 182.144C242.125 182.144 241.458 181.979 240.882 181.648C240.317 181.317 239.89 180.896 239.602 180.384V182H238.146V170.16H239.602V174.864ZM245.554 177.584C245.554 176.923 245.421 176.347 245.154 175.856C244.887 175.365 244.525 174.992 244.066 174.736C243.618 174.48 243.122 174.352 242.578 174.352C242.045 174.352 241.549 174.485 241.09 174.752C240.642 175.008 240.279 175.387 240.002 175.888C239.735 176.379 239.602 176.949 239.602 177.6C239.602 178.261 239.735 178.843 240.002 179.344C240.279 179.835 240.642 180.213 241.09 180.48C241.549 180.736 242.045 180.864 242.578 180.864C243.122 180.864 243.618 180.736 244.066 180.48C244.525 180.213 244.887 179.835 245.154 179.344C245.421 178.843 245.554 178.256 245.554 177.584ZM256.959 177.28C256.959 177.557 256.943 177.851 256.911 178.16H249.903C249.956 179.024 250.249 179.701 250.783 180.192C251.327 180.672 251.983 180.912 252.751 180.912C253.38 180.912 253.903 180.768 254.319 180.48C254.745 180.181 255.044 179.787 255.215 179.296H256.783C256.548 180.139 256.079 180.827 255.375 181.36C254.671 181.883 253.796 182.144 252.751 182.144C251.919 182.144 251.172 181.957 250.511 181.584C249.86 181.211 249.348 180.683 248.975 180C248.601 179.307 248.415 178.507 248.415 177.6C248.415 176.693 248.596 175.899 248.959 175.216C249.321 174.533 249.828 174.011 250.479 173.648C251.14 173.275 251.897 173.088 252.751 173.088C253.583 173.088 254.319 173.269 254.959 173.632C255.599 173.995 256.089 174.496 256.431 175.136C256.783 175.765 256.959 176.48 256.959 177.28ZM255.455 176.976C255.455 176.421 255.332 175.947 255.087 175.552C254.841 175.147 254.505 174.843 254.079 174.64C253.663 174.427 253.199 174.32 252.687 174.32C251.951 174.32 251.321 174.555 250.799 175.024C250.287 175.493 249.993 176.144 249.919 176.976H255.455ZM72.8208 203.584C72.8208 202.688 73.0021 201.904 73.3648 201.232C73.7275 200.549 74.2235 200.021 74.8528 199.648C75.4928 199.275 76.2021 199.088 76.9808 199.088C77.7488 199.088 78.4155 199.253 78.9808 199.584C79.5461 199.915 79.9675 200.331 80.2448 200.832V199.232H81.7168V208H80.2448V206.368C79.9568 206.88 79.5248 207.307 78.9488 207.648C78.3835 207.979 77.7221 208.144 76.9648 208.144C76.1861 208.144 75.4821 207.952 74.8528 207.568C74.2235 207.184 73.7275 206.645 73.3648 205.952C73.0021 205.259 72.8208 204.469 72.8208 203.584ZM80.2448 203.6C80.2448 202.939 80.1115 202.363 79.8448 201.872C79.5781 201.381 79.2155 201.008 78.7568 200.752C78.3088 200.485 77.8128 200.352 77.2688 200.352C76.7248 200.352 76.2288 200.48 75.7808 200.736C75.3328 200.992 74.9755 201.365 74.7088 201.856C74.4421 202.347 74.3088 202.923 74.3088 203.584C74.3088 204.256 74.4421 204.843 74.7088 205.344C74.9755 205.835 75.3328 206.213 75.7808 206.48C76.2288 206.736 76.7248 206.864 77.2688 206.864C77.8128 206.864 78.3088 206.736 78.7568 206.48C79.2155 206.213 79.5781 205.835 79.8448 205.344C80.1115 204.843 80.2448 204.261 80.2448 203.6ZM87.7453 200.432H85.9053V208H84.4493V200.432H83.3133V199.232H84.4493V198.608C84.4493 197.627 84.7 196.912 85.2013 196.464C85.7133 196.005 86.5293 195.776 87.6493 195.776V196.992C87.0093 196.992 86.556 197.12 86.2893 197.376C86.0333 197.621 85.9053 198.032 85.9053 198.608V199.232H87.7453V200.432ZM90.8989 200.656C91.1549 200.155 91.5176 199.765 91.9869 199.488C92.4669 199.211 93.0483 199.072 93.7309 199.072V200.576H93.3469C91.7149 200.576 90.8989 201.461 90.8989 203.232V208H89.4429V199.232H90.8989V200.656ZM94.8677 203.584C94.8677 202.688 95.049 201.904 95.4117 201.232C95.7744 200.549 96.2704 200.021 96.8997 199.648C97.5397 199.275 98.249 199.088 99.0277 199.088C99.7957 199.088 100.462 199.253 101.028 199.584C101.593 199.915 102.014 200.331 102.292 200.832V199.232H103.764V208H102.292V206.368C102.004 206.88 101.572 207.307 100.996 207.648C100.43 207.979 99.769 208.144 99.0117 208.144C98.233 208.144 97.529 207.952 96.8997 207.568C96.2704 207.184 95.7744 206.645 95.4117 205.952C95.049 205.259 94.8677 204.469 94.8677 203.584ZM102.292 203.6C102.292 202.939 102.158 202.363 101.892 201.872C101.625 201.381 101.262 201.008 100.804 200.752C100.356 200.485 99.8597 200.352 99.3157 200.352C98.7717 200.352 98.2757 200.48 97.8277 200.736C97.3797 200.992 97.0224 201.365 96.7557 201.856C96.489 202.347 96.3557 202.923 96.3557 203.584C96.3557 204.256 96.489 204.843 96.7557 205.344C97.0224 205.835 97.3797 206.213 97.8277 206.48C98.2757 206.736 98.7717 206.864 99.3157 206.864C99.8597 206.864 100.356 206.736 100.804 206.48C101.262 206.213 101.625 205.835 101.892 205.344C102.158 204.843 102.292 204.261 102.292 203.6ZM106.976 197.808C106.699 197.808 106.464 197.712 106.272 197.52C106.08 197.328 105.984 197.093 105.984 196.816C105.984 196.539 106.08 196.304 106.272 196.112C106.464 195.92 106.699 195.824 106.976 195.824C107.243 195.824 107.467 195.92 107.648 196.112C107.84 196.304 107.936 196.539 107.936 196.816C107.936 197.093 107.84 197.328 107.648 197.52C107.467 197.712 107.243 197.808 106.976 197.808ZM107.68 199.232V208H106.224V199.232H107.68ZM109.618 203.584C109.618 202.688 109.799 201.904 110.162 201.232C110.524 200.549 111.02 200.021 111.65 199.648C112.29 199.275 113.004 199.088 113.794 199.088C114.476 199.088 115.111 199.248 115.698 199.568C116.284 199.877 116.732 200.288 117.042 200.8V196.16H118.514V208H117.042V206.352C116.754 206.875 116.327 207.307 115.762 207.648C115.196 207.979 114.535 208.144 113.778 208.144C112.999 208.144 112.29 207.952 111.65 207.568C111.02 207.184 110.524 206.645 110.162 205.952C109.799 205.259 109.618 204.469 109.618 203.584ZM117.042 203.6C117.042 202.939 116.908 202.363 116.642 201.872C116.375 201.381 116.012 201.008 115.554 200.752C115.106 200.485 114.61 200.352 114.066 200.352C113.522 200.352 113.026 200.48 112.578 200.736C112.13 200.992 111.772 201.365 111.506 201.856C111.239 202.347 111.106 202.923 111.106 203.584C111.106 204.256 111.239 204.843 111.506 205.344C111.772 205.835 112.13 206.213 112.578 206.48C113.026 206.736 113.522 206.864 114.066 206.864C114.61 206.864 115.106 206.736 115.554 206.48C116.012 206.213 116.375 205.835 116.642 205.344C116.908 204.843 117.042 204.261 117.042 203.6ZM127.016 200.432V205.6C127.016 206.027 127.106 206.331 127.288 206.512C127.469 206.683 127.784 206.768 128.232 206.768H129.304V208H127.992C127.181 208 126.573 207.813 126.168 207.44C125.762 207.067 125.56 206.453 125.56 205.6V200.432H124.424V199.232H125.56V197.024H127.016V199.232H129.304V200.432H127.016ZM134.892 208.144C134.071 208.144 133.324 207.957 132.652 207.584C131.991 207.211 131.468 206.683 131.084 206C130.711 205.307 130.524 204.507 130.524 203.6C130.524 202.704 130.716 201.915 131.1 201.232C131.495 200.539 132.028 200.011 132.7 199.648C133.372 199.275 134.124 199.088 134.956 199.088C135.788 199.088 136.54 199.275 137.212 199.648C137.884 200.011 138.412 200.533 138.796 201.216C139.191 201.899 139.388 202.693 139.388 203.6C139.388 204.507 139.185 205.307 138.78 206C138.385 206.683 137.847 207.211 137.164 207.584C136.481 207.957 135.724 208.144 134.892 208.144ZM134.892 206.864C135.415 206.864 135.905 206.741 136.364 206.496C136.823 206.251 137.191 205.883 137.468 205.392C137.756 204.901 137.9 204.304 137.9 203.6C137.9 202.896 137.761 202.299 137.484 201.808C137.207 201.317 136.844 200.955 136.396 200.72C135.948 200.475 135.463 200.352 134.94 200.352C134.407 200.352 133.916 200.475 133.468 200.72C133.031 200.955 132.679 201.317 132.412 201.808C132.145 202.299 132.012 202.896 132.012 203.6C132.012 204.315 132.14 204.917 132.396 205.408C132.663 205.899 133.015 206.267 133.452 206.512C133.889 206.747 134.369 206.864 134.892 206.864ZM148.672 208.144C148 208.144 147.397 208.032 146.864 207.808C146.331 207.573 145.909 207.253 145.6 206.848C145.291 206.432 145.12 205.957 145.088 205.424H146.592C146.635 205.861 146.837 206.219 147.2 206.496C147.573 206.773 148.059 206.912 148.656 206.912C149.211 206.912 149.648 206.789 149.968 206.544C150.288 206.299 150.448 205.989 150.448 205.616C150.448 205.232 150.277 204.949 149.936 204.768C149.595 204.576 149.067 204.389 148.352 204.208C147.701 204.037 147.168 203.867 146.752 203.696C146.347 203.515 145.995 203.253 145.696 202.912C145.408 202.56 145.264 202.101 145.264 201.536C145.264 201.088 145.397 200.677 145.664 200.304C145.931 199.931 146.309 199.637 146.8 199.424C147.291 199.2 147.851 199.088 148.48 199.088C149.451 199.088 150.235 199.333 150.832 199.824C151.429 200.315 151.749 200.987 151.792 201.84H150.336C150.304 201.381 150.117 201.013 149.776 200.736C149.445 200.459 148.997 200.32 148.432 200.32C147.909 200.32 147.493 200.432 147.184 200.656C146.875 200.88 146.72 201.173 146.72 201.536C146.72 201.824 146.811 202.064 146.992 202.256C147.184 202.437 147.419 202.587 147.696 202.704C147.984 202.811 148.379 202.933 148.88 203.072C149.509 203.243 150.021 203.413 150.416 203.584C150.811 203.744 151.147 203.989 151.424 204.32C151.712 204.651 151.861 205.083 151.872 205.616C151.872 206.096 151.739 206.528 151.472 206.912C151.205 207.296 150.827 207.6 150.336 207.824C149.856 208.037 149.301 208.144 148.672 208.144ZM158.279 199.072C158.941 199.072 159.538 199.216 160.071 199.504C160.605 199.781 161.021 200.203 161.319 200.768C161.629 201.333 161.783 202.021 161.783 202.832V208H160.343V203.04C160.343 202.165 160.125 201.499 159.687 201.04C159.25 200.571 158.653 200.336 157.895 200.336C157.127 200.336 156.514 200.576 156.055 201.056C155.607 201.536 155.383 202.235 155.383 203.152V208H153.927V196.16H155.383V200.48C155.671 200.032 156.066 199.685 156.567 199.44C157.079 199.195 157.65 199.072 158.279 199.072ZM167.986 208.144C167.164 208.144 166.418 207.957 165.746 207.584C165.084 207.211 164.562 206.683 164.178 206C163.804 205.307 163.618 204.507 163.618 203.6C163.618 202.704 163.81 201.915 164.194 201.232C164.588 200.539 165.122 200.011 165.794 199.648C166.466 199.275 167.218 199.088 168.05 199.088C168.882 199.088 169.634 199.275 170.306 199.648C170.978 200.011 171.506 200.533 171.89 201.216C172.284 201.899 172.482 202.693 172.482 203.6C172.482 204.507 172.279 205.307 171.874 206C171.479 206.683 170.94 207.211 170.258 207.584C169.575 207.957 168.818 208.144 167.986 208.144ZM167.986 206.864C168.508 206.864 168.999 206.741 169.458 206.496C169.916 206.251 170.284 205.883 170.562 205.392C170.85 204.901 170.994 204.304 170.994 203.6C170.994 202.896 170.855 202.299 170.578 201.808C170.3 201.317 169.938 200.955 169.49 200.72C169.042 200.475 168.556 200.352 168.034 200.352C167.5 200.352 167.01 200.475 166.562 200.72C166.124 200.955 165.772 201.317 165.506 201.808C165.239 202.299 165.106 202.896 165.106 203.6C165.106 204.315 165.234 204.917 165.49 205.408C165.756 205.899 166.108 206.267 166.546 206.512C166.983 206.747 167.463 206.864 167.986 206.864ZM178.22 208.144C177.399 208.144 176.652 207.957 175.98 207.584C175.319 207.211 174.796 206.683 174.412 206C174.039 205.307 173.852 204.507 173.852 203.6C173.852 202.704 174.044 201.915 174.428 201.232C174.823 200.539 175.356 200.011 176.028 199.648C176.7 199.275 177.452 199.088 178.284 199.088C179.116 199.088 179.868 199.275 180.54 199.648C181.212 200.011 181.74 200.533 182.124 201.216C182.519 201.899 182.716 202.693 182.716 203.6C182.716 204.507 182.513 205.307 182.108 206C181.713 206.683 181.175 207.211 180.492 207.584C179.809 207.957 179.052 208.144 178.22 208.144ZM178.22 206.864C178.743 206.864 179.233 206.741 179.692 206.496C180.151 206.251 180.519 205.883 180.796 205.392C181.084 204.901 181.228 204.304 181.228 203.6C181.228 202.896 181.089 202.299 180.812 201.808C180.535 201.317 180.172 200.955 179.724 200.72C179.276 200.475 178.791 200.352 178.268 200.352C177.735 200.352 177.244 200.475 176.796 200.72C176.359 200.955 176.007 201.317 175.74 201.808C175.473 202.299 175.34 202.896 175.34 203.6C175.34 204.315 175.468 204.917 175.724 205.408C175.991 205.899 176.343 206.267 176.78 206.512C177.217 206.747 177.697 206.864 178.22 206.864ZM186.406 200.432V205.6C186.406 206.027 186.497 206.331 186.678 206.512C186.86 206.683 187.174 206.768 187.622 206.768H188.694V208H187.382C186.572 208 185.964 207.813 185.558 207.44C185.153 207.067 184.95 206.453 184.95 205.6V200.432H183.814V199.232H184.95V197.024H186.406V199.232H188.694V200.432H186.406ZM202.276 199.232L196.996 212.128H195.492L197.22 207.904L193.684 199.232H195.3L198.052 206.336L200.772 199.232H202.276ZM207.564 208.144C206.742 208.144 205.996 207.957 205.324 207.584C204.662 207.211 204.14 206.683 203.756 206C203.382 205.307 203.196 204.507 203.196 203.6C203.196 202.704 203.388 201.915 203.772 201.232C204.166 200.539 204.7 200.011 205.372 199.648C206.044 199.275 206.796 199.088 207.628 199.088C208.46 199.088 209.212 199.275 209.884 199.648C210.556 200.011 211.084 200.533 211.468 201.216C211.862 201.899 212.06 202.693 212.06 203.6C212.06 204.507 211.857 205.307 211.452 206C211.057 206.683 210.518 207.211 209.836 207.584C209.153 207.957 208.396 208.144 207.564 208.144ZM207.564 206.864C208.086 206.864 208.577 206.741 209.036 206.496C209.494 206.251 209.862 205.883 210.14 205.392C210.428 204.901 210.572 204.304 210.572 203.6C210.572 202.896 210.433 202.299 210.156 201.808C209.878 201.317 209.516 200.955 209.068 200.72C208.62 200.475 208.134 200.352 207.612 200.352C207.078 200.352 206.588 200.475 206.14 200.72C205.702 200.955 205.35 201.317 205.084 201.808C204.817 202.299 204.684 202.896 204.684 203.6C204.684 204.315 204.812 204.917 205.068 205.408C205.334 205.899 205.686 206.267 206.124 206.512C206.561 206.747 207.041 206.864 207.564 206.864ZM221.75 199.232V208H220.294V206.704C220.017 207.152 219.628 207.504 219.126 207.76C218.636 208.005 218.092 208.128 217.494 208.128C216.812 208.128 216.198 207.989 215.654 207.712C215.11 207.424 214.678 206.997 214.358 206.432C214.049 205.867 213.894 205.179 213.894 204.368V199.232H215.334V204.176C215.334 205.04 215.553 205.707 215.99 206.176C216.428 206.635 217.025 206.864 217.782 206.864C218.561 206.864 219.174 206.624 219.622 206.144C220.07 205.664 220.294 204.965 220.294 204.048V199.232H221.75ZM225.665 200.656C225.921 200.155 226.283 199.765 226.753 199.488C227.233 199.211 227.814 199.072 228.497 199.072V200.576H228.113C226.481 200.576 225.665 201.461 225.665 203.232V208H224.209V199.232H225.665V200.656ZM237.547 208.144C236.875 208.144 236.272 208.032 235.739 207.808C235.206 207.573 234.784 207.253 234.475 206.848C234.166 206.432 233.995 205.957 233.963 205.424H235.467C235.51 205.861 235.712 206.219 236.075 206.496C236.448 206.773 236.934 206.912 237.531 206.912C238.086 206.912 238.523 206.789 238.843 206.544C239.163 206.299 239.323 205.989 239.323 205.616C239.323 205.232 239.152 204.949 238.811 204.768C238.47 204.576 237.942 204.389 237.227 204.208C236.576 204.037 236.043 203.867 235.627 203.696C235.222 203.515 234.87 203.253 234.571 202.912C234.283 202.56 234.139 202.101 234.139 201.536C234.139 201.088 234.272 200.677 234.539 200.304C234.806 199.931 235.184 199.637 235.675 199.424C236.166 199.2 236.726 199.088 237.355 199.088C238.326 199.088 239.11 199.333 239.707 199.824C240.304 200.315 240.624 200.987 240.667 201.84H239.211C239.179 201.381 238.992 201.013 238.651 200.736C238.32 200.459 237.872 200.32 237.307 200.32C236.784 200.32 236.368 200.432 236.059 200.656C235.75 200.88 235.595 201.173 235.595 201.536C235.595 201.824 235.686 202.064 235.867 202.256C236.059 202.437 236.294 202.587 236.571 202.704C236.859 202.811 237.254 202.933 237.755 203.072C238.384 203.243 238.896 203.413 239.291 203.584C239.686 203.744 240.022 203.989 240.299 204.32C240.587 204.651 240.736 205.083 240.747 205.616C240.747 206.096 240.614 206.528 240.347 206.912C240.08 207.296 239.702 207.6 239.211 207.824C238.731 208.037 238.176 208.144 237.547 208.144ZM247.154 199.072C247.816 199.072 248.413 199.216 248.946 199.504C249.48 199.781 249.896 200.203 250.194 200.768C250.504 201.333 250.658 202.021 250.658 202.832V208H249.218V203.04C249.218 202.165 249 201.499 248.562 201.04C248.125 200.571 247.528 200.336 246.77 200.336C246.002 200.336 245.389 200.576 244.93 201.056C244.482 201.536 244.258 202.235 244.258 203.152V208H242.802V196.16H244.258V200.48C244.546 200.032 244.941 199.685 245.442 199.44C245.954 199.195 246.525 199.072 247.154 199.072ZM256.861 208.144C256.039 208.144 255.293 207.957 254.621 207.584C253.959 207.211 253.437 206.683 253.053 206C252.679 205.307 252.493 204.507 252.493 203.6C252.493 202.704 252.685 201.915 253.069 201.232C253.463 200.539 253.997 200.011 254.669 199.648C255.341 199.275 256.093 199.088 256.925 199.088C257.757 199.088 258.509 199.275 259.181 199.648C259.853 200.011 260.381 200.533 260.765 201.216C261.159 201.899 261.357 202.693 261.357 203.6C261.357 204.507 261.154 205.307 260.749 206C260.354 206.683 259.815 207.211 259.133 207.584C258.45 207.957 257.693 208.144 256.861 208.144ZM256.861 206.864C257.383 206.864 257.874 206.741 258.333 206.496C258.791 206.251 259.159 205.883 259.437 205.392C259.725 204.901 259.869 204.304 259.869 203.6C259.869 202.896 259.73 202.299 259.453 201.808C259.175 201.317 258.813 200.955 258.365 200.72C257.917 200.475 257.431 200.352 256.909 200.352C256.375 200.352 255.885 200.475 255.437 200.72C254.999 200.955 254.647 201.317 254.381 201.808C254.114 202.299 253.981 202.896 253.981 203.6C253.981 204.315 254.109 204.917 254.365 205.408C254.631 205.899 254.983 206.267 255.421 206.512C255.858 206.747 256.338 206.864 256.861 206.864ZM265.047 200.432V205.6C265.047 206.027 265.138 206.331 265.319 206.512C265.5 206.683 265.815 206.768 266.263 206.768H267.335V208H266.023C265.212 208 264.604 207.813 264.199 207.44C263.794 207.067 263.591 206.453 263.591 205.6V200.432H262.455V199.232H263.591V197.024H265.047V199.232H267.335V200.432H265.047ZM77.4536 229.6C77.4536 228.693 77.635 227.904 77.9976 227.232C78.3603 226.549 78.8616 226.021 79.5016 225.648C80.1523 225.275 80.8936 225.088 81.7256 225.088C82.803 225.088 83.6883 225.349 84.3816 225.872C85.0856 226.395 85.5496 227.12 85.7736 228.048H84.2056C84.0563 227.515 83.763 227.093 83.3256 226.784C82.899 226.475 82.3656 226.32 81.7256 226.32C80.8936 226.32 80.2216 226.608 79.7096 227.184C79.1976 227.749 78.9416 228.555 78.9416 229.6C78.9416 230.656 79.1976 231.472 79.7096 232.048C80.2216 232.624 80.8936 232.912 81.7256 232.912C82.3656 232.912 82.899 232.763 83.3256 232.464C83.7523 232.165 84.0456 231.739 84.2056 231.184H85.7736C85.539 232.08 85.0696 232.8 84.3656 233.344C83.6616 233.877 82.7816 234.144 81.7256 234.144C80.8936 234.144 80.1523 233.957 79.5016 233.584C78.8616 233.211 78.3603 232.683 77.9976 232C77.635 231.317 77.4536 230.517 77.4536 229.6ZM91.5404 234.144C90.719 234.144 89.9724 233.957 89.3004 233.584C88.639 233.211 88.1164 232.683 87.7324 232C87.359 231.307 87.1724 230.507 87.1724 229.6C87.1724 228.704 87.3644 227.915 87.7484 227.232C88.143 226.539 88.6764 226.011 89.3484 225.648C90.0204 225.275 90.7724 225.088 91.6044 225.088C92.4364 225.088 93.1884 225.275 93.8604 225.648C94.5324 226.011 95.0604 226.533 95.4444 227.216C95.839 227.899 96.0364 228.693 96.0364 229.6C96.0364 230.507 95.8337 231.307 95.4284 232C95.0337 232.683 94.495 233.211 93.8124 233.584C93.1297 233.957 92.3724 234.144 91.5404 234.144ZM91.5404 232.864C92.063 232.864 92.5537 232.741 93.0124 232.496C93.471 232.251 93.839 231.883 94.1164 231.392C94.4044 230.901 94.5484 230.304 94.5484 229.6C94.5484 228.896 94.4097 228.299 94.1324 227.808C93.855 227.317 93.4924 226.955 93.0444 226.72C92.5964 226.475 92.111 226.352 91.5884 226.352C91.055 226.352 90.5644 226.475 90.1164 226.72C89.679 226.955 89.327 227.317 89.0604 227.808C88.7937 228.299 88.6604 228.896 88.6604 229.6C88.6604 230.315 88.7884 230.917 89.0444 231.408C89.311 231.899 89.663 232.267 90.1004 232.512C90.5377 232.747 91.0177 232.864 91.5404 232.864ZM101.055 234.144C100.383 234.144 99.7801 234.032 99.2468 233.808C98.7134 233.573 98.2921 233.253 97.9828 232.848C97.6734 232.432 97.5028 231.957 97.4708 231.424H98.9748C99.0174 231.861 99.2201 232.219 99.5828 232.496C99.9561 232.773 100.441 232.912 101.039 232.912C101.593 232.912 102.031 232.789 102.351 232.544C102.671 232.299 102.831 231.989 102.831 231.616C102.831 231.232 102.66 230.949 102.319 230.768C101.977 230.576 101.449 230.389 100.735 230.208C100.084 230.037 99.5508 229.867 99.1348 229.696C98.7294 229.515 98.3774 229.253 98.0788 228.912C97.7908 228.56 97.6468 228.101 97.6468 227.536C97.6468 227.088 97.7801 226.677 98.0468 226.304C98.3134 225.931 98.6921 225.637 99.1828 225.424C99.6734 225.2 100.233 225.088 100.863 225.088C101.833 225.088 102.617 225.333 103.215 225.824C103.812 226.315 104.132 226.987 104.175 227.84H102.719C102.687 227.381 102.5 227.013 102.159 226.736C101.828 226.459 101.38 226.32 100.815 226.32C100.292 226.32 99.8761 226.432 99.5668 226.656C99.2574 226.88 99.1028 227.173 99.1028 227.536C99.1028 227.824 99.1934 228.064 99.3748 228.256C99.5668 228.437 99.8014 228.587 100.079 228.704C100.367 228.811 100.761 228.933 101.263 229.072C101.892 229.243 102.404 229.413 102.799 229.584C103.193 229.744 103.529 229.989 103.807 230.32C104.095 230.651 104.244 231.083 104.255 231.616C104.255 232.096 104.121 232.528 103.855 232.912C103.588 233.296 103.209 233.6 102.719 233.824C102.239 234.037 101.684 234.144 101.055 234.144ZM111.328 223.808C111.05 223.808 110.816 223.712 110.624 223.52C110.432 223.328 110.336 223.093 110.336 222.816C110.336 222.539 110.432 222.304 110.624 222.112C110.816 221.92 111.05 221.824 111.328 221.824C111.594 221.824 111.818 221.92 112 222.112C112.192 222.304 112.288 222.539 112.288 222.816C112.288 223.093 112.192 223.328 112 223.52C111.818 223.712 111.594 223.808 111.328 223.808ZM112.032 225.232V234H110.576V225.232H112.032ZM116.289 226.432V231.6C116.289 232.027 116.38 232.331 116.561 232.512C116.743 232.683 117.057 232.768 117.505 232.768H118.577V234H117.265C116.455 234 115.847 233.813 115.441 233.44C115.036 233.067 114.833 232.453 114.833 231.6V226.432H113.697V225.232H114.833V223.024H116.289V225.232H118.577V226.432H116.289ZM120.565 222.848H122.181L120.645 226.48H119.621L120.565 222.848ZM126.945 234.144C126.273 234.144 125.671 234.032 125.137 233.808C124.604 233.573 124.183 233.253 123.873 232.848C123.564 232.432 123.393 231.957 123.361 231.424H124.865C124.908 231.861 125.111 232.219 125.473 232.496C125.847 232.773 126.332 232.912 126.929 232.912C127.484 232.912 127.921 232.789 128.241 232.544C128.561 232.299 128.721 231.989 128.721 231.616C128.721 231.232 128.551 230.949 128.209 230.768C127.868 230.576 127.34 230.389 126.625 230.208C125.975 230.037 125.441 229.867 125.025 229.696C124.62 229.515 124.268 229.253 123.969 228.912C123.681 228.56 123.537 228.101 123.537 227.536C123.537 227.088 123.671 226.677 123.937 226.304C124.204 225.931 124.583 225.637 125.073 225.424C125.564 225.2 126.124 225.088 126.753 225.088C127.724 225.088 128.508 225.333 129.105 225.824C129.703 226.315 130.023 226.987 130.065 227.84H128.609C128.577 227.381 128.391 227.013 128.049 226.736C127.719 226.459 127.271 226.32 126.705 226.32C126.183 226.32 125.767 226.432 125.457 226.656C125.148 226.88 124.993 227.173 124.993 227.536C124.993 227.824 125.084 228.064 125.265 228.256C125.457 228.437 125.692 228.587 125.969 228.704C126.257 228.811 126.652 228.933 127.153 229.072C127.783 229.243 128.295 229.413 128.689 229.584C129.084 229.744 129.42 229.989 129.697 230.32C129.985 230.651 130.135 231.083 130.145 231.616C130.145 232.096 130.012 232.528 129.745 232.912C129.479 233.296 129.1 233.6 128.609 233.824C128.129 234.037 127.575 234.144 126.945 234.144ZM144.466 229.28C144.466 229.557 144.45 229.851 144.418 230.16H137.41C137.464 231.024 137.757 231.701 138.29 232.192C138.834 232.672 139.49 232.912 140.258 232.912C140.888 232.912 141.41 232.768 141.826 232.48C142.253 232.181 142.552 231.787 142.722 231.296H144.29C144.056 232.139 143.586 232.827 142.882 233.36C142.178 233.883 141.304 234.144 140.258 234.144C139.426 234.144 138.68 233.957 138.018 233.584C137.368 233.211 136.856 232.683 136.482 232C136.109 231.307 135.922 230.507 135.922 229.6C135.922 228.693 136.104 227.899 136.466 227.216C136.829 226.533 137.336 226.011 137.986 225.648C138.648 225.275 139.405 225.088 140.258 225.088C141.09 225.088 141.826 225.269 142.466 225.632C143.106 225.995 143.597 226.496 143.938 227.136C144.29 227.765 144.466 228.48 144.466 229.28ZM142.962 228.976C142.962 228.421 142.84 227.947 142.594 227.552C142.349 227.147 142.013 226.843 141.586 226.64C141.17 226.427 140.706 226.32 140.194 226.32C139.458 226.32 138.829 226.555 138.306 227.024C137.794 227.493 137.501 228.144 137.426 228.976H142.962ZM147.14 223.808C146.863 223.808 146.628 223.712 146.436 223.52C146.244 223.328 146.148 223.093 146.148 222.816C146.148 222.539 146.244 222.304 146.436 222.112C146.628 221.92 146.863 221.824 147.14 221.824C147.407 221.824 147.631 221.92 147.812 222.112C148.004 222.304 148.1 222.539 148.1 222.816C148.1 223.093 148.004 223.328 147.812 223.52C147.631 223.712 147.407 223.808 147.14 223.808ZM147.844 225.232V234H146.388V225.232H147.844ZM152.102 226.432V231.6C152.102 232.027 152.192 232.331 152.374 232.512C152.555 232.683 152.87 232.768 153.318 232.768H154.39V234H153.078C152.267 234 151.659 233.813 151.254 233.44C150.848 233.067 150.646 232.453 150.646 231.6V226.432H149.51V225.232H150.646V223.024H152.102V225.232H154.39V226.432H152.102ZM160.506 225.072C161.167 225.072 161.765 225.216 162.298 225.504C162.831 225.781 163.247 226.203 163.546 226.768C163.855 227.333 164.01 228.021 164.01 228.832V234H162.57V229.04C162.57 228.165 162.351 227.499 161.914 227.04C161.477 226.571 160.879 226.336 160.122 226.336C159.354 226.336 158.741 226.576 158.282 227.056C157.834 227.536 157.61 228.235 157.61 229.152V234H156.154V222.16H157.61V226.48C157.898 226.032 158.293 225.685 158.794 225.44C159.306 225.195 159.877 225.072 160.506 225.072ZM174.388 229.28C174.388 229.557 174.372 229.851 174.34 230.16H167.332C167.386 231.024 167.679 231.701 168.212 232.192C168.756 232.672 169.412 232.912 170.18 232.912C170.81 232.912 171.332 232.768 171.748 232.48C172.175 232.181 172.474 231.787 172.644 231.296H174.212C173.978 232.139 173.508 232.827 172.804 233.36C172.1 233.883 171.226 234.144 170.18 234.144C169.348 234.144 168.602 233.957 167.94 233.584C167.29 233.211 166.778 232.683 166.404 232C166.031 231.307 165.844 230.507 165.844 229.6C165.844 228.693 166.026 227.899 166.388 227.216C166.751 226.533 167.258 226.011 167.908 225.648C168.57 225.275 169.327 225.088 170.18 225.088C171.012 225.088 171.748 225.269 172.388 225.632C173.028 225.995 173.519 226.496 173.86 227.136C174.212 227.765 174.388 228.48 174.388 229.28ZM172.884 228.976C172.884 228.421 172.762 227.947 172.516 227.552C172.271 227.147 171.935 226.843 171.508 226.64C171.092 226.427 170.628 226.32 170.116 226.32C169.38 226.32 168.751 226.555 168.228 227.024C167.716 227.493 167.423 228.144 167.348 228.976H172.884ZM177.766 226.656C178.022 226.155 178.385 225.765 178.854 225.488C179.334 225.211 179.915 225.072 180.598 225.072V226.576H180.214C178.582 226.576 177.766 227.461 177.766 229.232V234H176.31V225.232H177.766V226.656ZM186.001 229.584C186.001 228.688 186.182 227.904 186.545 227.232C186.907 226.549 187.403 226.021 188.033 225.648C188.673 225.275 189.382 225.088 190.161 225.088C190.929 225.088 191.595 225.253 192.161 225.584C192.726 225.915 193.147 226.331 193.425 226.832V225.232H194.897V234H193.425V232.368C193.137 232.88 192.705 233.307 192.129 233.648C191.563 233.979 190.902 234.144 190.145 234.144C189.366 234.144 188.662 233.952 188.033 233.568C187.403 233.184 186.907 232.645 186.545 231.952C186.182 231.259 186.001 230.469 186.001 229.584ZM193.425 229.6C193.425 228.939 193.291 228.363 193.025 227.872C192.758 227.381 192.395 227.008 191.937 226.752C191.489 226.485 190.993 226.352 190.449 226.352C189.905 226.352 189.409 226.48 188.961 226.736C188.513 226.992 188.155 227.365 187.889 227.856C187.622 228.347 187.489 228.923 187.489 229.584C187.489 230.256 187.622 230.843 187.889 231.344C188.155 231.835 188.513 232.213 188.961 232.48C189.409 232.736 189.905 232.864 190.449 232.864C190.993 232.864 191.489 232.736 191.937 232.48C192.395 232.213 192.758 231.835 193.025 231.344C193.291 230.843 193.425 230.261 193.425 229.6ZM209.175 225.232L203.895 238.128H202.391L204.119 233.904L200.583 225.232H202.199L204.951 232.336L207.671 225.232H209.175ZM218.638 229.28C218.638 229.557 218.622 229.851 218.59 230.16H211.582C211.636 231.024 211.929 231.701 212.462 232.192C213.006 232.672 213.662 232.912 214.43 232.912C215.06 232.912 215.582 232.768 215.998 232.48C216.425 232.181 216.724 231.787 216.894 231.296H218.462C218.228 232.139 217.758 232.827 217.054 233.36C216.35 233.883 215.476 234.144 214.43 234.144C213.598 234.144 212.852 233.957 212.19 233.584C211.54 233.211 211.028 232.683 210.654 232C210.281 231.307 210.094 230.507 210.094 229.6C210.094 228.693 210.276 227.899 210.638 227.216C211.001 226.533 211.508 226.011 212.158 225.648C212.82 225.275 213.577 225.088 214.43 225.088C215.262 225.088 215.998 225.269 216.638 225.632C217.278 225.995 217.769 226.496 218.11 227.136C218.462 227.765 218.638 228.48 218.638 229.28ZM217.134 228.976C217.134 228.421 217.012 227.947 216.766 227.552C216.521 227.147 216.185 226.843 215.758 226.64C215.342 226.427 214.878 226.32 214.366 226.32C213.63 226.32 213.001 226.555 212.478 227.024C211.966 227.493 211.673 228.144 211.598 228.976H217.134ZM223.664 234.144C222.992 234.144 222.389 234.032 221.856 233.808C221.323 233.573 220.901 233.253 220.592 232.848C220.283 232.432 220.112 231.957 220.08 231.424H221.584C221.627 231.861 221.829 232.219 222.192 232.496C222.565 232.773 223.051 232.912 223.648 232.912C224.203 232.912 224.64 232.789 224.96 232.544C225.28 232.299 225.44 231.989 225.44 231.616C225.44 231.232 225.269 230.949 224.928 230.768C224.587 230.576 224.059 230.389 223.344 230.208C222.693 230.037 222.16 229.867 221.744 229.696C221.339 229.515 220.987 229.253 220.688 228.912C220.4 228.56 220.256 228.101 220.256 227.536C220.256 227.088 220.389 226.677 220.656 226.304C220.923 225.931 221.301 225.637 221.792 225.424C222.283 225.2 222.843 225.088 223.472 225.088C224.443 225.088 225.227 225.333 225.824 225.824C226.421 226.315 226.741 226.987 226.784 227.84H225.328C225.296 227.381 225.109 227.013 224.768 226.736C224.437 226.459 223.989 226.32 223.424 226.32C222.901 226.32 222.485 226.432 222.176 226.656C221.867 226.88 221.712 227.173 221.712 227.536C221.712 227.824 221.803 228.064 221.984 228.256C222.176 228.437 222.411 228.587 222.688 228.704C222.976 228.811 223.371 228.933 223.872 229.072C224.501 229.243 225.013 229.413 225.408 229.584C225.803 229.744 226.139 229.989 226.416 230.32C226.704 230.651 226.853 231.083 226.864 231.616C226.864 232.096 226.731 232.528 226.464 232.912C226.197 233.296 225.819 233.6 225.328 233.824C224.848 234.037 224.293 234.144 223.664 234.144ZM237.009 234.144C236.188 234.144 235.441 233.957 234.769 233.584C234.108 233.211 233.585 232.683 233.201 232C232.828 231.307 232.641 230.507 232.641 229.6C232.641 228.704 232.833 227.915 233.217 227.232C233.612 226.539 234.145 226.011 234.817 225.648C235.489 225.275 236.241 225.088 237.073 225.088C237.905 225.088 238.657 225.275 239.329 225.648C240.001 226.011 240.529 226.533 240.913 227.216C241.308 227.899 241.505 228.693 241.505 229.6C241.505 230.507 241.302 231.307 240.897 232C240.502 232.683 239.964 233.211 239.281 233.584C238.598 233.957 237.841 234.144 237.009 234.144ZM237.009 232.864C237.532 232.864 238.022 232.741 238.481 232.496C238.94 232.251 239.308 231.883 239.585 231.392C239.873 230.901 240.017 230.304 240.017 229.6C240.017 228.896 239.878 228.299 239.601 227.808C239.324 227.317 238.961 226.955 238.513 226.72C238.065 226.475 237.58 226.352 237.057 226.352C236.524 226.352 236.033 226.475 235.585 226.72C235.148 226.955 234.796 227.317 234.529 227.808C234.262 228.299 234.129 228.896 234.129 229.6C234.129 230.315 234.257 230.917 234.513 231.408C234.78 231.899 235.132 232.267 235.569 232.512C236.006 232.747 236.486 232.864 237.009 232.864ZM244.876 226.656C245.132 226.155 245.494 225.765 245.964 225.488C246.444 225.211 247.025 225.072 247.708 225.072V226.576H247.324C245.692 226.576 244.876 227.461 244.876 229.232V234H243.42V225.232H244.876V226.656ZM253.11 229.584C253.11 228.688 253.291 227.904 253.654 227.232C254.017 226.549 254.513 226.021 255.142 225.648C255.782 225.275 256.491 225.088 257.27 225.088C258.038 225.088 258.705 225.253 259.27 225.584C259.835 225.915 260.257 226.331 260.534 226.832V225.232H262.006V234H260.534V232.368C260.246 232.88 259.814 233.307 259.238 233.648C258.673 233.979 258.011 234.144 257.254 234.144C256.475 234.144 255.771 233.952 255.142 233.568C254.513 233.184 254.017 232.645 253.654 231.952C253.291 231.259 253.11 230.469 253.11 229.584ZM260.534 229.6C260.534 228.939 260.401 228.363 260.134 227.872C259.867 227.381 259.505 227.008 259.046 226.752C258.598 226.485 258.102 226.352 257.558 226.352C257.014 226.352 256.518 226.48 256.07 226.736C255.622 226.992 255.265 227.365 254.998 227.856C254.731 228.347 254.598 228.923 254.598 229.584C254.598 230.256 254.731 230.843 254.998 231.344C255.265 231.835 255.622 232.213 256.07 232.48C256.518 232.736 257.014 232.864 257.558 232.864C258.102 232.864 258.598 232.736 259.046 232.48C259.505 232.213 259.867 231.835 260.134 231.344C260.401 230.843 260.534 230.261 260.534 229.6ZM118.215 251.072C119.282 251.072 120.146 251.397 120.807 252.048C121.468 252.688 121.799 253.616 121.799 254.832V260H120.359V255.04C120.359 254.165 120.14 253.499 119.703 253.04C119.266 252.571 118.668 252.336 117.911 252.336C117.143 252.336 116.53 252.576 116.071 253.056C115.623 253.536 115.399 254.235 115.399 255.152V260H113.943V251.232H115.399V252.48C115.687 252.032 116.076 251.685 116.567 251.44C117.068 251.195 117.618 251.072 118.215 251.072ZM128.001 260.144C127.18 260.144 126.433 259.957 125.761 259.584C125.1 259.211 124.577 258.683 124.193 258C123.82 257.307 123.633 256.507 123.633 255.6C123.633 254.704 123.825 253.915 124.209 253.232C124.604 252.539 125.137 252.011 125.809 251.648C126.481 251.275 127.233 251.088 128.065 251.088C128.897 251.088 129.649 251.275 130.321 251.648C130.993 252.011 131.521 252.533 131.905 253.216C132.3 253.899 132.497 254.693 132.497 255.6C132.497 256.507 132.295 257.307 131.889 258C131.495 258.683 130.956 259.211 130.273 259.584C129.591 259.957 128.833 260.144 128.001 260.144ZM128.001 258.864C128.524 258.864 129.015 258.741 129.473 258.496C129.932 258.251 130.3 257.883 130.577 257.392C130.865 256.901 131.009 256.304 131.009 255.6C131.009 254.896 130.871 254.299 130.593 253.808C130.316 253.317 129.953 252.955 129.505 252.72C129.057 252.475 128.572 252.352 128.049 252.352C127.516 252.352 127.025 252.475 126.577 252.72C126.14 252.955 125.788 253.317 125.521 253.808C125.255 254.299 125.121 254.896 125.121 255.6C125.121 256.315 125.249 256.917 125.505 257.408C125.772 257.899 126.124 258.267 126.561 258.512C126.999 258.747 127.479 258.864 128.001 258.864ZM134.876 260.096C134.598 260.096 134.364 260 134.172 259.808C133.98 259.616 133.884 259.381 133.884 259.104C133.884 258.827 133.98 258.592 134.172 258.4C134.364 258.208 134.598 258.112 134.876 258.112C135.142 258.112 135.366 258.208 135.548 258.4C135.74 258.592 135.836 258.827 135.836 259.104C135.836 259.381 135.74 259.616 135.548 259.808C135.366 260 135.142 260.096 134.876 260.096ZM143.493 248.848V260H142.037V248.848H143.493ZM153.856 251.088C154.613 251.088 155.274 251.253 155.84 251.584C156.416 251.915 156.842 252.331 157.12 252.832V251.232H158.592V260.192C158.592 260.992 158.421 261.701 158.08 262.32C157.738 262.949 157.248 263.44 156.608 263.792C155.978 264.144 155.242 264.32 154.4 264.32C153.248 264.32 152.288 264.048 151.52 263.504C150.752 262.96 150.298 262.219 150.16 261.28H151.6C151.76 261.813 152.09 262.24 152.592 262.56C153.093 262.891 153.696 263.056 154.4 263.056C155.2 263.056 155.85 262.805 156.352 262.304C156.864 261.803 157.12 261.099 157.12 260.192V258.352C156.832 258.864 156.405 259.291 155.84 259.632C155.274 259.973 154.613 260.144 153.856 260.144C153.077 260.144 152.368 259.952 151.728 259.568C151.098 259.184 150.602 258.645 150.24 257.952C149.877 257.259 149.696 256.469 149.696 255.584C149.696 254.688 149.877 253.904 150.24 253.232C150.602 252.549 151.098 252.021 151.728 251.648C152.368 251.275 153.077 251.088 153.856 251.088ZM157.12 255.6C157.12 254.939 156.986 254.363 156.72 253.872C156.453 253.381 156.09 253.008 155.632 252.752C155.184 252.485 154.688 252.352 154.144 252.352C153.6 252.352 153.104 252.48 152.656 252.736C152.208 252.992 151.85 253.365 151.584 253.856C151.317 254.347 151.184 254.923 151.184 255.584C151.184 256.256 151.317 256.843 151.584 257.344C151.85 257.835 152.208 258.213 152.656 258.48C153.104 258.736 153.6 258.864 154.144 258.864C154.688 258.864 155.184 258.736 155.632 258.48C156.09 258.213 156.453 257.835 156.72 257.344C156.986 256.843 157.12 256.261 157.12 255.6ZM164.876 260.144C164.055 260.144 163.308 259.957 162.636 259.584C161.975 259.211 161.452 258.683 161.068 258C160.695 257.307 160.508 256.507 160.508 255.6C160.508 254.704 160.7 253.915 161.084 253.232C161.479 252.539 162.012 252.011 162.684 251.648C163.356 251.275 164.108 251.088 164.94 251.088C165.772 251.088 166.524 251.275 167.196 251.648C167.868 252.011 168.396 252.533 168.78 253.216C169.175 253.899 169.372 254.693 169.372 255.6C169.372 256.507 169.17 257.307 168.764 258C168.37 258.683 167.831 259.211 167.148 259.584C166.466 259.957 165.708 260.144 164.876 260.144ZM164.876 258.864C165.399 258.864 165.89 258.741 166.348 258.496C166.807 258.251 167.175 257.883 167.452 257.392C167.74 256.901 167.884 256.304 167.884 255.6C167.884 254.896 167.746 254.299 167.468 253.808C167.191 253.317 166.828 252.955 166.38 252.72C165.932 252.475 165.447 252.352 164.924 252.352C164.391 252.352 163.9 252.475 163.452 252.72C163.015 252.955 162.663 253.317 162.396 253.808C162.13 254.299 161.996 254.896 161.996 255.6C161.996 256.315 162.124 256.917 162.38 257.408C162.647 257.899 162.999 258.267 163.436 258.512C163.874 258.747 164.354 258.864 164.876 258.864ZM173.063 252.432V257.6C173.063 258.027 173.153 258.331 173.335 258.512C173.516 258.683 173.831 258.768 174.279 258.768H175.351V260H174.039C173.228 260 172.62 259.813 172.215 259.44C171.809 259.067 171.607 258.453 171.607 257.6V252.432H170.471V251.232H171.607V249.024H173.063V251.232H175.351V252.432H173.063ZM180.836 255.584C180.836 254.688 181.018 253.904 181.38 253.232C181.743 252.549 182.239 252.021 182.868 251.648C183.508 251.275 184.218 251.088 184.996 251.088C185.764 251.088 186.431 251.253 186.996 251.584C187.562 251.915 187.983 252.331 188.26 252.832V251.232H189.732V260H188.26V258.368C187.972 258.88 187.54 259.307 186.964 259.648C186.399 259.979 185.738 260.144 184.98 260.144C184.202 260.144 183.498 259.952 182.868 259.568C182.239 259.184 181.743 258.645 181.38 257.952C181.018 257.259 180.836 256.469 180.836 255.584ZM188.26 255.6C188.26 254.939 188.127 254.363 187.86 253.872C187.594 253.381 187.231 253.008 186.772 252.752C186.324 252.485 185.828 252.352 185.284 252.352C184.74 252.352 184.244 252.48 183.796 252.736C183.348 252.992 182.991 253.365 182.724 253.856C182.458 254.347 182.324 254.923 182.324 255.584C182.324 256.256 182.458 256.843 182.724 257.344C182.991 257.835 183.348 258.213 183.796 258.48C184.244 258.736 184.74 258.864 185.284 258.864C185.828 258.864 186.324 258.736 186.772 258.48C187.231 258.213 187.594 257.835 187.86 257.344C188.127 256.843 188.26 256.261 188.26 255.6ZM204.011 251.232L198.731 264.128H197.227L198.955 259.904L195.419 251.232H197.035L199.787 258.336L202.507 251.232H204.011ZM213.474 255.28C213.474 255.557 213.458 255.851 213.426 256.16H206.418C206.472 257.024 206.765 257.701 207.298 258.192C207.842 258.672 208.498 258.912 209.266 258.912C209.896 258.912 210.418 258.768 210.834 258.48C211.261 258.181 211.56 257.787 211.73 257.296H213.298C213.064 258.139 212.594 258.827 211.89 259.36C211.186 259.883 210.312 260.144 209.266 260.144C208.434 260.144 207.688 259.957 207.026 259.584C206.376 259.211 205.864 258.683 205.49 258C205.117 257.307 204.93 256.507 204.93 255.6C204.93 254.693 205.112 253.899 205.474 253.216C205.837 252.533 206.344 252.011 206.994 251.648C207.656 251.275 208.413 251.088 209.266 251.088C210.098 251.088 210.834 251.269 211.474 251.632C212.114 251.995 212.605 252.496 212.946 253.136C213.298 253.765 213.474 254.48 213.474 255.28ZM211.97 254.976C211.97 254.421 211.848 253.947 211.602 253.552C211.357 253.147 211.021 252.843 210.594 252.64C210.178 252.427 209.714 252.32 209.202 252.32C208.466 252.32 207.837 252.555 207.314 253.024C206.802 253.493 206.509 254.144 206.434 254.976H211.97ZM218.5 260.144C217.828 260.144 217.225 260.032 216.692 259.808C216.159 259.573 215.737 259.253 215.428 258.848C215.119 258.432 214.948 257.957 214.916 257.424H216.42C216.463 257.861 216.665 258.219 217.028 258.496C217.401 258.773 217.887 258.912 218.484 258.912C219.039 258.912 219.476 258.789 219.796 258.544C220.116 258.299 220.276 257.989 220.276 257.616C220.276 257.232 220.105 256.949 219.764 256.768C219.423 256.576 218.895 256.389 218.18 256.208C217.529 256.037 216.996 255.867 216.58 255.696C216.175 255.515 215.823 255.253 215.524 254.912C215.236 254.56 215.092 254.101 215.092 253.536C215.092 253.088 215.225 252.677 215.492 252.304C215.759 251.931 216.137 251.637 216.628 251.424C217.119 251.2 217.679 251.088 218.308 251.088C219.279 251.088 220.063 251.333 220.66 251.824C221.257 252.315 221.577 252.987 221.62 253.84H220.164C220.132 253.381 219.945 253.013 219.604 252.736C219.273 252.459 218.825 252.32 218.26 252.32C217.737 252.32 217.321 252.432 217.012 252.656C216.703 252.88 216.548 253.173 216.548 253.536C216.548 253.824 216.639 254.064 216.82 254.256C217.012 254.437 217.247 254.587 217.524 254.704C217.812 254.811 218.207 254.933 218.708 255.072C219.337 255.243 219.849 255.413 220.244 255.584C220.639 255.744 220.975 255.989 221.252 256.32C221.54 256.651 221.689 257.083 221.7 257.616C221.7 258.096 221.567 258.528 221.3 258.912C221.033 259.296 220.655 259.6 220.164 259.824C219.684 260.037 219.129 260.144 218.5 260.144ZM225.643 248.848L225.467 256.848H224.251L224.075 248.848H225.643ZM224.923 260.096C224.646 260.096 224.411 260 224.219 259.808C224.027 259.616 223.931 259.381 223.931 259.104C223.931 258.827 224.027 258.592 224.219 258.4C224.411 258.208 224.646 258.112 224.923 258.112C225.19 258.112 225.414 258.208 225.595 258.4C225.787 258.592 225.883 258.827 225.883 259.104C225.883 259.381 225.787 259.616 225.595 259.808C225.414 260 225.19 260.096 224.923 260.096Z" fill="#656565"/>
<path d="M136.558 314.364V322.968C136.558 324.3 136.18 325.326 135.424 326.046C134.68 326.766 133.672 327.126 132.4 327.126C131.068 327.126 130 326.748 129.196 325.992C128.392 325.236 127.99 324.162 127.99 322.77H131.05C131.05 323.298 131.158 323.7 131.374 323.976C131.59 324.24 131.902 324.372 132.31 324.372C132.682 324.372 132.97 324.252 133.174 324.012C133.378 323.772 133.48 323.424 133.48 322.968V314.364H136.558ZM138.433 321.96C138.433 320.928 138.625 320.022 139.009 319.242C139.405 318.462 139.939 317.862 140.611 317.442C141.283 317.022 142.033 316.812 142.861 316.812C143.569 316.812 144.187 316.956 144.715 317.244C145.255 317.532 145.669 317.91 145.957 318.378V316.956H149.035V327H145.957V325.578C145.657 326.046 145.237 326.424 144.697 326.712C144.169 327 143.551 327.144 142.843 327.144C142.027 327.144 141.283 326.934 140.611 326.514C139.939 326.082 139.405 325.476 139.009 324.696C138.625 323.904 138.433 322.992 138.433 321.96ZM145.957 321.978C145.957 321.21 145.741 320.604 145.309 320.16C144.889 319.716 144.373 319.494 143.761 319.494C143.149 319.494 142.627 319.716 142.195 320.16C141.775 320.592 141.565 321.192 141.565 321.96C141.565 322.728 141.775 323.34 142.195 323.796C142.627 324.24 143.149 324.462 143.761 324.462C144.373 324.462 144.889 324.24 145.309 323.796C145.741 323.352 145.957 322.746 145.957 321.978ZM150.65 321.96C150.65 320.928 150.842 320.022 151.226 319.242C151.622 318.462 152.156 317.862 152.828 317.442C153.5 317.022 154.25 316.812 155.078 316.812C155.738 316.812 156.338 316.95 156.878 317.226C157.43 317.502 157.862 317.874 158.174 318.342V313.68H161.252V327H158.174V325.56C157.886 326.04 157.472 326.424 156.932 326.712C156.404 327 155.786 327.144 155.078 327.144C154.25 327.144 153.5 326.934 152.828 326.514C152.156 326.082 151.622 325.476 151.226 324.696C150.842 323.904 150.65 322.992 150.65 321.96ZM158.174 321.978C158.174 321.21 157.958 320.604 157.526 320.16C157.106 319.716 156.59 319.494 155.978 319.494C155.366 319.494 154.844 319.716 154.412 320.16C153.992 320.592 153.782 321.192 153.782 321.96C153.782 322.728 153.992 323.34 154.412 323.796C154.844 324.24 155.366 324.462 155.978 324.462C156.59 324.462 157.106 324.24 157.526 323.796C157.958 323.352 158.174 322.746 158.174 321.978ZM172.946 321.816C172.946 322.104 172.928 322.404 172.892 322.716H165.926C165.974 323.34 166.172 323.82 166.52 324.156C166.88 324.48 167.318 324.642 167.834 324.642C168.602 324.642 169.136 324.318 169.436 323.67H172.712C172.544 324.33 172.238 324.924 171.794 325.452C171.362 325.98 170.816 326.394 170.156 326.694C169.496 326.994 168.758 327.144 167.942 327.144C166.958 327.144 166.082 326.934 165.314 326.514C164.546 326.094 163.946 325.494 163.514 324.714C163.082 323.934 162.866 323.022 162.866 321.978C162.866 320.934 163.076 320.022 163.496 319.242C163.928 318.462 164.528 317.862 165.296 317.442C166.064 317.022 166.946 316.812 167.942 316.812C168.914 316.812 169.778 317.016 170.534 317.424C171.29 317.832 171.878 318.414 172.298 319.17C172.73 319.926 172.946 320.808 172.946 321.816ZM169.796 321.006C169.796 320.478 169.616 320.058 169.256 319.746C168.896 319.434 168.446 319.278 167.906 319.278C167.39 319.278 166.952 319.428 166.592 319.728C166.244 320.028 166.028 320.454 165.944 321.006H169.796ZM178.656 327.144C177.78 327.144 177 326.994 176.316 326.694C175.632 326.394 175.092 325.986 174.696 325.47C174.3 324.942 174.078 324.354 174.03 323.706H177.072C177.108 324.054 177.27 324.336 177.558 324.552C177.846 324.768 178.2 324.876 178.62 324.876C179.004 324.876 179.298 324.804 179.502 324.66C179.718 324.504 179.826 324.306 179.826 324.066C179.826 323.778 179.676 323.568 179.376 323.436C179.076 323.292 178.59 323.136 177.918 322.968C177.198 322.8 176.598 322.626 176.118 322.446C175.638 322.254 175.224 321.96 174.876 321.564C174.528 321.156 174.354 320.61 174.354 319.926C174.354 319.35 174.51 318.828 174.822 318.36C175.146 317.88 175.614 317.502 176.226 317.226C176.85 316.95 177.588 316.812 178.44 316.812C179.7 316.812 180.69 317.124 181.41 317.748C182.142 318.372 182.562 319.2 182.67 320.232H179.826C179.778 319.884 179.622 319.608 179.358 319.404C179.106 319.2 178.77 319.098 178.35 319.098C177.99 319.098 177.714 319.17 177.522 319.314C177.33 319.446 177.234 319.632 177.234 319.872C177.234 320.16 177.384 320.376 177.684 320.52C177.996 320.664 178.476 320.808 179.124 320.952C179.868 321.144 180.474 321.336 180.942 321.528C181.41 321.708 181.818 322.008 182.166 322.428C182.526 322.836 182.712 323.388 182.724 324.084C182.724 324.672 182.556 325.2 182.22 325.668C181.896 326.124 181.422 326.484 180.798 326.748C180.186 327.012 179.472 327.144 178.656 327.144ZM189.179 327.144C188.195 327.144 187.307 326.934 186.515 326.514C185.735 326.094 185.117 325.494 184.661 324.714C184.217 323.934 183.995 323.022 183.995 321.978C183.995 320.946 184.223 320.04 184.679 319.26C185.135 318.468 185.759 317.862 186.551 317.442C187.343 317.022 188.231 316.812 189.215 316.812C190.199 316.812 191.087 317.022 191.879 317.442C192.671 317.862 193.295 318.468 193.751 319.26C194.207 320.04 194.435 320.946 194.435 321.978C194.435 323.01 194.201 323.922 193.733 324.714C193.277 325.494 192.647 326.094 191.843 326.514C191.051 326.934 190.163 327.144 189.179 327.144ZM189.179 324.48C189.767 324.48 190.265 324.264 190.673 323.832C191.093 323.4 191.303 322.782 191.303 321.978C191.303 321.174 191.099 320.556 190.691 320.124C190.295 319.692 189.803 319.476 189.215 319.476C188.615 319.476 188.117 319.692 187.721 320.124C187.325 320.544 187.127 321.162 187.127 321.978C187.127 322.782 187.319 323.4 187.703 323.832C188.099 324.264 188.591 324.48 189.179 324.48ZM199.146 313.68V327H196.068V313.68H199.146ZM200.765 321.96C200.765 320.928 200.957 320.022 201.341 319.242C201.737 318.462 202.271 317.862 202.943 317.442C203.615 317.022 204.365 316.812 205.193 316.812C205.901 316.812 206.519 316.956 207.047 317.244C207.587 317.532 208.001 317.91 208.289 318.378V316.956H211.367V327H208.289V325.578C207.989 326.046 207.569 326.424 207.029 326.712C206.501 327 205.883 327.144 205.175 327.144C204.359 327.144 203.615 326.934 202.943 326.514C202.271 326.082 201.737 325.476 201.341 324.696C200.957 323.904 200.765 322.992 200.765 321.96ZM208.289 321.978C208.289 321.21 208.073 320.604 207.641 320.16C207.221 319.716 206.705 319.494 206.093 319.494C205.481 319.494 204.959 319.716 204.527 320.16C204.107 320.592 203.897 321.192 203.897 321.96C203.897 322.728 204.107 323.34 204.527 323.796C204.959 324.24 205.481 324.462 206.093 324.462C206.705 324.462 207.221 324.24 207.641 323.796C208.073 323.352 208.289 322.746 208.289 321.978Z" fill="#444444"/>
<defs>
<filter id="filter0_d_1650_556" x="0" y="0" width="340" height="403" filterUnits="userSpaceOnUse" color-interpolation-filters="sRGB">
<feFlood flood-opacity="0" result="BackgroundImageFix"/>
<feColorMatrix in="SourceAlpha" type="matrix" values="0 0 0 0 0 0 0 0 0 0 0 0 0 0 0 0 0 0 127 0" result="hardAlpha"/>
<feOffset dy="4"/>
<feGaussianBlur stdDeviation="2"/>
<feComposite in2="hardAlpha" operator="out"/>
<feColorMatrix type="matrix" values="0 0 0 0 0 0 0 0 0 0 0 0 0 0 0 0 0 0 0.25 0"/>
<feBlend mode="normal" in2="BackgroundImageFix" result="effect1_dropShadow_1650_556"/>
<feBlend mode="normal" in="SourceGraphic" in2="effect1_dropShadow_1650_556" result="shape"/>
</filter>
</defs>
</svg>
