<svg width="340" height="431" viewBox="0 0 340 431" fill="none" xmlns="http://www.w3.org/2000/svg">
<g filter="url(#filter0_d_1651_568)">
<path d="M4 32C4 14.3269 18.3269 0 36 0H304C321.673 0 336 14.3269 336 32V423H36C18.3269 423 4 408.673 4 391V32Z" fill="white"/>
</g>
<path d="M155.417 157.12C145.817 157.12 138.521 150.304 138.521 137.92C138.521 128.032 143.993 119.584 153.881 114.688C158.777 112.288 164.057 111.04 169.433 111.04L171.353 113.728C166.457 113.728 156.473 116.512 151.769 121.984C149.369 124.768 148.121 127.072 148.121 128.896C149.177 127.552 153.209 126.208 157.337 126.208C162.425 126.208 166.361 128.32 169.049 132.544C171.929 119.776 184.601 111.04 199.385 111.04L201.305 113.728C196.409 113.728 186.425 116.512 181.721 121.984C179.321 124.768 178.073 127.072 178.073 128.896C179.129 127.552 183.161 126.208 187.289 126.208C195.641 126.208 201.497 132.928 201.497 141.184C201.497 150.4 195.161 157.12 185.369 157.12C178.649 157.12 172.985 153.568 170.393 147.712C167.993 153.568 162.713 157.12 155.417 157.12Z" fill="#FC5000"/>
<path d="M76.0708 188.848V200H74.6148V188.848H76.0708ZM78.7763 188.848H80.3923L78.8563 192.48H77.8323L78.7763 188.848ZM92.5963 191.072C93.279 191.072 93.887 191.216 94.4203 191.504C94.9536 191.781 95.375 192.203 95.6843 192.768C95.9936 193.333 96.1483 194.021 96.1483 194.832V200H94.7083V195.04C94.7083 194.165 94.4896 193.499 94.0523 193.04C93.6256 192.571 93.0443 192.336 92.3083 192.336C91.551 192.336 90.9483 192.581 90.5003 193.072C90.0523 193.552 89.8283 194.251 89.8283 195.168V200H88.3883V195.04C88.3883 194.165 88.1696 193.499 87.7323 193.04C87.3056 192.571 86.7243 192.336 85.9883 192.336C85.231 192.336 84.6283 192.581 84.1803 193.072C83.7323 193.552 83.5083 194.251 83.5083 195.168V200H82.0523V191.232H83.5083V192.496C83.7963 192.037 84.1803 191.685 84.6603 191.44C85.151 191.195 85.6896 191.072 86.2763 191.072C87.0123 191.072 87.663 191.237 88.2283 191.568C88.7936 191.899 89.215 192.384 89.4923 193.024C89.7376 192.405 90.143 191.925 90.7083 191.584C91.2736 191.243 91.903 191.072 92.5963 191.072ZM107.154 191.072C107.816 191.072 108.413 191.216 108.946 191.504C109.48 191.781 109.896 192.203 110.194 192.768C110.504 193.333 110.658 194.021 110.658 194.832V200H109.218V195.04C109.218 194.165 109 193.499 108.562 193.04C108.125 192.571 107.528 192.336 106.77 192.336C106.002 192.336 105.389 192.576 104.93 193.056C104.482 193.536 104.258 194.235 104.258 195.152V200H102.802V188.16H104.258V192.48C104.546 192.032 104.941 191.685 105.442 191.44C105.954 191.195 106.525 191.072 107.154 191.072ZM112.493 195.584C112.493 194.688 112.674 193.904 113.037 193.232C113.399 192.549 113.895 192.021 114.525 191.648C115.165 191.275 115.874 191.088 116.653 191.088C117.421 191.088 118.087 191.253 118.653 191.584C119.218 191.915 119.639 192.331 119.917 192.832V191.232H121.389V200H119.917V198.368C119.629 198.88 119.197 199.307 118.621 199.648C118.055 199.979 117.394 200.144 116.637 200.144C115.858 200.144 115.154 199.952 114.525 199.568C113.895 199.184 113.399 198.645 113.037 197.952C112.674 197.259 112.493 196.469 112.493 195.584ZM119.917 195.6C119.917 194.939 119.783 194.363 119.517 193.872C119.25 193.381 118.887 193.008 118.429 192.752C117.981 192.485 117.485 192.352 116.941 192.352C116.397 192.352 115.901 192.48 115.453 192.736C115.005 192.992 114.647 193.365 114.381 193.856C114.114 194.347 113.981 194.923 113.981 195.584C113.981 196.256 114.114 196.843 114.381 197.344C114.647 197.835 115.005 198.213 115.453 198.48C115.901 198.736 116.397 198.864 116.941 198.864C117.485 198.864 117.981 198.736 118.429 198.48C118.887 198.213 119.25 197.835 119.517 197.344C119.783 196.843 119.917 196.261 119.917 195.6ZM125.305 192.848C125.593 192.347 126.02 191.931 126.585 191.6C127.161 191.259 127.828 191.088 128.585 191.088C129.364 191.088 130.068 191.275 130.697 191.648C131.337 192.021 131.839 192.549 132.201 193.232C132.564 193.904 132.745 194.688 132.745 195.584C132.745 196.469 132.564 197.259 132.201 197.952C131.839 198.645 131.337 199.184 130.697 199.568C130.068 199.952 129.364 200.144 128.585 200.144C127.839 200.144 127.177 199.979 126.601 199.648C126.036 199.307 125.604 198.885 125.305 198.384V204.16H123.849V191.232H125.305V192.848ZM131.257 195.584C131.257 194.923 131.124 194.347 130.857 193.856C130.591 193.365 130.228 192.992 129.769 192.736C129.321 192.48 128.825 192.352 128.281 192.352C127.748 192.352 127.252 192.485 126.793 192.752C126.345 193.008 125.983 193.387 125.705 193.888C125.439 194.379 125.305 194.949 125.305 195.6C125.305 196.261 125.439 196.843 125.705 197.344C125.983 197.835 126.345 198.213 126.793 198.48C127.252 198.736 127.748 198.864 128.281 198.864C128.825 198.864 129.321 198.736 129.769 198.48C130.228 198.213 130.591 197.835 130.857 197.344C131.124 196.843 131.257 196.256 131.257 195.584ZM136.118 192.848C136.406 192.347 136.832 191.931 137.398 191.6C137.974 191.259 138.64 191.088 139.398 191.088C140.176 191.088 140.88 191.275 141.51 191.648C142.15 192.021 142.651 192.549 143.014 193.232C143.376 193.904 143.558 194.688 143.558 195.584C143.558 196.469 143.376 197.259 143.014 197.952C142.651 198.645 142.15 199.184 141.51 199.568C140.88 199.952 140.176 200.144 139.398 200.144C138.651 200.144 137.99 199.979 137.414 199.648C136.848 199.307 136.416 198.885 136.118 198.384V204.16H134.662V191.232H136.118V192.848ZM142.07 195.584C142.07 194.923 141.936 194.347 141.67 193.856C141.403 193.365 141.04 192.992 140.582 192.736C140.134 192.48 139.638 192.352 139.094 192.352C138.56 192.352 138.064 192.485 137.606 192.752C137.158 193.008 136.795 193.387 136.518 193.888C136.251 194.379 136.118 194.949 136.118 195.6C136.118 196.261 136.251 196.843 136.518 197.344C136.795 197.835 137.158 198.213 137.606 198.48C138.064 198.736 138.56 198.864 139.094 198.864C139.638 198.864 140.134 198.736 140.582 198.48C141.04 198.213 141.403 197.835 141.67 197.344C141.936 196.843 142.07 196.256 142.07 195.584ZM153.026 191.232L147.746 204.128H146.242L147.97 199.904L144.434 191.232H146.05L148.802 198.336L151.522 191.232H153.026ZM160.531 192.432V197.6C160.531 198.027 160.622 198.331 160.803 198.512C160.985 198.683 161.299 198.768 161.747 198.768H162.819V200H161.507C160.697 200 160.089 199.813 159.683 199.44C159.278 199.067 159.075 198.453 159.075 197.6V192.432H157.939V191.232H159.075V189.024H160.531V191.232H162.819V192.432H160.531ZM168.936 191.072C169.597 191.072 170.194 191.216 170.728 191.504C171.261 191.781 171.677 192.203 171.976 192.768C172.285 193.333 172.44 194.021 172.44 194.832V200H171V195.04C171 194.165 170.781 193.499 170.344 193.04C169.906 192.571 169.309 192.336 168.552 192.336C167.784 192.336 167.17 192.576 166.712 193.056C166.264 193.536 166.04 194.235 166.04 195.152V200H164.584V188.16H166.04V192.48C166.328 192.032 166.722 191.685 167.224 191.44C167.736 191.195 168.306 191.072 168.936 191.072ZM174.274 195.584C174.274 194.688 174.455 193.904 174.818 193.232C175.181 192.549 175.677 192.021 176.306 191.648C176.946 191.275 177.655 191.088 178.434 191.088C179.202 191.088 179.869 191.253 180.434 191.584C180.999 191.915 181.421 192.331 181.698 192.832V191.232H183.17V200H181.698V198.368C181.41 198.88 180.978 199.307 180.402 199.648C179.837 199.979 179.175 200.144 178.418 200.144C177.639 200.144 176.935 199.952 176.306 199.568C175.677 199.184 175.181 198.645 174.818 197.952C174.455 197.259 174.274 196.469 174.274 195.584ZM181.698 195.6C181.698 194.939 181.565 194.363 181.298 193.872C181.031 193.381 180.669 193.008 180.21 192.752C179.762 192.485 179.266 192.352 178.722 192.352C178.178 192.352 177.682 192.48 177.234 192.736C176.786 192.992 176.429 193.365 176.162 193.856C175.895 194.347 175.762 194.923 175.762 195.584C175.762 196.256 175.895 196.843 176.162 197.344C176.429 197.835 176.786 198.213 177.234 198.48C177.682 198.736 178.178 198.864 178.722 198.864C179.266 198.864 179.762 198.736 180.21 198.48C180.669 198.213 181.031 197.835 181.298 197.344C181.565 196.843 181.698 196.261 181.698 195.6ZM187.406 192.432V197.6C187.406 198.027 187.497 198.331 187.678 198.512C187.86 198.683 188.174 198.768 188.622 198.768H189.694V200H188.382C187.572 200 186.964 199.813 186.558 199.44C186.153 199.067 185.95 198.453 185.95 197.6V192.432H184.814V191.232H185.95V189.024H187.406V191.232H189.694V192.432H187.406ZM206.268 191.072C206.951 191.072 207.559 191.216 208.092 191.504C208.626 191.781 209.047 192.203 209.356 192.768C209.666 193.333 209.82 194.021 209.82 194.832V200H208.38V195.04C208.38 194.165 208.162 193.499 207.724 193.04C207.298 192.571 206.716 192.336 205.98 192.336C205.223 192.336 204.62 192.581 204.172 193.072C203.724 193.552 203.5 194.251 203.5 195.168V200H202.06V195.04C202.06 194.165 201.842 193.499 201.404 193.04C200.978 192.571 200.396 192.336 199.66 192.336C198.903 192.336 198.3 192.581 197.852 193.072C197.404 193.552 197.18 194.251 197.18 195.168V200H195.724V191.232H197.18V192.496C197.468 192.037 197.852 191.685 198.332 191.44C198.823 191.195 199.362 191.072 199.948 191.072C200.684 191.072 201.335 191.237 201.9 191.568C202.466 191.899 202.887 192.384 203.164 193.024C203.41 192.405 203.815 191.925 204.38 191.584C204.946 191.243 205.575 191.072 206.268 191.072ZM219.761 191.232L214.481 204.128H212.977L214.705 199.904L211.169 191.232H212.785L215.537 198.336L218.257 191.232H219.761ZM226.946 192.864C227.244 192.341 227.682 191.915 228.258 191.584C228.834 191.253 229.49 191.088 230.226 191.088C231.015 191.088 231.724 191.275 232.354 191.648C232.983 192.021 233.479 192.549 233.842 193.232C234.204 193.904 234.386 194.688 234.386 195.584C234.386 196.469 234.204 197.259 233.842 197.952C233.479 198.645 232.978 199.184 232.338 199.568C231.708 199.952 231.004 200.144 230.226 200.144C229.468 200.144 228.802 199.979 228.226 199.648C227.66 199.317 227.234 198.896 226.946 198.384V200H225.49V188.16H226.946V192.864ZM232.898 195.584C232.898 194.923 232.764 194.347 232.498 193.856C232.231 193.365 231.868 192.992 231.41 192.736C230.962 192.48 230.466 192.352 229.922 192.352C229.388 192.352 228.892 192.485 228.434 192.752C227.986 193.008 227.623 193.387 227.346 193.888C227.079 194.379 226.946 194.949 226.946 195.6C226.946 196.261 227.079 196.843 227.346 197.344C227.623 197.835 227.986 198.213 228.434 198.48C228.892 198.736 229.388 198.864 229.922 198.864C230.466 198.864 230.962 198.736 231.41 198.48C231.868 198.213 232.231 197.835 232.498 197.344C232.764 196.843 232.898 196.256 232.898 195.584ZM235.758 195.584C235.758 194.688 235.94 193.904 236.302 193.232C236.665 192.549 237.161 192.021 237.79 191.648C238.43 191.275 239.14 191.088 239.918 191.088C240.686 191.088 241.353 191.253 241.918 191.584C242.484 191.915 242.905 192.331 243.182 192.832V191.232H244.654V200H243.182V198.368C242.894 198.88 242.462 199.307 241.886 199.648C241.321 199.979 240.66 200.144 239.902 200.144C239.124 200.144 238.42 199.952 237.79 199.568C237.161 199.184 236.665 198.645 236.302 197.952C235.94 197.259 235.758 196.469 235.758 195.584ZM243.182 195.6C243.182 194.939 243.049 194.363 242.782 193.872C242.516 193.381 242.153 193.008 241.694 192.752C241.246 192.485 240.75 192.352 240.206 192.352C239.662 192.352 239.166 192.48 238.718 192.736C238.27 192.992 237.913 193.365 237.646 193.856C237.38 194.347 237.246 194.923 237.246 195.584C237.246 196.256 237.38 196.843 237.646 197.344C237.913 197.835 238.27 198.213 238.718 198.48C239.166 198.736 239.662 198.864 240.206 198.864C240.75 198.864 241.246 198.736 241.694 198.48C242.153 198.213 242.516 197.835 242.782 197.344C243.049 196.843 243.182 196.261 243.182 195.6ZM248.571 192.864C248.869 192.341 249.307 191.915 249.883 191.584C250.459 191.253 251.115 191.088 251.851 191.088C252.64 191.088 253.349 191.275 253.979 191.648C254.608 192.021 255.104 192.549 255.467 193.232C255.829 193.904 256.011 194.688 256.011 195.584C256.011 196.469 255.829 197.259 255.467 197.952C255.104 198.645 254.603 199.184 253.963 199.568C253.333 199.952 252.629 200.144 251.851 200.144C251.093 200.144 250.427 199.979 249.851 199.648C249.285 199.317 248.859 198.896 248.571 198.384V200H247.115V188.16H248.571V192.864ZM254.523 195.584C254.523 194.923 254.389 194.347 254.123 193.856C253.856 193.365 253.493 192.992 253.035 192.736C252.587 192.48 252.091 192.352 251.547 192.352C251.013 192.352 250.517 192.485 250.059 192.752C249.611 193.008 249.248 193.387 248.971 193.888C248.704 194.379 248.571 194.949 248.571 195.6C248.571 196.261 248.704 196.843 248.971 197.344C249.248 197.835 249.611 198.213 250.059 198.48C250.517 198.736 251.013 198.864 251.547 198.864C252.091 198.864 252.587 198.736 253.035 198.48C253.493 198.213 253.856 197.835 254.123 197.344C254.389 196.843 254.523 196.256 254.523 195.584ZM265.927 195.28C265.927 195.557 265.911 195.851 265.879 196.16H258.871C258.925 197.024 259.218 197.701 259.751 198.192C260.295 198.672 260.951 198.912 261.719 198.912C262.349 198.912 262.871 198.768 263.287 198.48C263.714 198.181 264.013 197.787 264.183 197.296H265.751C265.517 198.139 265.047 198.827 264.343 199.36C263.639 199.883 262.765 200.144 261.719 200.144C260.887 200.144 260.141 199.957 259.479 199.584C258.829 199.211 258.317 198.683 257.943 198C257.57 197.307 257.383 196.507 257.383 195.6C257.383 194.693 257.565 193.899 257.927 193.216C258.29 192.533 258.797 192.011 259.447 191.648C260.109 191.275 260.866 191.088 261.719 191.088C262.551 191.088 263.287 191.269 263.927 191.632C264.567 191.995 265.058 192.496 265.399 193.136C265.751 193.765 265.927 194.48 265.927 195.28ZM264.423 194.976C264.423 194.421 264.301 193.947 264.055 193.552C263.81 193.147 263.474 192.843 263.047 192.64C262.631 192.427 262.167 192.32 261.655 192.32C260.919 192.32 260.29 192.555 259.767 193.024C259.255 193.493 258.962 194.144 258.887 194.976H264.423ZM100.844 221.6C100.844 220.693 101.026 219.904 101.388 219.232C101.751 218.549 102.252 218.021 102.892 217.648C103.543 217.275 104.284 217.088 105.116 217.088C106.194 217.088 107.079 217.349 107.772 217.872C108.476 218.395 108.94 219.12 109.164 220.048H107.596C107.447 219.515 107.154 219.093 106.716 218.784C106.29 218.475 105.756 218.32 105.116 218.32C104.284 218.32 103.612 218.608 103.1 219.184C102.588 219.749 102.332 220.555 102.332 221.6C102.332 222.656 102.588 223.472 103.1 224.048C103.612 224.624 104.284 224.912 105.116 224.912C105.756 224.912 106.29 224.763 106.716 224.464C107.143 224.165 107.436 223.739 107.596 223.184H109.164C108.93 224.08 108.46 224.8 107.756 225.344C107.052 225.877 106.172 226.144 105.116 226.144C104.284 226.144 103.543 225.957 102.892 225.584C102.252 225.211 101.751 224.683 101.388 224C101.026 223.317 100.844 222.517 100.844 221.6ZM110.563 221.584C110.563 220.688 110.744 219.904 111.107 219.232C111.47 218.549 111.966 218.021 112.595 217.648C113.235 217.275 113.944 217.088 114.723 217.088C115.491 217.088 116.158 217.253 116.723 217.584C117.288 217.915 117.71 218.331 117.987 218.832V217.232H119.459V226H117.987V224.368C117.699 224.88 117.267 225.307 116.691 225.648C116.126 225.979 115.464 226.144 114.707 226.144C113.928 226.144 113.224 225.952 112.595 225.568C111.966 225.184 111.47 224.645 111.107 223.952C110.744 223.259 110.563 222.469 110.563 221.584ZM117.987 221.6C117.987 220.939 117.854 220.363 117.587 219.872C117.32 219.381 116.958 219.008 116.499 218.752C116.051 218.485 115.555 218.352 115.011 218.352C114.467 218.352 113.971 218.48 113.523 218.736C113.075 218.992 112.718 219.365 112.451 219.856C112.184 220.347 112.051 220.923 112.051 221.584C112.051 222.256 112.184 222.843 112.451 223.344C112.718 223.835 113.075 224.213 113.523 224.48C113.971 224.736 114.467 224.864 115.011 224.864C115.555 224.864 116.051 224.736 116.499 224.48C116.958 224.213 117.32 223.835 117.587 223.344C117.854 222.843 117.987 222.261 117.987 221.6ZM126.192 217.072C127.258 217.072 128.122 217.397 128.784 218.048C129.445 218.688 129.776 219.616 129.776 220.832V226H128.336V221.04C128.336 220.165 128.117 219.499 127.68 219.04C127.242 218.571 126.645 218.336 125.888 218.336C125.12 218.336 124.506 218.576 124.048 219.056C123.6 219.536 123.376 220.235 123.376 221.152V226H121.92V217.232H123.376V218.48C123.664 218.032 124.053 217.685 124.544 217.44C125.045 217.195 125.594 217.072 126.192 217.072ZM135.876 221.6C135.876 220.693 136.057 219.904 136.42 219.232C136.782 218.549 137.284 218.021 137.924 217.648C138.574 217.275 139.316 217.088 140.148 217.088C141.225 217.088 142.11 217.349 142.804 217.872C143.508 218.395 143.972 219.12 144.196 220.048H142.628C142.478 219.515 142.185 219.093 141.748 218.784C141.321 218.475 140.788 218.32 140.148 218.32C139.316 218.32 138.644 218.608 138.132 219.184C137.62 219.749 137.364 220.555 137.364 221.6C137.364 222.656 137.62 223.472 138.132 224.048C138.644 224.624 139.316 224.912 140.148 224.912C140.788 224.912 141.321 224.763 141.748 224.464C142.174 224.165 142.468 223.739 142.628 223.184H144.196C143.961 224.08 143.492 224.8 142.788 225.344C142.084 225.877 141.204 226.144 140.148 226.144C139.316 226.144 138.574 225.957 137.924 225.584C137.284 225.211 136.782 224.683 136.42 224C136.057 223.317 135.876 222.517 135.876 221.6ZM150.49 217.072C151.152 217.072 151.749 217.216 152.282 217.504C152.816 217.781 153.232 218.203 153.53 218.768C153.84 219.333 153.994 220.021 153.994 220.832V226H152.554V221.04C152.554 220.165 152.336 219.499 151.898 219.04C151.461 218.571 150.864 218.336 150.106 218.336C149.338 218.336 148.725 218.576 148.266 219.056C147.818 219.536 147.594 220.235 147.594 221.152V226H146.138V214.16H147.594V218.48C147.882 218.032 148.277 217.685 148.778 217.44C149.29 217.195 149.861 217.072 150.49 217.072ZM155.829 221.584C155.829 220.688 156.01 219.904 156.373 219.232C156.735 218.549 157.231 218.021 157.861 217.648C158.501 217.275 159.21 217.088 159.989 217.088C160.757 217.088 161.423 217.253 161.989 217.584C162.554 217.915 162.975 218.331 163.253 218.832V217.232H164.725V226H163.253V224.368C162.965 224.88 162.533 225.307 161.957 225.648C161.391 225.979 160.73 226.144 159.973 226.144C159.194 226.144 158.49 225.952 157.861 225.568C157.231 225.184 156.735 224.645 156.373 223.952C156.01 223.259 155.829 222.469 155.829 221.584ZM163.253 221.6C163.253 220.939 163.119 220.363 162.853 219.872C162.586 219.381 162.223 219.008 161.765 218.752C161.317 218.485 160.821 218.352 160.277 218.352C159.733 218.352 159.237 218.48 158.789 218.736C158.341 218.992 157.983 219.365 157.717 219.856C157.45 220.347 157.317 220.923 157.317 221.584C157.317 222.256 157.45 222.843 157.717 223.344C157.983 223.835 158.341 224.213 158.789 224.48C159.237 224.736 159.733 224.864 160.277 224.864C160.821 224.864 161.317 224.736 161.765 224.48C162.223 224.213 162.586 223.835 162.853 223.344C163.119 222.843 163.253 222.261 163.253 221.6ZM168.961 218.432V223.6C168.961 224.027 169.052 224.331 169.233 224.512C169.414 224.683 169.729 224.768 170.177 224.768H171.249V226H169.937C169.126 226 168.518 225.813 168.113 225.44C167.708 225.067 167.505 224.453 167.505 223.6V218.432H166.369V217.232H167.505V215.024H168.961V217.232H171.249V218.432H168.961ZM188.959 217.232L186.223 226H184.719L182.607 219.04L180.495 226H178.991L176.239 217.232H177.727L179.743 224.592L181.919 217.232H183.407L185.535 224.608L187.519 217.232H188.959ZM191.156 215.808C190.879 215.808 190.644 215.712 190.452 215.52C190.26 215.328 190.164 215.093 190.164 214.816C190.164 214.539 190.26 214.304 190.452 214.112C190.644 213.92 190.879 213.824 191.156 213.824C191.423 213.824 191.647 213.92 191.828 214.112C192.02 214.304 192.116 214.539 192.116 214.816C192.116 215.093 192.02 215.328 191.828 215.52C191.647 215.712 191.423 215.808 191.156 215.808ZM191.86 217.232V226H190.404V217.232H191.86ZM196.117 218.432V223.6C196.117 224.027 196.208 224.331 196.389 224.512C196.571 224.683 196.885 224.768 197.333 224.768H198.405V226H197.093C196.283 226 195.675 225.813 195.269 225.44C194.864 225.067 194.661 224.453 194.661 223.6V218.432H193.525V217.232H194.661V215.024H196.117V217.232H198.405V218.432H196.117ZM204.522 217.072C205.183 217.072 205.78 217.216 206.314 217.504C206.847 217.781 207.263 218.203 207.562 218.768C207.871 219.333 208.026 220.021 208.026 220.832V226H206.586V221.04C206.586 220.165 206.367 219.499 205.93 219.04C205.492 218.571 204.895 218.336 204.138 218.336C203.37 218.336 202.756 218.576 202.298 219.056C201.85 219.536 201.626 220.235 201.626 221.152V226H200.17V214.16H201.626V218.48C201.914 218.032 202.308 217.685 202.81 217.44C203.322 217.195 203.892 217.072 204.522 217.072ZM225.214 217.072C225.896 217.072 226.504 217.216 227.038 217.504C227.571 217.781 227.992 218.203 228.302 218.768C228.611 219.333 228.766 220.021 228.766 220.832V226H227.326V221.04C227.326 220.165 227.107 219.499 226.67 219.04C226.243 218.571 225.662 218.336 224.926 218.336C224.168 218.336 223.566 218.581 223.118 219.072C222.67 219.552 222.446 220.251 222.446 221.168V226H221.006V221.04C221.006 220.165 220.787 219.499 220.35 219.04C219.923 218.571 219.342 218.336 218.606 218.336C217.848 218.336 217.246 218.581 216.798 219.072C216.35 219.552 216.126 220.251 216.126 221.168V226H214.67V217.232H216.126V218.496C216.414 218.037 216.798 217.685 217.278 217.44C217.768 217.195 218.307 217.072 218.894 217.072C219.63 217.072 220.28 217.237 220.846 217.568C221.411 217.899 221.832 218.384 222.11 219.024C222.355 218.405 222.76 217.925 223.326 217.584C223.891 217.243 224.52 217.072 225.214 217.072ZM239.154 221.28C239.154 221.557 239.138 221.851 239.106 222.16H232.098C232.151 223.024 232.445 223.701 232.978 224.192C233.522 224.672 234.178 224.912 234.946 224.912C235.575 224.912 236.098 224.768 236.514 224.48C236.941 224.181 237.239 223.787 237.41 223.296H238.978C238.743 224.139 238.274 224.827 237.57 225.36C236.866 225.883 235.991 226.144 234.946 226.144C234.114 226.144 233.367 225.957 232.706 225.584C232.055 225.211 231.543 224.683 231.17 224C230.797 223.307 230.61 222.507 230.61 221.6C230.61 220.693 230.791 219.899 231.154 219.216C231.517 218.533 232.023 218.011 232.674 217.648C233.335 217.275 234.093 217.088 234.946 217.088C235.778 217.088 236.514 217.269 237.154 217.632C237.794 217.995 238.285 218.496 238.626 219.136C238.978 219.765 239.154 220.48 239.154 221.28ZM237.65 220.976C237.65 220.421 237.527 219.947 237.282 219.552C237.037 219.147 236.701 218.843 236.274 218.64C235.858 218.427 235.394 218.32 234.882 218.32C234.146 218.32 233.517 218.555 232.994 219.024C232.482 219.493 232.189 220.144 232.114 220.976H237.65ZM75.857 247.28C75.857 247.557 75.841 247.851 75.809 248.16H68.801C68.8543 249.024 69.1477 249.701 69.681 250.192C70.225 250.672 70.881 250.912 71.649 250.912C72.2783 250.912 72.801 250.768 73.217 250.48C73.6437 250.181 73.9423 249.787 74.113 249.296H75.681C75.4463 250.139 74.977 250.827 74.273 251.36C73.569 251.883 72.6943 252.144 71.649 252.144C70.817 252.144 70.0703 251.957 69.409 251.584C68.7583 251.211 68.2463 250.683 67.873 250C67.4997 249.307 67.313 248.507 67.313 247.6C67.313 246.693 67.4943 245.899 67.857 245.216C68.2197 244.533 68.7263 244.011 69.377 243.648C70.0383 243.275 70.7957 243.088 71.649 243.088C72.481 243.088 73.217 243.269 73.857 243.632C74.497 243.995 74.9877 244.496 75.329 245.136C75.681 245.765 75.857 246.48 75.857 247.28ZM74.353 246.976C74.353 246.421 74.2303 245.947 73.985 245.552C73.7397 245.147 73.4037 244.843 72.977 244.64C72.561 244.427 72.097 244.32 71.585 244.32C70.849 244.32 70.2197 244.555 69.697 245.024C69.185 245.493 68.8917 246.144 68.817 246.976H74.353ZM82.3549 252L80.2749 248.736L78.2749 252H76.7549L79.5869 247.648L76.7549 243.232H78.4029L80.4829 246.48L82.4669 243.232H83.9869L81.1709 247.568L84.0029 252H82.3549ZM84.8911 247.6C84.8911 246.693 85.0725 245.904 85.4351 245.232C85.7978 244.549 86.2991 244.021 86.9391 243.648C87.5898 243.275 88.3311 243.088 89.1631 243.088C90.2405 243.088 91.1258 243.349 91.8191 243.872C92.5231 244.395 92.9871 245.12 93.2111 246.048H91.6431C91.4938 245.515 91.2005 245.093 90.7631 244.784C90.3365 244.475 89.8031 244.32 89.1631 244.32C88.3311 244.32 87.6591 244.608 87.1471 245.184C86.6351 245.749 86.3791 246.555 86.3791 247.6C86.3791 248.656 86.6351 249.472 87.1471 250.048C87.6591 250.624 88.3311 250.912 89.1631 250.912C89.8031 250.912 90.3365 250.763 90.7631 250.464C91.1898 250.165 91.4831 249.739 91.6431 249.184H93.2111C92.9765 250.08 92.5071 250.8 91.8031 251.344C91.0991 251.877 90.2191 252.144 89.1631 252.144C88.3311 252.144 87.5898 251.957 86.9391 251.584C86.2991 251.211 85.7978 250.683 85.4351 250C85.0725 249.317 84.8911 248.517 84.8911 247.6ZM96.6099 240.16V252H95.1539V240.16H96.6099ZM106.867 243.232V252H105.411V250.704C105.134 251.152 104.745 251.504 104.243 251.76C103.753 252.005 103.209 252.128 102.611 252.128C101.929 252.128 101.315 251.989 100.771 251.712C100.227 251.424 99.7954 250.997 99.4754 250.432C99.166 249.867 99.0114 249.179 99.0114 248.368V243.232H100.451V248.176C100.451 249.04 100.67 249.707 101.107 250.176C101.545 250.635 102.142 250.864 102.899 250.864C103.678 250.864 104.291 250.624 104.739 250.144C105.187 249.664 105.411 248.965 105.411 248.048V243.232H106.867ZM112.43 252.144C111.758 252.144 111.155 252.032 110.622 251.808C110.088 251.573 109.667 251.253 109.358 250.848C109.048 250.432 108.878 249.957 108.846 249.424H110.35C110.392 249.861 110.595 250.219 110.958 250.496C111.331 250.773 111.816 250.912 112.414 250.912C112.968 250.912 113.406 250.789 113.726 250.544C114.046 250.299 114.206 249.989 114.206 249.616C114.206 249.232 114.035 248.949 113.694 248.768C113.352 248.576 112.824 248.389 112.11 248.208C111.459 248.037 110.926 247.867 110.51 247.696C110.104 247.515 109.752 247.253 109.454 246.912C109.166 246.56 109.022 246.101 109.022 245.536C109.022 245.088 109.155 244.677 109.422 244.304C109.688 243.931 110.067 243.637 110.558 243.424C111.048 243.2 111.608 243.088 112.238 243.088C113.208 243.088 113.992 243.333 114.59 243.824C115.187 244.315 115.507 244.987 115.55 245.84H114.094C114.062 245.381 113.875 245.013 113.534 244.736C113.203 244.459 112.755 244.32 112.19 244.32C111.667 244.32 111.251 244.432 110.942 244.656C110.632 244.88 110.478 245.173 110.478 245.536C110.478 245.824 110.568 246.064 110.75 246.256C110.942 246.437 111.176 246.587 111.454 246.704C111.742 246.811 112.136 246.933 112.638 247.072C113.267 247.243 113.779 247.413 114.174 247.584C114.568 247.744 114.904 247.989 115.182 248.32C115.47 248.651 115.619 249.083 115.63 249.616C115.63 250.096 115.496 250.528 115.23 250.912C114.963 251.296 114.584 251.6 114.094 251.824C113.614 252.037 113.059 252.144 112.43 252.144ZM118.437 241.808C118.16 241.808 117.925 241.712 117.733 241.52C117.541 241.328 117.445 241.093 117.445 240.816C117.445 240.539 117.541 240.304 117.733 240.112C117.925 239.92 118.16 239.824 118.437 239.824C118.704 239.824 118.928 239.92 119.109 240.112C119.301 240.304 119.397 240.539 119.397 240.816C119.397 241.093 119.301 241.328 119.109 241.52C118.928 241.712 118.704 241.808 118.437 241.808ZM119.141 243.232V252H117.685V243.232H119.141ZM124.887 250.656L127.607 243.232H129.159L125.719 252H124.023L120.583 243.232H122.151L124.887 250.656ZM138.591 247.28C138.591 247.557 138.575 247.851 138.543 248.16H131.535C131.589 249.024 131.882 249.701 132.415 250.192C132.959 250.672 133.615 250.912 134.383 250.912C135.013 250.912 135.535 250.768 135.951 250.48C136.378 250.181 136.677 249.787 136.847 249.296H138.415C138.181 250.139 137.711 250.827 137.007 251.36C136.303 251.883 135.429 252.144 134.383 252.144C133.551 252.144 132.805 251.957 132.143 251.584C131.493 251.211 130.981 250.683 130.607 250C130.234 249.307 130.047 248.507 130.047 247.6C130.047 246.693 130.229 245.899 130.591 245.216C130.954 244.533 131.461 244.011 132.111 243.648C132.773 243.275 133.53 243.088 134.383 243.088C135.215 243.088 135.951 243.269 136.591 243.632C137.231 243.995 137.722 244.496 138.063 245.136C138.415 245.765 138.591 246.48 138.591 247.28ZM137.087 246.976C137.087 246.421 136.965 245.947 136.719 245.552C136.474 245.147 136.138 244.843 135.711 244.64C135.295 244.427 134.831 244.32 134.319 244.32C133.583 244.32 132.954 244.555 132.431 245.024C131.919 245.493 131.626 246.144 131.551 246.976H137.087ZM141.969 240.16V252H140.513V240.16H141.969ZM152.003 243.232L146.723 256.128H145.219L146.947 251.904L143.411 243.232H145.027L147.779 250.336L150.499 243.232H152.003ZM169.412 243.232L166.676 252H165.172L163.06 245.04L160.948 252H159.444L156.692 243.232H158.18L160.196 250.592L162.372 243.232H163.86L165.988 250.608L167.972 243.232H169.412ZM171.609 241.808C171.332 241.808 171.097 241.712 170.905 241.52C170.713 241.328 170.617 241.093 170.617 240.816C170.617 240.539 170.713 240.304 170.905 240.112C171.097 239.92 171.332 239.824 171.609 239.824C171.876 239.824 172.1 239.92 172.281 240.112C172.473 240.304 172.569 240.539 172.569 240.816C172.569 241.093 172.473 241.328 172.281 241.52C172.1 241.712 171.876 241.808 171.609 241.808ZM172.313 243.232V252H170.857V243.232H172.313ZM176.571 244.432V249.6C176.571 250.027 176.661 250.331 176.843 250.512C177.024 250.683 177.339 250.768 177.786 250.768H178.859V252H177.547C176.736 252 176.128 251.813 175.723 251.44C175.317 251.067 175.115 250.453 175.115 249.6V244.432H173.979V243.232H175.115V241.024H176.571V243.232H178.859V244.432H176.571ZM184.975 243.072C185.636 243.072 186.233 243.216 186.767 243.504C187.3 243.781 187.716 244.203 188.015 244.768C188.324 245.333 188.479 246.021 188.479 246.832V252H187.039V247.04C187.039 246.165 186.82 245.499 186.383 245.04C185.945 244.571 185.348 244.336 184.591 244.336C183.823 244.336 183.209 244.576 182.751 245.056C182.303 245.536 182.079 246.235 182.079 247.152V252H180.623V240.16H182.079V244.48C182.367 244.032 182.761 243.685 183.263 243.44C183.775 243.195 184.345 243.072 184.975 243.072ZM194.681 252.144C193.86 252.144 193.113 251.957 192.441 251.584C191.78 251.211 191.257 250.683 190.873 250C190.5 249.307 190.313 248.507 190.313 247.6C190.313 246.704 190.505 245.915 190.889 245.232C191.284 244.539 191.817 244.011 192.489 243.648C193.161 243.275 193.913 243.088 194.745 243.088C195.577 243.088 196.329 243.275 197.001 243.648C197.673 244.011 198.201 244.533 198.585 245.216C198.98 245.899 199.177 246.693 199.177 247.6C199.177 248.507 198.974 249.307 198.569 250C198.174 250.683 197.636 251.211 196.953 251.584C196.27 251.957 195.513 252.144 194.681 252.144ZM194.681 250.864C195.204 250.864 195.694 250.741 196.153 250.496C196.612 250.251 196.98 249.883 197.257 249.392C197.545 248.901 197.689 248.304 197.689 247.6C197.689 246.896 197.55 246.299 197.273 245.808C196.996 245.317 196.633 244.955 196.185 244.72C195.737 244.475 195.252 244.352 194.729 244.352C194.196 244.352 193.705 244.475 193.257 244.72C192.82 244.955 192.468 245.317 192.201 245.808C191.934 246.299 191.801 246.896 191.801 247.6C191.801 248.315 191.929 248.917 192.185 249.408C192.452 249.899 192.804 250.267 193.241 250.512C193.678 250.747 194.158 250.864 194.681 250.864ZM208.867 243.232V252H207.411V250.704C207.134 251.152 206.745 251.504 206.243 251.76C205.753 252.005 205.209 252.128 204.611 252.128C203.929 252.128 203.315 251.989 202.771 251.712C202.227 251.424 201.795 250.997 201.475 250.432C201.166 249.867 201.011 249.179 201.011 248.368V243.232H202.451V248.176C202.451 249.04 202.67 249.707 203.107 250.176C203.545 250.635 204.142 250.864 204.899 250.864C205.678 250.864 206.291 250.624 206.739 250.144C207.187 249.664 207.411 248.965 207.411 248.048V243.232H208.867ZM213.102 244.432V249.6C213.102 250.027 213.192 250.331 213.374 250.512C213.555 250.683 213.87 250.768 214.318 250.768H215.39V252H214.078C213.267 252 212.659 251.813 212.254 251.44C211.848 251.067 211.646 250.453 211.646 249.6V244.432H210.51V243.232H211.646V241.024H213.102V243.232H215.39V244.432H213.102ZM224.524 252.144C223.852 252.144 223.249 252.032 222.716 251.808C222.182 251.573 221.761 251.253 221.452 250.848C221.142 250.432 220.972 249.957 220.94 249.424H222.444C222.486 249.861 222.689 250.219 223.052 250.496C223.425 250.773 223.91 250.912 224.508 250.912C225.062 250.912 225.5 250.789 225.82 250.544C226.14 250.299 226.3 249.989 226.3 249.616C226.3 249.232 226.129 248.949 225.788 248.768C225.446 248.576 224.918 248.389 224.204 248.208C223.553 248.037 223.02 247.867 222.604 247.696C222.198 247.515 221.846 247.253 221.548 246.912C221.26 246.56 221.116 246.101 221.116 245.536C221.116 245.088 221.249 244.677 221.516 244.304C221.782 243.931 222.161 243.637 222.652 243.424C223.142 243.2 223.702 243.088 224.332 243.088C225.302 243.088 226.086 243.333 226.684 243.824C227.281 244.315 227.601 244.987 227.644 245.84H226.188C226.156 245.381 225.969 245.013 225.628 244.736C225.297 244.459 224.849 244.32 224.284 244.32C223.761 244.32 223.345 244.432 223.036 244.656C222.726 244.88 222.572 245.173 222.572 245.536C222.572 245.824 222.662 246.064 222.844 246.256C223.036 246.437 223.27 246.587 223.548 246.704C223.836 246.811 224.23 246.933 224.732 247.072C225.361 247.243 225.873 247.413 226.268 247.584C226.662 247.744 226.998 247.989 227.276 248.32C227.564 248.651 227.713 249.083 227.724 249.616C227.724 250.096 227.59 250.528 227.324 250.912C227.057 251.296 226.678 251.6 226.188 251.824C225.708 252.037 225.153 252.144 224.524 252.144ZM237.779 247.28C237.779 247.557 237.763 247.851 237.731 248.16H230.723C230.776 249.024 231.07 249.701 231.603 250.192C232.147 250.672 232.803 250.912 233.571 250.912C234.2 250.912 234.723 250.768 235.139 250.48C235.566 250.181 235.864 249.787 236.035 249.296H237.603C237.368 250.139 236.899 250.827 236.195 251.36C235.491 251.883 234.616 252.144 233.571 252.144C232.739 252.144 231.992 251.957 231.331 251.584C230.68 251.211 230.168 250.683 229.795 250C229.422 249.307 229.235 248.507 229.235 247.6C229.235 246.693 229.416 245.899 229.779 245.216C230.142 244.533 230.648 244.011 231.299 243.648C231.96 243.275 232.718 243.088 233.571 243.088C234.403 243.088 235.139 243.269 235.779 243.632C236.419 243.995 236.91 244.496 237.251 245.136C237.603 245.765 237.779 246.48 237.779 247.28ZM236.275 246.976C236.275 246.421 236.152 245.947 235.907 245.552C235.662 245.147 235.326 244.843 234.899 244.64C234.483 244.427 234.019 244.32 233.507 244.32C232.771 244.32 232.142 244.555 231.619 245.024C231.107 245.493 230.814 246.144 230.739 246.976H236.275ZM247.701 247.28C247.701 247.557 247.685 247.851 247.653 248.16H240.645C240.698 249.024 240.991 249.701 241.525 250.192C242.069 250.672 242.725 250.912 243.493 250.912C244.122 250.912 244.645 250.768 245.061 250.48C245.487 250.181 245.786 249.787 245.957 249.296H247.525C247.29 250.139 246.821 250.827 246.117 251.36C245.413 251.883 244.538 252.144 243.493 252.144C242.661 252.144 241.914 251.957 241.253 251.584C240.602 251.211 240.09 250.683 239.717 250C239.343 249.307 239.157 248.507 239.157 247.6C239.157 246.693 239.338 245.899 239.701 245.216C240.063 244.533 240.57 244.011 241.221 243.648C241.882 243.275 242.639 243.088 243.493 243.088C244.325 243.088 245.061 243.269 245.701 243.632C246.341 243.995 246.831 244.496 247.173 245.136C247.525 245.765 247.701 246.48 247.701 247.28ZM246.197 246.976C246.197 246.421 246.074 245.947 245.829 245.552C245.583 245.147 245.247 244.843 244.821 244.64C244.405 244.427 243.941 244.32 243.429 244.32C242.693 244.32 242.063 244.555 241.541 245.024C241.029 245.493 240.735 246.144 240.661 246.976H246.197ZM250.375 241.808C250.097 241.808 249.863 241.712 249.671 241.52C249.479 241.328 249.383 241.093 249.383 240.816C249.383 240.539 249.479 240.304 249.671 240.112C249.863 239.92 250.097 239.824 250.375 239.824C250.641 239.824 250.865 239.92 251.047 240.112C251.239 240.304 251.335 240.539 251.335 240.816C251.335 241.093 251.239 241.328 251.047 241.52C250.865 241.712 250.641 241.808 250.375 241.808ZM251.079 243.232V252H249.623V243.232H251.079ZM257.832 243.072C258.899 243.072 259.763 243.397 260.424 244.048C261.085 244.688 261.416 245.616 261.416 246.832V252H259.976V247.04C259.976 246.165 259.757 245.499 259.32 245.04C258.883 244.571 258.285 244.336 257.528 244.336C256.76 244.336 256.147 244.576 255.688 245.056C255.24 245.536 255.016 246.235 255.016 247.152V252H253.56V243.232H255.016V244.48C255.304 244.032 255.693 243.685 256.184 243.44C256.685 243.195 257.235 243.072 257.832 243.072ZM267.411 243.088C268.168 243.088 268.829 243.253 269.395 243.584C269.971 243.915 270.397 244.331 270.675 244.832V243.232H272.147V252.192C272.147 252.992 271.976 253.701 271.635 254.32C271.293 254.949 270.803 255.44 270.163 255.792C269.533 256.144 268.797 256.32 267.955 256.32C266.803 256.32 265.843 256.048 265.075 255.504C264.307 254.96 263.853 254.219 263.715 253.28H265.155C265.315 253.813 265.645 254.24 266.147 254.56C266.648 254.891 267.251 255.056 267.955 255.056C268.755 255.056 269.405 254.805 269.907 254.304C270.419 253.803 270.675 253.099 270.675 252.192V250.352C270.387 250.864 269.96 251.291 269.395 251.632C268.829 251.973 268.168 252.144 267.411 252.144C266.632 252.144 265.923 251.952 265.283 251.568C264.653 251.184 264.157 250.645 263.795 249.952C263.432 249.259 263.251 248.469 263.251 247.584C263.251 246.688 263.432 245.904 263.795 245.232C264.157 244.549 264.653 244.021 265.283 243.648C265.923 243.275 266.632 243.088 267.411 243.088ZM270.675 247.6C270.675 246.939 270.541 246.363 270.275 245.872C270.008 245.381 269.645 245.008 269.187 244.752C268.739 244.485 268.243 244.352 267.699 244.352C267.155 244.352 266.659 244.48 266.211 244.736C265.763 244.992 265.405 245.365 265.139 245.856C264.872 246.347 264.739 246.923 264.739 247.584C264.739 248.256 264.872 248.843 265.139 249.344C265.405 249.835 265.763 250.213 266.211 250.48C266.659 250.736 267.155 250.864 267.699 250.864C268.243 250.864 268.739 250.736 269.187 250.48C269.645 250.213 270.008 249.835 270.275 249.344C270.541 248.843 270.675 248.261 270.675 247.6ZM74.3216 278.144C73.5003 278.144 72.7536 277.957 72.0816 277.584C71.4203 277.211 70.8976 276.683 70.5136 276C70.1403 275.307 69.9536 274.507 69.9536 273.6C69.9536 272.704 70.1456 271.915 70.5296 271.232C70.9243 270.539 71.4576 270.011 72.1296 269.648C72.8016 269.275 73.5536 269.088 74.3856 269.088C75.2176 269.088 75.9696 269.275 76.6416 269.648C77.3136 270.011 77.8416 270.533 78.2256 271.216C78.6203 271.899 78.8176 272.693 78.8176 273.6C78.8176 274.507 78.615 275.307 78.2096 276C77.815 276.683 77.2763 277.211 76.5936 277.584C75.911 277.957 75.1536 278.144 74.3216 278.144ZM74.3216 276.864C74.8443 276.864 75.335 276.741 75.7936 276.496C76.2523 276.251 76.6203 275.883 76.8976 275.392C77.1856 274.901 77.3296 274.304 77.3296 273.6C77.3296 272.896 77.191 272.299 76.9136 271.808C76.6363 271.317 76.2736 270.955 75.8256 270.72C75.3776 270.475 74.8923 270.352 74.3696 270.352C73.8363 270.352 73.3456 270.475 72.8976 270.72C72.4603 270.955 72.1083 271.317 71.8416 271.808C71.575 272.299 71.4416 272.896 71.4416 273.6C71.4416 274.315 71.5696 274.917 71.8256 275.408C72.0923 275.899 72.4443 276.267 72.8816 276.512C73.319 276.747 73.799 276.864 74.3216 276.864ZM82.508 270.432V275.6C82.508 276.027 82.5987 276.331 82.78 276.512C82.9613 276.683 83.276 276.768 83.724 276.768H84.796V278H83.484C82.6733 278 82.0653 277.813 81.66 277.44C81.2547 277.067 81.052 276.453 81.052 275.6V270.432H79.916V269.232H81.052V267.024H82.508V269.232H84.796V270.432H82.508ZM90.9121 269.072C91.5735 269.072 92.1708 269.216 92.7041 269.504C93.2375 269.781 93.6535 270.203 93.9521 270.768C94.2615 271.333 94.4161 272.021 94.4161 272.832V278H92.9761V273.04C92.9761 272.165 92.7575 271.499 92.3201 271.04C91.8828 270.571 91.2855 270.336 90.5281 270.336C89.7601 270.336 89.1468 270.576 88.6881 271.056C88.2401 271.536 88.0161 272.235 88.0161 273.152V278H86.5601V266.16H88.0161V270.48C88.3041 270.032 88.6988 269.685 89.2001 269.44C89.7121 269.195 90.2828 269.072 90.9121 269.072ZM104.795 273.28C104.795 273.557 104.779 273.851 104.747 274.16H97.7385C97.7918 275.024 98.0852 275.701 98.6185 276.192C99.1625 276.672 99.8185 276.912 100.587 276.912C101.216 276.912 101.739 276.768 102.155 276.48C102.581 276.181 102.88 275.787 103.051 275.296H104.619C104.384 276.139 103.915 276.827 103.211 277.36C102.507 277.883 101.632 278.144 100.587 278.144C99.7545 278.144 99.0078 277.957 98.3465 277.584C97.6958 277.211 97.1838 276.683 96.8105 276C96.4372 275.307 96.2505 274.507 96.2505 273.6C96.2505 272.693 96.4318 271.899 96.7945 271.216C97.1572 270.533 97.6638 270.011 98.3145 269.648C98.9758 269.275 99.7332 269.088 100.587 269.088C101.419 269.088 102.155 269.269 102.795 269.632C103.435 269.995 103.925 270.496 104.267 271.136C104.619 271.765 104.795 272.48 104.795 273.28ZM103.291 272.976C103.291 272.421 103.168 271.947 102.923 271.552C102.677 271.147 102.341 270.843 101.915 270.64C101.499 270.427 101.035 270.32 100.523 270.32C99.7865 270.32 99.1572 270.555 98.6345 271.024C98.1225 271.493 97.8292 272.144 97.7545 272.976H103.291ZM108.172 270.656C108.428 270.155 108.791 269.765 109.26 269.488C109.74 269.211 110.322 269.072 111.004 269.072V270.576H110.62C108.988 270.576 108.172 271.461 108.172 273.232V278H106.716V269.232H108.172V270.656ZM120.567 269.088C121.324 269.088 121.985 269.253 122.551 269.584C123.127 269.915 123.553 270.331 123.831 270.832V269.232H125.303V278.192C125.303 278.992 125.132 279.701 124.791 280.32C124.449 280.949 123.959 281.44 123.319 281.792C122.689 282.144 121.953 282.32 121.111 282.32C119.959 282.32 118.999 282.048 118.231 281.504C117.463 280.96 117.009 280.219 116.871 279.28H118.311C118.471 279.813 118.801 280.24 119.303 280.56C119.804 280.891 120.407 281.056 121.111 281.056C121.911 281.056 122.561 280.805 123.063 280.304C123.575 279.803 123.831 279.099 123.831 278.192V276.352C123.543 276.864 123.116 277.291 122.551 277.632C121.985 277.973 121.324 278.144 120.567 278.144C119.788 278.144 119.079 277.952 118.439 277.568C117.809 277.184 117.313 276.645 116.951 275.952C116.588 275.259 116.407 274.469 116.407 273.584C116.407 272.688 116.588 271.904 116.951 271.232C117.313 270.549 117.809 270.021 118.439 269.648C119.079 269.275 119.788 269.088 120.567 269.088ZM123.831 273.6C123.831 272.939 123.697 272.363 123.431 271.872C123.164 271.381 122.801 271.008 122.343 270.752C121.895 270.485 121.399 270.352 120.855 270.352C120.311 270.352 119.815 270.48 119.367 270.736C118.919 270.992 118.561 271.365 118.295 271.856C118.028 272.347 117.895 272.923 117.895 273.584C117.895 274.256 118.028 274.843 118.295 275.344C118.561 275.835 118.919 276.213 119.367 276.48C119.815 276.736 120.311 276.864 120.855 276.864C121.399 276.864 121.895 276.736 122.343 276.48C122.801 276.213 123.164 275.835 123.431 275.344C123.697 274.843 123.831 274.261 123.831 273.6ZM135.539 269.232V278H134.083V276.704C133.806 277.152 133.417 277.504 132.915 277.76C132.425 278.005 131.881 278.128 131.283 278.128C130.601 278.128 129.987 277.989 129.443 277.712C128.899 277.424 128.467 276.997 128.147 276.432C127.838 275.867 127.683 275.179 127.683 274.368V269.232H129.123V274.176C129.123 275.04 129.342 275.707 129.779 276.176C130.217 276.635 130.814 276.864 131.571 276.864C132.35 276.864 132.963 276.624 133.411 276.144C133.859 275.664 134.083 274.965 134.083 274.048V269.232H135.539ZM145.55 269.232L140.27 282.128H138.766L140.494 277.904L136.958 269.232H138.574L141.326 276.336L144.046 269.232H145.55ZM150.117 278.144C149.445 278.144 148.843 278.032 148.309 277.808C147.776 277.573 147.355 277.253 147.045 276.848C146.736 276.432 146.565 275.957 146.533 275.424H148.037C148.08 275.861 148.283 276.219 148.645 276.496C149.019 276.773 149.504 276.912 150.101 276.912C150.656 276.912 151.093 276.789 151.413 276.544C151.733 276.299 151.893 275.989 151.893 275.616C151.893 275.232 151.723 274.949 151.381 274.768C151.04 274.576 150.512 274.389 149.797 274.208C149.147 274.037 148.613 273.867 148.197 273.696C147.792 273.515 147.44 273.253 147.141 272.912C146.853 272.56 146.709 272.101 146.709 271.536C146.709 271.088 146.843 270.677 147.109 270.304C147.376 269.931 147.755 269.637 148.245 269.424C148.736 269.2 149.296 269.088 149.925 269.088C150.896 269.088 151.68 269.333 152.277 269.824C152.875 270.315 153.195 270.987 153.237 271.84H151.781C151.749 271.381 151.563 271.013 151.221 270.736C150.891 270.459 150.443 270.32 149.877 270.32C149.355 270.32 148.939 270.432 148.629 270.656C148.32 270.88 148.165 271.173 148.165 271.536C148.165 271.824 148.256 272.064 148.437 272.256C148.629 272.437 148.864 272.587 149.141 272.704C149.429 272.811 149.824 272.933 150.325 273.072C150.955 273.243 151.467 273.413 151.861 273.584C152.256 273.744 152.592 273.989 152.869 274.32C153.157 274.651 153.307 275.083 153.317 275.616C153.317 276.096 153.184 276.528 152.917 276.912C152.651 277.296 152.272 277.6 151.781 277.824C151.301 278.037 150.747 278.144 150.117 278.144ZM155.837 278.096C155.559 278.096 155.325 278 155.133 277.808C154.941 277.616 154.845 277.381 154.845 277.104C154.845 276.827 154.941 276.592 155.133 276.4C155.325 276.208 155.559 276.112 155.837 276.112C156.103 276.112 156.327 276.208 156.509 276.4C156.701 276.592 156.797 276.827 156.797 277.104C156.797 277.381 156.701 277.616 156.509 277.808C156.327 278 156.103 278.096 155.837 278.096ZM174.31 266.928V278H172.854V269.744L169.174 278H168.15L164.454 269.728V278H162.998V266.928H164.566L168.662 276.08L172.758 266.928H174.31ZM176.235 273.584C176.235 272.688 176.416 271.904 176.779 271.232C177.142 270.549 177.638 270.021 178.267 269.648C178.907 269.275 179.616 269.088 180.395 269.088C181.163 269.088 181.83 269.253 182.395 269.584C182.96 269.915 183.382 270.331 183.659 270.832V269.232H185.131V278H183.659V276.368C183.371 276.88 182.939 277.307 182.363 277.648C181.798 277.979 181.136 278.144 180.379 278.144C179.6 278.144 178.896 277.952 178.267 277.568C177.638 277.184 177.142 276.645 176.779 275.952C176.416 275.259 176.235 274.469 176.235 273.584ZM183.659 273.6C183.659 272.939 183.526 272.363 183.259 271.872C182.992 271.381 182.63 271.008 182.171 270.752C181.723 270.485 181.227 270.352 180.683 270.352C180.139 270.352 179.643 270.48 179.195 270.736C178.747 270.992 178.39 271.365 178.123 271.856C177.856 272.347 177.723 272.923 177.723 273.584C177.723 274.256 177.856 274.843 178.123 275.344C178.39 275.835 178.747 276.213 179.195 276.48C179.643 276.736 180.139 276.864 180.683 276.864C181.227 276.864 181.723 276.736 182.171 276.48C182.63 276.213 182.992 275.835 183.259 275.344C183.526 274.843 183.659 274.261 183.659 273.6ZM192.487 278L189.047 274.128V278H187.591V266.16H189.047V273.12L192.423 269.232H194.455L190.327 273.6L194.471 278H192.487ZM203.826 273.28C203.826 273.557 203.81 273.851 203.778 274.16H196.77C196.823 275.024 197.116 275.701 197.65 276.192C198.194 276.672 198.85 276.912 199.618 276.912C200.247 276.912 200.77 276.768 201.186 276.48C201.612 276.181 201.911 275.787 202.082 275.296H203.65C203.415 276.139 202.946 276.827 202.242 277.36C201.538 277.883 200.663 278.144 199.618 278.144C198.786 278.144 198.039 277.957 197.378 277.584C196.727 277.211 196.215 276.683 195.842 276C195.468 275.307 195.282 274.507 195.282 273.6C195.282 272.693 195.463 271.899 195.826 271.216C196.188 270.533 196.695 270.011 197.346 269.648C198.007 269.275 198.764 269.088 199.618 269.088C200.45 269.088 201.186 269.269 201.826 269.632C202.466 269.995 202.956 270.496 203.298 271.136C203.65 271.765 203.826 272.48 203.826 273.28ZM202.322 272.976C202.322 272.421 202.199 271.947 201.954 271.552C201.708 271.147 201.372 270.843 200.946 270.64C200.53 270.427 200.066 270.32 199.554 270.32C198.818 270.32 198.188 270.555 197.666 271.024C197.154 271.493 196.86 272.144 196.786 272.976H202.322ZM209.469 273.584C209.469 272.688 209.651 271.904 210.013 271.232C210.376 270.549 210.872 270.021 211.501 269.648C212.141 269.275 212.856 269.088 213.645 269.088C214.328 269.088 214.963 269.248 215.549 269.568C216.136 269.877 216.584 270.288 216.893 270.8V266.16H218.365V278H216.893V276.352C216.605 276.875 216.179 277.307 215.613 277.648C215.048 277.979 214.387 278.144 213.629 278.144C212.851 278.144 212.141 277.952 211.501 277.568C210.872 277.184 210.376 276.645 210.013 275.952C209.651 275.259 209.469 274.469 209.469 273.584ZM216.893 273.6C216.893 272.939 216.76 272.363 216.493 271.872C216.227 271.381 215.864 271.008 215.405 270.752C214.957 270.485 214.461 270.352 213.917 270.352C213.373 270.352 212.877 270.48 212.429 270.736C211.981 270.992 211.624 271.365 211.357 271.856C211.091 272.347 210.957 272.923 210.957 273.584C210.957 274.256 211.091 274.843 211.357 275.344C211.624 275.835 211.981 276.213 212.429 276.48C212.877 276.736 213.373 276.864 213.917 276.864C214.461 276.864 214.957 276.736 215.405 276.48C215.864 276.213 216.227 275.835 216.493 275.344C216.76 274.843 216.893 274.261 216.893 273.6ZM228.826 273.28C228.826 273.557 228.81 273.851 228.778 274.16H221.77C221.823 275.024 222.116 275.701 222.65 276.192C223.194 276.672 223.85 276.912 224.618 276.912C225.247 276.912 225.77 276.768 226.186 276.48C226.612 276.181 226.911 275.787 227.082 275.296H228.65C228.415 276.139 227.946 276.827 227.242 277.36C226.538 277.883 225.663 278.144 224.618 278.144C223.786 278.144 223.039 277.957 222.378 277.584C221.727 277.211 221.215 276.683 220.842 276C220.468 275.307 220.282 274.507 220.282 273.6C220.282 272.693 220.463 271.899 220.826 271.216C221.188 270.533 221.695 270.011 222.346 269.648C223.007 269.275 223.764 269.088 224.618 269.088C225.45 269.088 226.186 269.269 226.826 269.632C227.466 269.995 227.956 270.496 228.298 271.136C228.65 271.765 228.826 272.48 228.826 273.28ZM227.322 272.976C227.322 272.421 227.199 271.947 226.954 271.552C226.708 271.147 226.372 270.843 225.946 270.64C225.53 270.427 225.066 270.32 224.554 270.32C223.818 270.32 223.188 270.555 222.666 271.024C222.154 271.493 221.86 272.144 221.786 272.976H227.322ZM241.292 269.072C241.974 269.072 242.582 269.216 243.116 269.504C243.649 269.781 244.07 270.203 244.38 270.768C244.689 271.333 244.844 272.021 244.844 272.832V278H243.404V273.04C243.404 272.165 243.185 271.499 242.748 271.04C242.321 270.571 241.74 270.336 241.004 270.336C240.246 270.336 239.644 270.581 239.196 271.072C238.748 271.552 238.524 272.251 238.524 273.168V278H237.084V273.04C237.084 272.165 236.865 271.499 236.428 271.04C236.001 270.571 235.42 270.336 234.684 270.336C233.926 270.336 233.324 270.581 232.876 271.072C232.428 271.552 232.204 272.251 232.204 273.168V278H230.748V269.232H232.204V270.496C232.492 270.037 232.876 269.685 233.356 269.44C233.846 269.195 234.385 269.072 234.972 269.072C235.708 269.072 236.358 269.237 236.924 269.568C237.489 269.899 237.91 270.384 238.188 271.024C238.433 270.405 238.838 269.925 239.404 269.584C239.969 269.243 240.598 269.072 241.292 269.072ZM255.77 269.072C256.836 269.072 257.7 269.397 258.362 270.048C259.023 270.688 259.354 271.616 259.354 272.832V278H257.914V273.04C257.914 272.165 257.695 271.499 257.258 271.04C256.82 270.571 256.223 270.336 255.466 270.336C254.698 270.336 254.084 270.576 253.626 271.056C253.178 271.536 252.954 272.235 252.954 273.152V278H251.498V269.232H252.954V270.48C253.242 270.032 253.631 269.685 254.122 269.44C254.623 269.195 255.172 269.072 255.77 269.072ZM265.556 278.144C264.735 278.144 263.988 277.957 263.316 277.584C262.655 277.211 262.132 276.683 261.748 276C261.375 275.307 261.188 274.507 261.188 273.6C261.188 272.704 261.38 271.915 261.764 271.232C262.159 270.539 262.692 270.011 263.364 269.648C264.036 269.275 264.788 269.088 265.62 269.088C266.452 269.088 267.204 269.275 267.876 269.648C268.548 270.011 269.076 270.533 269.46 271.216C269.855 271.899 270.052 272.693 270.052 273.6C270.052 274.507 269.849 275.307 269.444 276C269.049 276.683 268.511 277.211 267.828 277.584C267.145 277.957 266.388 278.144 265.556 278.144ZM265.556 276.864C266.079 276.864 266.569 276.741 267.028 276.496C267.487 276.251 267.855 275.883 268.132 275.392C268.42 274.901 268.564 274.304 268.564 273.6C268.564 272.896 268.425 272.299 268.148 271.808C267.871 271.317 267.508 270.955 267.06 270.72C266.612 270.475 266.127 270.352 265.604 270.352C265.071 270.352 264.58 270.475 264.132 270.72C263.695 270.955 263.343 271.317 263.076 271.808C262.809 272.299 262.676 272.896 262.676 273.6C262.676 274.315 262.804 274.917 263.06 275.408C263.327 275.899 263.679 276.267 264.116 276.512C264.553 276.747 265.033 276.864 265.556 276.864ZM119.829 299.6C119.829 298.693 120.01 297.904 120.373 297.232C120.735 296.549 121.237 296.021 121.877 295.648C122.527 295.275 123.269 295.088 124.101 295.088C125.178 295.088 126.063 295.349 126.757 295.872C127.461 296.395 127.925 297.12 128.149 298.048H126.581C126.431 297.515 126.138 297.093 125.701 296.784C125.274 296.475 124.741 296.32 124.101 296.32C123.269 296.32 122.597 296.608 122.085 297.184C121.573 297.749 121.317 298.555 121.317 299.6C121.317 300.656 121.573 301.472 122.085 302.048C122.597 302.624 123.269 302.912 124.101 302.912C124.741 302.912 125.274 302.763 125.701 302.464C126.127 302.165 126.421 301.739 126.581 301.184H128.149C127.914 302.08 127.445 302.8 126.741 303.344C126.037 303.877 125.157 304.144 124.101 304.144C123.269 304.144 122.527 303.957 121.877 303.584C121.237 303.211 120.735 302.683 120.373 302C120.01 301.317 119.829 300.517 119.829 299.6ZM129.547 299.584C129.547 298.688 129.729 297.904 130.091 297.232C130.454 296.549 130.95 296.021 131.579 295.648C132.219 295.275 132.929 295.088 133.707 295.088C134.475 295.088 135.142 295.253 135.707 295.584C136.273 295.915 136.694 296.331 136.971 296.832V295.232H138.443V304H136.971V302.368C136.683 302.88 136.251 303.307 135.675 303.648C135.11 303.979 134.449 304.144 133.691 304.144C132.913 304.144 132.209 303.952 131.579 303.568C130.95 303.184 130.454 302.645 130.091 301.952C129.729 301.259 129.547 300.469 129.547 299.584ZM136.971 299.6C136.971 298.939 136.838 298.363 136.571 297.872C136.305 297.381 135.942 297.008 135.483 296.752C135.035 296.485 134.539 296.352 133.995 296.352C133.451 296.352 132.955 296.48 132.507 296.736C132.059 296.992 131.702 297.365 131.435 297.856C131.169 298.347 131.035 298.923 131.035 299.584C131.035 300.256 131.169 300.843 131.435 301.344C131.702 301.835 132.059 302.213 132.507 302.48C132.955 302.736 133.451 302.864 133.995 302.864C134.539 302.864 135.035 302.736 135.483 302.48C135.942 302.213 136.305 301.835 136.571 301.344C136.838 300.843 136.971 300.261 136.971 299.6ZM142.36 296.656C142.616 296.155 142.979 295.765 143.448 295.488C143.928 295.211 144.509 295.072 145.192 295.072V296.576H144.808C143.176 296.576 142.36 297.461 142.36 299.232V304H140.904V295.232H142.36V296.656ZM148.329 296.656C148.585 296.155 148.947 295.765 149.417 295.488C149.897 295.211 150.478 295.072 151.161 295.072V296.576H150.777C149.145 296.576 148.329 297.461 148.329 299.232V304H146.873V295.232H148.329V296.656ZM160.393 295.232L155.113 308.128H153.609L155.337 303.904L151.801 295.232H153.417L156.169 302.336L158.889 295.232H160.393ZM165.579 299.584C165.579 298.688 165.76 297.904 166.123 297.232C166.485 296.549 166.981 296.021 167.611 295.648C168.251 295.275 168.96 295.088 169.739 295.088C170.507 295.088 171.173 295.253 171.739 295.584C172.304 295.915 172.725 296.331 173.003 296.832V295.232H174.475V304H173.003V302.368C172.715 302.88 172.283 303.307 171.707 303.648C171.141 303.979 170.48 304.144 169.723 304.144C168.944 304.144 168.24 303.952 167.611 303.568C166.981 303.184 166.485 302.645 166.123 301.952C165.76 301.259 165.579 300.469 165.579 299.584ZM173.003 299.6C173.003 298.939 172.869 298.363 172.603 297.872C172.336 297.381 171.973 297.008 171.515 296.752C171.067 296.485 170.571 296.352 170.027 296.352C169.483 296.352 168.987 296.48 168.539 296.736C168.091 296.992 167.733 297.365 167.467 297.856C167.2 298.347 167.067 298.923 167.067 299.584C167.067 300.256 167.2 300.843 167.467 301.344C167.733 301.835 168.091 302.213 168.539 302.48C168.987 302.736 169.483 302.864 170.027 302.864C170.571 302.864 171.067 302.736 171.515 302.48C171.973 302.213 172.336 301.835 172.603 301.344C172.869 300.843 173.003 300.261 173.003 299.6ZM187.479 295.072C188.162 295.072 188.77 295.216 189.303 295.504C189.836 295.781 190.258 296.203 190.567 296.768C190.876 297.333 191.031 298.021 191.031 298.832V304H189.591V299.04C189.591 298.165 189.372 297.499 188.935 297.04C188.508 296.571 187.927 296.336 187.191 296.336C186.434 296.336 185.831 296.581 185.383 297.072C184.935 297.552 184.711 298.251 184.711 299.168V304H183.271V299.04C183.271 298.165 183.052 297.499 182.615 297.04C182.188 296.571 181.607 296.336 180.871 296.336C180.114 296.336 179.511 296.581 179.063 297.072C178.615 297.552 178.391 298.251 178.391 299.168V304H176.935V295.232H178.391V296.496C178.679 296.037 179.063 295.685 179.543 295.44C180.034 295.195 180.572 295.072 181.159 295.072C181.895 295.072 182.546 295.237 183.111 295.568C183.676 295.899 184.098 296.384 184.375 297.024C184.62 296.405 185.026 295.925 185.591 295.584C186.156 295.243 186.786 295.072 187.479 295.072ZM201.301 295.088C202.058 295.088 202.72 295.253 203.285 295.584C203.861 295.915 204.288 296.331 204.565 296.832V295.232H206.037V304.192C206.037 304.992 205.866 305.701 205.525 306.32C205.184 306.949 204.693 307.44 204.053 307.792C203.424 308.144 202.688 308.32 201.845 308.32C200.693 308.32 199.733 308.048 198.965 307.504C198.197 306.96 197.744 306.219 197.605 305.28H199.045C199.205 305.813 199.536 306.24 200.037 306.56C200.538 306.891 201.141 307.056 201.845 307.056C202.645 307.056 203.296 306.805 203.797 306.304C204.309 305.803 204.565 305.099 204.565 304.192V302.352C204.277 302.864 203.85 303.291 203.285 303.632C202.72 303.973 202.058 304.144 201.301 304.144C200.522 304.144 199.813 303.952 199.173 303.568C198.544 303.184 198.048 302.645 197.685 301.952C197.322 301.259 197.141 300.469 197.141 299.584C197.141 298.688 197.322 297.904 197.685 297.232C198.048 296.549 198.544 296.021 199.173 295.648C199.813 295.275 200.522 295.088 201.301 295.088ZM204.565 299.6C204.565 298.939 204.432 298.363 204.165 297.872C203.898 297.381 203.536 297.008 203.077 296.752C202.629 296.485 202.133 296.352 201.589 296.352C201.045 296.352 200.549 296.48 200.101 296.736C199.653 296.992 199.296 297.365 199.029 297.856C198.762 298.347 198.629 298.923 198.629 299.584C198.629 300.256 198.762 300.843 199.029 301.344C199.296 301.835 199.653 302.213 200.101 302.48C200.549 302.736 201.045 302.864 201.589 302.864C202.133 302.864 202.629 302.736 203.077 302.48C203.536 302.213 203.898 301.835 204.165 301.344C204.432 300.843 204.565 300.261 204.565 299.6ZM212.322 304.144C211.5 304.144 210.754 303.957 210.082 303.584C209.42 303.211 208.898 302.683 208.514 302C208.14 301.307 207.954 300.507 207.954 299.6C207.954 298.704 208.146 297.915 208.53 297.232C208.924 296.539 209.458 296.011 210.13 295.648C210.802 295.275 211.554 295.088 212.386 295.088C213.218 295.088 213.97 295.275 214.642 295.648C215.314 296.011 215.842 296.533 216.226 297.216C216.62 297.899 216.818 298.693 216.818 299.6C216.818 300.507 216.615 301.307 216.21 302C215.815 302.683 215.276 303.211 214.594 303.584C213.911 303.957 213.154 304.144 212.322 304.144ZM212.322 302.864C212.844 302.864 213.335 302.741 213.794 302.496C214.252 302.251 214.62 301.883 214.898 301.392C215.186 300.901 215.33 300.304 215.33 299.6C215.33 298.896 215.191 298.299 214.914 297.808C214.636 297.317 214.274 296.955 213.826 296.72C213.378 296.475 212.892 296.352 212.37 296.352C211.836 296.352 211.346 296.475 210.898 296.72C210.46 296.955 210.108 297.317 209.842 297.808C209.575 298.299 209.442 298.896 209.442 299.6C209.442 300.315 209.57 300.917 209.826 301.408C210.092 301.899 210.444 302.267 210.882 302.512C211.319 302.747 211.799 302.864 212.322 302.864ZM219.196 304.096C218.919 304.096 218.684 304 218.492 303.808C218.3 303.616 218.204 303.381 218.204 303.104C218.204 302.827 218.3 302.592 218.492 302.4C218.684 302.208 218.919 302.112 219.196 302.112C219.463 302.112 219.687 302.208 219.868 302.4C220.06 302.592 220.156 302.827 220.156 303.104C220.156 303.381 220.06 303.616 219.868 303.808C219.687 304 219.463 304.096 219.196 304.096Z" fill="#656565"/>
<path d="M148.688 352.364V365H145.61V357.422L142.784 365H140.3L137.456 357.404V365H134.378V352.364H138.014L141.56 361.112L145.07 352.364H148.688ZM152.449 353.912C151.909 353.912 151.465 353.756 151.117 353.444C150.781 353.12 150.613 352.724 150.613 352.256C150.613 351.776 150.781 351.38 151.117 351.068C151.465 350.744 151.909 350.582 152.449 350.582C152.977 350.582 153.409 350.744 153.745 351.068C154.093 351.38 154.267 351.776 154.267 352.256C154.267 352.724 154.093 353.12 153.745 353.444C153.409 353.756 152.977 353.912 152.449 353.912ZM153.979 354.956V365H150.901V354.956H153.979ZM155.598 359.978C155.598 358.934 155.808 358.022 156.228 357.242C156.66 356.462 157.254 355.862 158.01 355.442C158.778 355.022 159.654 354.812 160.638 354.812C161.898 354.812 162.948 355.142 163.788 355.802C164.64 356.462 165.198 357.392 165.462 358.592H162.186C161.91 357.824 161.376 357.44 160.584 357.44C160.02 357.44 159.57 357.662 159.234 358.106C158.898 358.538 158.73 359.162 158.73 359.978C158.73 360.794 158.898 361.424 159.234 361.868C159.57 362.3 160.02 362.516 160.584 362.516C161.376 362.516 161.91 362.132 162.186 361.364H165.462C165.198 362.54 164.64 363.464 163.788 364.136C162.936 364.808 161.886 365.144 160.638 365.144C159.654 365.144 158.778 364.934 158.01 364.514C157.254 364.094 156.66 363.494 156.228 362.714C155.808 361.934 155.598 361.022 155.598 359.978ZM173.282 354.848C174.434 354.848 175.358 355.232 176.054 356C176.75 356.756 177.098 357.8 177.098 359.132V365H174.038V359.546C174.038 358.874 173.864 358.352 173.516 357.98C173.168 357.608 172.7 357.422 172.112 357.422C171.524 357.422 171.056 357.608 170.708 357.98C170.36 358.352 170.186 358.874 170.186 359.546V365H167.108V351.68H170.186V356.306C170.498 355.862 170.924 355.508 171.464 355.244C172.004 354.98 172.61 354.848 173.282 354.848ZM188.705 359.816C188.705 360.104 188.687 360.404 188.651 360.716H181.685C181.733 361.34 181.931 361.82 182.279 362.156C182.639 362.48 183.077 362.642 183.593 362.642C184.361 362.642 184.895 362.318 185.195 361.67H188.471C188.303 362.33 187.997 362.924 187.553 363.452C187.121 363.98 186.575 364.394 185.915 364.694C185.255 364.994 184.517 365.144 183.701 365.144C182.717 365.144 181.841 364.934 181.073 364.514C180.305 364.094 179.705 363.494 179.273 362.714C178.841 361.934 178.625 361.022 178.625 359.978C178.625 358.934 178.835 358.022 179.255 357.242C179.687 356.462 180.287 355.862 181.055 355.442C181.823 355.022 182.705 354.812 183.701 354.812C184.673 354.812 185.537 355.016 186.293 355.424C187.049 355.832 187.637 356.414 188.057 357.17C188.489 357.926 188.705 358.808 188.705 359.816ZM185.555 359.006C185.555 358.478 185.375 358.058 185.015 357.746C184.655 357.434 184.205 357.278 183.665 357.278C183.149 357.278 182.711 357.428 182.351 357.728C182.003 358.028 181.787 358.454 181.703 359.006H185.555ZM189.717 359.96C189.717 358.928 189.909 358.022 190.293 357.242C190.689 356.462 191.223 355.862 191.895 355.442C192.567 355.022 193.317 354.812 194.145 354.812C194.853 354.812 195.471 354.956 195.999 355.244C196.539 355.532 196.953 355.91 197.241 356.378V354.956H200.319V365H197.241V363.578C196.941 364.046 196.521 364.424 195.981 364.712C195.453 365 194.835 365.144 194.127 365.144C193.311 365.144 192.567 364.934 191.895 364.514C191.223 364.082 190.689 363.476 190.293 362.696C189.909 361.904 189.717 360.992 189.717 359.96ZM197.241 359.978C197.241 359.21 197.025 358.604 196.593 358.16C196.173 357.716 195.657 357.494 195.045 357.494C194.433 357.494 193.911 357.716 193.479 358.16C193.059 358.592 192.849 359.192 192.849 359.96C192.849 360.728 193.059 361.34 193.479 361.796C193.911 362.24 194.433 362.462 195.045 362.462C195.657 362.462 196.173 362.24 196.593 361.796C197.025 361.352 197.241 360.746 197.241 359.978ZM205.624 351.68V365H202.546V351.68H205.624Z" fill="#444444"/>
<defs>
<filter id="filter0_d_1651_568" x="0" y="0" width="340" height="431" filterUnits="userSpaceOnUse" color-interpolation-filters="sRGB">
<feFlood flood-opacity="0" result="BackgroundImageFix"/>
<feColorMatrix in="SourceAlpha" type="matrix" values="0 0 0 0 0 0 0 0 0 0 0 0 0 0 0 0 0 0 127 0" result="hardAlpha"/>
<feOffset dy="4"/>
<feGaussianBlur stdDeviation="2"/>
<feComposite in2="hardAlpha" operator="out"/>
<feColorMatrix type="matrix" values="0 0 0 0 0 0 0 0 0 0 0 0 0 0 0 0 0 0 0.25 0"/>
<feBlend mode="normal" in2="BackgroundImageFix" result="effect1_dropShadow_1651_568"/>
<feBlend mode="normal" in="SourceGraphic" in2="effect1_dropShadow_1651_568" result="shape"/>
</filter>
</defs>
</svg>
