<svg width="340" height="440" viewBox="0 0 340 440" fill="none" xmlns="http://www.w3.org/2000/svg">
<g filter="url(#filter0_d_1651_568)">
<path d="M4 32C4 14.3269 18.3269 0 36 0H304C321.673 0 336 14.3269 336 32V432H36C18.3269 432 4 417.673 4 400V32Z" fill="white"/>
</g>
<path d="M155.417 144.167C145.817 144.167 138.521 137.351 138.521 124.967C138.521 115.079 143.993 106.631 153.881 101.735C158.777 99.3349 164.057 98.0869 169.433 98.0869L171.353 100.775C166.457 100.775 156.473 103.559 151.769 109.031C149.369 111.815 148.121 114.119 148.121 115.943C149.177 114.599 153.209 113.255 157.337 113.255C162.425 113.255 166.361 115.367 169.049 119.591C171.929 106.823 184.601 98.0869 199.385 98.0869L201.305 100.775C196.409 100.775 186.425 103.559 181.721 109.031C179.321 111.815 178.073 114.119 178.073 115.943C179.129 114.599 183.161 113.255 187.289 113.255C195.641 113.255 201.497 119.975 201.497 128.231C201.497 137.447 195.161 144.167 185.369 144.167C178.649 144.167 172.985 140.615 170.393 134.759C167.993 140.615 162.713 144.167 155.417 144.167Z" fill="#FC5000"/>
<path d="M75.3475 172.927L73.3795 184.047H71.5555L73.5235 172.927H75.3475ZM78.3503 172.927H80.3343L77.9823 176.735H76.7023L78.3503 172.927ZM91.9053 175.087C92.8333 175.087 93.5746 175.338 94.1293 175.839C94.6839 176.34 94.9613 177.05 94.9613 177.967C94.9613 178.212 94.9346 178.506 94.8813 178.847L93.9533 184.047H92.1453L93.0253 179.119C93.0679 178.82 93.0893 178.607 93.0893 178.479C93.0893 177.892 92.9239 177.444 92.5933 177.135C92.2733 176.826 91.8253 176.671 91.2493 176.671C90.5559 176.671 89.9693 176.884 89.4893 177.311C89.0199 177.727 88.7213 178.33 88.5933 179.119L87.7133 184.047H85.9053L86.7853 179.119C86.8279 178.82 86.8493 178.607 86.8493 178.479C86.8493 177.892 86.6839 177.444 86.3533 177.135C86.0333 176.826 85.5853 176.671 85.0093 176.671C84.3159 176.671 83.7293 176.884 83.2493 177.311C82.7799 177.727 82.4813 178.33 82.3533 179.119V179.071L81.4733 184.047H79.6493L81.2013 175.231H83.0253L82.8493 176.255C83.2013 175.892 83.6226 175.61 84.1133 175.407C84.6146 175.194 85.1319 175.087 85.6653 175.087C86.3693 175.087 86.9719 175.236 87.4733 175.535C87.9853 175.834 88.3426 176.266 88.5453 176.831C88.8973 176.298 89.3826 175.876 90.0013 175.567C90.6199 175.247 91.2546 175.087 91.9053 175.087ZM107.215 175.087C108.1 175.087 108.81 175.338 109.343 175.839C109.876 176.33 110.143 177.034 110.143 177.951C110.143 178.196 110.116 178.495 110.063 178.847L109.135 184.047H107.327L108.207 179.119C108.25 178.82 108.271 178.607 108.271 178.479C108.271 177.892 108.106 177.444 107.775 177.135C107.455 176.826 107.007 176.671 106.431 176.671C105.738 176.671 105.151 176.884 104.671 177.311C104.202 177.727 103.903 178.33 103.775 179.119V179.087L102.895 184.047H101.071L103.167 172.207H104.991L104.271 176.255C104.644 175.882 105.087 175.594 105.599 175.391C106.111 175.188 106.65 175.087 107.215 175.087ZM111.638 179.599C111.798 178.714 112.118 177.93 112.598 177.247C113.088 176.564 113.686 176.036 114.39 175.663C115.094 175.279 115.83 175.087 116.598 175.087C117.291 175.087 117.872 175.226 118.342 175.503C118.811 175.77 119.163 176.106 119.398 176.511L119.622 175.231H121.462L119.91 184.047H118.07L118.31 182.735C117.926 183.151 117.44 183.498 116.854 183.775C116.278 184.052 115.648 184.191 114.966 184.191C114.304 184.191 113.712 184.042 113.19 183.743C112.678 183.444 112.272 183.023 111.974 182.479C111.686 181.924 111.542 181.29 111.542 180.575C111.542 180.255 111.574 179.93 111.638 179.599ZM118.854 179.631C118.896 179.428 118.918 179.21 118.918 178.975C118.918 178.26 118.704 177.7 118.278 177.295C117.862 176.879 117.339 176.671 116.71 176.671C116.24 176.671 115.782 176.788 115.334 177.023C114.886 177.247 114.496 177.583 114.166 178.031C113.835 178.468 113.616 178.991 113.51 179.599C113.467 179.802 113.446 180.02 113.446 180.255C113.446 180.98 113.654 181.556 114.07 181.983C114.496 182.399 115.024 182.607 115.654 182.607C116.123 182.607 116.582 182.49 117.03 182.255C117.478 182.02 117.867 181.679 118.198 181.231C118.528 180.772 118.747 180.239 118.854 179.631ZM125.458 176.527C125.842 176.122 126.322 175.78 126.898 175.503C127.484 175.226 128.114 175.087 128.786 175.087C129.458 175.087 130.055 175.231 130.578 175.519C131.1 175.807 131.506 176.218 131.794 176.751C132.082 177.284 132.226 177.908 132.226 178.623C132.226 178.932 132.194 179.258 132.13 179.599C131.97 180.484 131.644 181.279 131.154 181.983C130.674 182.676 130.082 183.22 129.378 183.615C128.684 183.999 127.954 184.191 127.186 184.191C126.514 184.191 125.938 184.058 125.458 183.791C124.988 183.514 124.62 183.172 124.354 182.767L123.394 188.239H121.569L123.858 175.231H125.682L125.458 176.527ZM130.274 179.599C130.316 179.396 130.338 179.178 130.338 178.943C130.338 178.228 130.124 177.674 129.698 177.279C129.282 176.874 128.754 176.671 128.114 176.671C127.655 176.671 127.196 176.788 126.738 177.023C126.29 177.258 125.9 177.599 125.57 178.047C125.239 178.495 125.02 179.023 124.914 179.631C124.871 179.834 124.85 180.052 124.85 180.287C124.85 181.002 125.058 181.567 125.474 181.983C125.9 182.399 126.428 182.607 127.058 182.607C127.527 182.607 127.986 182.49 128.434 182.255C128.892 182.01 129.287 181.658 129.618 181.199C129.948 180.74 130.167 180.207 130.274 179.599ZM136.301 176.527C136.685 176.122 137.165 175.78 137.741 175.503C138.328 175.226 138.957 175.087 139.629 175.087C140.301 175.087 140.899 175.231 141.421 175.519C141.944 175.807 142.349 176.218 142.637 176.751C142.925 177.284 143.069 177.908 143.069 178.623C143.069 178.932 143.037 179.258 142.973 179.599C142.813 180.484 142.488 181.279 141.997 181.983C141.517 182.676 140.925 183.22 140.221 183.615C139.528 183.999 138.797 184.191 138.029 184.191C137.357 184.191 136.781 184.058 136.301 183.791C135.832 183.514 135.464 183.172 135.197 182.767L134.237 188.239H132.413L134.701 175.231H136.525L136.301 176.527ZM141.117 179.599C141.16 179.396 141.181 179.178 141.181 178.943C141.181 178.228 140.968 177.674 140.541 177.279C140.125 176.874 139.597 176.671 138.957 176.671C138.499 176.671 138.04 176.788 137.581 177.023C137.133 177.258 136.744 177.599 136.413 178.047C136.083 178.495 135.864 179.023 135.757 179.631C135.715 179.834 135.693 180.052 135.693 180.287C135.693 181.002 135.901 181.567 136.317 181.983C136.744 182.399 137.272 182.607 137.901 182.607C138.371 182.607 138.829 182.49 139.277 182.255C139.736 182.01 140.131 181.658 140.461 181.199C140.792 180.74 141.011 180.207 141.117 179.599ZM146.537 175.231L147.833 181.951L151.593 175.231H153.481L145.801 188.191H143.913L146.457 183.903L144.505 175.231H146.537ZM160.662 181.599C160.641 181.748 160.63 181.844 160.63 181.887C160.63 182.111 160.7 182.276 160.838 182.383C160.977 182.479 161.206 182.527 161.526 182.527H162.646L162.374 184.047H160.934C160.23 184.047 159.692 183.908 159.318 183.631C158.945 183.343 158.758 182.89 158.758 182.271C158.758 182.036 158.78 181.812 158.822 181.599L159.686 176.719H158.646L158.902 175.231H159.958L160.342 173.039H162.182L161.798 175.231H163.926L163.67 176.719H161.526L160.662 181.599ZM170.2 175.087C171.085 175.087 171.794 175.338 172.328 175.839C172.861 176.33 173.128 177.034 173.128 177.951C173.128 178.196 173.101 178.495 173.048 178.847L172.12 184.047H170.312L171.192 179.119C171.234 178.82 171.256 178.607 171.256 178.479C171.256 177.892 171.09 177.444 170.76 177.135C170.44 176.826 169.992 176.671 169.416 176.671C168.722 176.671 168.136 176.884 167.656 177.311C167.186 177.727 166.888 178.33 166.76 179.119V179.087L165.88 184.047H164.056L166.152 172.207H167.976L167.256 176.255C167.629 175.882 168.072 175.594 168.584 175.391C169.096 175.188 169.634 175.087 170.2 175.087ZM174.622 179.599C174.782 178.714 175.102 177.93 175.582 177.247C176.073 176.564 176.67 176.036 177.374 175.663C178.078 175.279 178.814 175.087 179.582 175.087C180.275 175.087 180.857 175.226 181.326 175.503C181.795 175.77 182.147 176.106 182.382 176.511L182.606 175.231H184.446L182.894 184.047H181.054L181.294 182.735C180.91 183.151 180.425 183.498 179.838 183.775C179.262 184.052 178.633 184.191 177.95 184.191C177.289 184.191 176.697 184.042 176.174 183.743C175.662 183.444 175.257 183.023 174.958 182.479C174.67 181.924 174.526 181.29 174.526 180.575C174.526 180.255 174.558 179.93 174.622 179.599ZM181.838 179.631C181.881 179.428 181.902 179.21 181.902 178.975C181.902 178.26 181.689 177.7 181.262 177.295C180.846 176.879 180.323 176.671 179.694 176.671C179.225 176.671 178.766 176.788 178.318 177.023C177.87 177.247 177.481 177.583 177.15 178.031C176.819 178.468 176.601 178.991 176.494 179.599C176.451 179.802 176.43 180.02 176.43 180.255C176.43 180.98 176.638 181.556 177.054 181.983C177.481 182.399 178.009 182.607 178.638 182.607C179.107 182.607 179.566 182.49 180.014 182.255C180.462 182.02 180.851 181.679 181.182 181.231C181.513 180.772 181.731 180.239 181.838 179.631ZM187.85 181.599C187.829 181.748 187.818 181.844 187.818 181.887C187.818 182.111 187.887 182.276 188.026 182.383C188.165 182.479 188.394 182.527 188.714 182.527H189.834L189.562 184.047H188.122C187.418 184.047 186.879 183.908 186.506 183.631C186.133 183.343 185.946 182.89 185.946 182.271C185.946 182.036 185.967 181.812 186.01 181.599L186.874 176.719H185.834L186.09 175.231H187.146L187.53 173.039H189.37L188.986 175.231H191.114L190.858 176.719H188.714L187.85 181.599ZM208.296 175.087C209.224 175.087 209.965 175.338 210.52 175.839C211.075 176.34 211.352 177.05 211.352 177.967C211.352 178.212 211.325 178.506 211.272 178.847L210.344 184.047H208.536L209.416 179.119C209.459 178.82 209.48 178.607 209.48 178.479C209.48 177.892 209.315 177.444 208.984 177.135C208.664 176.826 208.216 176.671 207.64 176.671C206.947 176.671 206.36 176.884 205.88 177.311C205.411 177.727 205.112 178.33 204.984 179.119L204.104 184.047H202.296L203.176 179.119C203.219 178.82 203.24 178.607 203.24 178.479C203.24 177.892 203.075 177.444 202.744 177.135C202.424 176.826 201.976 176.671 201.4 176.671C200.707 176.671 200.12 176.884 199.64 177.311C199.171 177.727 198.872 178.33 198.744 179.119V179.071L197.864 184.047H196.04L197.592 175.231H199.416L199.24 176.255C199.592 175.892 200.013 175.61 200.504 175.407C201.005 175.194 201.523 175.087 202.056 175.087C202.76 175.087 203.363 175.236 203.864 175.535C204.376 175.834 204.733 176.266 204.936 176.831C205.288 176.298 205.773 175.876 206.392 175.567C207.011 175.247 207.645 175.087 208.296 175.087ZM215.209 175.231L216.505 181.951L220.265 175.231H222.153L214.473 188.191H212.585L215.129 183.903L213.177 175.231H215.209ZM229.926 176.543C230.31 176.116 230.796 175.77 231.382 175.503C231.969 175.226 232.593 175.087 233.254 175.087C233.937 175.087 234.534 175.231 235.046 175.519C235.569 175.807 235.974 176.218 236.262 176.751C236.55 177.274 236.694 177.892 236.694 178.607C236.694 178.916 236.662 179.247 236.598 179.599C236.438 180.484 236.113 181.279 235.622 181.983C235.142 182.676 234.55 183.22 233.846 183.615C233.153 183.999 232.422 184.191 231.654 184.191C230.972 184.191 230.39 184.058 229.91 183.791C229.43 183.524 229.068 183.183 228.822 182.767L228.598 184.047H226.774L228.87 172.207H230.694L229.926 176.543ZM234.742 179.599C234.785 179.396 234.806 179.178 234.806 178.943C234.806 178.228 234.593 177.674 234.166 177.279C233.75 176.874 233.222 176.671 232.582 176.671C232.124 176.671 231.665 176.788 231.206 177.023C230.758 177.258 230.369 177.599 230.038 178.047C229.708 178.495 229.489 179.023 229.382 179.631C229.34 179.834 229.318 180.052 229.318 180.287C229.318 181.002 229.526 181.567 229.942 181.983C230.369 182.399 230.897 182.607 231.526 182.607C231.996 182.607 232.454 182.49 232.902 182.255C233.361 182.01 233.756 181.658 234.086 181.199C234.417 180.74 234.636 180.207 234.742 179.599ZM237.794 179.599C237.954 178.714 238.274 177.93 238.754 177.247C239.245 176.564 239.842 176.036 240.546 175.663C241.25 175.279 241.986 175.087 242.754 175.087C243.447 175.087 244.029 175.226 244.498 175.503C244.967 175.77 245.319 176.106 245.554 176.511L245.778 175.231H247.618L246.066 184.047H244.226L244.466 182.735C244.082 183.151 243.597 183.498 243.01 183.775C242.434 184.052 241.805 184.191 241.122 184.191C240.461 184.191 239.869 184.042 239.346 183.743C238.834 183.444 238.429 183.023 238.13 182.479C237.842 181.924 237.698 181.29 237.698 180.575C237.698 180.255 237.73 179.93 237.794 179.599ZM245.01 179.631C245.053 179.428 245.074 179.21 245.074 178.975C245.074 178.26 244.861 177.7 244.434 177.295C244.018 176.879 243.495 176.671 242.866 176.671C242.397 176.671 241.938 176.788 241.49 177.023C241.042 177.247 240.653 177.583 240.322 178.031C239.991 178.468 239.773 178.991 239.666 179.599C239.623 179.802 239.602 180.02 239.602 180.255C239.602 180.98 239.81 181.556 240.226 181.983C240.653 182.399 241.181 182.607 241.81 182.607C242.279 182.607 242.738 182.49 243.186 182.255C243.634 182.02 244.023 181.679 244.354 181.231C244.685 180.772 244.903 180.239 245.01 179.631ZM251.614 176.543C251.998 176.116 252.483 175.77 253.07 175.503C253.656 175.226 254.28 175.087 254.942 175.087C255.624 175.087 256.222 175.231 256.734 175.519C257.256 175.807 257.662 176.218 257.95 176.751C258.238 177.274 258.382 177.892 258.382 178.607C258.382 178.916 258.35 179.247 258.286 179.599C258.126 180.484 257.8 181.279 257.31 181.983C256.83 182.676 256.238 183.22 255.534 183.615C254.84 183.999 254.11 184.191 253.342 184.191C252.659 184.191 252.078 184.058 251.598 183.791C251.118 183.524 250.755 183.183 250.51 182.767L250.286 184.047H248.462L250.558 172.207H252.382L251.614 176.543ZM256.43 179.599C256.472 179.396 256.494 179.178 256.494 178.943C256.494 178.228 256.28 177.674 255.854 177.279C255.438 176.874 254.91 176.671 254.27 176.671C253.811 176.671 253.352 176.788 252.894 177.023C252.446 177.258 252.056 177.599 251.726 178.047C251.395 178.495 251.176 179.023 251.07 179.631C251.027 179.834 251.006 180.052 251.006 180.287C251.006 181.002 251.214 181.567 251.63 181.983C252.056 182.399 252.584 182.607 253.214 182.607C253.683 182.607 254.142 182.49 254.59 182.255C255.048 182.01 255.443 181.658 255.774 181.199C256.104 180.74 256.323 180.207 256.43 179.599ZM264.682 175.087C265.78 175.087 266.655 175.396 267.306 176.015C267.967 176.634 268.298 177.466 268.298 178.511C268.298 178.756 268.271 179.05 268.218 179.391C268.175 179.626 268.1 179.914 267.994 180.255H261.258C261.247 180.33 261.242 180.442 261.242 180.591C261.242 181.22 261.434 181.722 261.818 182.095C262.212 182.468 262.724 182.655 263.354 182.655C264.346 182.655 265.108 182.244 265.642 181.423H267.61C267.204 182.234 266.607 182.9 265.818 183.423C265.028 183.935 264.116 184.191 263.082 184.191C262.346 184.191 261.7 184.047 261.146 183.759C260.591 183.471 260.159 183.06 259.85 182.527C259.54 181.983 259.386 181.348 259.386 180.623C259.386 180.314 259.418 179.983 259.482 179.631C259.642 178.724 259.967 177.93 260.458 177.247C260.948 176.554 261.556 176.02 262.282 175.647C263.018 175.274 263.818 175.087 264.682 175.087ZM266.394 178.943C266.415 178.751 266.426 178.612 266.426 178.527C266.426 177.94 266.228 177.476 265.834 177.135C265.45 176.794 264.948 176.623 264.33 176.623C263.679 176.623 263.092 176.831 262.57 177.247C262.047 177.663 261.69 178.228 261.498 178.943H266.394ZM99.4112 200.631C99.5712 199.724 99.8912 198.93 100.371 198.247C100.862 197.554 101.465 197.02 102.179 196.647C102.905 196.274 103.689 196.087 104.531 196.087C105.598 196.087 106.435 196.343 107.043 196.855C107.651 197.356 107.998 198.076 108.083 199.015H106.115C106.03 198.578 105.833 198.236 105.523 197.991C105.214 197.746 104.793 197.623 104.259 197.623C103.513 197.623 102.873 197.89 102.339 198.423C101.806 198.946 101.454 199.682 101.283 200.631C101.23 200.972 101.203 201.25 101.203 201.463C101.203 202.167 101.379 202.711 101.731 203.095C102.083 203.468 102.574 203.655 103.203 203.655C104.259 203.655 105.038 203.191 105.539 202.263H107.507C107.091 203.159 106.483 203.874 105.683 204.407C104.894 204.93 103.977 205.191 102.931 205.191C101.822 205.191 100.942 204.876 100.291 204.247C99.6405 203.607 99.3152 202.743 99.3152 201.655C99.3152 201.324 99.3472 200.983 99.4112 200.631ZM109.005 200.599C109.165 199.714 109.485 198.93 109.965 198.247C110.456 197.564 111.053 197.036 111.757 196.663C112.461 196.279 113.197 196.087 113.965 196.087C114.658 196.087 115.24 196.226 115.709 196.503C116.178 196.77 116.53 197.106 116.765 197.511L116.989 196.231H118.829L117.277 205.047H115.437L115.677 203.735C115.293 204.151 114.808 204.498 114.221 204.775C113.645 205.052 113.016 205.191 112.333 205.191C111.672 205.191 111.08 205.042 110.557 204.743C110.045 204.444 109.64 204.023 109.341 203.479C109.053 202.924 108.909 202.29 108.909 201.575C108.909 201.255 108.941 200.93 109.005 200.599ZM116.221 200.631C116.264 200.428 116.285 200.21 116.285 199.975C116.285 199.26 116.072 198.7 115.645 198.295C115.229 197.879 114.706 197.671 114.077 197.671C113.608 197.671 113.149 197.788 112.701 198.023C112.253 198.247 111.864 198.583 111.533 199.031C111.202 199.468 110.984 199.991 110.877 200.599C110.834 200.802 110.813 201.02 110.813 201.255C110.813 201.98 111.021 202.556 111.437 202.983C111.864 203.399 112.392 203.607 113.021 203.607C113.49 203.607 113.949 203.49 114.397 203.255C114.845 203.02 115.234 202.679 115.565 202.231C115.896 201.772 116.114 201.239 116.221 200.631ZM125.705 196.087C126.633 196.087 127.369 196.338 127.913 196.839C128.467 197.33 128.745 198.039 128.745 198.967C128.745 199.202 128.718 199.495 128.665 199.847L127.737 205.047H125.929L126.809 200.119C126.851 199.82 126.873 199.607 126.873 199.479C126.873 198.892 126.707 198.444 126.377 198.135C126.057 197.826 125.609 197.671 125.033 197.671C124.339 197.671 123.753 197.884 123.273 198.311C122.803 198.727 122.505 199.33 122.377 200.119V200.071L121.497 205.047H119.673L121.225 196.231H123.049L122.873 197.255C123.235 196.892 123.662 196.61 124.153 196.407C124.654 196.194 125.171 196.087 125.705 196.087ZM135.036 200.631C135.196 199.724 135.516 198.93 135.996 198.247C136.487 197.554 137.09 197.02 137.804 196.647C138.53 196.274 139.314 196.087 140.156 196.087C141.223 196.087 142.06 196.343 142.668 196.855C143.276 197.356 143.623 198.076 143.708 199.015H141.74C141.655 198.578 141.458 198.236 141.148 197.991C140.839 197.746 140.418 197.623 139.884 197.623C139.138 197.623 138.498 197.89 137.964 198.423C137.431 198.946 137.079 199.682 136.908 200.631C136.855 200.972 136.828 201.25 136.828 201.463C136.828 202.167 137.004 202.711 137.356 203.095C137.708 203.468 138.199 203.655 138.828 203.655C139.884 203.655 140.663 203.191 141.164 202.263H143.132C142.716 203.159 142.108 203.874 141.308 204.407C140.519 204.93 139.602 205.191 138.556 205.191C137.447 205.191 136.567 204.876 135.916 204.247C135.266 203.607 134.94 202.743 134.94 201.655C134.94 201.324 134.972 200.983 135.036 200.631ZM150.598 196.087C151.483 196.087 152.193 196.338 152.726 196.839C153.259 197.33 153.526 198.034 153.526 198.951C153.526 199.196 153.499 199.495 153.446 199.847L152.518 205.047H150.71L151.59 200.119C151.633 199.82 151.654 199.607 151.654 199.479C151.654 198.892 151.489 198.444 151.158 198.135C150.838 197.826 150.39 197.671 149.814 197.671C149.121 197.671 148.534 197.884 148.054 198.311C147.585 198.727 147.286 199.33 147.158 200.119V200.087L146.278 205.047H144.454L146.55 193.207H148.374L147.654 197.255C148.027 196.882 148.47 196.594 148.982 196.391C149.494 196.188 150.033 196.087 150.598 196.087ZM155.021 200.599C155.181 199.714 155.501 198.93 155.981 198.247C156.471 197.564 157.069 197.036 157.773 196.663C158.477 196.279 159.213 196.087 159.981 196.087C160.674 196.087 161.255 196.226 161.725 196.503C162.194 196.77 162.546 197.106 162.781 197.511L163.005 196.231H164.845L163.293 205.047H161.453L161.693 203.735C161.309 204.151 160.823 204.498 160.237 204.775C159.661 205.052 159.031 205.191 158.349 205.191C157.687 205.191 157.095 205.042 156.573 204.743C156.061 204.444 155.655 204.023 155.357 203.479C155.069 202.924 154.925 202.29 154.925 201.575C154.925 201.255 154.957 200.93 155.021 200.599ZM162.237 200.631C162.279 200.428 162.301 200.21 162.301 199.975C162.301 199.26 162.087 198.7 161.661 198.295C161.245 197.879 160.722 197.671 160.093 197.671C159.623 197.671 159.165 197.788 158.717 198.023C158.269 198.247 157.879 198.583 157.549 199.031C157.218 199.468 156.999 199.991 156.893 200.599C156.85 200.802 156.829 201.02 156.829 201.255C156.829 201.98 157.037 202.556 157.453 202.983C157.879 203.399 158.407 203.607 159.037 203.607C159.506 203.607 159.965 203.49 160.413 203.255C160.861 203.02 161.25 202.679 161.581 202.231C161.911 201.772 162.13 201.239 162.237 200.631ZM168.248 202.599C168.227 202.748 168.216 202.844 168.216 202.887C168.216 203.111 168.286 203.276 168.424 203.383C168.563 203.479 168.792 203.527 169.112 203.527H170.232L169.96 205.047H168.52C167.816 205.047 167.278 204.908 166.904 204.631C166.531 204.343 166.344 203.89 166.344 203.271C166.344 203.036 166.366 202.812 166.408 202.599L167.272 197.719H166.232L166.488 196.231H167.544L167.928 194.039H169.768L169.384 196.231H171.512L171.256 197.719H169.112L168.248 202.599ZM189.83 196.231L185.542 205.047H183.622L183.014 198.535L180.07 205.047H178.15L176.95 196.231H178.806L179.414 203.319L182.518 196.231H184.422L184.982 203.287L188.038 196.231H189.83ZM192.329 195.063C192.041 195.063 191.807 194.972 191.625 194.791C191.444 194.61 191.353 194.38 191.353 194.103C191.353 193.73 191.492 193.41 191.769 193.143C192.057 192.866 192.383 192.727 192.745 192.727C193.033 192.727 193.263 192.818 193.433 192.999C193.615 193.18 193.705 193.41 193.705 193.687C193.705 194.06 193.567 194.386 193.289 194.663C193.012 194.93 192.692 195.063 192.329 195.063ZM193.017 196.231L191.465 205.047H189.641L191.193 196.231H193.017ZM196.42 202.599C196.399 202.748 196.388 202.844 196.388 202.887C196.388 203.111 196.458 203.276 196.596 203.383C196.735 203.479 196.964 203.527 197.284 203.527H198.404L198.132 205.047H196.692C195.988 205.047 195.45 204.908 195.076 204.631C194.703 204.343 194.516 203.89 194.516 203.271C194.516 203.036 194.538 202.812 194.58 202.599L195.444 197.719H194.404L194.66 196.231H195.716L196.1 194.039H197.94L197.556 196.231H199.684L199.428 197.719H197.284L196.42 202.599ZM205.957 196.087C206.843 196.087 207.552 196.338 208.085 196.839C208.619 197.33 208.885 198.034 208.885 198.951C208.885 199.196 208.859 199.495 208.805 199.847L207.877 205.047H206.069L206.949 200.119C206.992 199.82 207.013 199.607 207.013 199.479C207.013 198.892 206.848 198.444 206.517 198.135C206.197 197.826 205.749 197.671 205.173 197.671C204.48 197.671 203.893 197.884 203.413 198.311C202.944 198.727 202.645 199.33 202.517 200.119V200.087L201.637 205.047H199.813L201.909 193.207H203.733L203.013 197.255C203.387 196.882 203.829 196.594 204.341 196.391C204.853 196.188 205.392 196.087 205.957 196.087ZM227.257 196.087C228.185 196.087 228.926 196.338 229.481 196.839C230.035 197.34 230.313 198.05 230.313 198.967C230.313 199.212 230.286 199.506 230.233 199.847L229.305 205.047H227.497L228.377 200.119C228.419 199.82 228.441 199.607 228.441 199.479C228.441 198.892 228.275 198.444 227.945 198.135C227.625 197.826 227.177 197.671 226.601 197.671C225.907 197.671 225.321 197.884 224.841 198.311C224.371 198.727 224.073 199.33 223.945 200.119L223.065 205.047H221.257L222.137 200.119C222.179 199.82 222.201 199.607 222.201 199.479C222.201 198.892 222.035 198.444 221.705 198.135C221.385 197.826 220.937 197.671 220.361 197.671C219.667 197.671 219.081 197.884 218.601 198.311C218.131 198.727 217.833 199.33 217.705 200.119V200.071L216.825 205.047H215.001L216.553 196.231H218.377L218.201 197.255C218.553 196.892 218.974 196.61 219.465 196.407C219.966 196.194 220.483 196.087 221.017 196.087C221.721 196.087 222.323 196.236 222.825 196.535C223.337 196.834 223.694 197.266 223.897 197.831C224.249 197.298 224.734 196.876 225.353 196.567C225.971 196.247 226.606 196.087 227.257 196.087ZM237.002 196.087C238.1 196.087 238.975 196.396 239.626 197.015C240.287 197.634 240.618 198.466 240.618 199.511C240.618 199.756 240.591 200.05 240.538 200.391C240.495 200.626 240.42 200.914 240.314 201.255H233.578C233.567 201.33 233.562 201.442 233.562 201.591C233.562 202.22 233.754 202.722 234.138 203.095C234.532 203.468 235.044 203.655 235.674 203.655C236.666 203.655 237.428 203.244 237.962 202.423H239.93C239.524 203.234 238.927 203.9 238.138 204.423C237.348 204.935 236.436 205.191 235.402 205.191C234.666 205.191 234.02 205.047 233.466 204.759C232.911 204.471 232.479 204.06 232.17 203.527C231.86 202.983 231.706 202.348 231.706 201.623C231.706 201.314 231.738 200.983 231.802 200.631C231.962 199.724 232.287 198.93 232.778 198.247C233.268 197.554 233.876 197.02 234.602 196.647C235.338 196.274 236.138 196.087 237.002 196.087ZM238.714 199.943C238.735 199.751 238.746 199.612 238.746 199.527C238.746 198.94 238.548 198.476 238.154 198.135C237.77 197.794 237.268 197.623 236.65 197.623C235.999 197.623 235.412 197.831 234.89 198.247C234.367 198.663 234.01 199.228 233.818 199.943H238.714ZM70.1893 217.087C71.288 217.087 72.1626 217.396 72.8133 218.015C73.4746 218.634 73.8053 219.466 73.8053 220.511C73.8053 220.756 73.7786 221.05 73.7253 221.391C73.6826 221.626 73.608 221.914 73.5013 222.255H66.7653C66.7546 222.33 66.7493 222.442 66.7493 222.591C66.7493 223.22 66.9413 223.722 67.3253 224.095C67.72 224.468 68.232 224.655 68.8613 224.655C69.8533 224.655 70.616 224.244 71.1493 223.423H73.1173C72.712 224.234 72.1146 224.9 71.3253 225.423C70.536 225.935 69.624 226.191 68.5893 226.191C67.8533 226.191 67.208 226.047 66.6533 225.759C66.0986 225.471 65.6666 225.06 65.3573 224.527C65.048 223.983 64.8933 223.348 64.8933 222.623C64.8933 222.314 64.9253 221.983 64.9893 221.631C65.1493 220.724 65.4746 219.93 65.9653 219.247C66.456 218.554 67.064 218.02 67.7893 217.647C68.5253 217.274 69.3253 217.087 70.1893 217.087ZM71.9013 220.943C71.9226 220.751 71.9333 220.612 71.9333 220.527C71.9333 219.94 71.736 219.476 71.3413 219.135C70.9573 218.794 70.456 218.623 69.8373 218.623C69.1866 218.623 68.6 218.831 68.0773 219.247C67.5546 219.663 67.1973 220.228 67.0053 220.943H71.9013ZM79.2643 221.567L81.3123 226.047H79.2483L77.8723 223.055L75.5523 226.047H73.6483L77.2643 221.711L75.2003 217.231H77.2643L78.6403 220.223L80.9603 217.231H82.8643L79.2643 221.567ZM82.8487 221.631C83.0087 220.724 83.3287 219.93 83.8087 219.247C84.2994 218.554 84.902 218.02 85.6167 217.647C86.342 217.274 87.126 217.087 87.9687 217.087C89.0354 217.087 89.8727 217.343 90.4807 217.855C91.0887 218.356 91.4354 219.076 91.5207 220.015H89.5527C89.4674 219.578 89.27 219.236 88.9607 218.991C88.6514 218.746 88.23 218.623 87.6967 218.623C86.95 218.623 86.31 218.89 85.7767 219.423C85.2434 219.946 84.8914 220.682 84.7207 221.631C84.6674 221.972 84.6407 222.25 84.6407 222.463C84.6407 223.167 84.8167 223.711 85.1687 224.095C85.5207 224.468 86.0114 224.655 86.6407 224.655C87.6967 224.655 88.4754 224.191 88.9767 223.263H90.9447C90.5287 224.159 89.9207 224.874 89.1207 225.407C88.3314 225.93 87.414 226.191 86.3687 226.191C85.2594 226.191 84.3794 225.876 83.7287 225.247C83.078 224.607 82.7527 223.743 82.7527 222.655C82.7527 222.324 82.7847 221.983 82.8487 221.631ZM96.1864 214.207L94.0904 226.047H92.2664L94.3624 214.207H96.1864ZM106.021 217.231L104.469 226.047H102.645L102.821 225.007C102.469 225.37 102.043 225.658 101.541 225.871C101.051 226.074 100.544 226.175 100.021 226.175C99.0932 226.175 98.3519 225.924 97.7972 225.423C97.2425 224.922 96.9652 224.212 96.9652 223.295C96.9652 223.05 96.9919 222.756 97.0452 222.415L97.9572 217.231H99.7652L98.9012 222.143C98.8585 222.442 98.8372 222.655 98.8372 222.783C98.8372 223.37 98.9972 223.818 99.3172 224.127C99.6479 224.436 100.101 224.591 100.677 224.591C101.349 224.591 101.92 224.394 102.389 223.999C102.859 223.594 103.168 223.012 103.317 222.255L104.197 217.231H106.021ZM110.124 226.191C109.516 226.191 108.961 226.09 108.46 225.887C107.958 225.674 107.564 225.38 107.276 225.007C106.988 224.623 106.844 224.186 106.844 223.695C106.844 223.61 106.854 223.492 106.876 223.343H108.652C108.609 223.748 108.732 224.084 109.02 224.351C109.308 224.618 109.713 224.751 110.236 224.751C110.748 224.751 111.169 224.66 111.5 224.479C111.83 224.298 111.996 224.031 111.996 223.679C111.996 223.38 111.857 223.14 111.58 222.959C111.313 222.778 110.881 222.575 110.284 222.351C109.718 222.127 109.26 221.919 108.908 221.727C108.556 221.535 108.252 221.274 107.996 220.943C107.74 220.602 107.612 220.18 107.612 219.679C107.612 219.167 107.756 218.719 108.044 218.335C108.342 217.94 108.753 217.636 109.276 217.423C109.809 217.199 110.417 217.087 111.1 217.087C111.718 217.087 112.268 217.194 112.748 217.407C113.238 217.61 113.617 217.903 113.884 218.287C114.161 218.66 114.3 219.092 114.3 219.583C114.3 219.732 114.294 219.844 114.284 219.919H112.556C112.598 219.503 112.476 219.167 112.188 218.911C111.91 218.655 111.51 218.527 110.988 218.527C110.529 218.527 110.156 218.623 109.868 218.815C109.59 219.007 109.452 219.268 109.452 219.599C109.452 219.93 109.596 220.196 109.884 220.399C110.172 220.591 110.614 220.804 111.212 221.039C111.756 221.252 112.198 221.455 112.54 221.647C112.881 221.839 113.174 222.095 113.42 222.415C113.665 222.735 113.788 223.135 113.788 223.615C113.788 224.138 113.628 224.596 113.308 224.991C112.998 225.375 112.566 225.674 112.012 225.887C111.457 226.09 110.828 226.191 110.124 226.191ZM118.111 216.063C117.823 216.063 117.588 215.972 117.407 215.791C117.225 215.61 117.135 215.38 117.135 215.103C117.135 214.73 117.273 214.41 117.551 214.143C117.839 213.866 118.164 213.727 118.527 213.727C118.815 213.727 119.044 213.818 119.215 213.999C119.396 214.18 119.487 214.41 119.487 214.687C119.487 215.06 119.348 215.386 119.071 215.663C118.793 215.93 118.473 216.063 118.111 216.063ZM118.799 217.231L117.247 226.047H115.423L116.975 217.231H118.799ZM123.337 224.415L127.097 217.231H129.065L124.153 226.047H121.945L120.153 217.231H122.105L123.337 224.415ZM134.236 217.087C135.335 217.087 136.21 217.396 136.86 218.015C137.522 218.634 137.852 219.466 137.852 220.511C137.852 220.756 137.826 221.05 137.772 221.391C137.73 221.626 137.655 221.914 137.548 222.255H130.812C130.802 222.33 130.796 222.442 130.796 222.591C130.796 223.22 130.988 223.722 131.372 224.095C131.767 224.468 132.279 224.655 132.908 224.655C133.9 224.655 134.663 224.244 135.196 223.423H137.164C136.759 224.234 136.162 224.9 135.372 225.423C134.583 225.935 133.671 226.191 132.636 226.191C131.9 226.191 131.255 226.047 130.7 225.759C130.146 225.471 129.714 225.06 129.404 224.527C129.095 223.983 128.94 223.348 128.94 222.623C128.94 222.314 128.972 221.983 129.036 221.631C129.196 220.724 129.522 219.93 130.012 219.247C130.503 218.554 131.111 218.02 131.836 217.647C132.572 217.274 133.372 217.087 134.236 217.087ZM135.948 220.943C135.97 220.751 135.98 220.612 135.98 220.527C135.98 219.94 135.783 219.476 135.388 219.135C135.004 218.794 134.503 218.623 133.884 218.623C133.234 218.623 132.647 218.831 132.124 219.247C131.602 219.663 131.244 220.228 131.052 220.943H135.948ZM142.655 214.207L140.559 226.047H138.735L140.831 214.207H142.655ZM145.498 217.231L146.794 223.951L150.554 217.231H152.442L144.762 230.191H142.874L145.418 225.903L143.466 217.231H145.498ZM170.455 217.231L166.167 226.047H164.247L163.639 219.535L160.695 226.047H158.775L157.575 217.231H159.431L160.039 224.319L163.143 217.231H165.047L165.607 224.287L168.663 217.231H170.455ZM172.954 216.063C172.666 216.063 172.432 215.972 172.25 215.791C172.069 215.61 171.978 215.38 171.978 215.103C171.978 214.73 172.117 214.41 172.394 214.143C172.682 213.866 173.008 213.727 173.37 213.727C173.658 213.727 173.888 213.818 174.058 213.999C174.24 214.18 174.33 214.41 174.33 214.687C174.33 215.06 174.192 215.386 173.914 215.663C173.637 215.93 173.317 216.063 172.954 216.063ZM173.642 217.231L172.09 226.047H170.266L171.818 217.231H173.642ZM177.045 223.599C177.024 223.748 177.013 223.844 177.013 223.887C177.013 224.111 177.083 224.276 177.221 224.383C177.36 224.479 177.589 224.527 177.909 224.527H179.029L178.757 226.047H177.317C176.613 226.047 176.075 225.908 175.701 225.631C175.328 225.343 175.141 224.89 175.141 224.271C175.141 224.036 175.163 223.812 175.205 223.599L176.069 218.719H175.029L175.285 217.231H176.341L176.725 215.039H178.565L178.181 217.231H180.309L180.053 218.719H177.909L177.045 223.599ZM186.582 217.087C187.468 217.087 188.177 217.338 188.71 217.839C189.244 218.33 189.51 219.034 189.51 219.951C189.51 220.196 189.484 220.495 189.43 220.847L188.502 226.047H186.694L187.574 221.119C187.617 220.82 187.638 220.607 187.638 220.479C187.638 219.892 187.473 219.444 187.142 219.135C186.822 218.826 186.374 218.671 185.798 218.671C185.105 218.671 184.518 218.884 184.038 219.311C183.569 219.727 183.27 220.33 183.142 221.119V221.087L182.262 226.047H180.438L182.534 214.207H184.358L183.638 218.255C184.012 217.882 184.454 217.594 184.966 217.391C185.478 217.188 186.017 217.087 186.582 217.087ZM194.685 226.191C193.938 226.191 193.282 226.036 192.717 225.727C192.152 225.418 191.709 224.98 191.389 224.415C191.08 223.85 190.925 223.204 190.925 222.479C190.925 221.487 191.154 220.58 191.613 219.759C192.082 218.938 192.722 218.287 193.533 217.807C194.354 217.327 195.266 217.087 196.269 217.087C197.016 217.087 197.677 217.247 198.253 217.567C198.829 217.876 199.277 218.314 199.597 218.879C199.928 219.434 200.093 220.079 200.093 220.815C200.093 221.807 199.853 222.714 199.373 223.535C198.893 224.356 198.242 225.007 197.421 225.487C196.6 225.956 195.688 226.191 194.685 226.191ZM194.909 224.655C195.517 224.655 196.072 224.484 196.573 224.143C197.085 223.791 197.485 223.332 197.773 222.767C198.061 222.191 198.205 221.578 198.205 220.927C198.205 220.191 197.997 219.626 197.581 219.231C197.165 218.826 196.642 218.623 196.013 218.623C195.394 218.623 194.84 218.799 194.349 219.151C193.869 219.492 193.49 219.956 193.213 220.543C192.946 221.119 192.813 221.738 192.813 222.399C192.813 223.114 193.005 223.668 193.389 224.063C193.784 224.458 194.29 224.655 194.909 224.655ZM210.568 217.231L209.016 226.047H207.192L207.368 225.007C207.016 225.37 206.589 225.658 206.088 225.871C205.597 226.074 205.091 226.175 204.568 226.175C203.64 226.175 202.899 225.924 202.344 225.423C201.789 224.922 201.512 224.212 201.512 223.295C201.512 223.05 201.539 222.756 201.592 222.415L202.504 217.231H204.312L203.448 222.143C203.405 222.442 203.384 222.655 203.384 222.783C203.384 223.37 203.544 223.818 203.864 224.127C204.195 224.436 204.648 224.591 205.224 224.591C205.896 224.591 206.467 224.394 206.936 223.999C207.405 223.594 207.715 223.012 207.864 222.255L208.744 217.231H210.568ZM213.983 223.599C213.961 223.748 213.951 223.844 213.951 223.887C213.951 224.111 214.02 224.276 214.159 224.383C214.297 224.479 214.527 224.527 214.847 224.527H215.967L215.695 226.047H214.255C213.551 226.047 213.012 225.908 212.639 225.631C212.265 225.343 212.079 224.89 212.079 224.271C212.079 224.036 212.1 223.812 212.143 223.599L213.007 218.719H211.967L212.223 217.231H213.279L213.663 215.039H215.503L215.119 217.231H217.247L216.991 218.719H214.847L213.983 223.599ZM225.421 226.191C224.813 226.191 224.258 226.09 223.757 225.887C223.255 225.674 222.861 225.38 222.573 225.007C222.285 224.623 222.141 224.186 222.141 223.695C222.141 223.61 222.151 223.492 222.173 223.343H223.949C223.906 223.748 224.029 224.084 224.317 224.351C224.605 224.618 225.01 224.751 225.533 224.751C226.045 224.751 226.466 224.66 226.797 224.479C227.127 224.298 227.293 224.031 227.293 223.679C227.293 223.38 227.154 223.14 226.877 222.959C226.61 222.778 226.178 222.575 225.581 222.351C225.015 222.127 224.557 221.919 224.205 221.727C223.853 221.535 223.549 221.274 223.293 220.943C223.037 220.602 222.909 220.18 222.909 219.679C222.909 219.167 223.053 218.719 223.341 218.335C223.639 217.94 224.05 217.636 224.573 217.423C225.106 217.199 225.714 217.087 226.397 217.087C227.015 217.087 227.565 217.194 228.045 217.407C228.535 217.61 228.914 217.903 229.181 218.287C229.458 218.66 229.597 219.092 229.597 219.583C229.597 219.732 229.591 219.844 229.581 219.919H227.853C227.895 219.503 227.773 219.167 227.485 218.911C227.207 218.655 226.807 218.527 226.285 218.527C225.826 218.527 225.453 218.623 225.165 218.815C224.887 219.007 224.749 219.268 224.749 219.599C224.749 219.93 224.893 220.196 225.181 220.399C225.469 220.591 225.911 220.804 226.509 221.039C227.053 221.252 227.495 221.455 227.837 221.647C228.178 221.839 228.471 222.095 228.717 222.415C228.962 222.735 229.085 223.135 229.085 223.615C229.085 224.138 228.925 224.596 228.605 224.991C228.295 225.375 227.863 225.674 227.309 225.887C226.754 226.09 226.125 226.191 225.421 226.191ZM236.096 217.087C237.194 217.087 238.069 217.396 238.72 218.015C239.381 218.634 239.712 219.466 239.712 220.511C239.712 220.756 239.685 221.05 239.632 221.391C239.589 221.626 239.514 221.914 239.408 222.255H232.672C232.661 222.33 232.656 222.442 232.656 222.591C232.656 223.22 232.848 223.722 233.232 224.095C233.626 224.468 234.138 224.655 234.768 224.655C235.76 224.655 236.522 224.244 237.056 223.423H239.024C238.618 224.234 238.021 224.9 237.232 225.423C236.442 225.935 235.53 226.191 234.496 226.191C233.76 226.191 233.114 226.047 232.56 225.759C232.005 225.471 231.573 225.06 231.264 224.527C230.954 223.983 230.8 223.348 230.8 222.623C230.8 222.314 230.832 221.983 230.896 221.631C231.056 220.724 231.381 219.93 231.872 219.247C232.362 218.554 232.97 218.02 233.696 217.647C234.432 217.274 235.232 217.087 236.096 217.087ZM237.808 220.943C237.829 220.751 237.84 220.612 237.84 220.527C237.84 219.94 237.642 219.476 237.248 219.135C236.864 218.794 236.362 218.623 235.744 218.623C235.093 218.623 234.506 218.831 233.984 219.247C233.461 219.663 233.104 220.228 232.912 220.943H237.808ZM245.971 217.087C247.069 217.087 247.944 217.396 248.595 218.015C249.256 218.634 249.587 219.466 249.587 220.511C249.587 220.756 249.56 221.05 249.507 221.391C249.464 221.626 249.389 221.914 249.283 222.255H242.547C242.536 222.33 242.531 222.442 242.531 222.591C242.531 223.22 242.723 223.722 243.107 224.095C243.501 224.468 244.013 224.655 244.643 224.655C245.635 224.655 246.397 224.244 246.931 223.423H248.899C248.493 224.234 247.896 224.9 247.107 225.423C246.317 225.935 245.405 226.191 244.371 226.191C243.635 226.191 242.989 226.047 242.435 225.759C241.88 225.471 241.448 225.06 241.139 224.527C240.829 223.983 240.675 223.348 240.675 222.623C240.675 222.314 240.707 221.983 240.771 221.631C240.931 220.724 241.256 219.93 241.747 219.247C242.237 218.554 242.845 218.02 243.571 217.647C244.307 217.274 245.107 217.087 245.971 217.087ZM247.683 220.943C247.704 220.751 247.715 220.612 247.715 220.527C247.715 219.94 247.517 219.476 247.123 219.135C246.739 218.794 246.237 218.623 245.619 218.623C244.968 218.623 244.381 218.831 243.859 219.247C243.336 219.663 242.979 220.228 242.787 220.943H247.683ZM253.158 216.063C252.87 216.063 252.635 215.972 252.454 215.791C252.272 215.61 252.182 215.38 252.182 215.103C252.182 214.73 252.32 214.41 252.598 214.143C252.886 213.866 253.211 213.727 253.574 213.727C253.862 213.727 254.091 213.818 254.262 213.999C254.443 214.18 254.534 214.41 254.534 214.687C254.534 215.06 254.395 215.386 254.118 215.663C253.84 215.93 253.52 216.063 253.158 216.063ZM253.846 217.231L252.294 226.047H250.47L252.022 217.231H253.846ZM260.72 217.087C261.648 217.087 262.384 217.338 262.928 217.839C263.483 218.33 263.76 219.039 263.76 219.967C263.76 220.202 263.734 220.495 263.68 220.847L262.752 226.047H260.944L261.824 221.119C261.867 220.82 261.888 220.607 261.888 220.479C261.888 219.892 261.723 219.444 261.392 219.135C261.072 218.826 260.624 218.671 260.048 218.671C259.355 218.671 258.768 218.884 258.288 219.311C257.819 219.727 257.52 220.33 257.392 221.119V221.071L256.512 226.047H254.688L256.24 217.231H258.064L257.888 218.255C258.251 217.892 258.678 217.61 259.168 217.407C259.67 217.194 260.187 217.087 260.72 217.087ZM270.215 217.087C270.898 217.087 271.479 217.226 271.959 217.503C272.45 217.77 272.802 218.106 273.015 218.511L273.239 217.231H275.079L273.511 226.191C273.362 227.002 273.063 227.722 272.615 228.351C272.167 228.991 271.586 229.492 270.871 229.855C270.156 230.218 269.351 230.399 268.455 230.399C267.676 230.399 266.994 230.271 266.407 230.015C265.82 229.77 265.378 229.412 265.079 228.943C264.78 228.474 264.652 227.919 264.695 227.279H266.503C266.556 227.738 266.786 228.106 267.191 228.383C267.596 228.671 268.114 228.815 268.743 228.815C269.479 228.815 270.114 228.591 270.647 228.143C271.18 227.695 271.522 227.044 271.671 226.191L271.927 224.719C271.543 225.135 271.063 225.487 270.487 225.775C269.911 226.052 269.287 226.191 268.615 226.191C267.943 226.191 267.346 226.042 266.823 225.743C266.3 225.444 265.89 225.023 265.591 224.479C265.303 223.924 265.159 223.29 265.159 222.575C265.159 222.255 265.191 221.93 265.255 221.599C265.415 220.714 265.735 219.93 266.215 219.247C266.706 218.564 267.303 218.036 268.007 217.663C268.711 217.279 269.447 217.087 270.215 217.087ZM272.471 221.631C272.514 221.428 272.535 221.21 272.535 220.975C272.535 220.26 272.322 219.7 271.895 219.295C271.479 218.879 270.956 218.671 270.327 218.671C269.858 218.671 269.399 218.788 268.951 219.023C268.503 219.247 268.114 219.583 267.783 220.031C267.452 220.468 267.234 220.991 267.127 221.599C267.084 221.802 267.063 222.02 267.063 222.255C267.063 222.98 267.271 223.556 267.687 223.983C268.114 224.399 268.642 224.607 269.271 224.607C269.74 224.607 270.199 224.49 270.647 224.255C271.095 224.02 271.484 223.679 271.815 223.231C272.146 222.772 272.364 222.239 272.471 221.631ZM71.0599 247.191C70.3133 247.191 69.6573 247.036 69.0919 246.727C68.5266 246.418 68.0839 245.98 67.7639 245.415C67.4546 244.85 67.2999 244.204 67.2999 243.479C67.2999 242.487 67.5293 241.58 67.9879 240.759C68.4573 239.938 69.0973 239.287 69.9079 238.807C70.7293 238.327 71.6413 238.087 72.6439 238.087C73.3906 238.087 74.0519 238.247 74.6279 238.567C75.2039 238.876 75.6519 239.314 75.9719 239.879C76.3026 240.434 76.4679 241.079 76.4679 241.815C76.4679 242.807 76.2279 243.714 75.7479 244.535C75.2679 245.356 74.6173 246.007 73.7959 246.487C72.9746 246.956 72.0626 247.191 71.0599 247.191ZM71.2839 245.655C71.8919 245.655 72.4466 245.484 72.9479 245.143C73.4599 244.791 73.8599 244.332 74.1479 243.767C74.4359 243.191 74.5799 242.578 74.5799 241.927C74.5799 241.191 74.3719 240.626 73.9559 240.231C73.5399 239.826 73.0173 239.623 72.3879 239.623C71.7693 239.623 71.2146 239.799 70.7239 240.151C70.2439 240.492 69.8653 240.956 69.5879 241.543C69.3213 242.119 69.1879 242.738 69.1879 243.399C69.1879 244.114 69.3799 244.668 69.7639 245.063C70.1586 245.458 70.6653 245.655 71.2839 245.655ZM79.9671 244.599C79.9457 244.748 79.9351 244.844 79.9351 244.887C79.9351 245.111 80.0044 245.276 80.1431 245.383C80.2817 245.479 80.5111 245.527 80.8311 245.527H81.9511L81.6791 247.047H80.2391C79.5351 247.047 78.9964 246.908 78.6231 246.631C78.2497 246.343 78.0631 245.89 78.0631 245.271C78.0631 245.036 78.0844 244.812 78.1271 244.599L78.9911 239.719H77.9511L78.2071 238.231H79.2631L79.6471 236.039H81.4871L81.1031 238.231H83.2311L82.9751 239.719H80.8311L79.9671 244.599ZM89.5042 238.087C90.3895 238.087 91.0989 238.338 91.6322 238.839C92.1655 239.33 92.4322 240.034 92.4322 240.951C92.4322 241.196 92.4055 241.495 92.3522 241.847L91.4242 247.047H89.6162L90.4962 242.119C90.5389 241.82 90.5602 241.607 90.5602 241.479C90.5602 240.892 90.3949 240.444 90.0642 240.135C89.7442 239.826 89.2962 239.671 88.7202 239.671C88.0269 239.671 87.4402 239.884 86.9602 240.311C86.4909 240.727 86.1922 241.33 86.0642 242.119V242.087L85.1842 247.047H83.3602L85.4562 235.207H87.2802L86.5602 239.255C86.9335 238.882 87.3762 238.594 87.8882 238.391C88.4002 238.188 88.9389 238.087 89.5042 238.087ZM99.1268 238.087C100.225 238.087 101.1 238.396 101.751 239.015C102.412 239.634 102.743 240.466 102.743 241.511C102.743 241.756 102.716 242.05 102.663 242.391C102.62 242.626 102.545 242.914 102.439 243.255H95.7028C95.6921 243.33 95.6868 243.442 95.6868 243.591C95.6868 244.22 95.8788 244.722 96.2628 245.095C96.6575 245.468 97.1695 245.655 97.7988 245.655C98.7908 245.655 99.5535 245.244 100.087 244.423H102.055C101.649 245.234 101.052 245.9 100.263 246.423C99.4735 246.935 98.5615 247.191 97.5268 247.191C96.7908 247.191 96.1455 247.047 95.5908 246.759C95.0361 246.471 94.6041 246.06 94.2948 245.527C93.9855 244.983 93.8308 244.348 93.8308 243.623C93.8308 243.314 93.8628 242.983 93.9268 242.631C94.0868 241.724 94.4121 240.93 94.9028 240.247C95.3935 239.554 96.0015 239.02 96.7268 238.647C97.4628 238.274 98.2628 238.087 99.1268 238.087ZM100.839 241.943C100.86 241.751 100.871 241.612 100.871 241.527C100.871 240.94 100.673 240.476 100.279 240.135C99.8948 239.794 99.3935 239.623 98.7748 239.623C98.1241 239.623 97.5375 239.831 97.0148 240.247C96.4921 240.663 96.1348 241.228 95.9428 241.943H100.839ZM106.73 239.783C107.092 239.25 107.519 238.834 108.01 238.535C108.511 238.236 109.066 238.087 109.674 238.087L109.338 239.975H108.874C108.17 239.975 107.604 240.151 107.178 240.503C106.751 240.855 106.452 241.463 106.282 242.327L105.45 247.047H103.626L105.178 238.231H107.002L106.73 239.783ZM119.699 238.087C120.382 238.087 120.963 238.226 121.443 238.503C121.934 238.77 122.286 239.106 122.499 239.511L122.723 238.231H124.563L122.995 247.191C122.846 248.002 122.547 248.722 122.099 249.351C121.651 249.991 121.07 250.492 120.355 250.855C119.641 251.218 118.835 251.399 117.939 251.399C117.161 251.399 116.478 251.271 115.891 251.015C115.305 250.77 114.862 250.412 114.563 249.943C114.265 249.474 114.137 248.919 114.179 248.279H115.987C116.041 248.738 116.27 249.106 116.675 249.383C117.081 249.671 117.598 249.815 118.227 249.815C118.963 249.815 119.598 249.591 120.131 249.143C120.665 248.695 121.006 248.044 121.155 247.191L121.411 245.719C121.027 246.135 120.547 246.487 119.971 246.775C119.395 247.052 118.771 247.191 118.099 247.191C117.427 247.191 116.83 247.042 116.307 246.743C115.785 246.444 115.374 246.023 115.075 245.479C114.787 244.924 114.643 244.29 114.643 243.575C114.643 243.255 114.675 242.93 114.739 242.599C114.899 241.714 115.219 240.93 115.699 240.247C116.19 239.564 116.787 239.036 117.491 238.663C118.195 238.279 118.931 238.087 119.699 238.087ZM121.955 242.631C121.998 242.428 122.019 242.21 122.019 241.975C122.019 241.26 121.806 240.7 121.379 240.295C120.963 239.879 120.441 239.671 119.811 239.671C119.342 239.671 118.883 239.788 118.435 240.023C117.987 240.247 117.598 240.583 117.267 241.031C116.937 241.468 116.718 241.991 116.611 242.599C116.569 242.802 116.547 243.02 116.547 243.255C116.547 243.98 116.755 244.556 117.171 244.983C117.598 245.399 118.126 245.607 118.755 245.607C119.225 245.607 119.683 245.49 120.131 245.255C120.579 245.02 120.969 244.679 121.299 244.231C121.63 243.772 121.849 243.239 121.955 242.631ZM134.943 238.231L133.391 247.047H131.567L131.743 246.007C131.391 246.37 130.964 246.658 130.463 246.871C129.972 247.074 129.466 247.175 128.943 247.175C128.015 247.175 127.274 246.924 126.719 246.423C126.164 245.922 125.887 245.212 125.887 244.295C125.887 244.05 125.914 243.756 125.967 243.415L126.879 238.231H128.687L127.823 243.143C127.78 243.442 127.759 243.655 127.759 243.783C127.759 244.37 127.919 244.818 128.239 245.127C128.57 245.436 129.023 245.591 129.599 245.591C130.271 245.591 130.842 245.394 131.311 244.999C131.78 244.594 132.09 244.012 132.239 243.255L133.119 238.231H134.943ZM138.342 238.231L139.638 244.951L143.398 238.231H145.286L137.606 251.191H135.718L138.262 246.903L136.31 238.231H138.342ZM148.358 247.191C147.75 247.191 147.196 247.09 146.694 246.887C146.193 246.674 145.798 246.38 145.51 246.007C145.222 245.623 145.078 245.186 145.078 244.695C145.078 244.61 145.089 244.492 145.11 244.343H146.886C146.844 244.748 146.966 245.084 147.254 245.351C147.542 245.618 147.948 245.751 148.47 245.751C148.982 245.751 149.404 245.66 149.734 245.479C150.065 245.298 150.23 245.031 150.23 244.679C150.23 244.38 150.092 244.14 149.814 243.959C149.548 243.778 149.116 243.575 148.518 243.351C147.953 243.127 147.494 242.919 147.142 242.727C146.79 242.535 146.486 242.274 146.23 241.943C145.974 241.602 145.846 241.18 145.846 240.679C145.846 240.167 145.99 239.719 146.278 239.335C146.577 238.94 146.988 238.636 147.51 238.423C148.044 238.199 148.652 238.087 149.334 238.087C149.953 238.087 150.502 238.194 150.982 238.407C151.473 238.61 151.852 238.903 152.118 239.287C152.396 239.66 152.534 240.092 152.534 240.583C152.534 240.732 152.529 240.844 152.518 240.919H150.79C150.833 240.503 150.71 240.167 150.422 239.911C150.145 239.655 149.745 239.527 149.222 239.527C148.764 239.527 148.39 239.623 148.102 239.815C147.825 240.007 147.686 240.268 147.686 240.599C147.686 240.93 147.83 241.196 148.118 241.399C148.406 241.591 148.849 241.804 149.446 242.039C149.99 242.252 150.433 242.455 150.774 242.647C151.116 242.839 151.409 243.095 151.654 243.415C151.9 243.735 152.022 244.135 152.022 244.615C152.022 245.138 151.862 245.596 151.542 245.991C151.233 246.375 150.801 246.674 150.246 246.887C149.692 247.09 149.062 247.191 148.358 247.191ZM154.377 247.159C154.089 247.159 153.854 247.068 153.673 246.887C153.492 246.706 153.401 246.476 153.401 246.199C153.401 245.826 153.54 245.506 153.817 245.239C154.105 244.962 154.43 244.823 154.793 244.823C155.081 244.823 155.31 244.914 155.481 245.095C155.662 245.276 155.753 245.506 155.753 245.783C155.753 246.156 155.614 246.482 155.337 246.759C155.06 247.026 154.74 247.159 154.377 247.159ZM175.993 235.927L174.025 247.047H172.201L173.545 239.431L168.809 247.047H167.545L165.481 239.431L164.137 247.047H162.313L164.281 235.927H166.249L168.617 244.647L174.041 235.927H175.993ZM176.599 242.599C176.759 241.714 177.079 240.93 177.559 240.247C178.049 239.564 178.647 239.036 179.351 238.663C180.055 238.279 180.791 238.087 181.559 238.087C182.252 238.087 182.833 238.226 183.303 238.503C183.772 238.77 184.124 239.106 184.359 239.511L184.583 238.231H186.423L184.871 247.047H183.031L183.271 245.735C182.887 246.151 182.401 246.498 181.815 246.775C181.239 247.052 180.609 247.191 179.927 247.191C179.265 247.191 178.673 247.042 178.151 246.743C177.639 246.444 177.233 246.023 176.935 245.479C176.647 244.924 176.503 244.29 176.503 243.575C176.503 243.255 176.535 242.93 176.599 242.599ZM183.815 242.631C183.857 242.428 183.879 242.21 183.879 241.975C183.879 241.26 183.665 240.7 183.239 240.295C182.823 239.879 182.3 239.671 181.671 239.671C181.201 239.671 180.743 239.788 180.295 240.023C179.847 240.247 179.457 240.583 179.127 241.031C178.796 241.468 178.577 241.991 178.471 242.599C178.428 242.802 178.407 243.02 178.407 243.255C178.407 243.98 178.615 244.556 179.031 244.983C179.457 245.399 179.985 245.607 180.615 245.607C181.084 245.607 181.543 245.49 181.991 245.255C182.439 245.02 182.828 244.679 183.159 244.231C183.489 243.772 183.708 243.239 183.815 242.631ZM191.522 242.647L194.818 247.047H192.354L189.762 243.255L189.09 247.047H187.266L189.362 235.207H191.186L189.97 242.071L193.842 238.231H196.37L191.522 242.647ZM201.502 238.087C202.6 238.087 203.475 238.396 204.126 239.015C204.787 239.634 205.118 240.466 205.118 241.511C205.118 241.756 205.091 242.05 205.038 242.391C204.995 242.626 204.92 242.914 204.814 243.255H198.078C198.067 243.33 198.062 243.442 198.062 243.591C198.062 244.22 198.254 244.722 198.638 245.095C199.032 245.468 199.544 245.655 200.174 245.655C201.166 245.655 201.928 245.244 202.462 244.423H204.43C204.024 245.234 203.427 245.9 202.638 246.423C201.848 246.935 200.936 247.191 199.902 247.191C199.166 247.191 198.52 247.047 197.966 246.759C197.411 246.471 196.979 246.06 196.67 245.527C196.36 244.983 196.206 244.348 196.206 243.623C196.206 243.314 196.238 242.983 196.302 242.631C196.462 241.724 196.787 240.93 197.278 240.247C197.768 239.554 198.376 239.02 199.102 238.647C199.838 238.274 200.638 238.087 201.502 238.087ZM203.214 241.943C203.235 241.751 203.246 241.612 203.246 241.527C203.246 240.94 203.048 240.476 202.654 240.135C202.27 239.794 201.768 239.623 201.15 239.623C200.499 239.623 199.912 239.831 199.39 240.247C198.867 240.663 198.51 241.228 198.318 241.943H203.214ZM210.974 242.599C211.134 241.714 211.454 240.93 211.934 240.247C212.424 239.564 213.022 239.036 213.726 238.663C214.43 238.279 215.171 238.087 215.95 238.087C216.526 238.087 217.07 238.215 217.582 238.471C218.094 238.716 218.483 239.047 218.75 239.463L219.502 235.207H221.342L219.246 247.047H217.406L217.646 245.719C217.262 246.156 216.782 246.514 216.206 246.791C215.64 247.058 215.016 247.191 214.334 247.191C213.662 247.191 213.064 247.042 212.542 246.743C212.019 246.444 211.608 246.023 211.31 245.479C211.022 244.924 210.878 244.29 210.878 243.575C210.878 243.255 210.91 242.93 210.974 242.599ZM218.19 242.631C218.232 242.428 218.254 242.21 218.254 241.975C218.254 241.26 218.04 240.7 217.614 240.295C217.198 239.879 216.675 239.671 216.046 239.671C215.576 239.671 215.118 239.788 214.67 240.023C214.222 240.247 213.832 240.583 213.502 241.031C213.171 241.468 212.952 241.991 212.846 242.599C212.803 242.802 212.782 243.02 212.782 243.255C212.782 243.98 212.99 244.556 213.406 244.983C213.832 245.399 214.36 245.607 214.99 245.607C215.459 245.607 215.918 245.49 216.366 245.255C216.814 245.02 217.203 244.679 217.534 244.231C217.864 243.772 218.083 243.239 218.19 242.631ZM227.017 238.087C228.116 238.087 228.991 238.396 229.641 239.015C230.303 239.634 230.633 240.466 230.633 241.511C230.633 241.756 230.607 242.05 230.553 242.391C230.511 242.626 230.436 242.914 230.329 243.255H223.593C223.583 243.33 223.577 243.442 223.577 243.591C223.577 244.22 223.769 244.722 224.153 245.095C224.548 245.468 225.06 245.655 225.689 245.655C226.681 245.655 227.444 245.244 227.977 244.423H229.945C229.54 245.234 228.943 245.9 228.153 246.423C227.364 246.935 226.452 247.191 225.417 247.191C224.681 247.191 224.036 247.047 223.481 246.759C222.927 246.471 222.495 246.06 222.185 245.527C221.876 244.983 221.721 244.348 221.721 243.623C221.721 243.314 221.753 242.983 221.817 242.631C221.977 241.724 222.303 240.93 222.793 240.247C223.284 239.554 223.892 239.02 224.617 238.647C225.353 238.274 226.153 238.087 227.017 238.087ZM228.729 241.943C228.751 241.751 228.761 241.612 228.761 241.527C228.761 240.94 228.564 240.476 228.169 240.135C227.785 239.794 227.284 239.623 226.665 239.623C226.015 239.623 225.428 239.831 224.905 240.247C224.383 240.663 224.025 241.228 223.833 241.943H228.729ZM243.772 238.087C244.7 238.087 245.442 238.338 245.996 238.839C246.551 239.34 246.828 240.05 246.828 240.967C246.828 241.212 246.802 241.506 246.748 241.847L245.82 247.047H244.012L244.892 242.119C244.935 241.82 244.956 241.607 244.956 241.479C244.956 240.892 244.791 240.444 244.46 240.135C244.14 239.826 243.692 239.671 243.116 239.671C242.423 239.671 241.836 239.884 241.356 240.311C240.887 240.727 240.588 241.33 240.46 242.119L239.58 247.047H237.772L238.652 242.119C238.695 241.82 238.716 241.607 238.716 241.479C238.716 240.892 238.551 240.444 238.22 240.135C237.9 239.826 237.452 239.671 236.876 239.671C236.183 239.671 235.596 239.884 235.116 240.311C234.647 240.727 234.348 241.33 234.22 242.119V242.071L233.34 247.047H231.516L233.068 238.231H234.892L234.716 239.255C235.068 238.892 235.49 238.61 235.98 238.407C236.482 238.194 236.999 238.087 237.532 238.087C238.236 238.087 238.839 238.236 239.34 238.535C239.852 238.834 240.21 239.266 240.412 239.831C240.764 239.298 241.25 238.876 241.868 238.567C242.487 238.247 243.122 238.087 243.772 238.087ZM258.97 238.087C259.898 238.087 260.634 238.338 261.178 238.839C261.733 239.33 262.01 240.039 262.01 240.967C262.01 241.202 261.984 241.495 261.93 241.847L261.002 247.047H259.194L260.074 242.119C260.117 241.82 260.138 241.607 260.138 241.479C260.138 240.892 259.973 240.444 259.642 240.135C259.322 239.826 258.874 239.671 258.298 239.671C257.605 239.671 257.018 239.884 256.538 240.311C256.069 240.727 255.77 241.33 255.642 242.119V242.071L254.762 247.047H252.938L254.49 238.231H256.314L256.138 239.255C256.501 238.892 256.928 238.61 257.418 238.407C257.92 238.194 258.437 238.087 258.97 238.087ZM267.185 247.191C266.438 247.191 265.782 247.036 265.217 246.727C264.652 246.418 264.209 245.98 263.889 245.415C263.58 244.85 263.425 244.204 263.425 243.479C263.425 242.487 263.654 241.58 264.113 240.759C264.582 239.938 265.222 239.287 266.033 238.807C266.854 238.327 267.766 238.087 268.769 238.087C269.516 238.087 270.177 238.247 270.753 238.567C271.329 238.876 271.777 239.314 272.097 239.879C272.428 240.434 272.593 241.079 272.593 241.815C272.593 242.807 272.353 243.714 271.873 244.535C271.393 245.356 270.742 246.007 269.921 246.487C269.1 246.956 268.188 247.191 267.185 247.191ZM267.409 245.655C268.017 245.655 268.572 245.484 269.073 245.143C269.585 244.791 269.985 244.332 270.273 243.767C270.561 243.191 270.705 242.578 270.705 241.927C270.705 241.191 270.497 240.626 270.081 240.231C269.665 239.826 269.142 239.623 268.513 239.623C267.894 239.623 267.34 239.799 266.849 240.151C266.369 240.492 265.99 240.956 265.713 241.543C265.446 242.119 265.313 242.738 265.313 243.399C265.313 244.114 265.505 244.668 265.889 245.063C266.284 245.458 266.79 245.655 267.409 245.655ZM120.474 263.631C120.634 262.724 120.954 261.93 121.434 261.247C121.924 260.554 122.527 260.02 123.242 259.647C123.967 259.274 124.751 259.087 125.594 259.087C126.66 259.087 127.498 259.343 128.106 259.855C128.714 260.356 129.06 261.076 129.146 262.015H127.178C127.092 261.578 126.895 261.236 126.586 260.991C126.276 260.746 125.855 260.623 125.322 260.623C124.575 260.623 123.935 260.89 123.402 261.423C122.868 261.946 122.516 262.682 122.346 263.631C122.292 263.972 122.266 264.25 122.266 264.463C122.266 265.167 122.442 265.711 122.794 266.095C123.146 266.468 123.636 266.655 124.266 266.655C125.322 266.655 126.1 266.191 126.602 265.263H128.57C128.154 266.159 127.546 266.874 126.746 267.407C125.956 267.93 125.039 268.191 123.994 268.191C122.884 268.191 122.004 267.876 121.354 267.247C120.703 266.607 120.378 265.743 120.378 264.655C120.378 264.324 120.41 263.983 120.474 263.631ZM130.067 263.599C130.227 262.714 130.547 261.93 131.027 261.247C131.518 260.564 132.115 260.036 132.819 259.663C133.523 259.279 134.259 259.087 135.027 259.087C135.721 259.087 136.302 259.226 136.771 259.503C137.241 259.77 137.593 260.106 137.827 260.511L138.051 259.231H139.891L138.339 268.047H136.499L136.739 266.735C136.355 267.151 135.87 267.498 135.283 267.775C134.707 268.052 134.078 268.191 133.395 268.191C132.734 268.191 132.142 268.042 131.619 267.743C131.107 267.444 130.702 267.023 130.403 266.479C130.115 265.924 129.971 265.29 129.971 264.575C129.971 264.255 130.003 263.93 130.067 263.599ZM137.283 263.631C137.326 263.428 137.347 263.21 137.347 262.975C137.347 262.26 137.134 261.7 136.707 261.295C136.291 260.879 135.769 260.671 135.139 260.671C134.67 260.671 134.211 260.788 133.763 261.023C133.315 261.247 132.926 261.583 132.595 262.031C132.265 262.468 132.046 262.991 131.939 263.599C131.897 263.802 131.875 264.02 131.875 264.255C131.875 264.98 132.083 265.556 132.499 265.983C132.926 266.399 133.454 266.607 134.083 266.607C134.553 266.607 135.011 266.49 135.459 266.255C135.907 266.02 136.297 265.679 136.627 265.231C136.958 264.772 137.177 264.239 137.283 263.631ZM143.839 260.783C144.202 260.25 144.629 259.834 145.119 259.535C145.621 259.236 146.175 259.087 146.783 259.087L146.447 260.975H145.983C145.279 260.975 144.714 261.151 144.287 261.503C143.861 261.855 143.562 262.463 143.391 263.327L142.559 268.047H140.735L142.287 259.231H144.111L143.839 260.783ZM149.98 260.783C150.342 260.25 150.769 259.834 151.26 259.535C151.761 259.236 152.316 259.087 152.924 259.087L152.588 260.975H152.124C151.42 260.975 150.854 261.151 150.428 261.503C150.001 261.855 149.702 262.463 149.532 263.327L148.7 268.047H146.876L148.428 259.231H150.252L149.98 260.783ZM155.56 259.231L156.856 265.951L160.616 259.231H162.504L154.824 272.191H152.936L155.48 267.903L153.528 259.231H155.56ZM167.302 263.599C167.462 262.714 167.782 261.93 168.262 261.247C168.752 260.564 169.35 260.036 170.054 259.663C170.758 259.279 171.494 259.087 172.262 259.087C172.955 259.087 173.536 259.226 174.006 259.503C174.475 259.77 174.827 260.106 175.062 260.511L175.286 259.231H177.126L175.574 268.047H173.734L173.974 266.735C173.59 267.151 173.104 267.498 172.518 267.775C171.942 268.052 171.312 268.191 170.63 268.191C169.968 268.191 169.376 268.042 168.854 267.743C168.342 267.444 167.936 267.023 167.638 266.479C167.35 265.924 167.206 265.29 167.206 264.575C167.206 264.255 167.238 263.93 167.302 263.599ZM174.518 263.631C174.56 263.428 174.582 263.21 174.582 262.975C174.582 262.26 174.368 261.7 173.942 261.295C173.526 260.879 173.003 260.671 172.374 260.671C171.904 260.671 171.446 260.788 170.998 261.023C170.55 261.247 170.16 261.583 169.83 262.031C169.499 262.468 169.28 262.991 169.174 263.599C169.131 263.802 169.11 264.02 169.11 264.255C169.11 264.98 169.318 265.556 169.734 265.983C170.16 266.399 170.688 266.607 171.318 266.607C171.787 266.607 172.246 266.49 172.694 266.255C173.142 266.02 173.531 265.679 173.862 265.231C174.192 264.772 174.411 264.239 174.518 263.631ZM190.226 259.087C191.154 259.087 191.895 259.338 192.45 259.839C193.004 260.34 193.282 261.05 193.282 261.967C193.282 262.212 193.255 262.506 193.202 262.847L192.274 268.047H190.466L191.346 263.119C191.388 262.82 191.41 262.607 191.41 262.479C191.41 261.892 191.244 261.444 190.914 261.135C190.594 260.826 190.146 260.671 189.57 260.671C188.876 260.671 188.29 260.884 187.81 261.311C187.34 261.727 187.042 262.33 186.914 263.119L186.034 268.047H184.226L185.106 263.119C185.148 262.82 185.17 262.607 185.17 262.479C185.17 261.892 185.004 261.444 184.674 261.135C184.354 260.826 183.906 260.671 183.33 260.671C182.636 260.671 182.05 260.884 181.57 261.311C181.1 261.727 180.802 262.33 180.674 263.119V263.071L179.794 268.047H177.97L179.522 259.231H181.346L181.17 260.255C181.522 259.892 181.943 259.61 182.434 259.407C182.935 259.194 183.452 259.087 183.986 259.087C184.69 259.087 185.292 259.236 185.794 259.535C186.306 259.834 186.663 260.266 186.866 260.831C187.218 260.298 187.703 259.876 188.322 259.567C188.94 259.247 189.575 259.087 190.226 259.087ZM204.527 259.087C205.21 259.087 205.791 259.226 206.271 259.503C206.762 259.77 207.114 260.106 207.327 260.511L207.551 259.231H209.391L207.823 268.191C207.674 269.002 207.375 269.722 206.927 270.351C206.479 270.991 205.898 271.492 205.183 271.855C204.469 272.218 203.663 272.399 202.767 272.399C201.989 272.399 201.306 272.271 200.719 272.015C200.133 271.77 199.69 271.412 199.391 270.943C199.093 270.474 198.965 269.919 199.007 269.279H200.815C200.869 269.738 201.098 270.106 201.503 270.383C201.909 270.671 202.426 270.815 203.055 270.815C203.791 270.815 204.426 270.591 204.959 270.143C205.493 269.695 205.834 269.044 205.983 268.191L206.239 266.719C205.855 267.135 205.375 267.487 204.799 267.775C204.223 268.052 203.599 268.191 202.927 268.191C202.255 268.191 201.658 268.042 201.135 267.743C200.613 267.444 200.202 267.023 199.903 266.479C199.615 265.924 199.471 265.29 199.471 264.575C199.471 264.255 199.503 263.93 199.567 263.599C199.727 262.714 200.047 261.93 200.527 261.247C201.018 260.564 201.615 260.036 202.319 259.663C203.023 259.279 203.759 259.087 204.527 259.087ZM206.783 263.631C206.826 263.428 206.847 263.21 206.847 262.975C206.847 262.26 206.634 261.7 206.207 261.295C205.791 260.879 205.269 260.671 204.639 260.671C204.17 260.671 203.711 260.788 203.263 261.023C202.815 261.247 202.426 261.583 202.095 262.031C201.765 262.468 201.546 262.991 201.439 263.599C201.397 263.802 201.375 264.02 201.375 264.255C201.375 264.98 201.583 265.556 201.999 265.983C202.426 266.399 202.954 266.607 203.583 266.607C204.053 266.607 204.511 266.49 204.959 266.255C205.407 266.02 205.797 265.679 206.127 265.231C206.458 264.772 206.677 264.239 206.783 263.631ZM214.091 268.191C213.345 268.191 212.689 268.036 212.123 267.727C211.558 267.418 211.115 266.98 210.795 266.415C210.486 265.85 210.331 265.204 210.331 264.479C210.331 263.487 210.561 262.58 211.019 261.759C211.489 260.938 212.129 260.287 212.939 259.807C213.761 259.327 214.673 259.087 215.675 259.087C216.422 259.087 217.083 259.247 217.659 259.567C218.235 259.876 218.683 260.314 219.003 260.879C219.334 261.434 219.499 262.079 219.499 262.815C219.499 263.807 219.259 264.714 218.779 265.535C218.299 266.356 217.649 267.007 216.827 267.487C216.006 267.956 215.094 268.191 214.091 268.191ZM214.315 266.655C214.923 266.655 215.478 266.484 215.979 266.143C216.491 265.791 216.891 265.332 217.179 264.767C217.467 264.191 217.611 263.578 217.611 262.927C217.611 262.191 217.403 261.626 216.987 261.231C216.571 260.826 216.049 260.623 215.419 260.623C214.801 260.623 214.246 260.799 213.755 261.151C213.275 261.492 212.897 261.956 212.619 262.543C212.353 263.119 212.219 263.738 212.219 264.399C212.219 265.114 212.411 265.668 212.795 266.063C213.19 266.458 213.697 266.655 214.315 266.655Z" fill="#656565"/>
<path d="M148.688 314.411V327.047H145.61V319.469L142.784 327.047H140.3L137.456 319.451V327.047H134.378V314.411H138.014L141.56 323.159L145.07 314.411H148.688ZM152.449 315.959C151.909 315.959 151.465 315.803 151.117 315.491C150.781 315.167 150.613 314.771 150.613 314.303C150.613 313.823 150.781 313.427 151.117 313.115C151.465 312.791 151.909 312.629 152.449 312.629C152.977 312.629 153.409 312.791 153.745 313.115C154.093 313.427 154.267 313.823 154.267 314.303C154.267 314.771 154.093 315.167 153.745 315.491C153.409 315.803 152.977 315.959 152.449 315.959ZM153.979 317.003V327.047H150.901V317.003H153.979ZM155.598 322.025C155.598 320.981 155.808 320.069 156.228 319.289C156.66 318.509 157.254 317.909 158.01 317.489C158.778 317.069 159.654 316.859 160.638 316.859C161.898 316.859 162.948 317.189 163.788 317.849C164.64 318.509 165.198 319.439 165.462 320.639H162.186C161.91 319.871 161.376 319.487 160.584 319.487C160.02 319.487 159.57 319.709 159.234 320.153C158.898 320.585 158.73 321.209 158.73 322.025C158.73 322.841 158.898 323.471 159.234 323.915C159.57 324.347 160.02 324.563 160.584 324.563C161.376 324.563 161.91 324.179 162.186 323.411H165.462C165.198 324.587 164.64 325.511 163.788 326.183C162.936 326.855 161.886 327.191 160.638 327.191C159.654 327.191 158.778 326.981 158.01 326.561C157.254 326.141 156.66 325.541 156.228 324.761C155.808 323.981 155.598 323.069 155.598 322.025ZM173.282 316.895C174.434 316.895 175.358 317.279 176.054 318.047C176.75 318.803 177.098 319.847 177.098 321.179V327.047H174.038V321.593C174.038 320.921 173.864 320.399 173.516 320.027C173.168 319.655 172.7 319.469 172.112 319.469C171.524 319.469 171.056 319.655 170.708 320.027C170.36 320.399 170.186 320.921 170.186 321.593V327.047H167.108V313.727H170.186V318.353C170.498 317.909 170.924 317.555 171.464 317.291C172.004 317.027 172.61 316.895 173.282 316.895ZM188.705 321.863C188.705 322.151 188.687 322.451 188.651 322.763H181.685C181.733 323.387 181.931 323.867 182.279 324.203C182.639 324.527 183.077 324.689 183.593 324.689C184.361 324.689 184.895 324.365 185.195 323.717H188.471C188.303 324.377 187.997 324.971 187.553 325.499C187.121 326.027 186.575 326.441 185.915 326.741C185.255 327.041 184.517 327.191 183.701 327.191C182.717 327.191 181.841 326.981 181.073 326.561C180.305 326.141 179.705 325.541 179.273 324.761C178.841 323.981 178.625 323.069 178.625 322.025C178.625 320.981 178.835 320.069 179.255 319.289C179.687 318.509 180.287 317.909 181.055 317.489C181.823 317.069 182.705 316.859 183.701 316.859C184.673 316.859 185.537 317.063 186.293 317.471C187.049 317.879 187.637 318.461 188.057 319.217C188.489 319.973 188.705 320.855 188.705 321.863ZM185.555 321.053C185.555 320.525 185.375 320.105 185.015 319.793C184.655 319.481 184.205 319.325 183.665 319.325C183.149 319.325 182.711 319.475 182.351 319.775C182.003 320.075 181.787 320.501 181.703 321.053H185.555ZM189.717 322.007C189.717 320.975 189.909 320.069 190.293 319.289C190.689 318.509 191.223 317.909 191.895 317.489C192.567 317.069 193.317 316.859 194.145 316.859C194.853 316.859 195.471 317.003 195.999 317.291C196.539 317.579 196.953 317.957 197.241 318.425V317.003H200.319V327.047H197.241V325.625C196.941 326.093 196.521 326.471 195.981 326.759C195.453 327.047 194.835 327.191 194.127 327.191C193.311 327.191 192.567 326.981 191.895 326.561C191.223 326.129 190.689 325.523 190.293 324.743C189.909 323.951 189.717 323.039 189.717 322.007ZM197.241 322.025C197.241 321.257 197.025 320.651 196.593 320.207C196.173 319.763 195.657 319.541 195.045 319.541C194.433 319.541 193.911 319.763 193.479 320.207C193.059 320.639 192.849 321.239 192.849 322.007C192.849 322.775 193.059 323.387 193.479 323.843C193.911 324.287 194.433 324.509 195.045 324.509C195.657 324.509 196.173 324.287 196.593 323.843C197.025 323.399 197.241 322.793 197.241 322.025ZM205.624 313.727V327.047H202.546V313.727H205.624Z" fill="#444444"/>
<defs>
<filter id="filter0_d_1651_568" x="0" y="0" width="340" height="440" filterUnits="userSpaceOnUse" color-interpolation-filters="sRGB">
<feFlood flood-opacity="0" result="BackgroundImageFix"/>
<feColorMatrix in="SourceAlpha" type="matrix" values="0 0 0 0 0 0 0 0 0 0 0 0 0 0 0 0 0 0 127 0" result="hardAlpha"/>
<feOffset dy="4"/>
<feGaussianBlur stdDeviation="2"/>
<feComposite in2="hardAlpha" operator="out"/>
<feColorMatrix type="matrix" values="0 0 0 0 0 0 0 0 0 0 0 0 0 0 0 0 0 0 0.25 0"/>
<feBlend mode="normal" in2="BackgroundImageFix" result="effect1_dropShadow_1651_568"/>
<feBlend mode="normal" in="SourceGraphic" in2="effect1_dropShadow_1651_568" result="shape"/>
</filter>
</defs>
</svg>
